%TF.GenerationSoftware,KiCad,Pcbnew,(5.1.7)-1*%
%TF.CreationDate,2020-12-29T16:59:20+00:00*%
%TF.ProjectId,ControlMenu-PCB,436f6e74-726f-46c4-9d65-6e752d504342,rev?*%
%TF.SameCoordinates,Original*%
%TF.FileFunction,Legend,Bot*%
%TF.FilePolarity,Positive*%
%FSLAX46Y46*%
G04 Gerber Fmt 4.6, Leading zero omitted, Abs format (unit mm)*
G04 Created by KiCad (PCBNEW (5.1.7)-1) date 2020-12-29 16:59:20*
%MOMM*%
%LPD*%
G01*
G04 APERTURE LIST*
%ADD10C,0.150000*%
%ADD11C,0.120000*%
%ADD12C,0.100000*%
G04 APERTURE END LIST*
D10*
X264380476Y-148472380D02*
X264856666Y-148472380D01*
X264904285Y-148948571D01*
X264856666Y-148900952D01*
X264761428Y-148853333D01*
X264523333Y-148853333D01*
X264428095Y-148900952D01*
X264380476Y-148948571D01*
X264332857Y-149043809D01*
X264332857Y-149281904D01*
X264380476Y-149377142D01*
X264428095Y-149424761D01*
X264523333Y-149472380D01*
X264761428Y-149472380D01*
X264856666Y-149424761D01*
X264904285Y-149377142D01*
X264047142Y-148472380D02*
X263713809Y-149472380D01*
X263380476Y-148472380D01*
X266181428Y-146512380D02*
X266752857Y-146512380D01*
X266467142Y-146512380D02*
X266467142Y-145512380D01*
X266562380Y-145655238D01*
X266657619Y-145750476D01*
X266752857Y-145798095D01*
X265562380Y-145512380D02*
X265467142Y-145512380D01*
X265371904Y-145560000D01*
X265324285Y-145607619D01*
X265276666Y-145702857D01*
X265229047Y-145893333D01*
X265229047Y-146131428D01*
X265276666Y-146321904D01*
X265324285Y-146417142D01*
X265371904Y-146464761D01*
X265467142Y-146512380D01*
X265562380Y-146512380D01*
X265657619Y-146464761D01*
X265705238Y-146417142D01*
X265752857Y-146321904D01*
X265800476Y-146131428D01*
X265800476Y-145893333D01*
X265752857Y-145702857D01*
X265705238Y-145607619D01*
X265657619Y-145560000D01*
X265562380Y-145512380D01*
X264610000Y-145512380D02*
X264514761Y-145512380D01*
X264419523Y-145560000D01*
X264371904Y-145607619D01*
X264324285Y-145702857D01*
X264276666Y-145893333D01*
X264276666Y-146131428D01*
X264324285Y-146321904D01*
X264371904Y-146417142D01*
X264419523Y-146464761D01*
X264514761Y-146512380D01*
X264610000Y-146512380D01*
X264705238Y-146464761D01*
X264752857Y-146417142D01*
X264800476Y-146321904D01*
X264848095Y-146131428D01*
X264848095Y-145893333D01*
X264800476Y-145702857D01*
X264752857Y-145607619D01*
X264705238Y-145560000D01*
X264610000Y-145512380D01*
X263895714Y-146464761D02*
X263800476Y-146512380D01*
X263610000Y-146512380D01*
X263514761Y-146464761D01*
X263467142Y-146369523D01*
X263467142Y-146321904D01*
X263514761Y-146226666D01*
X263610000Y-146179047D01*
X263752857Y-146179047D01*
X263848095Y-146131428D01*
X263895714Y-146036190D01*
X263895714Y-145988571D01*
X263848095Y-145893333D01*
X263752857Y-145845714D01*
X263610000Y-145845714D01*
X263514761Y-145893333D01*
X265175238Y-144142380D02*
X265746666Y-144142380D01*
X265460952Y-144142380D02*
X265460952Y-143142380D01*
X265556190Y-143285238D01*
X265651428Y-143380476D01*
X265746666Y-143428095D01*
X264556190Y-143142380D02*
X264460952Y-143142380D01*
X264365714Y-143190000D01*
X264318095Y-143237619D01*
X264270476Y-143332857D01*
X264222857Y-143523333D01*
X264222857Y-143761428D01*
X264270476Y-143951904D01*
X264318095Y-144047142D01*
X264365714Y-144094761D01*
X264460952Y-144142380D01*
X264556190Y-144142380D01*
X264651428Y-144094761D01*
X264699047Y-144047142D01*
X264746666Y-143951904D01*
X264794285Y-143761428D01*
X264794285Y-143523333D01*
X264746666Y-143332857D01*
X264699047Y-143237619D01*
X264651428Y-143190000D01*
X264556190Y-143142380D01*
X263841904Y-144094761D02*
X263746666Y-144142380D01*
X263556190Y-144142380D01*
X263460952Y-144094761D01*
X263413333Y-143999523D01*
X263413333Y-143951904D01*
X263460952Y-143856666D01*
X263556190Y-143809047D01*
X263699047Y-143809047D01*
X263794285Y-143761428D01*
X263841904Y-143666190D01*
X263841904Y-143618571D01*
X263794285Y-143523333D01*
X263699047Y-143475714D01*
X263556190Y-143475714D01*
X263460952Y-143523333D01*
X264239047Y-141772380D02*
X264810476Y-141772380D01*
X264524761Y-141772380D02*
X264524761Y-140772380D01*
X264620000Y-140915238D01*
X264715238Y-141010476D01*
X264810476Y-141058095D01*
X263858095Y-141724761D02*
X263762857Y-141772380D01*
X263572380Y-141772380D01*
X263477142Y-141724761D01*
X263429523Y-141629523D01*
X263429523Y-141581904D01*
X263477142Y-141486666D01*
X263572380Y-141439047D01*
X263715238Y-141439047D01*
X263810476Y-141391428D01*
X263858095Y-141296190D01*
X263858095Y-141248571D01*
X263810476Y-141153333D01*
X263715238Y-141105714D01*
X263572380Y-141105714D01*
X263477142Y-141153333D01*
X267511428Y-138808571D02*
X267178095Y-138808571D01*
X267035238Y-139332380D02*
X267511428Y-139332380D01*
X267511428Y-138332380D01*
X267035238Y-138332380D01*
X266606666Y-139332380D02*
X266606666Y-138332380D01*
X266035238Y-139332380D01*
X266035238Y-138332380D01*
X265701904Y-138332380D02*
X265130476Y-138332380D01*
X265416190Y-139332380D02*
X265416190Y-138332380D01*
X264797142Y-138808571D02*
X264463809Y-138808571D01*
X264320952Y-139332380D02*
X264797142Y-139332380D01*
X264797142Y-138332380D01*
X264320952Y-138332380D01*
X263320952Y-139332380D02*
X263654285Y-138856190D01*
X263892380Y-139332380D02*
X263892380Y-138332380D01*
X263511428Y-138332380D01*
X263416190Y-138380000D01*
X263368571Y-138427619D01*
X263320952Y-138522857D01*
X263320952Y-138665714D01*
X263368571Y-138760952D01*
X263416190Y-138808571D01*
X263511428Y-138856190D01*
X263892380Y-138856190D01*
X265794285Y-136854761D02*
X265651428Y-136902380D01*
X265413333Y-136902380D01*
X265318095Y-136854761D01*
X265270476Y-136807142D01*
X265222857Y-136711904D01*
X265222857Y-136616666D01*
X265270476Y-136521428D01*
X265318095Y-136473809D01*
X265413333Y-136426190D01*
X265603809Y-136378571D01*
X265699047Y-136330952D01*
X265746666Y-136283333D01*
X265794285Y-136188095D01*
X265794285Y-136092857D01*
X265746666Y-135997619D01*
X265699047Y-135950000D01*
X265603809Y-135902380D01*
X265365714Y-135902380D01*
X265222857Y-135950000D01*
X264794285Y-136902380D02*
X264794285Y-135902380D01*
X264556190Y-135902380D01*
X264413333Y-135950000D01*
X264318095Y-136045238D01*
X264270476Y-136140476D01*
X264222857Y-136330952D01*
X264222857Y-136473809D01*
X264270476Y-136664285D01*
X264318095Y-136759523D01*
X264413333Y-136854761D01*
X264556190Y-136902380D01*
X264794285Y-136902380D01*
X263841904Y-136616666D02*
X263365714Y-136616666D01*
X263937142Y-136902380D02*
X263603809Y-135902380D01*
X263270476Y-136902380D01*
X265580476Y-134214761D02*
X265437619Y-134262380D01*
X265199523Y-134262380D01*
X265104285Y-134214761D01*
X265056666Y-134167142D01*
X265009047Y-134071904D01*
X265009047Y-133976666D01*
X265056666Y-133881428D01*
X265104285Y-133833809D01*
X265199523Y-133786190D01*
X265390000Y-133738571D01*
X265485238Y-133690952D01*
X265532857Y-133643333D01*
X265580476Y-133548095D01*
X265580476Y-133452857D01*
X265532857Y-133357619D01*
X265485238Y-133310000D01*
X265390000Y-133262380D01*
X265151904Y-133262380D01*
X265009047Y-133310000D01*
X264009047Y-134167142D02*
X264056666Y-134214761D01*
X264199523Y-134262380D01*
X264294761Y-134262380D01*
X264437619Y-134214761D01*
X264532857Y-134119523D01*
X264580476Y-134024285D01*
X264628095Y-133833809D01*
X264628095Y-133690952D01*
X264580476Y-133500476D01*
X264532857Y-133405238D01*
X264437619Y-133310000D01*
X264294761Y-133262380D01*
X264199523Y-133262380D01*
X264056666Y-133310000D01*
X264009047Y-133357619D01*
X263104285Y-134262380D02*
X263580476Y-134262380D01*
X263580476Y-133262380D01*
X265211904Y-130880000D02*
X265307142Y-130832380D01*
X265450000Y-130832380D01*
X265592857Y-130880000D01*
X265688095Y-130975238D01*
X265735714Y-131070476D01*
X265783333Y-131260952D01*
X265783333Y-131403809D01*
X265735714Y-131594285D01*
X265688095Y-131689523D01*
X265592857Y-131784761D01*
X265450000Y-131832380D01*
X265354761Y-131832380D01*
X265211904Y-131784761D01*
X265164285Y-131737142D01*
X265164285Y-131403809D01*
X265354761Y-131403809D01*
X264735714Y-131832380D02*
X264735714Y-130832380D01*
X264164285Y-131832380D01*
X264164285Y-130832380D01*
X263688095Y-131832380D02*
X263688095Y-130832380D01*
X263450000Y-130832380D01*
X263307142Y-130880000D01*
X263211904Y-130975238D01*
X263164285Y-131070476D01*
X263116666Y-131260952D01*
X263116666Y-131403809D01*
X263164285Y-131594285D01*
X263211904Y-131689523D01*
X263307142Y-131784761D01*
X263450000Y-131832380D01*
X263688095Y-131832380D01*
X257130476Y-109512380D02*
X257606666Y-109512380D01*
X257654285Y-109988571D01*
X257606666Y-109940952D01*
X257511428Y-109893333D01*
X257273333Y-109893333D01*
X257178095Y-109940952D01*
X257130476Y-109988571D01*
X257082857Y-110083809D01*
X257082857Y-110321904D01*
X257130476Y-110417142D01*
X257178095Y-110464761D01*
X257273333Y-110512380D01*
X257511428Y-110512380D01*
X257606666Y-110464761D01*
X257654285Y-110417142D01*
X256797142Y-109512380D02*
X256463809Y-110512380D01*
X256130476Y-109512380D01*
X258694285Y-113124761D02*
X258551428Y-113172380D01*
X258313333Y-113172380D01*
X258218095Y-113124761D01*
X258170476Y-113077142D01*
X258122857Y-112981904D01*
X258122857Y-112886666D01*
X258170476Y-112791428D01*
X258218095Y-112743809D01*
X258313333Y-112696190D01*
X258503809Y-112648571D01*
X258599047Y-112600952D01*
X258646666Y-112553333D01*
X258694285Y-112458095D01*
X258694285Y-112362857D01*
X258646666Y-112267619D01*
X258599047Y-112220000D01*
X258503809Y-112172380D01*
X258265714Y-112172380D01*
X258122857Y-112220000D01*
X257694285Y-113172380D02*
X257694285Y-112172380D01*
X257456190Y-112172380D01*
X257313333Y-112220000D01*
X257218095Y-112315238D01*
X257170476Y-112410476D01*
X257122857Y-112600952D01*
X257122857Y-112743809D01*
X257170476Y-112934285D01*
X257218095Y-113029523D01*
X257313333Y-113124761D01*
X257456190Y-113172380D01*
X257694285Y-113172380D01*
X256741904Y-112886666D02*
X256265714Y-112886666D01*
X256837142Y-113172380D02*
X256503809Y-112172380D01*
X256170476Y-113172380D01*
X258710476Y-115644761D02*
X258567619Y-115692380D01*
X258329523Y-115692380D01*
X258234285Y-115644761D01*
X258186666Y-115597142D01*
X258139047Y-115501904D01*
X258139047Y-115406666D01*
X258186666Y-115311428D01*
X258234285Y-115263809D01*
X258329523Y-115216190D01*
X258520000Y-115168571D01*
X258615238Y-115120952D01*
X258662857Y-115073333D01*
X258710476Y-114978095D01*
X258710476Y-114882857D01*
X258662857Y-114787619D01*
X258615238Y-114740000D01*
X258520000Y-114692380D01*
X258281904Y-114692380D01*
X258139047Y-114740000D01*
X257139047Y-115597142D02*
X257186666Y-115644761D01*
X257329523Y-115692380D01*
X257424761Y-115692380D01*
X257567619Y-115644761D01*
X257662857Y-115549523D01*
X257710476Y-115454285D01*
X257758095Y-115263809D01*
X257758095Y-115120952D01*
X257710476Y-114930476D01*
X257662857Y-114835238D01*
X257567619Y-114740000D01*
X257424761Y-114692380D01*
X257329523Y-114692380D01*
X257186666Y-114740000D01*
X257139047Y-114787619D01*
X256234285Y-115692380D02*
X256710476Y-115692380D01*
X256710476Y-114692380D01*
X258361904Y-117320000D02*
X258457142Y-117272380D01*
X258600000Y-117272380D01*
X258742857Y-117320000D01*
X258838095Y-117415238D01*
X258885714Y-117510476D01*
X258933333Y-117700952D01*
X258933333Y-117843809D01*
X258885714Y-118034285D01*
X258838095Y-118129523D01*
X258742857Y-118224761D01*
X258600000Y-118272380D01*
X258504761Y-118272380D01*
X258361904Y-118224761D01*
X258314285Y-118177142D01*
X258314285Y-117843809D01*
X258504761Y-117843809D01*
X257885714Y-118272380D02*
X257885714Y-117272380D01*
X257314285Y-118272380D01*
X257314285Y-117272380D01*
X256838095Y-118272380D02*
X256838095Y-117272380D01*
X256600000Y-117272380D01*
X256457142Y-117320000D01*
X256361904Y-117415238D01*
X256314285Y-117510476D01*
X256266666Y-117700952D01*
X256266666Y-117843809D01*
X256314285Y-118034285D01*
X256361904Y-118129523D01*
X256457142Y-118224761D01*
X256600000Y-118272380D01*
X256838095Y-118272380D01*
D11*
%TO.C,J2*%
X267590000Y-109910000D02*
X266320000Y-109910000D01*
X267590000Y-111180000D02*
X267590000Y-109910000D01*
X265277071Y-119180000D02*
X264880000Y-119180000D01*
X265277071Y-118420000D02*
X264880000Y-118420000D01*
X256220000Y-119180000D02*
X262220000Y-119180000D01*
X256220000Y-118420000D02*
X256220000Y-119180000D01*
X262220000Y-118420000D02*
X256220000Y-118420000D01*
X264880000Y-117530000D02*
X262220000Y-117530000D01*
X265277071Y-116640000D02*
X264880000Y-116640000D01*
X265277071Y-115880000D02*
X264880000Y-115880000D01*
X256220000Y-116640000D02*
X262220000Y-116640000D01*
X256220000Y-115880000D02*
X256220000Y-116640000D01*
X262220000Y-115880000D02*
X256220000Y-115880000D01*
X264880000Y-114990000D02*
X262220000Y-114990000D01*
X265277071Y-114100000D02*
X264880000Y-114100000D01*
X265277071Y-113340000D02*
X264880000Y-113340000D01*
X256220000Y-114100000D02*
X262220000Y-114100000D01*
X256220000Y-113340000D02*
X256220000Y-114100000D01*
X262220000Y-113340000D02*
X256220000Y-113340000D01*
X264880000Y-112450000D02*
X262220000Y-112450000D01*
X265210000Y-111560000D02*
X264880000Y-111560000D01*
X265210000Y-110800000D02*
X264880000Y-110800000D01*
X262220000Y-111460000D02*
X256220000Y-111460000D01*
X262220000Y-111340000D02*
X256220000Y-111340000D01*
X262220000Y-111220000D02*
X256220000Y-111220000D01*
X262220000Y-111100000D02*
X256220000Y-111100000D01*
X262220000Y-110980000D02*
X256220000Y-110980000D01*
X262220000Y-110860000D02*
X256220000Y-110860000D01*
X256220000Y-111560000D02*
X262220000Y-111560000D01*
X256220000Y-110800000D02*
X256220000Y-111560000D01*
X262220000Y-110800000D02*
X256220000Y-110800000D01*
X262220000Y-109850000D02*
X264880000Y-109850000D01*
X262220000Y-120130000D02*
X262220000Y-109850000D01*
X264880000Y-120130000D02*
X262220000Y-120130000D01*
X264880000Y-109850000D02*
X264880000Y-120130000D01*
D12*
X262280000Y-119120000D02*
X256280000Y-119120000D01*
X256280000Y-118480000D02*
X256280000Y-119120000D01*
X262280000Y-118480000D02*
X256280000Y-118480000D01*
X266640000Y-119120000D02*
X264820000Y-119120000D01*
X266640000Y-118480000D02*
X266640000Y-119120000D01*
X266640000Y-118480000D02*
X264820000Y-118480000D01*
X262280000Y-116580000D02*
X256280000Y-116580000D01*
X256280000Y-115940000D02*
X256280000Y-116580000D01*
X262280000Y-115940000D02*
X256280000Y-115940000D01*
X266640000Y-116580000D02*
X264820000Y-116580000D01*
X266640000Y-115940000D02*
X266640000Y-116580000D01*
X266640000Y-115940000D02*
X264820000Y-115940000D01*
X262280000Y-114040000D02*
X256280000Y-114040000D01*
X256280000Y-113400000D02*
X256280000Y-114040000D01*
X262280000Y-113400000D02*
X256280000Y-113400000D01*
X266640000Y-114040000D02*
X264820000Y-114040000D01*
X266640000Y-113400000D02*
X266640000Y-114040000D01*
X266640000Y-113400000D02*
X264820000Y-113400000D01*
X262280000Y-111500000D02*
X256280000Y-111500000D01*
X256280000Y-110860000D02*
X256280000Y-111500000D01*
X262280000Y-110860000D02*
X256280000Y-110860000D01*
X266640000Y-111500000D02*
X264820000Y-111500000D01*
X266640000Y-110860000D02*
X266640000Y-111500000D01*
X266640000Y-110860000D02*
X264820000Y-110860000D01*
X264820000Y-110545000D02*
X264185000Y-109910000D01*
X264820000Y-120070000D02*
X264820000Y-110545000D01*
X262280000Y-120070000D02*
X264820000Y-120070000D01*
X262280000Y-109910000D02*
X262280000Y-120070000D01*
X264185000Y-109910000D02*
X262280000Y-109910000D01*
D10*
X262268333Y-108362380D02*
X262268333Y-109076666D01*
X262315952Y-109219523D01*
X262411190Y-109314761D01*
X262554047Y-109362380D01*
X262649285Y-109362380D01*
X261839761Y-108457619D02*
X261792142Y-108410000D01*
X261696904Y-108362380D01*
X261458809Y-108362380D01*
X261363571Y-108410000D01*
X261315952Y-108457619D01*
X261268333Y-108552857D01*
X261268333Y-108648095D01*
X261315952Y-108790952D01*
X261887380Y-109362380D01*
X261268333Y-109362380D01*
X265673095Y-121427142D02*
X265720714Y-121474761D01*
X265863571Y-121522380D01*
X265958809Y-121522380D01*
X266101666Y-121474761D01*
X266196904Y-121379523D01*
X266244523Y-121284285D01*
X266292142Y-121093809D01*
X266292142Y-120950952D01*
X266244523Y-120760476D01*
X266196904Y-120665238D01*
X266101666Y-120570000D01*
X265958809Y-120522380D01*
X265863571Y-120522380D01*
X265720714Y-120570000D01*
X265673095Y-120617619D01*
X265101666Y-121522380D02*
X265196904Y-121474761D01*
X265244523Y-121427142D01*
X265292142Y-121331904D01*
X265292142Y-121046190D01*
X265244523Y-120950952D01*
X265196904Y-120903333D01*
X265101666Y-120855714D01*
X264958809Y-120855714D01*
X264863571Y-120903333D01*
X264815952Y-120950952D01*
X264768333Y-121046190D01*
X264768333Y-121331904D01*
X264815952Y-121427142D01*
X264863571Y-121474761D01*
X264958809Y-121522380D01*
X265101666Y-121522380D01*
X264339761Y-120855714D02*
X264339761Y-121522380D01*
X264339761Y-120950952D02*
X264292142Y-120903333D01*
X264196904Y-120855714D01*
X264054047Y-120855714D01*
X263958809Y-120903333D01*
X263911190Y-120998571D01*
X263911190Y-121522380D01*
X263435000Y-120855714D02*
X263435000Y-121522380D01*
X263435000Y-120950952D02*
X263387380Y-120903333D01*
X263292142Y-120855714D01*
X263149285Y-120855714D01*
X263054047Y-120903333D01*
X263006428Y-120998571D01*
X263006428Y-121522380D01*
X262768333Y-121617619D02*
X262006428Y-121617619D01*
X261577857Y-120522380D02*
X261482619Y-120522380D01*
X261387380Y-120570000D01*
X261339761Y-120617619D01*
X261292142Y-120712857D01*
X261244523Y-120903333D01*
X261244523Y-121141428D01*
X261292142Y-121331904D01*
X261339761Y-121427142D01*
X261387380Y-121474761D01*
X261482619Y-121522380D01*
X261577857Y-121522380D01*
X261673095Y-121474761D01*
X261720714Y-121427142D01*
X261768333Y-121331904D01*
X261815952Y-121141428D01*
X261815952Y-120903333D01*
X261768333Y-120712857D01*
X261720714Y-120617619D01*
X261673095Y-120570000D01*
X261577857Y-120522380D01*
X260292142Y-121522380D02*
X260863571Y-121522380D01*
X260577857Y-121522380D02*
X260577857Y-120522380D01*
X260673095Y-120665238D01*
X260768333Y-120760476D01*
X260863571Y-120808095D01*
X259958809Y-121522380D02*
X259435000Y-120855714D01*
X259958809Y-120855714D02*
X259435000Y-121522380D01*
X258863571Y-120522380D02*
X258768333Y-120522380D01*
X258673095Y-120570000D01*
X258625476Y-120617619D01*
X258577857Y-120712857D01*
X258530238Y-120903333D01*
X258530238Y-121141428D01*
X258577857Y-121331904D01*
X258625476Y-121427142D01*
X258673095Y-121474761D01*
X258768333Y-121522380D01*
X258863571Y-121522380D01*
X258958809Y-121474761D01*
X259006428Y-121427142D01*
X259054047Y-121331904D01*
X259101666Y-121141428D01*
X259101666Y-120903333D01*
X259054047Y-120712857D01*
X259006428Y-120617619D01*
X258958809Y-120570000D01*
X258863571Y-120522380D01*
X257673095Y-120855714D02*
X257673095Y-121522380D01*
X257911190Y-120474761D02*
X258149285Y-121189047D01*
X257530238Y-121189047D01*
X263002380Y-114656666D02*
X263716666Y-114656666D01*
X263859523Y-114609047D01*
X263954761Y-114513809D01*
X264002380Y-114370952D01*
X264002380Y-114275714D01*
X263097619Y-115085238D02*
X263050000Y-115132857D01*
X263002380Y-115228095D01*
X263002380Y-115466190D01*
X263050000Y-115561428D01*
X263097619Y-115609047D01*
X263192857Y-115656666D01*
X263288095Y-115656666D01*
X263430952Y-115609047D01*
X264002380Y-115037619D01*
X264002380Y-115656666D01*
%TD*%
M02*
