G04 #@! TF.GenerationSoftware,KiCad,Pcbnew,(5.1.7)-1*
G04 #@! TF.CreationDate,2020-12-29T17:01:12+00:00*
G04 #@! TF.ProjectId,Panel,50616e65-6c2e-46b6-9963-61645f706362,rev?*
G04 #@! TF.SameCoordinates,Original*
G04 #@! TF.FileFunction,Copper,L1,Top*
G04 #@! TF.FilePolarity,Positive*
%FSLAX46Y46*%
G04 Gerber Fmt 4.6, Leading zero omitted, Abs format (unit mm)*
G04 Created by KiCad (PCBNEW (5.1.7)-1) date 2020-12-29 17:01:12*
%MOMM*%
%LPD*%
G01*
G04 APERTURE LIST*
G04 #@! TA.AperFunction,ComponentPad*
%ADD10C,5.600000*%
G04 #@! TD*
G04 #@! TA.AperFunction,Conductor*
%ADD11C,0.254000*%
G04 #@! TD*
G04 #@! TA.AperFunction,Conductor*
%ADD12C,0.100000*%
G04 #@! TD*
G04 APERTURE END LIST*
D10*
X210120000Y-67290000D03*
X203120000Y-126290000D03*
X120790000Y-128290000D03*
X120790000Y-67300000D03*
X127790000Y-69290000D03*
X127790000Y-126290000D03*
X203120000Y-69290000D03*
X210120000Y-128290000D03*
D11*
X207703517Y-65053125D02*
X207254823Y-65365308D01*
X206934388Y-65961259D01*
X206736374Y-66608273D01*
X206668390Y-67281484D01*
X206733051Y-67955023D01*
X206927870Y-68603006D01*
X207245361Y-69200530D01*
X207254823Y-69214692D01*
X207703519Y-69526876D01*
X209940395Y-67290000D01*
X209926253Y-67275858D01*
X210105858Y-67096253D01*
X210120000Y-67110395D01*
X210134143Y-67096253D01*
X210313748Y-67275858D01*
X210299605Y-67290000D01*
X210313748Y-67304143D01*
X210134143Y-67483748D01*
X210120000Y-67469605D01*
X207883124Y-69706481D01*
X208195308Y-70155177D01*
X208791259Y-70475612D01*
X209438273Y-70673626D01*
X210111484Y-70741610D01*
X210785023Y-70676949D01*
X211433006Y-70482130D01*
X212030530Y-70164639D01*
X212044692Y-70155177D01*
X212356875Y-69706483D01*
X212460001Y-69809609D01*
X212460000Y-125770392D01*
X212356875Y-125873517D01*
X212044692Y-125424823D01*
X211448741Y-125104388D01*
X210801727Y-124906374D01*
X210128516Y-124838390D01*
X209454977Y-124903051D01*
X208806994Y-125097870D01*
X208209470Y-125415361D01*
X208195308Y-125424823D01*
X207883124Y-125873519D01*
X210120000Y-128110395D01*
X210134143Y-128096253D01*
X210313748Y-128275858D01*
X210299605Y-128290000D01*
X210313748Y-128304143D01*
X210134143Y-128483748D01*
X210120000Y-128469605D01*
X210105858Y-128483748D01*
X209926253Y-128304143D01*
X209940395Y-128290000D01*
X207703519Y-126053124D01*
X207254823Y-126365308D01*
X206934388Y-126961259D01*
X206736374Y-127608273D01*
X206668390Y-128281484D01*
X206733051Y-128955023D01*
X206927870Y-129603006D01*
X207245361Y-130200530D01*
X207254823Y-130214692D01*
X207703517Y-130526875D01*
X207600392Y-130630000D01*
X123309608Y-130630000D01*
X123206483Y-130526875D01*
X123655177Y-130214692D01*
X123975612Y-129618741D01*
X124173626Y-128971727D01*
X124200411Y-128706481D01*
X125553124Y-128706481D01*
X125865308Y-129155177D01*
X126461259Y-129475612D01*
X127108273Y-129673626D01*
X127781484Y-129741610D01*
X128455023Y-129676949D01*
X129103006Y-129482130D01*
X129700530Y-129164639D01*
X129714692Y-129155177D01*
X130026876Y-128706481D01*
X200883124Y-128706481D01*
X201195308Y-129155177D01*
X201791259Y-129475612D01*
X202438273Y-129673626D01*
X203111484Y-129741610D01*
X203785023Y-129676949D01*
X204433006Y-129482130D01*
X205030530Y-129164639D01*
X205044692Y-129155177D01*
X205356876Y-128706481D01*
X203120000Y-126469605D01*
X200883124Y-128706481D01*
X130026876Y-128706481D01*
X127790000Y-126469605D01*
X125553124Y-128706481D01*
X124200411Y-128706481D01*
X124241610Y-128298516D01*
X124176949Y-127624977D01*
X123982130Y-126976994D01*
X123664639Y-126379470D01*
X123655177Y-126365308D01*
X123534699Y-126281484D01*
X124338390Y-126281484D01*
X124403051Y-126955023D01*
X124597870Y-127603006D01*
X124915361Y-128200530D01*
X124924823Y-128214692D01*
X125373519Y-128526876D01*
X127610395Y-126290000D01*
X127969605Y-126290000D01*
X130206481Y-128526876D01*
X130655177Y-128214692D01*
X130975612Y-127618741D01*
X131173626Y-126971727D01*
X131241610Y-126298516D01*
X131239975Y-126281484D01*
X199668390Y-126281484D01*
X199733051Y-126955023D01*
X199927870Y-127603006D01*
X200245361Y-128200530D01*
X200254823Y-128214692D01*
X200703519Y-128526876D01*
X202940395Y-126290000D01*
X203299605Y-126290000D01*
X205536481Y-128526876D01*
X205985177Y-128214692D01*
X206305612Y-127618741D01*
X206503626Y-126971727D01*
X206571610Y-126298516D01*
X206506949Y-125624977D01*
X206312130Y-124976994D01*
X205994639Y-124379470D01*
X205985177Y-124365308D01*
X205536481Y-124053124D01*
X203299605Y-126290000D01*
X202940395Y-126290000D01*
X200703519Y-124053124D01*
X200254823Y-124365308D01*
X199934388Y-124961259D01*
X199736374Y-125608273D01*
X199668390Y-126281484D01*
X131239975Y-126281484D01*
X131176949Y-125624977D01*
X130982130Y-124976994D01*
X130670235Y-124390000D01*
X134736807Y-124390000D01*
X134743282Y-124455743D01*
X134749474Y-124518999D01*
X134749531Y-124519186D01*
X134749550Y-124519383D01*
X134768615Y-124582231D01*
X134787141Y-124643431D01*
X134787232Y-124643601D01*
X134787290Y-124643793D01*
X134818360Y-124701922D01*
X134848358Y-124758124D01*
X134848481Y-124758274D01*
X134848575Y-124758450D01*
X134890344Y-124809346D01*
X134930776Y-124858671D01*
X134930925Y-124858794D01*
X134931052Y-124858948D01*
X134982323Y-124901025D01*
X135031226Y-124941207D01*
X135031394Y-124941297D01*
X135031550Y-124941425D01*
X135089752Y-124972534D01*
X135145846Y-125002560D01*
X135146032Y-125002617D01*
X135146207Y-125002710D01*
X135209060Y-125021776D01*
X135270234Y-125040373D01*
X135270426Y-125040392D01*
X135270617Y-125040450D01*
X135336456Y-125046934D01*
X135399610Y-125053192D01*
X135432218Y-125050000D01*
X187527581Y-125050000D01*
X187560000Y-125053193D01*
X187592419Y-125050000D01*
X187689383Y-125040450D01*
X187813793Y-125002710D01*
X187928450Y-124941425D01*
X188028948Y-124858948D01*
X188111425Y-124758450D01*
X188172710Y-124643793D01*
X188210450Y-124519383D01*
X188223193Y-124390000D01*
X188220000Y-124357581D01*
X188220000Y-123873519D01*
X200883124Y-123873519D01*
X203120000Y-126110395D01*
X205356876Y-123873519D01*
X205044692Y-123424823D01*
X204448741Y-123104388D01*
X203801727Y-122906374D01*
X203128516Y-122838390D01*
X202454977Y-122903051D01*
X201806994Y-123097870D01*
X201209470Y-123415361D01*
X201195308Y-123424823D01*
X200883124Y-123873519D01*
X188220000Y-123873519D01*
X188220000Y-107452419D01*
X188223193Y-107420000D01*
X188210450Y-107290617D01*
X188172710Y-107166207D01*
X188111425Y-107051550D01*
X188028948Y-106951052D01*
X187928450Y-106868575D01*
X187813793Y-106807290D01*
X187689383Y-106769550D01*
X187592419Y-106760000D01*
X187560000Y-106756807D01*
X187527581Y-106760000D01*
X135442605Y-106760000D01*
X135410390Y-106756808D01*
X135377782Y-106760000D01*
X135377581Y-106760000D01*
X135344708Y-106763238D01*
X135281001Y-106769474D01*
X135280814Y-106769531D01*
X135280617Y-106769550D01*
X135217769Y-106788615D01*
X135156569Y-106807141D01*
X135156399Y-106807232D01*
X135156207Y-106807290D01*
X135098078Y-106838360D01*
X135041876Y-106868358D01*
X135041726Y-106868481D01*
X135041550Y-106868575D01*
X134990654Y-106910344D01*
X134941329Y-106950776D01*
X134941206Y-106950925D01*
X134941052Y-106951052D01*
X134898975Y-107002323D01*
X134858793Y-107051226D01*
X134858703Y-107051394D01*
X134858575Y-107051550D01*
X134827466Y-107109752D01*
X134797440Y-107165846D01*
X134797383Y-107166032D01*
X134797290Y-107166207D01*
X134778224Y-107229060D01*
X134759627Y-107290234D01*
X134759608Y-107290426D01*
X134759550Y-107290617D01*
X134753060Y-107356516D01*
X134750020Y-107387193D01*
X134750020Y-107387379D01*
X134746807Y-107420000D01*
X134749982Y-107452233D01*
X134740020Y-124357377D01*
X134736807Y-124390000D01*
X130670235Y-124390000D01*
X130664639Y-124379470D01*
X130655177Y-124365308D01*
X130206481Y-124053124D01*
X127969605Y-126290000D01*
X127610395Y-126290000D01*
X125373519Y-124053124D01*
X124924823Y-124365308D01*
X124604388Y-124961259D01*
X124406374Y-125608273D01*
X124338390Y-126281484D01*
X123534699Y-126281484D01*
X123206481Y-126053124D01*
X120969605Y-128290000D01*
X120983748Y-128304143D01*
X120804143Y-128483748D01*
X120790000Y-128469605D01*
X120775858Y-128483748D01*
X120596253Y-128304143D01*
X120610395Y-128290000D01*
X120596253Y-128275858D01*
X120775858Y-128096253D01*
X120790000Y-128110395D01*
X123026876Y-125873519D01*
X122714692Y-125424823D01*
X122118741Y-125104388D01*
X121471727Y-124906374D01*
X120798516Y-124838390D01*
X120124977Y-124903051D01*
X119476994Y-125097870D01*
X118879470Y-125415361D01*
X118865308Y-125424823D01*
X118553125Y-125873517D01*
X118450000Y-125770392D01*
X118450000Y-123873519D01*
X125553124Y-123873519D01*
X127790000Y-126110395D01*
X130026876Y-123873519D01*
X129714692Y-123424823D01*
X129118741Y-123104388D01*
X128471727Y-122906374D01*
X127798516Y-122838390D01*
X127124977Y-122903051D01*
X126476994Y-123097870D01*
X125879470Y-123415361D01*
X125865308Y-123424823D01*
X125553124Y-123873519D01*
X118450000Y-123873519D01*
X118450000Y-75290000D01*
X137126807Y-75290000D01*
X137130000Y-75322419D01*
X137130001Y-103257571D01*
X137126807Y-103290000D01*
X137139550Y-103419383D01*
X137177290Y-103543793D01*
X137238575Y-103658450D01*
X137321052Y-103758948D01*
X137421550Y-103841425D01*
X137536207Y-103902710D01*
X137660617Y-103940450D01*
X137757581Y-103950000D01*
X137790000Y-103953193D01*
X137822419Y-103950000D01*
X183757581Y-103950000D01*
X183790000Y-103953193D01*
X183822419Y-103950000D01*
X183919383Y-103940450D01*
X184043793Y-103902710D01*
X184158450Y-103841425D01*
X184258948Y-103758948D01*
X184341425Y-103658450D01*
X184402710Y-103543793D01*
X184440450Y-103419383D01*
X184453193Y-103290000D01*
X184450000Y-103257581D01*
X184450000Y-75322419D01*
X184453193Y-75290000D01*
X184440450Y-75160617D01*
X184402710Y-75036207D01*
X184341425Y-74921550D01*
X184258948Y-74821052D01*
X184158450Y-74738575D01*
X184043793Y-74677290D01*
X183919383Y-74639550D01*
X183822419Y-74630000D01*
X183790000Y-74626807D01*
X183757581Y-74630000D01*
X137822419Y-74630000D01*
X137790000Y-74626807D01*
X137757581Y-74630000D01*
X137660617Y-74639550D01*
X137536207Y-74677290D01*
X137421550Y-74738575D01*
X137321052Y-74821052D01*
X137238575Y-74921550D01*
X137177290Y-75036207D01*
X137139550Y-75160617D01*
X137126807Y-75290000D01*
X118450000Y-75290000D01*
X118450000Y-71706481D01*
X125553124Y-71706481D01*
X125865308Y-72155177D01*
X126461259Y-72475612D01*
X127108273Y-72673626D01*
X127781484Y-72741610D01*
X128455023Y-72676949D01*
X129103006Y-72482130D01*
X129700530Y-72164639D01*
X129714692Y-72155177D01*
X130026876Y-71706481D01*
X200883124Y-71706481D01*
X201195308Y-72155177D01*
X201791259Y-72475612D01*
X202438273Y-72673626D01*
X203111484Y-72741610D01*
X203785023Y-72676949D01*
X204433006Y-72482130D01*
X205030530Y-72164639D01*
X205044692Y-72155177D01*
X205356876Y-71706481D01*
X203120000Y-69469605D01*
X200883124Y-71706481D01*
X130026876Y-71706481D01*
X127790000Y-69469605D01*
X125553124Y-71706481D01*
X118450000Y-71706481D01*
X118450000Y-69819608D01*
X118553125Y-69716483D01*
X118865308Y-70165177D01*
X119461259Y-70485612D01*
X120108273Y-70683626D01*
X120781484Y-70751610D01*
X121455023Y-70686949D01*
X122103006Y-70492130D01*
X122700530Y-70174639D01*
X122714692Y-70165177D01*
X123026876Y-69716481D01*
X120790000Y-67479605D01*
X120775858Y-67493748D01*
X120596253Y-67314143D01*
X120610395Y-67300000D01*
X120596253Y-67285858D01*
X120775858Y-67106253D01*
X120790000Y-67120395D01*
X120804143Y-67106253D01*
X120983748Y-67285858D01*
X120969605Y-67300000D01*
X123206481Y-69536876D01*
X123573550Y-69281484D01*
X124338390Y-69281484D01*
X124403051Y-69955023D01*
X124597870Y-70603006D01*
X124915361Y-71200530D01*
X124924823Y-71214692D01*
X125373519Y-71526876D01*
X127610395Y-69290000D01*
X127969605Y-69290000D01*
X130206481Y-71526876D01*
X130655177Y-71214692D01*
X130975612Y-70618741D01*
X131173626Y-69971727D01*
X131241610Y-69298516D01*
X131239975Y-69281484D01*
X199668390Y-69281484D01*
X199733051Y-69955023D01*
X199927870Y-70603006D01*
X200245361Y-71200530D01*
X200254823Y-71214692D01*
X200703519Y-71526876D01*
X202940395Y-69290000D01*
X203299605Y-69290000D01*
X205536481Y-71526876D01*
X205985177Y-71214692D01*
X206305612Y-70618741D01*
X206503626Y-69971727D01*
X206571610Y-69298516D01*
X206506949Y-68624977D01*
X206312130Y-67976994D01*
X205994639Y-67379470D01*
X205985177Y-67365308D01*
X205536481Y-67053124D01*
X203299605Y-69290000D01*
X202940395Y-69290000D01*
X200703519Y-67053124D01*
X200254823Y-67365308D01*
X199934388Y-67961259D01*
X199736374Y-68608273D01*
X199668390Y-69281484D01*
X131239975Y-69281484D01*
X131176949Y-68624977D01*
X130982130Y-67976994D01*
X130664639Y-67379470D01*
X130655177Y-67365308D01*
X130206481Y-67053124D01*
X127969605Y-69290000D01*
X127610395Y-69290000D01*
X125373519Y-67053124D01*
X124924823Y-67365308D01*
X124604388Y-67961259D01*
X124406374Y-68608273D01*
X124338390Y-69281484D01*
X123573550Y-69281484D01*
X123655177Y-69224692D01*
X123975612Y-68628741D01*
X124173626Y-67981727D01*
X124241610Y-67308516D01*
X124199850Y-66873519D01*
X125553124Y-66873519D01*
X127790000Y-69110395D01*
X130026876Y-66873519D01*
X200883124Y-66873519D01*
X203120000Y-69110395D01*
X205356876Y-66873519D01*
X205044692Y-66424823D01*
X204448741Y-66104388D01*
X203801727Y-65906374D01*
X203128516Y-65838390D01*
X202454977Y-65903051D01*
X201806994Y-66097870D01*
X201209470Y-66415361D01*
X201195308Y-66424823D01*
X200883124Y-66873519D01*
X130026876Y-66873519D01*
X129714692Y-66424823D01*
X129118741Y-66104388D01*
X128471727Y-65906374D01*
X127798516Y-65838390D01*
X127124977Y-65903051D01*
X126476994Y-66097870D01*
X125879470Y-66415361D01*
X125865308Y-66424823D01*
X125553124Y-66873519D01*
X124199850Y-66873519D01*
X124176949Y-66634977D01*
X123982130Y-65986994D01*
X123664639Y-65389470D01*
X123655177Y-65375308D01*
X123206483Y-65063125D01*
X123319608Y-64950000D01*
X207600392Y-64950000D01*
X207703517Y-65053125D01*
G04 #@! TA.AperFunction,Conductor*
D12*
G36*
X207703517Y-65053125D02*
G01*
X207254823Y-65365308D01*
X206934388Y-65961259D01*
X206736374Y-66608273D01*
X206668390Y-67281484D01*
X206733051Y-67955023D01*
X206927870Y-68603006D01*
X207245361Y-69200530D01*
X207254823Y-69214692D01*
X207703519Y-69526876D01*
X209940395Y-67290000D01*
X209926253Y-67275858D01*
X210105858Y-67096253D01*
X210120000Y-67110395D01*
X210134143Y-67096253D01*
X210313748Y-67275858D01*
X210299605Y-67290000D01*
X210313748Y-67304143D01*
X210134143Y-67483748D01*
X210120000Y-67469605D01*
X207883124Y-69706481D01*
X208195308Y-70155177D01*
X208791259Y-70475612D01*
X209438273Y-70673626D01*
X210111484Y-70741610D01*
X210785023Y-70676949D01*
X211433006Y-70482130D01*
X212030530Y-70164639D01*
X212044692Y-70155177D01*
X212356875Y-69706483D01*
X212460001Y-69809609D01*
X212460000Y-125770392D01*
X212356875Y-125873517D01*
X212044692Y-125424823D01*
X211448741Y-125104388D01*
X210801727Y-124906374D01*
X210128516Y-124838390D01*
X209454977Y-124903051D01*
X208806994Y-125097870D01*
X208209470Y-125415361D01*
X208195308Y-125424823D01*
X207883124Y-125873519D01*
X210120000Y-128110395D01*
X210134143Y-128096253D01*
X210313748Y-128275858D01*
X210299605Y-128290000D01*
X210313748Y-128304143D01*
X210134143Y-128483748D01*
X210120000Y-128469605D01*
X210105858Y-128483748D01*
X209926253Y-128304143D01*
X209940395Y-128290000D01*
X207703519Y-126053124D01*
X207254823Y-126365308D01*
X206934388Y-126961259D01*
X206736374Y-127608273D01*
X206668390Y-128281484D01*
X206733051Y-128955023D01*
X206927870Y-129603006D01*
X207245361Y-130200530D01*
X207254823Y-130214692D01*
X207703517Y-130526875D01*
X207600392Y-130630000D01*
X123309608Y-130630000D01*
X123206483Y-130526875D01*
X123655177Y-130214692D01*
X123975612Y-129618741D01*
X124173626Y-128971727D01*
X124200411Y-128706481D01*
X125553124Y-128706481D01*
X125865308Y-129155177D01*
X126461259Y-129475612D01*
X127108273Y-129673626D01*
X127781484Y-129741610D01*
X128455023Y-129676949D01*
X129103006Y-129482130D01*
X129700530Y-129164639D01*
X129714692Y-129155177D01*
X130026876Y-128706481D01*
X200883124Y-128706481D01*
X201195308Y-129155177D01*
X201791259Y-129475612D01*
X202438273Y-129673626D01*
X203111484Y-129741610D01*
X203785023Y-129676949D01*
X204433006Y-129482130D01*
X205030530Y-129164639D01*
X205044692Y-129155177D01*
X205356876Y-128706481D01*
X203120000Y-126469605D01*
X200883124Y-128706481D01*
X130026876Y-128706481D01*
X127790000Y-126469605D01*
X125553124Y-128706481D01*
X124200411Y-128706481D01*
X124241610Y-128298516D01*
X124176949Y-127624977D01*
X123982130Y-126976994D01*
X123664639Y-126379470D01*
X123655177Y-126365308D01*
X123534699Y-126281484D01*
X124338390Y-126281484D01*
X124403051Y-126955023D01*
X124597870Y-127603006D01*
X124915361Y-128200530D01*
X124924823Y-128214692D01*
X125373519Y-128526876D01*
X127610395Y-126290000D01*
X127969605Y-126290000D01*
X130206481Y-128526876D01*
X130655177Y-128214692D01*
X130975612Y-127618741D01*
X131173626Y-126971727D01*
X131241610Y-126298516D01*
X131239975Y-126281484D01*
X199668390Y-126281484D01*
X199733051Y-126955023D01*
X199927870Y-127603006D01*
X200245361Y-128200530D01*
X200254823Y-128214692D01*
X200703519Y-128526876D01*
X202940395Y-126290000D01*
X203299605Y-126290000D01*
X205536481Y-128526876D01*
X205985177Y-128214692D01*
X206305612Y-127618741D01*
X206503626Y-126971727D01*
X206571610Y-126298516D01*
X206506949Y-125624977D01*
X206312130Y-124976994D01*
X205994639Y-124379470D01*
X205985177Y-124365308D01*
X205536481Y-124053124D01*
X203299605Y-126290000D01*
X202940395Y-126290000D01*
X200703519Y-124053124D01*
X200254823Y-124365308D01*
X199934388Y-124961259D01*
X199736374Y-125608273D01*
X199668390Y-126281484D01*
X131239975Y-126281484D01*
X131176949Y-125624977D01*
X130982130Y-124976994D01*
X130670235Y-124390000D01*
X134736807Y-124390000D01*
X134743282Y-124455743D01*
X134749474Y-124518999D01*
X134749531Y-124519186D01*
X134749550Y-124519383D01*
X134768615Y-124582231D01*
X134787141Y-124643431D01*
X134787232Y-124643601D01*
X134787290Y-124643793D01*
X134818360Y-124701922D01*
X134848358Y-124758124D01*
X134848481Y-124758274D01*
X134848575Y-124758450D01*
X134890344Y-124809346D01*
X134930776Y-124858671D01*
X134930925Y-124858794D01*
X134931052Y-124858948D01*
X134982323Y-124901025D01*
X135031226Y-124941207D01*
X135031394Y-124941297D01*
X135031550Y-124941425D01*
X135089752Y-124972534D01*
X135145846Y-125002560D01*
X135146032Y-125002617D01*
X135146207Y-125002710D01*
X135209060Y-125021776D01*
X135270234Y-125040373D01*
X135270426Y-125040392D01*
X135270617Y-125040450D01*
X135336456Y-125046934D01*
X135399610Y-125053192D01*
X135432218Y-125050000D01*
X187527581Y-125050000D01*
X187560000Y-125053193D01*
X187592419Y-125050000D01*
X187689383Y-125040450D01*
X187813793Y-125002710D01*
X187928450Y-124941425D01*
X188028948Y-124858948D01*
X188111425Y-124758450D01*
X188172710Y-124643793D01*
X188210450Y-124519383D01*
X188223193Y-124390000D01*
X188220000Y-124357581D01*
X188220000Y-123873519D01*
X200883124Y-123873519D01*
X203120000Y-126110395D01*
X205356876Y-123873519D01*
X205044692Y-123424823D01*
X204448741Y-123104388D01*
X203801727Y-122906374D01*
X203128516Y-122838390D01*
X202454977Y-122903051D01*
X201806994Y-123097870D01*
X201209470Y-123415361D01*
X201195308Y-123424823D01*
X200883124Y-123873519D01*
X188220000Y-123873519D01*
X188220000Y-107452419D01*
X188223193Y-107420000D01*
X188210450Y-107290617D01*
X188172710Y-107166207D01*
X188111425Y-107051550D01*
X188028948Y-106951052D01*
X187928450Y-106868575D01*
X187813793Y-106807290D01*
X187689383Y-106769550D01*
X187592419Y-106760000D01*
X187560000Y-106756807D01*
X187527581Y-106760000D01*
X135442605Y-106760000D01*
X135410390Y-106756808D01*
X135377782Y-106760000D01*
X135377581Y-106760000D01*
X135344708Y-106763238D01*
X135281001Y-106769474D01*
X135280814Y-106769531D01*
X135280617Y-106769550D01*
X135217769Y-106788615D01*
X135156569Y-106807141D01*
X135156399Y-106807232D01*
X135156207Y-106807290D01*
X135098078Y-106838360D01*
X135041876Y-106868358D01*
X135041726Y-106868481D01*
X135041550Y-106868575D01*
X134990654Y-106910344D01*
X134941329Y-106950776D01*
X134941206Y-106950925D01*
X134941052Y-106951052D01*
X134898975Y-107002323D01*
X134858793Y-107051226D01*
X134858703Y-107051394D01*
X134858575Y-107051550D01*
X134827466Y-107109752D01*
X134797440Y-107165846D01*
X134797383Y-107166032D01*
X134797290Y-107166207D01*
X134778224Y-107229060D01*
X134759627Y-107290234D01*
X134759608Y-107290426D01*
X134759550Y-107290617D01*
X134753060Y-107356516D01*
X134750020Y-107387193D01*
X134750020Y-107387379D01*
X134746807Y-107420000D01*
X134749982Y-107452233D01*
X134740020Y-124357377D01*
X134736807Y-124390000D01*
X130670235Y-124390000D01*
X130664639Y-124379470D01*
X130655177Y-124365308D01*
X130206481Y-124053124D01*
X127969605Y-126290000D01*
X127610395Y-126290000D01*
X125373519Y-124053124D01*
X124924823Y-124365308D01*
X124604388Y-124961259D01*
X124406374Y-125608273D01*
X124338390Y-126281484D01*
X123534699Y-126281484D01*
X123206481Y-126053124D01*
X120969605Y-128290000D01*
X120983748Y-128304143D01*
X120804143Y-128483748D01*
X120790000Y-128469605D01*
X120775858Y-128483748D01*
X120596253Y-128304143D01*
X120610395Y-128290000D01*
X120596253Y-128275858D01*
X120775858Y-128096253D01*
X120790000Y-128110395D01*
X123026876Y-125873519D01*
X122714692Y-125424823D01*
X122118741Y-125104388D01*
X121471727Y-124906374D01*
X120798516Y-124838390D01*
X120124977Y-124903051D01*
X119476994Y-125097870D01*
X118879470Y-125415361D01*
X118865308Y-125424823D01*
X118553125Y-125873517D01*
X118450000Y-125770392D01*
X118450000Y-123873519D01*
X125553124Y-123873519D01*
X127790000Y-126110395D01*
X130026876Y-123873519D01*
X129714692Y-123424823D01*
X129118741Y-123104388D01*
X128471727Y-122906374D01*
X127798516Y-122838390D01*
X127124977Y-122903051D01*
X126476994Y-123097870D01*
X125879470Y-123415361D01*
X125865308Y-123424823D01*
X125553124Y-123873519D01*
X118450000Y-123873519D01*
X118450000Y-75290000D01*
X137126807Y-75290000D01*
X137130000Y-75322419D01*
X137130001Y-103257571D01*
X137126807Y-103290000D01*
X137139550Y-103419383D01*
X137177290Y-103543793D01*
X137238575Y-103658450D01*
X137321052Y-103758948D01*
X137421550Y-103841425D01*
X137536207Y-103902710D01*
X137660617Y-103940450D01*
X137757581Y-103950000D01*
X137790000Y-103953193D01*
X137822419Y-103950000D01*
X183757581Y-103950000D01*
X183790000Y-103953193D01*
X183822419Y-103950000D01*
X183919383Y-103940450D01*
X184043793Y-103902710D01*
X184158450Y-103841425D01*
X184258948Y-103758948D01*
X184341425Y-103658450D01*
X184402710Y-103543793D01*
X184440450Y-103419383D01*
X184453193Y-103290000D01*
X184450000Y-103257581D01*
X184450000Y-75322419D01*
X184453193Y-75290000D01*
X184440450Y-75160617D01*
X184402710Y-75036207D01*
X184341425Y-74921550D01*
X184258948Y-74821052D01*
X184158450Y-74738575D01*
X184043793Y-74677290D01*
X183919383Y-74639550D01*
X183822419Y-74630000D01*
X183790000Y-74626807D01*
X183757581Y-74630000D01*
X137822419Y-74630000D01*
X137790000Y-74626807D01*
X137757581Y-74630000D01*
X137660617Y-74639550D01*
X137536207Y-74677290D01*
X137421550Y-74738575D01*
X137321052Y-74821052D01*
X137238575Y-74921550D01*
X137177290Y-75036207D01*
X137139550Y-75160617D01*
X137126807Y-75290000D01*
X118450000Y-75290000D01*
X118450000Y-71706481D01*
X125553124Y-71706481D01*
X125865308Y-72155177D01*
X126461259Y-72475612D01*
X127108273Y-72673626D01*
X127781484Y-72741610D01*
X128455023Y-72676949D01*
X129103006Y-72482130D01*
X129700530Y-72164639D01*
X129714692Y-72155177D01*
X130026876Y-71706481D01*
X200883124Y-71706481D01*
X201195308Y-72155177D01*
X201791259Y-72475612D01*
X202438273Y-72673626D01*
X203111484Y-72741610D01*
X203785023Y-72676949D01*
X204433006Y-72482130D01*
X205030530Y-72164639D01*
X205044692Y-72155177D01*
X205356876Y-71706481D01*
X203120000Y-69469605D01*
X200883124Y-71706481D01*
X130026876Y-71706481D01*
X127790000Y-69469605D01*
X125553124Y-71706481D01*
X118450000Y-71706481D01*
X118450000Y-69819608D01*
X118553125Y-69716483D01*
X118865308Y-70165177D01*
X119461259Y-70485612D01*
X120108273Y-70683626D01*
X120781484Y-70751610D01*
X121455023Y-70686949D01*
X122103006Y-70492130D01*
X122700530Y-70174639D01*
X122714692Y-70165177D01*
X123026876Y-69716481D01*
X120790000Y-67479605D01*
X120775858Y-67493748D01*
X120596253Y-67314143D01*
X120610395Y-67300000D01*
X120596253Y-67285858D01*
X120775858Y-67106253D01*
X120790000Y-67120395D01*
X120804143Y-67106253D01*
X120983748Y-67285858D01*
X120969605Y-67300000D01*
X123206481Y-69536876D01*
X123573550Y-69281484D01*
X124338390Y-69281484D01*
X124403051Y-69955023D01*
X124597870Y-70603006D01*
X124915361Y-71200530D01*
X124924823Y-71214692D01*
X125373519Y-71526876D01*
X127610395Y-69290000D01*
X127969605Y-69290000D01*
X130206481Y-71526876D01*
X130655177Y-71214692D01*
X130975612Y-70618741D01*
X131173626Y-69971727D01*
X131241610Y-69298516D01*
X131239975Y-69281484D01*
X199668390Y-69281484D01*
X199733051Y-69955023D01*
X199927870Y-70603006D01*
X200245361Y-71200530D01*
X200254823Y-71214692D01*
X200703519Y-71526876D01*
X202940395Y-69290000D01*
X203299605Y-69290000D01*
X205536481Y-71526876D01*
X205985177Y-71214692D01*
X206305612Y-70618741D01*
X206503626Y-69971727D01*
X206571610Y-69298516D01*
X206506949Y-68624977D01*
X206312130Y-67976994D01*
X205994639Y-67379470D01*
X205985177Y-67365308D01*
X205536481Y-67053124D01*
X203299605Y-69290000D01*
X202940395Y-69290000D01*
X200703519Y-67053124D01*
X200254823Y-67365308D01*
X199934388Y-67961259D01*
X199736374Y-68608273D01*
X199668390Y-69281484D01*
X131239975Y-69281484D01*
X131176949Y-68624977D01*
X130982130Y-67976994D01*
X130664639Y-67379470D01*
X130655177Y-67365308D01*
X130206481Y-67053124D01*
X127969605Y-69290000D01*
X127610395Y-69290000D01*
X125373519Y-67053124D01*
X124924823Y-67365308D01*
X124604388Y-67961259D01*
X124406374Y-68608273D01*
X124338390Y-69281484D01*
X123573550Y-69281484D01*
X123655177Y-69224692D01*
X123975612Y-68628741D01*
X124173626Y-67981727D01*
X124241610Y-67308516D01*
X124199850Y-66873519D01*
X125553124Y-66873519D01*
X127790000Y-69110395D01*
X130026876Y-66873519D01*
X200883124Y-66873519D01*
X203120000Y-69110395D01*
X205356876Y-66873519D01*
X205044692Y-66424823D01*
X204448741Y-66104388D01*
X203801727Y-65906374D01*
X203128516Y-65838390D01*
X202454977Y-65903051D01*
X201806994Y-66097870D01*
X201209470Y-66415361D01*
X201195308Y-66424823D01*
X200883124Y-66873519D01*
X130026876Y-66873519D01*
X129714692Y-66424823D01*
X129118741Y-66104388D01*
X128471727Y-65906374D01*
X127798516Y-65838390D01*
X127124977Y-65903051D01*
X126476994Y-66097870D01*
X125879470Y-66415361D01*
X125865308Y-66424823D01*
X125553124Y-66873519D01*
X124199850Y-66873519D01*
X124176949Y-66634977D01*
X123982130Y-65986994D01*
X123664639Y-65389470D01*
X123655177Y-65375308D01*
X123206483Y-65063125D01*
X123319608Y-64950000D01*
X207600392Y-64950000D01*
X207703517Y-65053125D01*
G37*
G04 #@! TD.AperFunction*
M02*
