%TF.GenerationSoftware,KiCad,Pcbnew,(5.1.7)-1*%
%TF.CreationDate,2020-12-29T16:59:20+00:00*%
%TF.ProjectId,ControlMenu-PCB,436f6e74-726f-46c4-9d65-6e752d504342,rev?*%
%TF.SameCoordinates,Original*%
%TF.FileFunction,Legend,Top*%
%TF.FilePolarity,Positive*%
%FSLAX46Y46*%
G04 Gerber Fmt 4.6, Leading zero omitted, Abs format (unit mm)*
G04 Created by KiCad (PCBNEW (5.1.7)-1) date 2020-12-29 16:59:20*
%MOMM*%
%LPD*%
G01*
G04 APERTURE LIST*
%ADD10C,0.120000*%
%ADD11C,0.100000*%
%ADD12C,0.150000*%
G04 APERTURE END LIST*
D10*
%TO.C,Enter1*%
X245925000Y-140605000D02*
X245815000Y-140565000D01*
X245985000Y-140565000D02*
X246025000Y-140455000D01*
X245865000Y-140335000D02*
X245965000Y-140605000D01*
X245635000Y-140575000D02*
X245525000Y-140535000D01*
X245695000Y-140535000D02*
X245735000Y-140425000D01*
X245575000Y-140305000D02*
X245675000Y-140575000D01*
X245825000Y-139915000D02*
X245505000Y-140215000D01*
X245825000Y-139905000D02*
X245505000Y-139695000D01*
X245935000Y-140225000D02*
X245935000Y-139705000D01*
X245505000Y-140215000D02*
X245505000Y-139695000D01*
X245105000Y-139935000D02*
X246275000Y-139935000D01*
X246565000Y-139925000D02*
X247375000Y-139925000D01*
X243955000Y-139905000D02*
X244765000Y-139905000D01*
X244385000Y-139505000D02*
X244385000Y-140315000D01*
X246927047Y-148535000D02*
G75*
G03*
X246927047Y-148535000I-172047J0D01*
G01*
X245257047Y-148545000D02*
G75*
G03*
X245257047Y-148545000I-172047J0D01*
G01*
X242635000Y-148555000D02*
X244915000Y-148555000D01*
X248715000Y-148505000D02*
X246955000Y-148505000D01*
X246475000Y-148305000D02*
X246665000Y-148875000D01*
X245735000Y-145925000D02*
X246475000Y-148305000D01*
X245735000Y-143475000D02*
X245735000Y-145925000D01*
X242595000Y-143505000D02*
X248885000Y-143505000D01*
X239515000Y-151995000D02*
X251865000Y-151995000D01*
X251865000Y-134995000D02*
X251865000Y-151995000D01*
X239515000Y-134995000D02*
X239515000Y-151995000D01*
X239515000Y-134995000D02*
X251865000Y-134995000D01*
%TO.C,1s1*%
X232655000Y-140605000D02*
X232545000Y-140565000D01*
X232715000Y-140565000D02*
X232755000Y-140455000D01*
X232595000Y-140335000D02*
X232695000Y-140605000D01*
X232365000Y-140575000D02*
X232255000Y-140535000D01*
X232425000Y-140535000D02*
X232465000Y-140425000D01*
X232305000Y-140305000D02*
X232405000Y-140575000D01*
X232555000Y-139915000D02*
X232235000Y-140215000D01*
X232555000Y-139905000D02*
X232235000Y-139695000D01*
X232665000Y-140225000D02*
X232665000Y-139705000D01*
X232235000Y-140215000D02*
X232235000Y-139695000D01*
X231835000Y-139935000D02*
X233005000Y-139935000D01*
X233295000Y-139925000D02*
X234105000Y-139925000D01*
X230685000Y-139905000D02*
X231495000Y-139905000D01*
X231115000Y-139505000D02*
X231115000Y-140315000D01*
X233657047Y-148535000D02*
G75*
G03*
X233657047Y-148535000I-172047J0D01*
G01*
X231987047Y-148545000D02*
G75*
G03*
X231987047Y-148545000I-172047J0D01*
G01*
X229365000Y-148555000D02*
X231645000Y-148555000D01*
X235445000Y-148505000D02*
X233685000Y-148505000D01*
X233205000Y-148305000D02*
X233395000Y-148875000D01*
X232465000Y-145925000D02*
X233205000Y-148305000D01*
X232465000Y-143475000D02*
X232465000Y-145925000D01*
X229325000Y-143505000D02*
X235615000Y-143505000D01*
X226245000Y-151995000D02*
X238595000Y-151995000D01*
X238595000Y-134995000D02*
X238595000Y-151995000D01*
X226245000Y-134995000D02*
X226245000Y-151995000D01*
X226245000Y-134995000D02*
X238595000Y-134995000D01*
%TO.C,10s1*%
X219385000Y-140605000D02*
X219275000Y-140565000D01*
X219445000Y-140565000D02*
X219485000Y-140455000D01*
X219325000Y-140335000D02*
X219425000Y-140605000D01*
X219095000Y-140575000D02*
X218985000Y-140535000D01*
X219155000Y-140535000D02*
X219195000Y-140425000D01*
X219035000Y-140305000D02*
X219135000Y-140575000D01*
X219285000Y-139915000D02*
X218965000Y-140215000D01*
X219285000Y-139905000D02*
X218965000Y-139695000D01*
X219395000Y-140225000D02*
X219395000Y-139705000D01*
X218965000Y-140215000D02*
X218965000Y-139695000D01*
X218565000Y-139935000D02*
X219735000Y-139935000D01*
X220025000Y-139925000D02*
X220835000Y-139925000D01*
X217415000Y-139905000D02*
X218225000Y-139905000D01*
X217845000Y-139505000D02*
X217845000Y-140315000D01*
X220387047Y-148535000D02*
G75*
G03*
X220387047Y-148535000I-172047J0D01*
G01*
X218717047Y-148545000D02*
G75*
G03*
X218717047Y-148545000I-172047J0D01*
G01*
X216095000Y-148555000D02*
X218375000Y-148555000D01*
X222175000Y-148505000D02*
X220415000Y-148505000D01*
X219935000Y-148305000D02*
X220125000Y-148875000D01*
X219195000Y-145925000D02*
X219935000Y-148305000D01*
X219195000Y-143475000D02*
X219195000Y-145925000D01*
X216055000Y-143505000D02*
X222345000Y-143505000D01*
X212975000Y-151995000D02*
X225325000Y-151995000D01*
X225325000Y-134995000D02*
X225325000Y-151995000D01*
X212975000Y-134995000D02*
X212975000Y-151995000D01*
X212975000Y-134995000D02*
X225325000Y-134995000D01*
%TO.C,100s1*%
X206115000Y-140605000D02*
X206005000Y-140565000D01*
X206175000Y-140565000D02*
X206215000Y-140455000D01*
X206055000Y-140335000D02*
X206155000Y-140605000D01*
X205825000Y-140575000D02*
X205715000Y-140535000D01*
X205885000Y-140535000D02*
X205925000Y-140425000D01*
X205765000Y-140305000D02*
X205865000Y-140575000D01*
X206015000Y-139915000D02*
X205695000Y-140215000D01*
X206015000Y-139905000D02*
X205695000Y-139695000D01*
X206125000Y-140225000D02*
X206125000Y-139705000D01*
X205695000Y-140215000D02*
X205695000Y-139695000D01*
X205295000Y-139935000D02*
X206465000Y-139935000D01*
X206755000Y-139925000D02*
X207565000Y-139925000D01*
X204145000Y-139905000D02*
X204955000Y-139905000D01*
X204575000Y-139505000D02*
X204575000Y-140315000D01*
X207117047Y-148535000D02*
G75*
G03*
X207117047Y-148535000I-172047J0D01*
G01*
X205447047Y-148545000D02*
G75*
G03*
X205447047Y-148545000I-172047J0D01*
G01*
X202825000Y-148555000D02*
X205105000Y-148555000D01*
X208905000Y-148505000D02*
X207145000Y-148505000D01*
X206665000Y-148305000D02*
X206855000Y-148875000D01*
X205925000Y-145925000D02*
X206665000Y-148305000D01*
X205925000Y-143475000D02*
X205925000Y-145925000D01*
X202785000Y-143505000D02*
X209075000Y-143505000D01*
X199705000Y-151995000D02*
X212055000Y-151995000D01*
X212055000Y-134995000D02*
X212055000Y-151995000D01*
X199705000Y-134995000D02*
X199705000Y-151995000D01*
X199705000Y-134995000D02*
X212055000Y-134995000D01*
%TO.C,J1*%
X259640000Y-129980000D02*
X260970000Y-129980000D01*
X259640000Y-131310000D02*
X259640000Y-129980000D01*
X259640000Y-132580000D02*
X262300000Y-132580000D01*
X262300000Y-132580000D02*
X262300000Y-150420000D01*
X259640000Y-132580000D02*
X259640000Y-150420000D01*
X259640000Y-150420000D02*
X262300000Y-150420000D01*
D11*
X259700000Y-130675000D02*
X260335000Y-130040000D01*
X259700000Y-150360000D02*
X259700000Y-130675000D01*
X262240000Y-150360000D02*
X259700000Y-150360000D01*
X262240000Y-130040000D02*
X262240000Y-150360000D01*
X260335000Y-130040000D02*
X262240000Y-130040000D01*
%TO.C,REF\u002A\u002A*%
D12*
X266086666Y-93532380D02*
X265753333Y-93056190D01*
X265515238Y-93532380D02*
X265515238Y-92532380D01*
X265896190Y-92532380D01*
X265991428Y-92580000D01*
X266039047Y-92627619D01*
X266086666Y-92722857D01*
X266086666Y-92865714D01*
X266039047Y-92960952D01*
X265991428Y-93008571D01*
X265896190Y-93056190D01*
X265515238Y-93056190D01*
X266515238Y-93008571D02*
X266848571Y-93008571D01*
X266991428Y-93532380D02*
X266515238Y-93532380D01*
X266515238Y-92532380D01*
X266991428Y-92532380D01*
X267753333Y-93008571D02*
X267420000Y-93008571D01*
X267420000Y-93532380D02*
X267420000Y-92532380D01*
X267896190Y-92532380D01*
X268420000Y-92532380D02*
X268420000Y-92770476D01*
X268181904Y-92675238D02*
X268420000Y-92770476D01*
X268658095Y-92675238D01*
X268277142Y-92960952D02*
X268420000Y-92770476D01*
X268562857Y-92960952D01*
X269181904Y-92532380D02*
X269181904Y-92770476D01*
X268943809Y-92675238D02*
X269181904Y-92770476D01*
X269420000Y-92675238D01*
X269039047Y-92960952D02*
X269181904Y-92770476D01*
X269324761Y-92960952D01*
X266086666Y-150532380D02*
X265753333Y-150056190D01*
X265515238Y-150532380D02*
X265515238Y-149532380D01*
X265896190Y-149532380D01*
X265991428Y-149580000D01*
X266039047Y-149627619D01*
X266086666Y-149722857D01*
X266086666Y-149865714D01*
X266039047Y-149960952D01*
X265991428Y-150008571D01*
X265896190Y-150056190D01*
X265515238Y-150056190D01*
X266515238Y-150008571D02*
X266848571Y-150008571D01*
X266991428Y-150532380D02*
X266515238Y-150532380D01*
X266515238Y-149532380D01*
X266991428Y-149532380D01*
X267753333Y-150008571D02*
X267420000Y-150008571D01*
X267420000Y-150532380D02*
X267420000Y-149532380D01*
X267896190Y-149532380D01*
X268420000Y-149532380D02*
X268420000Y-149770476D01*
X268181904Y-149675238D02*
X268420000Y-149770476D01*
X268658095Y-149675238D01*
X268277142Y-149960952D02*
X268420000Y-149770476D01*
X268562857Y-149960952D01*
X269181904Y-149532380D02*
X269181904Y-149770476D01*
X268943809Y-149675238D02*
X269181904Y-149770476D01*
X269420000Y-149675238D01*
X269039047Y-149960952D02*
X269181904Y-149770476D01*
X269324761Y-149960952D01*
X190756666Y-150532380D02*
X190423333Y-150056190D01*
X190185238Y-150532380D02*
X190185238Y-149532380D01*
X190566190Y-149532380D01*
X190661428Y-149580000D01*
X190709047Y-149627619D01*
X190756666Y-149722857D01*
X190756666Y-149865714D01*
X190709047Y-149960952D01*
X190661428Y-150008571D01*
X190566190Y-150056190D01*
X190185238Y-150056190D01*
X191185238Y-150008571D02*
X191518571Y-150008571D01*
X191661428Y-150532380D02*
X191185238Y-150532380D01*
X191185238Y-149532380D01*
X191661428Y-149532380D01*
X192423333Y-150008571D02*
X192090000Y-150008571D01*
X192090000Y-150532380D02*
X192090000Y-149532380D01*
X192566190Y-149532380D01*
X193090000Y-149532380D02*
X193090000Y-149770476D01*
X192851904Y-149675238D02*
X193090000Y-149770476D01*
X193328095Y-149675238D01*
X192947142Y-149960952D02*
X193090000Y-149770476D01*
X193232857Y-149960952D01*
X193851904Y-149532380D02*
X193851904Y-149770476D01*
X193613809Y-149675238D02*
X193851904Y-149770476D01*
X194090000Y-149675238D01*
X193709047Y-149960952D02*
X193851904Y-149770476D01*
X193994761Y-149960952D01*
X190756666Y-93532380D02*
X190423333Y-93056190D01*
X190185238Y-93532380D02*
X190185238Y-92532380D01*
X190566190Y-92532380D01*
X190661428Y-92580000D01*
X190709047Y-92627619D01*
X190756666Y-92722857D01*
X190756666Y-92865714D01*
X190709047Y-92960952D01*
X190661428Y-93008571D01*
X190566190Y-93056190D01*
X190185238Y-93056190D01*
X191185238Y-93008571D02*
X191518571Y-93008571D01*
X191661428Y-93532380D02*
X191185238Y-93532380D01*
X191185238Y-92532380D01*
X191661428Y-92532380D01*
X192423333Y-93008571D02*
X192090000Y-93008571D01*
X192090000Y-93532380D02*
X192090000Y-92532380D01*
X192566190Y-92532380D01*
X193090000Y-92532380D02*
X193090000Y-92770476D01*
X192851904Y-92675238D02*
X193090000Y-92770476D01*
X193328095Y-92675238D01*
X192947142Y-92960952D02*
X193090000Y-92770476D01*
X193232857Y-92960952D01*
X193851904Y-92532380D02*
X193851904Y-92770476D01*
X193613809Y-92675238D02*
X193851904Y-92770476D01*
X194090000Y-92675238D01*
X193709047Y-92960952D02*
X193851904Y-92770476D01*
X193994761Y-92960952D01*
%TO.C,Enter1*%
X247693333Y-153548571D02*
X248026666Y-153548571D01*
X248169523Y-154072380D02*
X247693333Y-154072380D01*
X247693333Y-153072380D01*
X248169523Y-153072380D01*
X248598095Y-153405714D02*
X248598095Y-154072380D01*
X248598095Y-153500952D02*
X248645714Y-153453333D01*
X248740952Y-153405714D01*
X248883809Y-153405714D01*
X248979047Y-153453333D01*
X249026666Y-153548571D01*
X249026666Y-154072380D01*
X249360000Y-153405714D02*
X249740952Y-153405714D01*
X249502857Y-153072380D02*
X249502857Y-153929523D01*
X249550476Y-154024761D01*
X249645714Y-154072380D01*
X249740952Y-154072380D01*
X250455238Y-154024761D02*
X250360000Y-154072380D01*
X250169523Y-154072380D01*
X250074285Y-154024761D01*
X250026666Y-153929523D01*
X250026666Y-153548571D01*
X250074285Y-153453333D01*
X250169523Y-153405714D01*
X250360000Y-153405714D01*
X250455238Y-153453333D01*
X250502857Y-153548571D01*
X250502857Y-153643809D01*
X250026666Y-153739047D01*
X250931428Y-154072380D02*
X250931428Y-153405714D01*
X250931428Y-153596190D02*
X250979047Y-153500952D01*
X251026666Y-153453333D01*
X251121904Y-153405714D01*
X251217142Y-153405714D01*
X252074285Y-154072380D02*
X251502857Y-154072380D01*
X251788571Y-154072380D02*
X251788571Y-153072380D01*
X251693333Y-153215238D01*
X251598095Y-153310476D01*
X251502857Y-153358095D01*
X239728095Y-154072380D02*
X239728095Y-153072380D01*
X240109047Y-153072380D01*
X240204285Y-153120000D01*
X240251904Y-153167619D01*
X240299523Y-153262857D01*
X240299523Y-153405714D01*
X240251904Y-153500952D01*
X240204285Y-153548571D01*
X240109047Y-153596190D01*
X239728095Y-153596190D01*
X241061428Y-153548571D02*
X241204285Y-153596190D01*
X241251904Y-153643809D01*
X241299523Y-153739047D01*
X241299523Y-153881904D01*
X241251904Y-153977142D01*
X241204285Y-154024761D01*
X241109047Y-154072380D01*
X240728095Y-154072380D01*
X240728095Y-153072380D01*
X241061428Y-153072380D01*
X241156666Y-153120000D01*
X241204285Y-153167619D01*
X241251904Y-153262857D01*
X241251904Y-153358095D01*
X241204285Y-153453333D01*
X241156666Y-153500952D01*
X241061428Y-153548571D01*
X240728095Y-153548571D01*
X241728095Y-153691428D02*
X242490000Y-153691428D01*
X243109047Y-153500952D02*
X243013809Y-153453333D01*
X242966190Y-153405714D01*
X242918571Y-153310476D01*
X242918571Y-153262857D01*
X242966190Y-153167619D01*
X243013809Y-153120000D01*
X243109047Y-153072380D01*
X243299523Y-153072380D01*
X243394761Y-153120000D01*
X243442380Y-153167619D01*
X243490000Y-153262857D01*
X243490000Y-153310476D01*
X243442380Y-153405714D01*
X243394761Y-153453333D01*
X243299523Y-153500952D01*
X243109047Y-153500952D01*
X243013809Y-153548571D01*
X242966190Y-153596190D01*
X242918571Y-153691428D01*
X242918571Y-153881904D01*
X242966190Y-153977142D01*
X243013809Y-154024761D01*
X243109047Y-154072380D01*
X243299523Y-154072380D01*
X243394761Y-154024761D01*
X243442380Y-153977142D01*
X243490000Y-153881904D01*
X243490000Y-153691428D01*
X243442380Y-153596190D01*
X243394761Y-153548571D01*
X243299523Y-153500952D01*
X244347142Y-153072380D02*
X244156666Y-153072380D01*
X244061428Y-153120000D01*
X244013809Y-153167619D01*
X243918571Y-153310476D01*
X243870952Y-153500952D01*
X243870952Y-153881904D01*
X243918571Y-153977142D01*
X243966190Y-154024761D01*
X244061428Y-154072380D01*
X244251904Y-154072380D01*
X244347142Y-154024761D01*
X244394761Y-153977142D01*
X244442380Y-153881904D01*
X244442380Y-153643809D01*
X244394761Y-153548571D01*
X244347142Y-153500952D01*
X244251904Y-153453333D01*
X244061428Y-153453333D01*
X243966190Y-153500952D01*
X243918571Y-153548571D01*
X243870952Y-153643809D01*
X244823333Y-153786666D02*
X245299523Y-153786666D01*
X244728095Y-154072380D02*
X245061428Y-153072380D01*
X245394761Y-154072380D01*
%TO.C,1s1*%
X236654761Y-153902380D02*
X236083333Y-153902380D01*
X236369047Y-153902380D02*
X236369047Y-152902380D01*
X236273809Y-153045238D01*
X236178571Y-153140476D01*
X236083333Y-153188095D01*
X237035714Y-153854761D02*
X237130952Y-153902380D01*
X237321428Y-153902380D01*
X237416666Y-153854761D01*
X237464285Y-153759523D01*
X237464285Y-153711904D01*
X237416666Y-153616666D01*
X237321428Y-153569047D01*
X237178571Y-153569047D01*
X237083333Y-153521428D01*
X237035714Y-153426190D01*
X237035714Y-153378571D01*
X237083333Y-153283333D01*
X237178571Y-153235714D01*
X237321428Y-153235714D01*
X237416666Y-153283333D01*
X238416666Y-153902380D02*
X237845238Y-153902380D01*
X238130952Y-153902380D02*
X238130952Y-152902380D01*
X238035714Y-153045238D01*
X237940476Y-153140476D01*
X237845238Y-153188095D01*
X226278095Y-153732380D02*
X226278095Y-152732380D01*
X226659047Y-152732380D01*
X226754285Y-152780000D01*
X226801904Y-152827619D01*
X226849523Y-152922857D01*
X226849523Y-153065714D01*
X226801904Y-153160952D01*
X226754285Y-153208571D01*
X226659047Y-153256190D01*
X226278095Y-153256190D01*
X227611428Y-153208571D02*
X227754285Y-153256190D01*
X227801904Y-153303809D01*
X227849523Y-153399047D01*
X227849523Y-153541904D01*
X227801904Y-153637142D01*
X227754285Y-153684761D01*
X227659047Y-153732380D01*
X227278095Y-153732380D01*
X227278095Y-152732380D01*
X227611428Y-152732380D01*
X227706666Y-152780000D01*
X227754285Y-152827619D01*
X227801904Y-152922857D01*
X227801904Y-153018095D01*
X227754285Y-153113333D01*
X227706666Y-153160952D01*
X227611428Y-153208571D01*
X227278095Y-153208571D01*
X228278095Y-153351428D02*
X229040000Y-153351428D01*
X229659047Y-153160952D02*
X229563809Y-153113333D01*
X229516190Y-153065714D01*
X229468571Y-152970476D01*
X229468571Y-152922857D01*
X229516190Y-152827619D01*
X229563809Y-152780000D01*
X229659047Y-152732380D01*
X229849523Y-152732380D01*
X229944761Y-152780000D01*
X229992380Y-152827619D01*
X230040000Y-152922857D01*
X230040000Y-152970476D01*
X229992380Y-153065714D01*
X229944761Y-153113333D01*
X229849523Y-153160952D01*
X229659047Y-153160952D01*
X229563809Y-153208571D01*
X229516190Y-153256190D01*
X229468571Y-153351428D01*
X229468571Y-153541904D01*
X229516190Y-153637142D01*
X229563809Y-153684761D01*
X229659047Y-153732380D01*
X229849523Y-153732380D01*
X229944761Y-153684761D01*
X229992380Y-153637142D01*
X230040000Y-153541904D01*
X230040000Y-153351428D01*
X229992380Y-153256190D01*
X229944761Y-153208571D01*
X229849523Y-153160952D01*
X230897142Y-152732380D02*
X230706666Y-152732380D01*
X230611428Y-152780000D01*
X230563809Y-152827619D01*
X230468571Y-152970476D01*
X230420952Y-153160952D01*
X230420952Y-153541904D01*
X230468571Y-153637142D01*
X230516190Y-153684761D01*
X230611428Y-153732380D01*
X230801904Y-153732380D01*
X230897142Y-153684761D01*
X230944761Y-153637142D01*
X230992380Y-153541904D01*
X230992380Y-153303809D01*
X230944761Y-153208571D01*
X230897142Y-153160952D01*
X230801904Y-153113333D01*
X230611428Y-153113333D01*
X230516190Y-153160952D01*
X230468571Y-153208571D01*
X230420952Y-153303809D01*
X231373333Y-153446666D02*
X231849523Y-153446666D01*
X231278095Y-153732380D02*
X231611428Y-152732380D01*
X231944761Y-153732380D01*
%TO.C,10s1*%
X222468571Y-153592380D02*
X221897142Y-153592380D01*
X222182857Y-153592380D02*
X222182857Y-152592380D01*
X222087619Y-152735238D01*
X221992380Y-152830476D01*
X221897142Y-152878095D01*
X223087619Y-152592380D02*
X223182857Y-152592380D01*
X223278095Y-152640000D01*
X223325714Y-152687619D01*
X223373333Y-152782857D01*
X223420952Y-152973333D01*
X223420952Y-153211428D01*
X223373333Y-153401904D01*
X223325714Y-153497142D01*
X223278095Y-153544761D01*
X223182857Y-153592380D01*
X223087619Y-153592380D01*
X222992380Y-153544761D01*
X222944761Y-153497142D01*
X222897142Y-153401904D01*
X222849523Y-153211428D01*
X222849523Y-152973333D01*
X222897142Y-152782857D01*
X222944761Y-152687619D01*
X222992380Y-152640000D01*
X223087619Y-152592380D01*
X223801904Y-153544761D02*
X223897142Y-153592380D01*
X224087619Y-153592380D01*
X224182857Y-153544761D01*
X224230476Y-153449523D01*
X224230476Y-153401904D01*
X224182857Y-153306666D01*
X224087619Y-153259047D01*
X223944761Y-153259047D01*
X223849523Y-153211428D01*
X223801904Y-153116190D01*
X223801904Y-153068571D01*
X223849523Y-152973333D01*
X223944761Y-152925714D01*
X224087619Y-152925714D01*
X224182857Y-152973333D01*
X225182857Y-153592380D02*
X224611428Y-153592380D01*
X224897142Y-153592380D02*
X224897142Y-152592380D01*
X224801904Y-152735238D01*
X224706666Y-152830476D01*
X224611428Y-152878095D01*
X213248095Y-153672380D02*
X213248095Y-152672380D01*
X213629047Y-152672380D01*
X213724285Y-152720000D01*
X213771904Y-152767619D01*
X213819523Y-152862857D01*
X213819523Y-153005714D01*
X213771904Y-153100952D01*
X213724285Y-153148571D01*
X213629047Y-153196190D01*
X213248095Y-153196190D01*
X214581428Y-153148571D02*
X214724285Y-153196190D01*
X214771904Y-153243809D01*
X214819523Y-153339047D01*
X214819523Y-153481904D01*
X214771904Y-153577142D01*
X214724285Y-153624761D01*
X214629047Y-153672380D01*
X214248095Y-153672380D01*
X214248095Y-152672380D01*
X214581428Y-152672380D01*
X214676666Y-152720000D01*
X214724285Y-152767619D01*
X214771904Y-152862857D01*
X214771904Y-152958095D01*
X214724285Y-153053333D01*
X214676666Y-153100952D01*
X214581428Y-153148571D01*
X214248095Y-153148571D01*
X215248095Y-153291428D02*
X216010000Y-153291428D01*
X216629047Y-153100952D02*
X216533809Y-153053333D01*
X216486190Y-153005714D01*
X216438571Y-152910476D01*
X216438571Y-152862857D01*
X216486190Y-152767619D01*
X216533809Y-152720000D01*
X216629047Y-152672380D01*
X216819523Y-152672380D01*
X216914761Y-152720000D01*
X216962380Y-152767619D01*
X217010000Y-152862857D01*
X217010000Y-152910476D01*
X216962380Y-153005714D01*
X216914761Y-153053333D01*
X216819523Y-153100952D01*
X216629047Y-153100952D01*
X216533809Y-153148571D01*
X216486190Y-153196190D01*
X216438571Y-153291428D01*
X216438571Y-153481904D01*
X216486190Y-153577142D01*
X216533809Y-153624761D01*
X216629047Y-153672380D01*
X216819523Y-153672380D01*
X216914761Y-153624761D01*
X216962380Y-153577142D01*
X217010000Y-153481904D01*
X217010000Y-153291428D01*
X216962380Y-153196190D01*
X216914761Y-153148571D01*
X216819523Y-153100952D01*
X217867142Y-152672380D02*
X217676666Y-152672380D01*
X217581428Y-152720000D01*
X217533809Y-152767619D01*
X217438571Y-152910476D01*
X217390952Y-153100952D01*
X217390952Y-153481904D01*
X217438571Y-153577142D01*
X217486190Y-153624761D01*
X217581428Y-153672380D01*
X217771904Y-153672380D01*
X217867142Y-153624761D01*
X217914761Y-153577142D01*
X217962380Y-153481904D01*
X217962380Y-153243809D01*
X217914761Y-153148571D01*
X217867142Y-153100952D01*
X217771904Y-153053333D01*
X217581428Y-153053333D01*
X217486190Y-153100952D01*
X217438571Y-153148571D01*
X217390952Y-153243809D01*
X218343333Y-153386666D02*
X218819523Y-153386666D01*
X218248095Y-153672380D02*
X218581428Y-152672380D01*
X218914761Y-153672380D01*
%TO.C,100s1*%
X208112380Y-153762380D02*
X207540952Y-153762380D01*
X207826666Y-153762380D02*
X207826666Y-152762380D01*
X207731428Y-152905238D01*
X207636190Y-153000476D01*
X207540952Y-153048095D01*
X208731428Y-152762380D02*
X208826666Y-152762380D01*
X208921904Y-152810000D01*
X208969523Y-152857619D01*
X209017142Y-152952857D01*
X209064761Y-153143333D01*
X209064761Y-153381428D01*
X209017142Y-153571904D01*
X208969523Y-153667142D01*
X208921904Y-153714761D01*
X208826666Y-153762380D01*
X208731428Y-153762380D01*
X208636190Y-153714761D01*
X208588571Y-153667142D01*
X208540952Y-153571904D01*
X208493333Y-153381428D01*
X208493333Y-153143333D01*
X208540952Y-152952857D01*
X208588571Y-152857619D01*
X208636190Y-152810000D01*
X208731428Y-152762380D01*
X209683809Y-152762380D02*
X209779047Y-152762380D01*
X209874285Y-152810000D01*
X209921904Y-152857619D01*
X209969523Y-152952857D01*
X210017142Y-153143333D01*
X210017142Y-153381428D01*
X209969523Y-153571904D01*
X209921904Y-153667142D01*
X209874285Y-153714761D01*
X209779047Y-153762380D01*
X209683809Y-153762380D01*
X209588571Y-153714761D01*
X209540952Y-153667142D01*
X209493333Y-153571904D01*
X209445714Y-153381428D01*
X209445714Y-153143333D01*
X209493333Y-152952857D01*
X209540952Y-152857619D01*
X209588571Y-152810000D01*
X209683809Y-152762380D01*
X210398095Y-153714761D02*
X210493333Y-153762380D01*
X210683809Y-153762380D01*
X210779047Y-153714761D01*
X210826666Y-153619523D01*
X210826666Y-153571904D01*
X210779047Y-153476666D01*
X210683809Y-153429047D01*
X210540952Y-153429047D01*
X210445714Y-153381428D01*
X210398095Y-153286190D01*
X210398095Y-153238571D01*
X210445714Y-153143333D01*
X210540952Y-153095714D01*
X210683809Y-153095714D01*
X210779047Y-153143333D01*
X211779047Y-153762380D02*
X211207619Y-153762380D01*
X211493333Y-153762380D02*
X211493333Y-152762380D01*
X211398095Y-152905238D01*
X211302857Y-153000476D01*
X211207619Y-153048095D01*
X199698095Y-153672380D02*
X199698095Y-152672380D01*
X200079047Y-152672380D01*
X200174285Y-152720000D01*
X200221904Y-152767619D01*
X200269523Y-152862857D01*
X200269523Y-153005714D01*
X200221904Y-153100952D01*
X200174285Y-153148571D01*
X200079047Y-153196190D01*
X199698095Y-153196190D01*
X201031428Y-153148571D02*
X201174285Y-153196190D01*
X201221904Y-153243809D01*
X201269523Y-153339047D01*
X201269523Y-153481904D01*
X201221904Y-153577142D01*
X201174285Y-153624761D01*
X201079047Y-153672380D01*
X200698095Y-153672380D01*
X200698095Y-152672380D01*
X201031428Y-152672380D01*
X201126666Y-152720000D01*
X201174285Y-152767619D01*
X201221904Y-152862857D01*
X201221904Y-152958095D01*
X201174285Y-153053333D01*
X201126666Y-153100952D01*
X201031428Y-153148571D01*
X200698095Y-153148571D01*
X201698095Y-153291428D02*
X202460000Y-153291428D01*
X203079047Y-153100952D02*
X202983809Y-153053333D01*
X202936190Y-153005714D01*
X202888571Y-152910476D01*
X202888571Y-152862857D01*
X202936190Y-152767619D01*
X202983809Y-152720000D01*
X203079047Y-152672380D01*
X203269523Y-152672380D01*
X203364761Y-152720000D01*
X203412380Y-152767619D01*
X203460000Y-152862857D01*
X203460000Y-152910476D01*
X203412380Y-153005714D01*
X203364761Y-153053333D01*
X203269523Y-153100952D01*
X203079047Y-153100952D01*
X202983809Y-153148571D01*
X202936190Y-153196190D01*
X202888571Y-153291428D01*
X202888571Y-153481904D01*
X202936190Y-153577142D01*
X202983809Y-153624761D01*
X203079047Y-153672380D01*
X203269523Y-153672380D01*
X203364761Y-153624761D01*
X203412380Y-153577142D01*
X203460000Y-153481904D01*
X203460000Y-153291428D01*
X203412380Y-153196190D01*
X203364761Y-153148571D01*
X203269523Y-153100952D01*
X204317142Y-152672380D02*
X204126666Y-152672380D01*
X204031428Y-152720000D01*
X203983809Y-152767619D01*
X203888571Y-152910476D01*
X203840952Y-153100952D01*
X203840952Y-153481904D01*
X203888571Y-153577142D01*
X203936190Y-153624761D01*
X204031428Y-153672380D01*
X204221904Y-153672380D01*
X204317142Y-153624761D01*
X204364761Y-153577142D01*
X204412380Y-153481904D01*
X204412380Y-153243809D01*
X204364761Y-153148571D01*
X204317142Y-153100952D01*
X204221904Y-153053333D01*
X204031428Y-153053333D01*
X203936190Y-153100952D01*
X203888571Y-153148571D01*
X203840952Y-153243809D01*
X204793333Y-153386666D02*
X205269523Y-153386666D01*
X204698095Y-153672380D02*
X205031428Y-152672380D01*
X205364761Y-153672380D01*
%TO.C,J1*%
X256776666Y-130072380D02*
X256776666Y-130786666D01*
X256729047Y-130929523D01*
X256633809Y-131024761D01*
X256490952Y-131072380D01*
X256395714Y-131072380D01*
X257776666Y-131072380D02*
X257205238Y-131072380D01*
X257490952Y-131072380D02*
X257490952Y-130072380D01*
X257395714Y-130215238D01*
X257300476Y-130310476D01*
X257205238Y-130358095D01*
X257231904Y-151777142D02*
X257184285Y-151824761D01*
X257041428Y-151872380D01*
X256946190Y-151872380D01*
X256803333Y-151824761D01*
X256708095Y-151729523D01*
X256660476Y-151634285D01*
X256612857Y-151443809D01*
X256612857Y-151300952D01*
X256660476Y-151110476D01*
X256708095Y-151015238D01*
X256803333Y-150920000D01*
X256946190Y-150872380D01*
X257041428Y-150872380D01*
X257184285Y-150920000D01*
X257231904Y-150967619D01*
X257803333Y-151872380D02*
X257708095Y-151824761D01*
X257660476Y-151777142D01*
X257612857Y-151681904D01*
X257612857Y-151396190D01*
X257660476Y-151300952D01*
X257708095Y-151253333D01*
X257803333Y-151205714D01*
X257946190Y-151205714D01*
X258041428Y-151253333D01*
X258089047Y-151300952D01*
X258136666Y-151396190D01*
X258136666Y-151681904D01*
X258089047Y-151777142D01*
X258041428Y-151824761D01*
X257946190Y-151872380D01*
X257803333Y-151872380D01*
X258565238Y-151205714D02*
X258565238Y-151872380D01*
X258565238Y-151300952D02*
X258612857Y-151253333D01*
X258708095Y-151205714D01*
X258850952Y-151205714D01*
X258946190Y-151253333D01*
X258993809Y-151348571D01*
X258993809Y-151872380D01*
X259470000Y-151205714D02*
X259470000Y-151872380D01*
X259470000Y-151300952D02*
X259517619Y-151253333D01*
X259612857Y-151205714D01*
X259755714Y-151205714D01*
X259850952Y-151253333D01*
X259898571Y-151348571D01*
X259898571Y-151872380D01*
X260136666Y-151967619D02*
X260898571Y-151967619D01*
X261327142Y-150872380D02*
X261422380Y-150872380D01*
X261517619Y-150920000D01*
X261565238Y-150967619D01*
X261612857Y-151062857D01*
X261660476Y-151253333D01*
X261660476Y-151491428D01*
X261612857Y-151681904D01*
X261565238Y-151777142D01*
X261517619Y-151824761D01*
X261422380Y-151872380D01*
X261327142Y-151872380D01*
X261231904Y-151824761D01*
X261184285Y-151777142D01*
X261136666Y-151681904D01*
X261089047Y-151491428D01*
X261089047Y-151253333D01*
X261136666Y-151062857D01*
X261184285Y-150967619D01*
X261231904Y-150920000D01*
X261327142Y-150872380D01*
X262612857Y-151872380D02*
X262041428Y-151872380D01*
X262327142Y-151872380D02*
X262327142Y-150872380D01*
X262231904Y-151015238D01*
X262136666Y-151110476D01*
X262041428Y-151158095D01*
X262946190Y-151872380D02*
X263470000Y-151205714D01*
X262946190Y-151205714D02*
X263470000Y-151872380D01*
X264041428Y-150872380D02*
X264136666Y-150872380D01*
X264231904Y-150920000D01*
X264279523Y-150967619D01*
X264327142Y-151062857D01*
X264374761Y-151253333D01*
X264374761Y-151491428D01*
X264327142Y-151681904D01*
X264279523Y-151777142D01*
X264231904Y-151824761D01*
X264136666Y-151872380D01*
X264041428Y-151872380D01*
X263946190Y-151824761D01*
X263898571Y-151777142D01*
X263850952Y-151681904D01*
X263803333Y-151491428D01*
X263803333Y-151253333D01*
X263850952Y-151062857D01*
X263898571Y-150967619D01*
X263946190Y-150920000D01*
X264041428Y-150872380D01*
X264946190Y-151300952D02*
X264850952Y-151253333D01*
X264803333Y-151205714D01*
X264755714Y-151110476D01*
X264755714Y-151062857D01*
X264803333Y-150967619D01*
X264850952Y-150920000D01*
X264946190Y-150872380D01*
X265136666Y-150872380D01*
X265231904Y-150920000D01*
X265279523Y-150967619D01*
X265327142Y-151062857D01*
X265327142Y-151110476D01*
X265279523Y-151205714D01*
X265231904Y-151253333D01*
X265136666Y-151300952D01*
X264946190Y-151300952D01*
X264850952Y-151348571D01*
X264803333Y-151396190D01*
X264755714Y-151491428D01*
X264755714Y-151681904D01*
X264803333Y-151777142D01*
X264850952Y-151824761D01*
X264946190Y-151872380D01*
X265136666Y-151872380D01*
X265231904Y-151824761D01*
X265279523Y-151777142D01*
X265327142Y-151681904D01*
X265327142Y-151491428D01*
X265279523Y-151396190D01*
X265231904Y-151348571D01*
X265136666Y-151300952D01*
X260422380Y-140533333D02*
X261136666Y-140533333D01*
X261279523Y-140580952D01*
X261374761Y-140676190D01*
X261422380Y-140819047D01*
X261422380Y-140914285D01*
X261422380Y-139533333D02*
X261422380Y-140104761D01*
X261422380Y-139819047D02*
X260422380Y-139819047D01*
X260565238Y-139914285D01*
X260660476Y-140009523D01*
X260708095Y-140104761D01*
%TD*%
M02*
