%TF.GenerationSoftware,KiCad,Pcbnew,(5.1.7)-1*%
%TF.CreationDate,2020-12-29T16:59:20+00:00*%
%TF.ProjectId,ControlMenu-PCB,436f6e74-726f-46c4-9d65-6e752d504342,rev?*%
%TF.SameCoordinates,Original*%
%TF.FileFunction,Copper,L1,Top*%
%TF.FilePolarity,Positive*%
%FSLAX46Y46*%
G04 Gerber Fmt 4.6, Leading zero omitted, Abs format (unit mm)*
G04 Created by KiCad (PCBNEW (5.1.7)-1) date 2020-12-29 16:59:20*
%MOMM*%
%LPD*%
G01*
G04 APERTURE LIST*
%TA.AperFunction,NonConductor*%
%ADD10C,0.300000*%
%TD*%
%TA.AperFunction,NonConductor*%
%ADD11C,0.750000*%
%TD*%
%TA.AperFunction,ComponentPad*%
%ADD12C,5.600000*%
%TD*%
%TA.AperFunction,ComponentPad*%
%ADD13O,1.700000X1.700000*%
%TD*%
%TA.AperFunction,ComponentPad*%
%ADD14R,1.700000X1.700000*%
%TD*%
%TA.AperFunction,ComponentPad*%
%ADD15C,1.524000*%
%TD*%
%TA.AperFunction,Conductor*%
%ADD16C,0.250000*%
%TD*%
G04 APERTURE END LIST*
D10*
X190138571Y-119985714D02*
X190138571Y-119128571D01*
X191638571Y-119557142D02*
X190138571Y-119557142D01*
X191638571Y-118414285D02*
X191567142Y-118557142D01*
X191495714Y-118628571D01*
X191352857Y-118700000D01*
X190924285Y-118700000D01*
X190781428Y-118628571D01*
X190710000Y-118557142D01*
X190638571Y-118414285D01*
X190638571Y-118200000D01*
X190710000Y-118057142D01*
X190781428Y-117985714D01*
X190924285Y-117914285D01*
X191352857Y-117914285D01*
X191495714Y-117985714D01*
X191567142Y-118057142D01*
X191638571Y-118200000D01*
X191638571Y-118414285D01*
X191638571Y-117271428D02*
X190138571Y-117271428D01*
X190710000Y-117271428D02*
X190638571Y-117128571D01*
X190638571Y-116842857D01*
X190710000Y-116700000D01*
X190781428Y-116628571D01*
X190924285Y-116557142D01*
X191352857Y-116557142D01*
X191495714Y-116628571D01*
X191567142Y-116700000D01*
X191638571Y-116842857D01*
X191638571Y-117128571D01*
X191567142Y-117271428D01*
X191638571Y-115914285D02*
X190638571Y-115914285D01*
X190138571Y-115914285D02*
X190210000Y-115985714D01*
X190281428Y-115914285D01*
X190210000Y-115842857D01*
X190138571Y-115914285D01*
X190281428Y-115914285D01*
X190638571Y-115200000D02*
X191638571Y-115200000D01*
X190781428Y-115200000D02*
X190710000Y-115128571D01*
X190638571Y-114985714D01*
X190638571Y-114771428D01*
X190710000Y-114628571D01*
X190852857Y-114557142D01*
X191638571Y-114557142D01*
X191567142Y-112771428D02*
X191638571Y-112557142D01*
X191638571Y-112200000D01*
X191567142Y-112057142D01*
X191495714Y-111985714D01*
X191352857Y-111914285D01*
X191210000Y-111914285D01*
X191067142Y-111985714D01*
X190995714Y-112057142D01*
X190924285Y-112200000D01*
X190852857Y-112485714D01*
X190781428Y-112628571D01*
X190710000Y-112700000D01*
X190567142Y-112771428D01*
X190424285Y-112771428D01*
X190281428Y-112700000D01*
X190210000Y-112628571D01*
X190138571Y-112485714D01*
X190138571Y-112128571D01*
X190210000Y-111914285D01*
X190638571Y-111485714D02*
X190638571Y-110914285D01*
X190138571Y-111271428D02*
X191424285Y-111271428D01*
X191567142Y-111200000D01*
X191638571Y-111057142D01*
X191638571Y-110914285D01*
X191638571Y-109771428D02*
X190852857Y-109771428D01*
X190710000Y-109842857D01*
X190638571Y-109985714D01*
X190638571Y-110271428D01*
X190710000Y-110414285D01*
X191567142Y-109771428D02*
X191638571Y-109914285D01*
X191638571Y-110271428D01*
X191567142Y-110414285D01*
X191424285Y-110485714D01*
X191281428Y-110485714D01*
X191138571Y-110414285D01*
X191067142Y-110271428D01*
X191067142Y-109914285D01*
X190995714Y-109771428D01*
X190638571Y-108414285D02*
X191852857Y-108414285D01*
X191995714Y-108485714D01*
X192067142Y-108557142D01*
X192138571Y-108700000D01*
X192138571Y-108914285D01*
X192067142Y-109057142D01*
X191567142Y-108414285D02*
X191638571Y-108557142D01*
X191638571Y-108842857D01*
X191567142Y-108985714D01*
X191495714Y-109057142D01*
X191352857Y-109128571D01*
X190924285Y-109128571D01*
X190781428Y-109057142D01*
X190710000Y-108985714D01*
X190638571Y-108842857D01*
X190638571Y-108557142D01*
X190710000Y-108414285D01*
X191567142Y-107128571D02*
X191638571Y-107271428D01*
X191638571Y-107557142D01*
X191567142Y-107700000D01*
X191424285Y-107771428D01*
X190852857Y-107771428D01*
X190710000Y-107700000D01*
X190638571Y-107557142D01*
X190638571Y-107271428D01*
X190710000Y-107128571D01*
X190852857Y-107057142D01*
X190995714Y-107057142D01*
X191138571Y-107771428D01*
D11*
X206675714Y-98111428D02*
X206532857Y-98254285D01*
X206104285Y-98397142D01*
X205818571Y-98397142D01*
X205390000Y-98254285D01*
X205104285Y-97968571D01*
X204961428Y-97682857D01*
X204818571Y-97111428D01*
X204818571Y-96682857D01*
X204961428Y-96111428D01*
X205104285Y-95825714D01*
X205390000Y-95540000D01*
X205818571Y-95397142D01*
X206104285Y-95397142D01*
X206532857Y-95540000D01*
X206675714Y-95682857D01*
X208390000Y-98397142D02*
X208104285Y-98254285D01*
X207961428Y-98111428D01*
X207818571Y-97825714D01*
X207818571Y-96968571D01*
X207961428Y-96682857D01*
X208104285Y-96540000D01*
X208390000Y-96397142D01*
X208818571Y-96397142D01*
X209104285Y-96540000D01*
X209247142Y-96682857D01*
X209390000Y-96968571D01*
X209390000Y-97825714D01*
X209247142Y-98111428D01*
X209104285Y-98254285D01*
X208818571Y-98397142D01*
X208390000Y-98397142D01*
X210675714Y-96397142D02*
X210675714Y-98397142D01*
X210675714Y-96682857D02*
X210818571Y-96540000D01*
X211104285Y-96397142D01*
X211532857Y-96397142D01*
X211818571Y-96540000D01*
X211961428Y-96825714D01*
X211961428Y-98397142D01*
X212961428Y-96397142D02*
X214104285Y-96397142D01*
X213390000Y-95397142D02*
X213390000Y-97968571D01*
X213532857Y-98254285D01*
X213818571Y-98397142D01*
X214104285Y-98397142D01*
X215104285Y-98397142D02*
X215104285Y-96397142D01*
X215104285Y-96968571D02*
X215247142Y-96682857D01*
X215390000Y-96540000D01*
X215675714Y-96397142D01*
X215961428Y-96397142D01*
X217390000Y-98397142D02*
X217104285Y-98254285D01*
X216961428Y-98111428D01*
X216818571Y-97825714D01*
X216818571Y-96968571D01*
X216961428Y-96682857D01*
X217104285Y-96540000D01*
X217390000Y-96397142D01*
X217818571Y-96397142D01*
X218104285Y-96540000D01*
X218247142Y-96682857D01*
X218390000Y-96968571D01*
X218390000Y-97825714D01*
X218247142Y-98111428D01*
X218104285Y-98254285D01*
X217818571Y-98397142D01*
X217390000Y-98397142D01*
X220104285Y-98397142D02*
X219818571Y-98254285D01*
X219675714Y-97968571D01*
X219675714Y-95397142D01*
X223532857Y-98397142D02*
X223532857Y-95397142D01*
X224532857Y-97540000D01*
X225532857Y-95397142D01*
X225532857Y-98397142D01*
X228104285Y-98254285D02*
X227818571Y-98397142D01*
X227247142Y-98397142D01*
X226961428Y-98254285D01*
X226818571Y-97968571D01*
X226818571Y-96825714D01*
X226961428Y-96540000D01*
X227247142Y-96397142D01*
X227818571Y-96397142D01*
X228104285Y-96540000D01*
X228247142Y-96825714D01*
X228247142Y-97111428D01*
X226818571Y-97397142D01*
X229532857Y-96397142D02*
X229532857Y-98397142D01*
X229532857Y-96682857D02*
X229675714Y-96540000D01*
X229961428Y-96397142D01*
X230390000Y-96397142D01*
X230675714Y-96540000D01*
X230818571Y-96825714D01*
X230818571Y-98397142D01*
X233532857Y-96397142D02*
X233532857Y-98397142D01*
X232247142Y-96397142D02*
X232247142Y-97968571D01*
X232390000Y-98254285D01*
X232675714Y-98397142D01*
X233104285Y-98397142D01*
X233390000Y-98254285D01*
X233532857Y-98111428D01*
X236818571Y-95397142D02*
X237818571Y-98397142D01*
X238818571Y-95397142D01*
X240390000Y-95397142D02*
X240675714Y-95397142D01*
X240961428Y-95540000D01*
X241104285Y-95682857D01*
X241247142Y-95968571D01*
X241390000Y-96540000D01*
X241390000Y-97254285D01*
X241247142Y-97825714D01*
X241104285Y-98111428D01*
X240961428Y-98254285D01*
X240675714Y-98397142D01*
X240390000Y-98397142D01*
X240104285Y-98254285D01*
X239961428Y-98111428D01*
X239818571Y-97825714D01*
X239675714Y-97254285D01*
X239675714Y-96540000D01*
X239818571Y-95968571D01*
X239961428Y-95682857D01*
X240104285Y-95540000D01*
X240390000Y-95397142D01*
X242675714Y-98111428D02*
X242818571Y-98254285D01*
X242675714Y-98397142D01*
X242532857Y-98254285D01*
X242675714Y-98111428D01*
X242675714Y-98397142D01*
X245675714Y-98397142D02*
X243961428Y-98397142D01*
X244818571Y-98397142D02*
X244818571Y-95397142D01*
X244532857Y-95825714D01*
X244247142Y-96111428D01*
X243961428Y-96254285D01*
X246961428Y-98111428D02*
X247104285Y-98254285D01*
X246961428Y-98397142D01*
X246818571Y-98254285D01*
X246961428Y-98111428D01*
X246961428Y-98397142D01*
X248961428Y-95397142D02*
X249247142Y-95397142D01*
X249532857Y-95540000D01*
X249675714Y-95682857D01*
X249818571Y-95968571D01*
X249961428Y-96540000D01*
X249961428Y-97254285D01*
X249818571Y-97825714D01*
X249675714Y-98111428D01*
X249532857Y-98254285D01*
X249247142Y-98397142D01*
X248961428Y-98397142D01*
X248675714Y-98254285D01*
X248532857Y-98111428D01*
X248390000Y-97825714D01*
X248247142Y-97254285D01*
X248247142Y-96540000D01*
X248390000Y-95968571D01*
X248532857Y-95682857D01*
X248675714Y-95540000D01*
X248961428Y-95397142D01*
D12*
%TO.P,REF\u002A\u002A,1*%
%TO.N,N/C*%
X267420000Y-96880000D03*
%TD*%
%TO.P,REF\u002A\u002A,1*%
%TO.N,N/C*%
X267420000Y-153880000D03*
%TD*%
%TO.P,REF\u002A\u002A,1*%
%TO.N,N/C*%
X192090000Y-153880000D03*
%TD*%
%TO.P,REF\u002A\u002A,1*%
%TO.N,N/C*%
X192090000Y-96880000D03*
%TD*%
D13*
%TO.P,J2,4*%
%TO.N,/GND*%
X266320000Y-118800000D03*
%TO.P,J2,3*%
%TO.N,/SCL*%
X266320000Y-116260000D03*
%TO.P,J2,2*%
%TO.N,/SDA*%
X266320000Y-113720000D03*
D14*
%TO.P,J2,1*%
%TO.N,/5V*%
X266320000Y-111180000D03*
%TD*%
D15*
%TO.P,Enter1,5*%
%TO.N,Net-(Enter1-Pad5)*%
X244415000Y-138415000D03*
%TO.P,Enter1,6*%
%TO.N,Net-(Enter1-Pad6)*%
X246955000Y-138415000D03*
%TO.P,Enter1,7*%
%TO.N,N/C*%
X249495000Y-138415000D03*
%TO.P,Enter1,4*%
X241875000Y-138415000D03*
%TO.P,Enter1,8*%
X249495000Y-135875000D03*
X241875000Y-151115000D03*
%TO.P,Enter1,1*%
%TO.N,/5V*%
X249495000Y-143495000D03*
X241875000Y-143495000D03*
%TO.P,Enter1,3*%
%TO.N,Net-(Enter1-Pad3)*%
X249495000Y-148575000D03*
%TO.P,Enter1,2*%
%TO.N,/Enter*%
X241875000Y-148575000D03*
%TD*%
%TO.P,1s1,5*%
%TO.N,Net-(1s1-Pad5)*%
X231145000Y-138415000D03*
%TO.P,1s1,6*%
%TO.N,Net-(1s1-Pad6)*%
X233685000Y-138415000D03*
%TO.P,1s1,7*%
%TO.N,N/C*%
X236225000Y-138415000D03*
%TO.P,1s1,4*%
X228605000Y-138415000D03*
%TO.P,1s1,8*%
X236225000Y-135875000D03*
X228605000Y-151115000D03*
%TO.P,1s1,1*%
%TO.N,/5V*%
X236225000Y-143495000D03*
X228605000Y-143495000D03*
%TO.P,1s1,3*%
%TO.N,Net-(1s1-Pad3)*%
X236225000Y-148575000D03*
%TO.P,1s1,2*%
%TO.N,/1s*%
X228605000Y-148575000D03*
%TD*%
%TO.P,10s1,5*%
%TO.N,Net-(10s1-Pad5)*%
X217875000Y-138415000D03*
%TO.P,10s1,6*%
%TO.N,Net-(10s1-Pad6)*%
X220415000Y-138415000D03*
%TO.P,10s1,7*%
%TO.N,N/C*%
X222955000Y-138415000D03*
%TO.P,10s1,4*%
X215335000Y-138415000D03*
%TO.P,10s1,8*%
X222955000Y-135875000D03*
X215335000Y-151115000D03*
%TO.P,10s1,1*%
%TO.N,/5V*%
X222955000Y-143495000D03*
X215335000Y-143495000D03*
%TO.P,10s1,3*%
%TO.N,Net-(10s1-Pad3)*%
X222955000Y-148575000D03*
%TO.P,10s1,2*%
%TO.N,/10s*%
X215335000Y-148575000D03*
%TD*%
%TO.P,100s1,5*%
%TO.N,Net-(100s1-Pad5)*%
X204605000Y-138415000D03*
%TO.P,100s1,6*%
%TO.N,Net-(100s1-Pad6)*%
X207145000Y-138415000D03*
%TO.P,100s1,7*%
%TO.N,N/C*%
X209685000Y-138415000D03*
%TO.P,100s1,4*%
X202065000Y-138415000D03*
%TO.P,100s1,8*%
X209685000Y-135875000D03*
X202065000Y-151115000D03*
%TO.P,100s1,1*%
%TO.N,/5V*%
X209685000Y-143495000D03*
X202065000Y-143495000D03*
%TO.P,100s1,3*%
%TO.N,Net-(100s1-Pad3)*%
X209685000Y-148575000D03*
%TO.P,100s1,2*%
%TO.N,/100s*%
X202065000Y-148575000D03*
%TD*%
D13*
%TO.P,J1,8*%
%TO.N,/5V*%
X260970000Y-149090000D03*
%TO.P,J1,7*%
%TO.N,/100s*%
X260970000Y-146550000D03*
%TO.P,J1,6*%
%TO.N,/10s*%
X260970000Y-144010000D03*
%TO.P,J1,5*%
%TO.N,/1s*%
X260970000Y-141470000D03*
%TO.P,J1,4*%
%TO.N,/Enter*%
X260970000Y-138930000D03*
%TO.P,J1,3*%
%TO.N,/SDA*%
X260970000Y-136390000D03*
%TO.P,J1,2*%
%TO.N,/SCL*%
X260970000Y-133850000D03*
D14*
%TO.P,J1,1*%
%TO.N,/GND*%
X260970000Y-131310000D03*
%TD*%
D16*
%TO.N,/SDA*%
X259344990Y-120695010D02*
X266320000Y-113720000D01*
X259344990Y-134764990D02*
X259344990Y-120695010D01*
X260970000Y-136390000D02*
X259344990Y-134764990D01*
%TO.N,/SCL*%
X259794999Y-122785001D02*
X266320000Y-116260000D01*
X259794999Y-132674999D02*
X259794999Y-122785001D01*
X260970000Y-133850000D02*
X259794999Y-132674999D01*
%TO.N,/GND*%
X260970000Y-124150000D02*
X266320000Y-118800000D01*
X260970000Y-131310000D02*
X260970000Y-124150000D01*
%TO.N,/5V*%
X266320000Y-111180000D02*
X266320000Y-109640000D01*
X266320000Y-109640000D02*
X268180000Y-107780000D01*
X268180000Y-107780000D02*
X269170000Y-107780000D01*
X269170000Y-107780000D02*
X269550000Y-108160000D01*
X269550000Y-140510000D02*
X260970000Y-149090000D01*
X269550000Y-108160000D02*
X269550000Y-140510000D01*
X260970000Y-149090000D02*
X260970000Y-151050000D01*
X260970000Y-151050000D02*
X256450000Y-155570000D01*
X256450000Y-155570000D02*
X200490000Y-155570000D01*
X200490000Y-155570000D02*
X192830000Y-147910000D01*
X192830000Y-147910000D02*
X192830000Y-135980000D01*
X192830000Y-135980000D02*
X196950000Y-135980000D01*
X196950000Y-135980000D02*
X197190000Y-136220000D01*
X197190000Y-136220000D02*
X196950000Y-136220000D01*
X196950000Y-136220000D02*
X194310000Y-138860000D01*
X194310000Y-138860000D02*
X194310000Y-140180000D01*
X194310000Y-140180000D02*
X194720000Y-140590000D01*
X194720000Y-140590000D02*
X194720000Y-140340000D01*
X194720000Y-140340000D02*
X196280000Y-138780000D01*
X196280000Y-138780000D02*
X196280000Y-143140000D01*
X196635000Y-143495000D02*
X202065000Y-143495000D01*
X196280000Y-143140000D02*
X196635000Y-143495000D01*
X209685000Y-143495000D02*
X215335000Y-143495000D01*
X215335000Y-143495000D02*
X222955000Y-143495000D01*
X202065000Y-143495000D02*
X209685000Y-143495000D01*
X222955000Y-143495000D02*
X228605000Y-143495000D01*
X228605000Y-143495000D02*
X236225000Y-143495000D01*
X236225000Y-143495000D02*
X241875000Y-143495000D01*
X249495000Y-143495000D02*
X241875000Y-143495000D01*
%TO.N,/100s*%
X260970000Y-146550000D02*
X252730000Y-154790000D01*
X208280000Y-154790000D02*
X202065000Y-148575000D01*
X252730000Y-154790000D02*
X208280000Y-154790000D01*
%TO.N,/10s*%
X260970000Y-144010000D02*
X251360000Y-153620000D01*
X215335000Y-149506238D02*
X215335000Y-148575000D01*
X219448762Y-153620000D02*
X215335000Y-149506238D01*
X251360000Y-153620000D02*
X219448762Y-153620000D01*
%TO.N,/1s*%
X229692001Y-149662001D02*
X228605000Y-148575000D01*
X260970000Y-141470000D02*
X249740000Y-152700000D01*
X232730000Y-152700000D02*
X228605000Y-148575000D01*
X249740000Y-152700000D02*
X232730000Y-152700000D01*
%TO.N,/Enter*%
X260970000Y-138930000D02*
X248360000Y-151540000D01*
X248360000Y-151540000D02*
X243880000Y-151540000D01*
X241875000Y-149535000D02*
X241875000Y-148575000D01*
X243880000Y-151540000D02*
X241875000Y-149535000D01*
%TD*%
M02*
