G04 #@! TF.GenerationSoftware,KiCad,Pcbnew,(5.1.7)-1*
G04 #@! TF.CreationDate,2021-12-31T12:14:06+00:00*
G04 #@! TF.ProjectId,Panel,50616e65-6c2e-46b6-9963-61645f706362,rev?*
G04 #@! TF.SameCoordinates,Original*
G04 #@! TF.FileFunction,Copper,L2,Bot*
G04 #@! TF.FilePolarity,Positive*
%FSLAX46Y46*%
G04 Gerber Fmt 4.6, Leading zero omitted, Abs format (unit mm)*
G04 Created by KiCad (PCBNEW (5.1.7)-1) date 2021-12-31 12:14:06*
%MOMM*%
%LPD*%
G01*
G04 APERTURE LIST*
G04 #@! TA.AperFunction,NonConductor*
%ADD10C,0.300000*%
G04 #@! TD*
G04 #@! TA.AperFunction,EtchedComponent*
%ADD11C,0.010000*%
G04 #@! TD*
G04 #@! TA.AperFunction,ComponentPad*
%ADD12C,5.600000*%
G04 #@! TD*
G04 APERTURE END LIST*
D10*
X202786785Y-105795714D02*
X202867142Y-105867142D01*
X203090357Y-105938571D01*
X203233214Y-105938571D01*
X203438571Y-105867142D01*
X203563571Y-105724285D01*
X203617142Y-105581428D01*
X203652857Y-105295714D01*
X203626071Y-105081428D01*
X203518928Y-104795714D01*
X203429642Y-104652857D01*
X203268928Y-104510000D01*
X203045714Y-104438571D01*
X202902857Y-104438571D01*
X202697500Y-104510000D01*
X202635000Y-104581428D01*
X201447500Y-105938571D02*
X202161785Y-105938571D01*
X201974285Y-104438571D01*
X200965357Y-105510000D02*
X200251071Y-105510000D01*
X201161785Y-105938571D02*
X200474285Y-104438571D01*
X200161785Y-105938571D01*
X199286785Y-105224285D02*
X199376071Y-105938571D01*
X199688571Y-104438571D02*
X199286785Y-105224285D01*
X198688571Y-104438571D01*
X198402857Y-104438571D02*
X197545714Y-104438571D01*
X198161785Y-105938571D02*
X197974285Y-104438571D01*
X197045714Y-104438571D02*
X197197500Y-105652857D01*
X197143928Y-105795714D01*
X197081428Y-105867142D01*
X196947500Y-105938571D01*
X196661785Y-105938571D01*
X196510000Y-105867142D01*
X196429642Y-105795714D01*
X196340357Y-105652857D01*
X196188571Y-104438571D01*
X195661785Y-105938571D02*
X195474285Y-104438571D01*
X194804642Y-105938571D01*
X194617142Y-104438571D01*
X193992142Y-105152857D02*
X193492142Y-105152857D01*
X193376071Y-105938571D02*
X194090357Y-105938571D01*
X193902857Y-104438571D01*
X193188571Y-104438571D01*
X191518928Y-105367142D02*
X190376071Y-105367142D01*
X187715357Y-105795714D02*
X187795714Y-105867142D01*
X188018928Y-105938571D01*
X188161785Y-105938571D01*
X188367142Y-105867142D01*
X188492142Y-105724285D01*
X188545714Y-105581428D01*
X188581428Y-105295714D01*
X188554642Y-105081428D01*
X188447500Y-104795714D01*
X188358214Y-104652857D01*
X188197500Y-104510000D01*
X187974285Y-104438571D01*
X187831428Y-104438571D01*
X187626071Y-104510000D01*
X187563571Y-104581428D01*
X186876071Y-105938571D02*
X187010000Y-105867142D01*
X187072500Y-105795714D01*
X187126071Y-105652857D01*
X187072500Y-105224285D01*
X186983214Y-105081428D01*
X186902857Y-105010000D01*
X186751071Y-104938571D01*
X186536785Y-104938571D01*
X186402857Y-105010000D01*
X186340357Y-105081428D01*
X186286785Y-105224285D01*
X186340357Y-105652857D01*
X186429642Y-105795714D01*
X186510000Y-105867142D01*
X186661785Y-105938571D01*
X186876071Y-105938571D01*
X185608214Y-104938571D02*
X185733214Y-105938571D01*
X185626071Y-105081428D02*
X185545714Y-105010000D01*
X185393928Y-104938571D01*
X185179642Y-104938571D01*
X185045714Y-105010000D01*
X184992142Y-105152857D01*
X185090357Y-105938571D01*
X184465357Y-104938571D02*
X183893928Y-104938571D01*
X184188571Y-104438571D02*
X184349285Y-105724285D01*
X184295714Y-105867142D01*
X184161785Y-105938571D01*
X184018928Y-105938571D01*
X183518928Y-105938571D02*
X183393928Y-104938571D01*
X183429642Y-105224285D02*
X183340357Y-105081428D01*
X183260000Y-105010000D01*
X183108214Y-104938571D01*
X182965357Y-104938571D01*
X182376071Y-105938571D02*
X182510000Y-105867142D01*
X182572500Y-105795714D01*
X182626071Y-105652857D01*
X182572500Y-105224285D01*
X182483214Y-105081428D01*
X182402857Y-105010000D01*
X182251071Y-104938571D01*
X182036785Y-104938571D01*
X181902857Y-105010000D01*
X181840357Y-105081428D01*
X181786785Y-105224285D01*
X181840357Y-105652857D01*
X181929642Y-105795714D01*
X182010000Y-105867142D01*
X182161785Y-105938571D01*
X182376071Y-105938571D01*
X181018928Y-105938571D02*
X181152857Y-105867142D01*
X181206428Y-105724285D01*
X181045714Y-104438571D01*
X180447500Y-105938571D02*
X180260000Y-104438571D01*
X179893928Y-105510000D01*
X179260000Y-104438571D01*
X179447500Y-105938571D01*
X178152857Y-105867142D02*
X178304642Y-105938571D01*
X178590357Y-105938571D01*
X178724285Y-105867142D01*
X178777857Y-105724285D01*
X178706428Y-105152857D01*
X178617142Y-105010000D01*
X178465357Y-104938571D01*
X178179642Y-104938571D01*
X178045714Y-105010000D01*
X177992142Y-105152857D01*
X178010000Y-105295714D01*
X178742142Y-105438571D01*
X177322500Y-104938571D02*
X177447500Y-105938571D01*
X177340357Y-105081428D02*
X177260000Y-105010000D01*
X177108214Y-104938571D01*
X176893928Y-104938571D01*
X176760000Y-105010000D01*
X176706428Y-105152857D01*
X176804642Y-105938571D01*
X175322500Y-104938571D02*
X175447500Y-105938571D01*
X175965357Y-104938571D02*
X176063571Y-105724285D01*
X176010000Y-105867142D01*
X175876071Y-105938571D01*
X175661785Y-105938571D01*
X175510000Y-105867142D01*
X175429642Y-105795714D01*
X173617142Y-104438571D02*
X173304642Y-105938571D01*
X172617142Y-104438571D01*
X171831428Y-104438571D02*
X171688571Y-104438571D01*
X171554642Y-104510000D01*
X171492142Y-104581428D01*
X171438571Y-104724285D01*
X171402857Y-105010000D01*
X171447500Y-105367142D01*
X171554642Y-105652857D01*
X171643928Y-105795714D01*
X171724285Y-105867142D01*
X171876071Y-105938571D01*
X172018928Y-105938571D01*
X172152857Y-105867142D01*
X172215357Y-105795714D01*
X172268928Y-105652857D01*
X172304642Y-105367142D01*
X172260000Y-105010000D01*
X172152857Y-104724285D01*
X172063571Y-104581428D01*
X171983214Y-104510000D01*
X171831428Y-104438571D01*
X170858214Y-105795714D02*
X170795714Y-105867142D01*
X170876071Y-105938571D01*
X170938571Y-105867142D01*
X170858214Y-105795714D01*
X170876071Y-105938571D01*
X169376071Y-105938571D02*
X170233214Y-105938571D01*
X169804642Y-105938571D02*
X169617142Y-104438571D01*
X169786785Y-104652857D01*
X169947500Y-104795714D01*
X170099285Y-104867142D01*
X168715357Y-105795714D02*
X168652857Y-105867142D01*
X168733214Y-105938571D01*
X168795714Y-105867142D01*
X168715357Y-105795714D01*
X168733214Y-105938571D01*
X167233214Y-105938571D02*
X168090357Y-105938571D01*
X167661785Y-105938571D02*
X167474285Y-104438571D01*
X167643928Y-104652857D01*
X167804642Y-104795714D01*
X167956428Y-104867142D01*
X165376071Y-105367142D02*
X164233214Y-105367142D01*
X161849285Y-105152857D02*
X161643928Y-105224285D01*
X161581428Y-105295714D01*
X161527857Y-105438571D01*
X161554642Y-105652857D01*
X161643928Y-105795714D01*
X161724285Y-105867142D01*
X161876071Y-105938571D01*
X162447500Y-105938571D01*
X162260000Y-104438571D01*
X161760000Y-104438571D01*
X161626071Y-104510000D01*
X161563571Y-104581428D01*
X161510000Y-104724285D01*
X161527857Y-104867142D01*
X161617142Y-105010000D01*
X161697500Y-105081428D01*
X161849285Y-105152857D01*
X162349285Y-105152857D01*
X160965357Y-104938571D02*
X160733214Y-105938571D01*
X160251071Y-104938571D02*
X160733214Y-105938571D01*
X160920714Y-106295714D01*
X161001071Y-106367142D01*
X161152857Y-106438571D01*
X158688571Y-104438571D02*
X157831428Y-104438571D01*
X158447500Y-105938571D02*
X158260000Y-104438571D01*
X157536785Y-104938571D02*
X157376071Y-105938571D01*
X157001071Y-105224285D01*
X156804642Y-105938571D01*
X156393928Y-104938571D01*
X155947500Y-105938571D02*
X155822500Y-104938571D01*
X155760000Y-104438571D02*
X155840357Y-104510000D01*
X155777857Y-104581428D01*
X155697500Y-104510000D01*
X155760000Y-104438571D01*
X155777857Y-104581428D01*
X155108214Y-104938571D02*
X155233214Y-105938571D01*
X155126071Y-105081428D02*
X155045714Y-105010000D01*
X154893928Y-104938571D01*
X154679642Y-104938571D01*
X154545714Y-105010000D01*
X154492142Y-105152857D01*
X154590357Y-105938571D01*
X153902857Y-104438571D02*
X153045714Y-104438571D01*
X153661785Y-105938571D02*
X153474285Y-104438571D01*
X151965357Y-104938571D02*
X152090357Y-105938571D01*
X152608214Y-104938571D02*
X152706428Y-105724285D01*
X152652857Y-105867142D01*
X152518928Y-105938571D01*
X152304642Y-105938571D01*
X152152857Y-105867142D01*
X152072500Y-105795714D01*
X151376071Y-105938571D02*
X151251071Y-104938571D01*
X151286785Y-105224285D02*
X151197500Y-105081428D01*
X151117142Y-105010000D01*
X150965357Y-104938571D01*
X150822500Y-104938571D01*
X150447500Y-105938571D02*
X150260000Y-104438571D01*
X150331428Y-105010000D02*
X150179642Y-104938571D01*
X149893928Y-104938571D01*
X149760000Y-105010000D01*
X149697500Y-105081428D01*
X149643928Y-105224285D01*
X149697500Y-105652857D01*
X149786785Y-105795714D01*
X149867142Y-105867142D01*
X150018928Y-105938571D01*
X150304642Y-105938571D01*
X150438571Y-105867142D01*
X148876071Y-105938571D02*
X149010000Y-105867142D01*
X149072500Y-105795714D01*
X149126071Y-105652857D01*
X149072500Y-105224285D01*
X148983214Y-105081428D01*
X148902857Y-105010000D01*
X148751071Y-104938571D01*
X148536785Y-104938571D01*
X148402857Y-105010000D01*
X148340357Y-105081428D01*
X148286785Y-105224285D01*
X148340357Y-105652857D01*
X148429642Y-105795714D01*
X148510000Y-105867142D01*
X148661785Y-105938571D01*
X148876071Y-105938571D01*
X144233214Y-105367142D02*
X143090357Y-105367142D01*
X140688571Y-104438571D02*
X140822500Y-105510000D01*
X140920714Y-105724285D01*
X141081428Y-105867142D01*
X141304642Y-105938571D01*
X141447500Y-105938571D01*
X139447500Y-105938571D02*
X140161785Y-105938571D01*
X139974285Y-104438571D01*
X138072500Y-105795714D02*
X138152857Y-105867142D01*
X138376071Y-105938571D01*
X138518928Y-105938571D01*
X138724285Y-105867142D01*
X138849285Y-105724285D01*
X138902857Y-105581428D01*
X138938571Y-105295714D01*
X138911785Y-105081428D01*
X138804642Y-104795714D01*
X138715357Y-104652857D01*
X138554642Y-104510000D01*
X138331428Y-104438571D01*
X138188571Y-104438571D01*
X137983214Y-104510000D01*
X137920714Y-104581428D01*
X136831428Y-104438571D02*
X136965357Y-105510000D01*
X137063571Y-105724285D01*
X137224285Y-105867142D01*
X137447500Y-105938571D01*
X137590357Y-105938571D01*
X135590357Y-105938571D02*
X136304642Y-105938571D01*
X136117142Y-104438571D01*
X134215357Y-105795714D02*
X134295714Y-105867142D01*
X134518928Y-105938571D01*
X134661785Y-105938571D01*
X134867142Y-105867142D01*
X134992142Y-105724285D01*
X135045714Y-105581428D01*
X135081428Y-105295714D01*
X135054642Y-105081428D01*
X134947500Y-104795714D01*
X134858214Y-104652857D01*
X134697500Y-104510000D01*
X134474285Y-104438571D01*
X134331428Y-104438571D01*
X134126071Y-104510000D01*
X134063571Y-104581428D01*
X132974285Y-104438571D02*
X133108214Y-105510000D01*
X133206428Y-105724285D01*
X133367142Y-105867142D01*
X133590357Y-105938571D01*
X133733214Y-105938571D01*
X131733214Y-105938571D02*
X132447500Y-105938571D01*
X132260000Y-104438571D01*
X130358214Y-105795714D02*
X130438571Y-105867142D01*
X130661785Y-105938571D01*
X130804642Y-105938571D01*
X131010000Y-105867142D01*
X131135000Y-105724285D01*
X131188571Y-105581428D01*
X131224285Y-105295714D01*
X131197500Y-105081428D01*
X131090357Y-104795714D01*
X131001071Y-104652857D01*
X130840357Y-104510000D01*
X130617142Y-104438571D01*
X130474285Y-104438571D01*
X130268928Y-104510000D01*
X130206428Y-104581428D01*
X129117142Y-104438571D02*
X129251071Y-105510000D01*
X129349285Y-105724285D01*
X129510000Y-105867142D01*
X129733214Y-105938571D01*
X129876071Y-105938571D01*
X127876071Y-105938571D02*
X128590357Y-105938571D01*
X128402857Y-104438571D01*
X126501071Y-105795714D02*
X126581428Y-105867142D01*
X126804642Y-105938571D01*
X126947500Y-105938571D01*
X127152857Y-105867142D01*
X127277857Y-105724285D01*
X127331428Y-105581428D01*
X127367142Y-105295714D01*
X127340357Y-105081428D01*
X127233214Y-104795714D01*
X127143928Y-104652857D01*
X126983214Y-104510000D01*
X126760000Y-104438571D01*
X126617142Y-104438571D01*
X126411785Y-104510000D01*
X126349285Y-104581428D01*
D11*
G36*
X201016714Y-75023589D02*
G01*
X201003292Y-75072766D01*
X201000211Y-75128694D01*
X200977917Y-75261081D01*
X200936647Y-75344305D01*
X200898700Y-75409547D01*
X200875970Y-75458531D01*
X200873083Y-75470767D01*
X200851179Y-75505388D01*
X200790293Y-75556367D01*
X200697662Y-75618860D01*
X200580526Y-75688026D01*
X200446123Y-75759023D01*
X200430861Y-75766605D01*
X200332528Y-75814048D01*
X200250696Y-75851473D01*
X200196367Y-75873958D01*
X200181267Y-75878239D01*
X200134600Y-75895788D01*
X200069688Y-75940633D01*
X199999335Y-76001065D01*
X199936343Y-76065379D01*
X199893515Y-76121868D01*
X199882338Y-76151562D01*
X199868365Y-76181158D01*
X199860775Y-76183344D01*
X199837642Y-76204065D01*
X199806014Y-76255521D01*
X199797623Y-76272333D01*
X199775069Y-76335608D01*
X199784236Y-76360754D01*
X199822758Y-76347377D01*
X199888270Y-76295082D01*
X199895260Y-76288593D01*
X199962748Y-76231788D01*
X200042408Y-76173888D01*
X200120581Y-76123790D01*
X200183607Y-76090388D01*
X200213026Y-76081642D01*
X200262576Y-76068532D01*
X200342911Y-76033439D01*
X200442592Y-75982718D01*
X200550182Y-75922722D01*
X200654243Y-75859807D01*
X200743335Y-75800327D01*
X200801700Y-75754597D01*
X200906734Y-75638442D01*
X200990693Y-75502942D01*
X201049293Y-75359672D01*
X201078248Y-75220209D01*
X201073274Y-75096128D01*
X201061054Y-75053992D01*
X201037259Y-75015745D01*
X201016714Y-75023589D01*
G37*
X201016714Y-75023589D02*
X201003292Y-75072766D01*
X201000211Y-75128694D01*
X200977917Y-75261081D01*
X200936647Y-75344305D01*
X200898700Y-75409547D01*
X200875970Y-75458531D01*
X200873083Y-75470767D01*
X200851179Y-75505388D01*
X200790293Y-75556367D01*
X200697662Y-75618860D01*
X200580526Y-75688026D01*
X200446123Y-75759023D01*
X200430861Y-75766605D01*
X200332528Y-75814048D01*
X200250696Y-75851473D01*
X200196367Y-75873958D01*
X200181267Y-75878239D01*
X200134600Y-75895788D01*
X200069688Y-75940633D01*
X199999335Y-76001065D01*
X199936343Y-76065379D01*
X199893515Y-76121868D01*
X199882338Y-76151562D01*
X199868365Y-76181158D01*
X199860775Y-76183344D01*
X199837642Y-76204065D01*
X199806014Y-76255521D01*
X199797623Y-76272333D01*
X199775069Y-76335608D01*
X199784236Y-76360754D01*
X199822758Y-76347377D01*
X199888270Y-76295082D01*
X199895260Y-76288593D01*
X199962748Y-76231788D01*
X200042408Y-76173888D01*
X200120581Y-76123790D01*
X200183607Y-76090388D01*
X200213026Y-76081642D01*
X200262576Y-76068532D01*
X200342911Y-76033439D01*
X200442592Y-75982718D01*
X200550182Y-75922722D01*
X200654243Y-75859807D01*
X200743335Y-75800327D01*
X200801700Y-75754597D01*
X200906734Y-75638442D01*
X200990693Y-75502942D01*
X201049293Y-75359672D01*
X201078248Y-75220209D01*
X201073274Y-75096128D01*
X201061054Y-75053992D01*
X201037259Y-75015745D01*
X201016714Y-75023589D01*
G36*
X201520404Y-75219607D02*
G01*
X201503893Y-75270238D01*
X201490770Y-75345065D01*
X201483950Y-75430790D01*
X201483573Y-75451981D01*
X201462501Y-75539850D01*
X201403226Y-75647395D01*
X201310743Y-75767468D01*
X201190050Y-75892922D01*
X201148922Y-75930686D01*
X201022250Y-76056335D01*
X200910601Y-76191058D01*
X200821010Y-76324649D01*
X200760509Y-76446906D01*
X200738217Y-76526587D01*
X200724055Y-76607939D01*
X200708622Y-76676802D01*
X200706178Y-76685496D01*
X200707062Y-76731013D01*
X200737067Y-76743884D01*
X200783281Y-76720079D01*
X200791722Y-76712193D01*
X200816495Y-76663344D01*
X200822233Y-76624087D01*
X200841627Y-76550669D01*
X200897476Y-76450933D01*
X200986284Y-76330017D01*
X201104552Y-76193058D01*
X201145372Y-76149485D01*
X201310949Y-75963366D01*
X201436044Y-75793922D01*
X201517262Y-75651860D01*
X201537118Y-75588921D01*
X201551306Y-75501844D01*
X201559159Y-75405368D01*
X201560012Y-75314229D01*
X201553198Y-75243164D01*
X201538051Y-75206911D01*
X201537389Y-75206470D01*
X201520404Y-75219607D01*
G37*
X201520404Y-75219607D02*
X201503893Y-75270238D01*
X201490770Y-75345065D01*
X201483950Y-75430790D01*
X201483573Y-75451981D01*
X201462501Y-75539850D01*
X201403226Y-75647395D01*
X201310743Y-75767468D01*
X201190050Y-75892922D01*
X201148922Y-75930686D01*
X201022250Y-76056335D01*
X200910601Y-76191058D01*
X200821010Y-76324649D01*
X200760509Y-76446906D01*
X200738217Y-76526587D01*
X200724055Y-76607939D01*
X200708622Y-76676802D01*
X200706178Y-76685496D01*
X200707062Y-76731013D01*
X200737067Y-76743884D01*
X200783281Y-76720079D01*
X200791722Y-76712193D01*
X200816495Y-76663344D01*
X200822233Y-76624087D01*
X200841627Y-76550669D01*
X200897476Y-76450933D01*
X200986284Y-76330017D01*
X201104552Y-76193058D01*
X201145372Y-76149485D01*
X201310949Y-75963366D01*
X201436044Y-75793922D01*
X201517262Y-75651860D01*
X201537118Y-75588921D01*
X201551306Y-75501844D01*
X201559159Y-75405368D01*
X201560012Y-75314229D01*
X201553198Y-75243164D01*
X201538051Y-75206911D01*
X201537389Y-75206470D01*
X201520404Y-75219607D01*
G36*
X200216267Y-77288382D02*
G01*
X200220070Y-77333090D01*
X200234546Y-77347708D01*
X200260442Y-77377801D01*
X200262873Y-77393170D01*
X200277300Y-77425623D01*
X200288299Y-77429190D01*
X200313070Y-77422366D01*
X200313724Y-77420383D01*
X200303398Y-77394268D01*
X200277805Y-77340594D01*
X200270020Y-77325038D01*
X200241056Y-77273321D01*
X200225020Y-77264125D01*
X200216267Y-77288382D01*
G37*
X200216267Y-77288382D02*
X200220070Y-77333090D01*
X200234546Y-77347708D01*
X200260442Y-77377801D01*
X200262873Y-77393170D01*
X200277300Y-77425623D01*
X200288299Y-77429190D01*
X200313070Y-77422366D01*
X200313724Y-77420383D01*
X200303398Y-77394268D01*
X200277805Y-77340594D01*
X200270020Y-77325038D01*
X200241056Y-77273321D01*
X200225020Y-77264125D01*
X200216267Y-77288382D01*
G36*
X200447117Y-77536391D02*
G01*
X200369017Y-77550814D01*
X200317597Y-77571044D01*
X200302050Y-77593963D01*
X200314586Y-77608238D01*
X200360525Y-77621859D01*
X200434841Y-77629602D01*
X200520907Y-77631514D01*
X200602095Y-77627644D01*
X200661781Y-77618040D01*
X200682393Y-77607168D01*
X200687810Y-77566563D01*
X200645538Y-77540983D01*
X200556646Y-77531011D01*
X200542708Y-77530891D01*
X200447117Y-77536391D01*
G37*
X200447117Y-77536391D02*
X200369017Y-77550814D01*
X200317597Y-77571044D01*
X200302050Y-77593963D01*
X200314586Y-77608238D01*
X200360525Y-77621859D01*
X200434841Y-77629602D01*
X200520907Y-77631514D01*
X200602095Y-77627644D01*
X200661781Y-77618040D01*
X200682393Y-77607168D01*
X200687810Y-77566563D01*
X200645538Y-77540983D01*
X200556646Y-77531011D01*
X200542708Y-77530891D01*
X200447117Y-77536391D01*
G36*
X200436682Y-77767248D02*
G01*
X200428138Y-77785146D01*
X200457423Y-77808560D01*
X200502611Y-77794063D01*
X200517127Y-77785146D01*
X200534031Y-77767619D01*
X200507096Y-77760710D01*
X200483845Y-77760109D01*
X200436682Y-77767248D01*
G37*
X200436682Y-77767248D02*
X200428138Y-77785146D01*
X200457423Y-77808560D01*
X200502611Y-77794063D01*
X200517127Y-77785146D01*
X200534031Y-77767619D01*
X200507096Y-77760710D01*
X200483845Y-77760109D01*
X200436682Y-77767248D01*
G36*
X200363174Y-75103825D02*
G01*
X200350591Y-75112706D01*
X200315533Y-75124785D01*
X200243142Y-75137261D01*
X200146872Y-75147994D01*
X200110321Y-75150921D01*
X199929566Y-75165323D01*
X199793583Y-75179527D01*
X199696302Y-75194343D01*
X199631652Y-75210583D01*
X199614525Y-75217232D01*
X199561088Y-75240809D01*
X199484461Y-75274434D01*
X199447476Y-75290618D01*
X199303365Y-75380080D01*
X199178956Y-75509148D01*
X199077589Y-75669283D01*
X199002605Y-75851944D01*
X198957345Y-76048592D01*
X198945150Y-76250685D01*
X198969361Y-76449684D01*
X198978889Y-76488449D01*
X198999442Y-76592894D01*
X199013202Y-76716100D01*
X199016726Y-76799910D01*
X199021603Y-76894673D01*
X199033974Y-76953543D01*
X199051039Y-76972602D01*
X199069996Y-76947932D01*
X199084511Y-76894727D01*
X199101977Y-76836189D01*
X199122013Y-76804237D01*
X199133474Y-76773564D01*
X199141475Y-76707084D01*
X199144154Y-76628289D01*
X199147062Y-76542560D01*
X199154646Y-76479248D01*
X199164185Y-76453645D01*
X199175606Y-76452567D01*
X199189909Y-76468387D01*
X199211095Y-76508707D01*
X199243164Y-76581131D01*
X199289535Y-76691852D01*
X199319968Y-76762463D01*
X199345834Y-76817940D01*
X199348289Y-76822738D01*
X199353371Y-76859386D01*
X199318168Y-76878234D01*
X199284374Y-76900768D01*
X199290749Y-76928486D01*
X199331222Y-76945416D01*
X199343973Y-76946107D01*
X199404050Y-76966052D01*
X199443565Y-77013617D01*
X199449260Y-77041402D01*
X199456929Y-77070254D01*
X199482001Y-77121691D01*
X199527566Y-77201244D01*
X199596718Y-77314444D01*
X199645604Y-77392537D01*
X199679848Y-77450805D01*
X199716618Y-77518179D01*
X199798518Y-77649311D01*
X199901382Y-77776171D01*
X200015477Y-77889588D01*
X200131073Y-77980395D01*
X200238436Y-78039422D01*
X200285384Y-78054028D01*
X200353268Y-78073482D01*
X200394588Y-78090897D01*
X200445618Y-78106076D01*
X200528127Y-78119154D01*
X200623694Y-78128524D01*
X200713899Y-78132578D01*
X200780322Y-78129707D01*
X200796807Y-78126009D01*
X200861496Y-78100670D01*
X200946208Y-78064432D01*
X201063774Y-78011809D01*
X201144975Y-77965264D01*
X201237491Y-77896825D01*
X201334147Y-77813866D01*
X201427766Y-77723760D01*
X201511174Y-77633878D01*
X201577196Y-77551594D01*
X201618655Y-77484281D01*
X201623976Y-77459666D01*
X201528897Y-77459666D01*
X201497222Y-77510581D01*
X201476596Y-77536756D01*
X201427115Y-77588574D01*
X201392973Y-77607647D01*
X201381592Y-77592783D01*
X201399469Y-77543331D01*
X201441445Y-77488282D01*
X201483876Y-77454303D01*
X201524508Y-77440240D01*
X201528897Y-77459666D01*
X201623976Y-77459666D01*
X201628377Y-77439310D01*
X201626114Y-77434013D01*
X201634246Y-77402689D01*
X201674816Y-77349515D01*
X201739767Y-77283399D01*
X201821042Y-77213249D01*
X201837455Y-77200361D01*
X201912109Y-77141954D01*
X201960282Y-77100725D01*
X201995973Y-77063073D01*
X202033181Y-77015402D01*
X202046848Y-76996957D01*
X202127347Y-76853008D01*
X202177277Y-76678338D01*
X202198040Y-76467550D01*
X202198838Y-76410806D01*
X202193761Y-76264545D01*
X202175811Y-76135464D01*
X202140905Y-76006550D01*
X202084961Y-75860789D01*
X202045230Y-75770545D01*
X201997012Y-75681151D01*
X201958992Y-75639922D01*
X201935649Y-75644498D01*
X201931460Y-75692515D01*
X201950905Y-75781612D01*
X201961562Y-75814675D01*
X201992221Y-75923637D01*
X202016770Y-76048063D01*
X202034370Y-76177198D01*
X202044179Y-76300290D01*
X202045357Y-76406583D01*
X202037062Y-76485323D01*
X202018454Y-76525757D01*
X202017228Y-76526587D01*
X201997665Y-76561576D01*
X201991802Y-76605377D01*
X201971907Y-76698826D01*
X201919197Y-76801286D01*
X201844134Y-76895067D01*
X201794990Y-76938133D01*
X201735580Y-76983352D01*
X201694998Y-77015968D01*
X201686697Y-77023580D01*
X201658716Y-77044598D01*
X201603975Y-77080113D01*
X201581722Y-77093813D01*
X201468138Y-77179889D01*
X201362919Y-77290470D01*
X201274295Y-77413658D01*
X201210497Y-77537550D01*
X201179754Y-77650249D01*
X201178188Y-77677267D01*
X201175010Y-77713875D01*
X201161664Y-77746649D01*
X201132430Y-77779576D01*
X201081590Y-77816640D01*
X201003425Y-77861828D01*
X200892218Y-77919126D01*
X200742249Y-77992518D01*
X200689094Y-78018150D01*
X200624808Y-78036112D01*
X200557909Y-78036904D01*
X200510815Y-78021033D01*
X200504415Y-78013974D01*
X200469928Y-77995425D01*
X200416272Y-77988549D01*
X200328714Y-77971044D01*
X200223179Y-77924493D01*
X200115493Y-77857842D01*
X200021478Y-77780036D01*
X199992038Y-77748719D01*
X199934173Y-77674556D01*
X199865334Y-77576479D01*
X199799706Y-77474764D01*
X199795172Y-77467328D01*
X199697082Y-77305252D01*
X199623456Y-77182562D01*
X199572023Y-77095386D01*
X199540512Y-77039856D01*
X199526649Y-77012100D01*
X199525536Y-77007981D01*
X199548055Y-76997225D01*
X199612909Y-77006684D01*
X199716045Y-77035746D01*
X199722103Y-77037693D01*
X199792111Y-77058661D01*
X199843135Y-77064668D01*
X199894608Y-77053670D01*
X199965960Y-77023624D01*
X199998346Y-77008637D01*
X200122975Y-76944912D01*
X200203090Y-76890659D01*
X200236544Y-76847388D01*
X200237448Y-76840464D01*
X200217269Y-76821600D01*
X200169006Y-76823107D01*
X200116332Y-76841927D01*
X199964896Y-76898845D01*
X199817967Y-76912512D01*
X199739272Y-76899990D01*
X199651824Y-76881032D01*
X199571318Y-76870557D01*
X199552459Y-76869830D01*
X199492627Y-76857637D01*
X199450622Y-76812268D01*
X199438409Y-76789648D01*
X199405806Y-76711196D01*
X199406085Y-76659805D01*
X199441839Y-76621691D01*
X199473422Y-76603516D01*
X199539819Y-76581933D01*
X199641854Y-76569289D01*
X199786519Y-76564763D01*
X199803953Y-76564725D01*
X199919414Y-76562381D01*
X200005056Y-76555887D01*
X200052577Y-76546054D01*
X200059470Y-76539784D01*
X200037599Y-76517452D01*
X199989550Y-76501241D01*
X199919034Y-76486597D01*
X199831859Y-76467343D01*
X199811207Y-76462618D01*
X199688725Y-76441537D01*
X199592128Y-76445196D01*
X199501780Y-76475665D01*
X199455394Y-76500120D01*
X199347114Y-76562029D01*
X199305990Y-76468032D01*
X199283668Y-76393311D01*
X199269764Y-76286454D01*
X199263341Y-76139335D01*
X199262787Y-76094355D01*
X199262655Y-75969570D01*
X199265983Y-75882754D01*
X199275054Y-75821039D01*
X199292152Y-75771558D01*
X199319560Y-75721442D01*
X199332708Y-75700261D01*
X199389067Y-75619646D01*
X199449097Y-75546894D01*
X199473205Y-75522283D01*
X199540520Y-75469541D01*
X199624275Y-75416875D01*
X199708151Y-75373241D01*
X199775832Y-75347596D01*
X199797419Y-75344305D01*
X199846009Y-75334320D01*
X199911723Y-75310108D01*
X199915787Y-75308303D01*
X199997121Y-75278403D01*
X200072182Y-75259545D01*
X200234637Y-75223999D01*
X200348016Y-75179768D01*
X200399489Y-75142713D01*
X200431463Y-75105247D01*
X200425341Y-75091014D01*
X200413448Y-75090050D01*
X200363174Y-75103825D01*
G37*
X200363174Y-75103825D02*
X200350591Y-75112706D01*
X200315533Y-75124785D01*
X200243142Y-75137261D01*
X200146872Y-75147994D01*
X200110321Y-75150921D01*
X199929566Y-75165323D01*
X199793583Y-75179527D01*
X199696302Y-75194343D01*
X199631652Y-75210583D01*
X199614525Y-75217232D01*
X199561088Y-75240809D01*
X199484461Y-75274434D01*
X199447476Y-75290618D01*
X199303365Y-75380080D01*
X199178956Y-75509148D01*
X199077589Y-75669283D01*
X199002605Y-75851944D01*
X198957345Y-76048592D01*
X198945150Y-76250685D01*
X198969361Y-76449684D01*
X198978889Y-76488449D01*
X198999442Y-76592894D01*
X199013202Y-76716100D01*
X199016726Y-76799910D01*
X199021603Y-76894673D01*
X199033974Y-76953543D01*
X199051039Y-76972602D01*
X199069996Y-76947932D01*
X199084511Y-76894727D01*
X199101977Y-76836189D01*
X199122013Y-76804237D01*
X199133474Y-76773564D01*
X199141475Y-76707084D01*
X199144154Y-76628289D01*
X199147062Y-76542560D01*
X199154646Y-76479248D01*
X199164185Y-76453645D01*
X199175606Y-76452567D01*
X199189909Y-76468387D01*
X199211095Y-76508707D01*
X199243164Y-76581131D01*
X199289535Y-76691852D01*
X199319968Y-76762463D01*
X199345834Y-76817940D01*
X199348289Y-76822738D01*
X199353371Y-76859386D01*
X199318168Y-76878234D01*
X199284374Y-76900768D01*
X199290749Y-76928486D01*
X199331222Y-76945416D01*
X199343973Y-76946107D01*
X199404050Y-76966052D01*
X199443565Y-77013617D01*
X199449260Y-77041402D01*
X199456929Y-77070254D01*
X199482001Y-77121691D01*
X199527566Y-77201244D01*
X199596718Y-77314444D01*
X199645604Y-77392537D01*
X199679848Y-77450805D01*
X199716618Y-77518179D01*
X199798518Y-77649311D01*
X199901382Y-77776171D01*
X200015477Y-77889588D01*
X200131073Y-77980395D01*
X200238436Y-78039422D01*
X200285384Y-78054028D01*
X200353268Y-78073482D01*
X200394588Y-78090897D01*
X200445618Y-78106076D01*
X200528127Y-78119154D01*
X200623694Y-78128524D01*
X200713899Y-78132578D01*
X200780322Y-78129707D01*
X200796807Y-78126009D01*
X200861496Y-78100670D01*
X200946208Y-78064432D01*
X201063774Y-78011809D01*
X201144975Y-77965264D01*
X201237491Y-77896825D01*
X201334147Y-77813866D01*
X201427766Y-77723760D01*
X201511174Y-77633878D01*
X201577196Y-77551594D01*
X201618655Y-77484281D01*
X201623976Y-77459666D01*
X201528897Y-77459666D01*
X201497222Y-77510581D01*
X201476596Y-77536756D01*
X201427115Y-77588574D01*
X201392973Y-77607647D01*
X201381592Y-77592783D01*
X201399469Y-77543331D01*
X201441445Y-77488282D01*
X201483876Y-77454303D01*
X201524508Y-77440240D01*
X201528897Y-77459666D01*
X201623976Y-77459666D01*
X201628377Y-77439310D01*
X201626114Y-77434013D01*
X201634246Y-77402689D01*
X201674816Y-77349515D01*
X201739767Y-77283399D01*
X201821042Y-77213249D01*
X201837455Y-77200361D01*
X201912109Y-77141954D01*
X201960282Y-77100725D01*
X201995973Y-77063073D01*
X202033181Y-77015402D01*
X202046848Y-76996957D01*
X202127347Y-76853008D01*
X202177277Y-76678338D01*
X202198040Y-76467550D01*
X202198838Y-76410806D01*
X202193761Y-76264545D01*
X202175811Y-76135464D01*
X202140905Y-76006550D01*
X202084961Y-75860789D01*
X202045230Y-75770545D01*
X201997012Y-75681151D01*
X201958992Y-75639922D01*
X201935649Y-75644498D01*
X201931460Y-75692515D01*
X201950905Y-75781612D01*
X201961562Y-75814675D01*
X201992221Y-75923637D01*
X202016770Y-76048063D01*
X202034370Y-76177198D01*
X202044179Y-76300290D01*
X202045357Y-76406583D01*
X202037062Y-76485323D01*
X202018454Y-76525757D01*
X202017228Y-76526587D01*
X201997665Y-76561576D01*
X201991802Y-76605377D01*
X201971907Y-76698826D01*
X201919197Y-76801286D01*
X201844134Y-76895067D01*
X201794990Y-76938133D01*
X201735580Y-76983352D01*
X201694998Y-77015968D01*
X201686697Y-77023580D01*
X201658716Y-77044598D01*
X201603975Y-77080113D01*
X201581722Y-77093813D01*
X201468138Y-77179889D01*
X201362919Y-77290470D01*
X201274295Y-77413658D01*
X201210497Y-77537550D01*
X201179754Y-77650249D01*
X201178188Y-77677267D01*
X201175010Y-77713875D01*
X201161664Y-77746649D01*
X201132430Y-77779576D01*
X201081590Y-77816640D01*
X201003425Y-77861828D01*
X200892218Y-77919126D01*
X200742249Y-77992518D01*
X200689094Y-78018150D01*
X200624808Y-78036112D01*
X200557909Y-78036904D01*
X200510815Y-78021033D01*
X200504415Y-78013974D01*
X200469928Y-77995425D01*
X200416272Y-77988549D01*
X200328714Y-77971044D01*
X200223179Y-77924493D01*
X200115493Y-77857842D01*
X200021478Y-77780036D01*
X199992038Y-77748719D01*
X199934173Y-77674556D01*
X199865334Y-77576479D01*
X199799706Y-77474764D01*
X199795172Y-77467328D01*
X199697082Y-77305252D01*
X199623456Y-77182562D01*
X199572023Y-77095386D01*
X199540512Y-77039856D01*
X199526649Y-77012100D01*
X199525536Y-77007981D01*
X199548055Y-76997225D01*
X199612909Y-77006684D01*
X199716045Y-77035746D01*
X199722103Y-77037693D01*
X199792111Y-77058661D01*
X199843135Y-77064668D01*
X199894608Y-77053670D01*
X199965960Y-77023624D01*
X199998346Y-77008637D01*
X200122975Y-76944912D01*
X200203090Y-76890659D01*
X200236544Y-76847388D01*
X200237448Y-76840464D01*
X200217269Y-76821600D01*
X200169006Y-76823107D01*
X200116332Y-76841927D01*
X199964896Y-76898845D01*
X199817967Y-76912512D01*
X199739272Y-76899990D01*
X199651824Y-76881032D01*
X199571318Y-76870557D01*
X199552459Y-76869830D01*
X199492627Y-76857637D01*
X199450622Y-76812268D01*
X199438409Y-76789648D01*
X199405806Y-76711196D01*
X199406085Y-76659805D01*
X199441839Y-76621691D01*
X199473422Y-76603516D01*
X199539819Y-76581933D01*
X199641854Y-76569289D01*
X199786519Y-76564763D01*
X199803953Y-76564725D01*
X199919414Y-76562381D01*
X200005056Y-76555887D01*
X200052577Y-76546054D01*
X200059470Y-76539784D01*
X200037599Y-76517452D01*
X199989550Y-76501241D01*
X199919034Y-76486597D01*
X199831859Y-76467343D01*
X199811207Y-76462618D01*
X199688725Y-76441537D01*
X199592128Y-76445196D01*
X199501780Y-76475665D01*
X199455394Y-76500120D01*
X199347114Y-76562029D01*
X199305990Y-76468032D01*
X199283668Y-76393311D01*
X199269764Y-76286454D01*
X199263341Y-76139335D01*
X199262787Y-76094355D01*
X199262655Y-75969570D01*
X199265983Y-75882754D01*
X199275054Y-75821039D01*
X199292152Y-75771558D01*
X199319560Y-75721442D01*
X199332708Y-75700261D01*
X199389067Y-75619646D01*
X199449097Y-75546894D01*
X199473205Y-75522283D01*
X199540520Y-75469541D01*
X199624275Y-75416875D01*
X199708151Y-75373241D01*
X199775832Y-75347596D01*
X199797419Y-75344305D01*
X199846009Y-75334320D01*
X199911723Y-75310108D01*
X199915787Y-75308303D01*
X199997121Y-75278403D01*
X200072182Y-75259545D01*
X200234637Y-75223999D01*
X200348016Y-75179768D01*
X200399489Y-75142713D01*
X200431463Y-75105247D01*
X200425341Y-75091014D01*
X200413448Y-75090050D01*
X200363174Y-75103825D01*
G36*
X198816269Y-75063209D02*
G01*
X198757018Y-75112810D01*
X198688093Y-75197490D01*
X198616939Y-75304444D01*
X198551002Y-75420867D01*
X198497726Y-75533955D01*
X198464556Y-75630904D01*
X198457285Y-75680633D01*
X198448458Y-75741501D01*
X198427032Y-75820337D01*
X198420263Y-75840101D01*
X198401993Y-75920307D01*
X198389503Y-76034251D01*
X198382860Y-76167938D01*
X198382133Y-76307373D01*
X198387390Y-76438561D01*
X198398698Y-76547507D01*
X198416125Y-76620216D01*
X198416480Y-76621070D01*
X198447796Y-76703443D01*
X198478249Y-76795131D01*
X198481594Y-76806267D01*
X198520719Y-76925940D01*
X198576477Y-77074524D01*
X198611494Y-77162223D01*
X198654859Y-77295820D01*
X198676718Y-77422890D01*
X198675034Y-77528394D01*
X198666003Y-77564965D01*
X198644962Y-77636980D01*
X198635669Y-77696144D01*
X198635646Y-77698142D01*
X198617012Y-77751251D01*
X198565730Y-77828135D01*
X198488728Y-77920642D01*
X198392937Y-78020618D01*
X198285286Y-78119910D01*
X198256113Y-78144689D01*
X198138589Y-78244665D01*
X198028915Y-78341614D01*
X197933499Y-78429504D01*
X197858749Y-78502302D01*
X197811075Y-78553977D01*
X197796607Y-78577204D01*
X197805149Y-78595474D01*
X197836661Y-78592689D01*
X197899970Y-78567134D01*
X197936447Y-78550022D01*
X198016580Y-78512522D01*
X198117467Y-78466459D01*
X198190701Y-78433634D01*
X198349852Y-78361912D01*
X198470860Y-78304155D01*
X198562717Y-78255247D01*
X198634414Y-78210072D01*
X198694943Y-78163510D01*
X198745526Y-78117882D01*
X198841263Y-78012049D01*
X198912039Y-77895786D01*
X198963186Y-77757039D01*
X199000032Y-77583755D01*
X199009369Y-77521246D01*
X199007090Y-77416456D01*
X198976133Y-77274319D01*
X198916162Y-77093740D01*
X198826840Y-76873627D01*
X198772085Y-76750634D01*
X198738865Y-76671401D01*
X198717015Y-76607022D01*
X198711922Y-76580513D01*
X198697031Y-76536553D01*
X198686497Y-76526587D01*
X198677956Y-76496967D01*
X198671139Y-76426105D01*
X198666071Y-76323583D01*
X198662776Y-76198980D01*
X198661281Y-76061879D01*
X198661609Y-75921859D01*
X198663786Y-75788502D01*
X198667838Y-75671389D01*
X198673789Y-75580100D01*
X198681664Y-75524216D01*
X198683849Y-75517123D01*
X198705420Y-75456041D01*
X198731709Y-75374203D01*
X198739880Y-75347298D01*
X198766913Y-75272415D01*
X198795447Y-75216257D01*
X198804836Y-75204173D01*
X198834769Y-75156289D01*
X198853950Y-75103097D01*
X198862852Y-75055667D01*
X198848569Y-75047866D01*
X198816269Y-75063209D01*
G37*
X198816269Y-75063209D02*
X198757018Y-75112810D01*
X198688093Y-75197490D01*
X198616939Y-75304444D01*
X198551002Y-75420867D01*
X198497726Y-75533955D01*
X198464556Y-75630904D01*
X198457285Y-75680633D01*
X198448458Y-75741501D01*
X198427032Y-75820337D01*
X198420263Y-75840101D01*
X198401993Y-75920307D01*
X198389503Y-76034251D01*
X198382860Y-76167938D01*
X198382133Y-76307373D01*
X198387390Y-76438561D01*
X198398698Y-76547507D01*
X198416125Y-76620216D01*
X198416480Y-76621070D01*
X198447796Y-76703443D01*
X198478249Y-76795131D01*
X198481594Y-76806267D01*
X198520719Y-76925940D01*
X198576477Y-77074524D01*
X198611494Y-77162223D01*
X198654859Y-77295820D01*
X198676718Y-77422890D01*
X198675034Y-77528394D01*
X198666003Y-77564965D01*
X198644962Y-77636980D01*
X198635669Y-77696144D01*
X198635646Y-77698142D01*
X198617012Y-77751251D01*
X198565730Y-77828135D01*
X198488728Y-77920642D01*
X198392937Y-78020618D01*
X198285286Y-78119910D01*
X198256113Y-78144689D01*
X198138589Y-78244665D01*
X198028915Y-78341614D01*
X197933499Y-78429504D01*
X197858749Y-78502302D01*
X197811075Y-78553977D01*
X197796607Y-78577204D01*
X197805149Y-78595474D01*
X197836661Y-78592689D01*
X197899970Y-78567134D01*
X197936447Y-78550022D01*
X198016580Y-78512522D01*
X198117467Y-78466459D01*
X198190701Y-78433634D01*
X198349852Y-78361912D01*
X198470860Y-78304155D01*
X198562717Y-78255247D01*
X198634414Y-78210072D01*
X198694943Y-78163510D01*
X198745526Y-78117882D01*
X198841263Y-78012049D01*
X198912039Y-77895786D01*
X198963186Y-77757039D01*
X199000032Y-77583755D01*
X199009369Y-77521246D01*
X199007090Y-77416456D01*
X198976133Y-77274319D01*
X198916162Y-77093740D01*
X198826840Y-76873627D01*
X198772085Y-76750634D01*
X198738865Y-76671401D01*
X198717015Y-76607022D01*
X198711922Y-76580513D01*
X198697031Y-76536553D01*
X198686497Y-76526587D01*
X198677956Y-76496967D01*
X198671139Y-76426105D01*
X198666071Y-76323583D01*
X198662776Y-76198980D01*
X198661281Y-76061879D01*
X198661609Y-75921859D01*
X198663786Y-75788502D01*
X198667838Y-75671389D01*
X198673789Y-75580100D01*
X198681664Y-75524216D01*
X198683849Y-75517123D01*
X198705420Y-75456041D01*
X198731709Y-75374203D01*
X198739880Y-75347298D01*
X198766913Y-75272415D01*
X198795447Y-75216257D01*
X198804836Y-75204173D01*
X198834769Y-75156289D01*
X198853950Y-75103097D01*
X198862852Y-75055667D01*
X198848569Y-75047866D01*
X198816269Y-75063209D01*
G36*
X199651231Y-77864884D02*
G01*
X199641024Y-77908665D01*
X199635185Y-77985738D01*
X199634847Y-78070221D01*
X199630336Y-78189320D01*
X199604135Y-78272862D01*
X199549020Y-78334043D01*
X199463314Y-78383461D01*
X199386717Y-78413017D01*
X199275980Y-78447712D01*
X199146941Y-78483294D01*
X199015437Y-78515509D01*
X198897303Y-78540105D01*
X198851762Y-78547697D01*
X198624443Y-78603658D01*
X198426668Y-78700748D01*
X198256210Y-78840399D01*
X198111248Y-79023414D01*
X198046043Y-79145716D01*
X198024578Y-79249783D01*
X198047058Y-79343660D01*
X198113690Y-79435392D01*
X198122028Y-79443988D01*
X198198237Y-79509141D01*
X198274075Y-79542129D01*
X198330541Y-79551781D01*
X198416211Y-79553515D01*
X198491249Y-79542520D01*
X198508519Y-79536577D01*
X198541680Y-79519873D01*
X198544450Y-79506164D01*
X198510753Y-79489213D01*
X198437623Y-79463827D01*
X198363107Y-79437641D01*
X198311987Y-79417243D01*
X198297784Y-79409279D01*
X198282655Y-79382217D01*
X198260621Y-79342798D01*
X198235944Y-79285368D01*
X198228839Y-79250202D01*
X198246501Y-79209458D01*
X198292753Y-79146700D01*
X198357494Y-79072911D01*
X198430623Y-78999075D01*
X198502040Y-78936175D01*
X198548233Y-78902890D01*
X198630414Y-78859045D01*
X198729863Y-78815693D01*
X198829581Y-78779254D01*
X198912570Y-78756144D01*
X198949692Y-78751312D01*
X198997016Y-78744743D01*
X199076311Y-78724067D01*
X199192533Y-78687830D01*
X199350636Y-78634578D01*
X199368644Y-78628363D01*
X199531595Y-78551392D01*
X199652742Y-78448593D01*
X199730460Y-78322027D01*
X199763125Y-78173754D01*
X199763939Y-78126992D01*
X199755042Y-78041875D01*
X199735459Y-77961821D01*
X199709688Y-77897284D01*
X199682223Y-77858722D01*
X199657560Y-77856591D01*
X199651231Y-77864884D01*
G37*
X199651231Y-77864884D02*
X199641024Y-77908665D01*
X199635185Y-77985738D01*
X199634847Y-78070221D01*
X199630336Y-78189320D01*
X199604135Y-78272862D01*
X199549020Y-78334043D01*
X199463314Y-78383461D01*
X199386717Y-78413017D01*
X199275980Y-78447712D01*
X199146941Y-78483294D01*
X199015437Y-78515509D01*
X198897303Y-78540105D01*
X198851762Y-78547697D01*
X198624443Y-78603658D01*
X198426668Y-78700748D01*
X198256210Y-78840399D01*
X198111248Y-79023414D01*
X198046043Y-79145716D01*
X198024578Y-79249783D01*
X198047058Y-79343660D01*
X198113690Y-79435392D01*
X198122028Y-79443988D01*
X198198237Y-79509141D01*
X198274075Y-79542129D01*
X198330541Y-79551781D01*
X198416211Y-79553515D01*
X198491249Y-79542520D01*
X198508519Y-79536577D01*
X198541680Y-79519873D01*
X198544450Y-79506164D01*
X198510753Y-79489213D01*
X198437623Y-79463827D01*
X198363107Y-79437641D01*
X198311987Y-79417243D01*
X198297784Y-79409279D01*
X198282655Y-79382217D01*
X198260621Y-79342798D01*
X198235944Y-79285368D01*
X198228839Y-79250202D01*
X198246501Y-79209458D01*
X198292753Y-79146700D01*
X198357494Y-79072911D01*
X198430623Y-78999075D01*
X198502040Y-78936175D01*
X198548233Y-78902890D01*
X198630414Y-78859045D01*
X198729863Y-78815693D01*
X198829581Y-78779254D01*
X198912570Y-78756144D01*
X198949692Y-78751312D01*
X198997016Y-78744743D01*
X199076311Y-78724067D01*
X199192533Y-78687830D01*
X199350636Y-78634578D01*
X199368644Y-78628363D01*
X199531595Y-78551392D01*
X199652742Y-78448593D01*
X199730460Y-78322027D01*
X199763125Y-78173754D01*
X199763939Y-78126992D01*
X199755042Y-78041875D01*
X199735459Y-77961821D01*
X199709688Y-77897284D01*
X199682223Y-77858722D01*
X199657560Y-77856591D01*
X199651231Y-77864884D01*
G36*
X200532000Y-78878306D02*
G01*
X200452479Y-78907508D01*
X200341976Y-78958340D01*
X200306502Y-78976076D01*
X200170444Y-79042583D01*
X200013400Y-79115466D01*
X199861749Y-79182597D01*
X199806791Y-79205834D01*
X199555487Y-79317646D01*
X199348980Y-79427674D01*
X199181665Y-79540901D01*
X199047939Y-79662308D01*
X198942200Y-79796876D01*
X198858845Y-79949588D01*
X198800298Y-80100706D01*
X198780595Y-80191942D01*
X198768802Y-80313531D01*
X198764641Y-80451806D01*
X198767832Y-80593100D01*
X198778098Y-80723744D01*
X198795162Y-80830072D01*
X198816443Y-80894328D01*
X198847051Y-80937872D01*
X198870711Y-80948358D01*
X198872026Y-80947298D01*
X198879408Y-80915898D01*
X198885306Y-80845104D01*
X198889003Y-80746364D01*
X198889900Y-80662005D01*
X198898943Y-80446410D01*
X198928445Y-80264638D01*
X198981968Y-80102553D01*
X199063072Y-79946018D01*
X199075230Y-79926291D01*
X199161580Y-79806632D01*
X199265937Y-79698697D01*
X199395264Y-79597389D01*
X199556522Y-79497611D01*
X199756674Y-79394267D01*
X199881492Y-79336039D01*
X199967535Y-79292996D01*
X200076252Y-79232839D01*
X200196089Y-79162627D01*
X200315492Y-79089418D01*
X200422908Y-79020270D01*
X200506784Y-78962242D01*
X200550535Y-78927310D01*
X200584442Y-78887525D01*
X200577126Y-78871418D01*
X200532000Y-78878306D01*
G37*
X200532000Y-78878306D02*
X200452479Y-78907508D01*
X200341976Y-78958340D01*
X200306502Y-78976076D01*
X200170444Y-79042583D01*
X200013400Y-79115466D01*
X199861749Y-79182597D01*
X199806791Y-79205834D01*
X199555487Y-79317646D01*
X199348980Y-79427674D01*
X199181665Y-79540901D01*
X199047939Y-79662308D01*
X198942200Y-79796876D01*
X198858845Y-79949588D01*
X198800298Y-80100706D01*
X198780595Y-80191942D01*
X198768802Y-80313531D01*
X198764641Y-80451806D01*
X198767832Y-80593100D01*
X198778098Y-80723744D01*
X198795162Y-80830072D01*
X198816443Y-80894328D01*
X198847051Y-80937872D01*
X198870711Y-80948358D01*
X198872026Y-80947298D01*
X198879408Y-80915898D01*
X198885306Y-80845104D01*
X198889003Y-80746364D01*
X198889900Y-80662005D01*
X198898943Y-80446410D01*
X198928445Y-80264638D01*
X198981968Y-80102553D01*
X199063072Y-79946018D01*
X199075230Y-79926291D01*
X199161580Y-79806632D01*
X199265937Y-79698697D01*
X199395264Y-79597389D01*
X199556522Y-79497611D01*
X199756674Y-79394267D01*
X199881492Y-79336039D01*
X199967535Y-79292996D01*
X200076252Y-79232839D01*
X200196089Y-79162627D01*
X200315492Y-79089418D01*
X200422908Y-79020270D01*
X200506784Y-78962242D01*
X200550535Y-78927310D01*
X200584442Y-78887525D01*
X200577126Y-78871418D01*
X200532000Y-78878306D01*
G36*
X202359328Y-76597430D02*
G01*
X202350117Y-76624898D01*
X202352588Y-76680995D01*
X202366641Y-76774164D01*
X202377421Y-76834262D01*
X202389483Y-77027722D01*
X202357698Y-77219349D01*
X202307442Y-77349641D01*
X202245291Y-77437368D01*
X202137491Y-77543768D01*
X201985243Y-77667752D01*
X201842503Y-77771698D01*
X201734627Y-77850950D01*
X201626408Y-77936559D01*
X201535636Y-78014248D01*
X201507855Y-78040242D01*
X201415332Y-78145481D01*
X201339384Y-78260772D01*
X201286099Y-78374126D01*
X201261564Y-78473553D01*
X201263263Y-78521980D01*
X201265497Y-78570249D01*
X201249172Y-78624720D01*
X201209316Y-78697732D01*
X201164680Y-78766589D01*
X201111504Y-78848469D01*
X201071647Y-78914759D01*
X201052006Y-78953834D01*
X201051061Y-78958082D01*
X201034584Y-78980046D01*
X201031992Y-78980267D01*
X201009669Y-78999950D01*
X200968081Y-79051872D01*
X200915529Y-79125536D01*
X200906099Y-79139470D01*
X200836646Y-79236664D01*
X200749589Y-79349805D01*
X200661637Y-79457311D01*
X200645414Y-79476230D01*
X200484452Y-79662750D01*
X200354712Y-79814572D01*
X200253522Y-79934907D01*
X200178210Y-80026969D01*
X200126106Y-80093968D01*
X200095882Y-80136997D01*
X200048557Y-80205060D01*
X200002775Y-80262220D01*
X200002465Y-80262562D01*
X199968823Y-80305919D01*
X199957768Y-80330077D01*
X199942706Y-80358219D01*
X199903962Y-80411211D01*
X199868779Y-80454815D01*
X199819269Y-80517993D01*
X199786961Y-80566737D01*
X199779790Y-80584348D01*
X199788608Y-80603836D01*
X199817867Y-80601213D01*
X199871773Y-80574174D01*
X199954533Y-80520412D01*
X200070354Y-80437622D01*
X200135746Y-80389265D01*
X200306726Y-80253618D01*
X200483900Y-80098343D01*
X200657888Y-79932781D01*
X200819311Y-79766275D01*
X200958791Y-79608167D01*
X201066950Y-79467799D01*
X201079985Y-79448713D01*
X201239593Y-79195646D01*
X201364485Y-78964265D01*
X201417355Y-78849671D01*
X201456566Y-78780332D01*
X201516785Y-78696037D01*
X201568766Y-78633555D01*
X201668520Y-78540757D01*
X201775120Y-78482053D01*
X201898012Y-78455286D01*
X202046639Y-78458297D01*
X202215400Y-78485754D01*
X202317130Y-78531692D01*
X202399511Y-78619496D01*
X202460235Y-78743119D01*
X202496996Y-78896516D01*
X202507484Y-79073642D01*
X202496300Y-79221682D01*
X202481398Y-79324451D01*
X202466019Y-79412480D01*
X202453056Y-79469546D01*
X202450964Y-79475936D01*
X202419859Y-79549548D01*
X202374159Y-79645340D01*
X202322040Y-79747451D01*
X202271677Y-79840018D01*
X202231247Y-79907180D01*
X202221617Y-79920881D01*
X202178342Y-79979822D01*
X202119000Y-80062981D01*
X202049354Y-80162014D01*
X201975165Y-80268573D01*
X201902197Y-80374315D01*
X201836211Y-80470893D01*
X201782968Y-80549962D01*
X201748232Y-80603177D01*
X201737548Y-80621988D01*
X201723651Y-80650576D01*
X201712453Y-80665648D01*
X201655136Y-80739786D01*
X201587467Y-80832912D01*
X201522799Y-80926162D01*
X201474489Y-81000671D01*
X201470212Y-81007818D01*
X201434309Y-81061301D01*
X201407023Y-81089266D01*
X201403249Y-81090451D01*
X201381302Y-81111116D01*
X201370872Y-81134945D01*
X201346582Y-81179000D01*
X201300166Y-81242404D01*
X201267945Y-81281142D01*
X201217679Y-81343852D01*
X201185272Y-81394117D01*
X201178676Y-81412506D01*
X201162891Y-81446952D01*
X201156692Y-81450644D01*
X201131181Y-81475208D01*
X201087558Y-81529791D01*
X201035068Y-81601550D01*
X200982958Y-81677643D01*
X200940474Y-81745224D01*
X200926365Y-81770581D01*
X200913199Y-81815464D01*
X200929969Y-81829809D01*
X200966922Y-81814862D01*
X201014302Y-81771869D01*
X201025865Y-81757868D01*
X201074085Y-81700039D01*
X201140198Y-81625242D01*
X201187679Y-81573534D01*
X201261588Y-81490569D01*
X201334146Y-81402857D01*
X201368977Y-81357418D01*
X201421915Y-81287955D01*
X201469615Y-81230314D01*
X201484922Y-81213738D01*
X201523141Y-81171519D01*
X201579009Y-81105591D01*
X201625685Y-81048473D01*
X201690054Y-80969278D01*
X201771832Y-80869919D01*
X201855617Y-80769087D01*
X201873925Y-80747208D01*
X201963178Y-80640606D01*
X202028289Y-80562162D01*
X202077791Y-80501067D01*
X202120213Y-80446511D01*
X202164088Y-80387687D01*
X202217946Y-80313784D01*
X202239844Y-80283583D01*
X202299264Y-80199113D01*
X202345051Y-80129267D01*
X202370330Y-80084752D01*
X202373183Y-80075942D01*
X202392416Y-80045259D01*
X202395696Y-80043771D01*
X202424405Y-80015366D01*
X202468577Y-79951581D01*
X202522202Y-79863130D01*
X202579270Y-79760730D01*
X202633771Y-79655093D01*
X202679696Y-79556935D01*
X202707055Y-79488649D01*
X202740451Y-79363546D01*
X202760138Y-79225116D01*
X202765835Y-79087366D01*
X202757263Y-78964304D01*
X202734143Y-78869935D01*
X202719970Y-78842140D01*
X202689829Y-78787233D01*
X202678289Y-78749891D01*
X202663427Y-78711814D01*
X202625205Y-78648256D01*
X202573171Y-78572504D01*
X202516871Y-78497847D01*
X202465852Y-78437571D01*
X202431050Y-78405781D01*
X202309427Y-78333472D01*
X202215052Y-78285192D01*
X202133403Y-78255970D01*
X202049954Y-78240838D01*
X201950181Y-78234827D01*
X201929923Y-78234342D01*
X201724835Y-78230091D01*
X201546857Y-78369380D01*
X201465084Y-78434597D01*
X201398707Y-78489805D01*
X201358056Y-78526316D01*
X201351193Y-78533909D01*
X201327358Y-78555143D01*
X201317791Y-78540605D01*
X201323776Y-78503689D01*
X201344240Y-78461288D01*
X201427042Y-78356121D01*
X201540963Y-78248547D01*
X201692016Y-78133401D01*
X201844047Y-78032102D01*
X202019246Y-77912472D01*
X202175217Y-77790148D01*
X202305040Y-77671392D01*
X202401799Y-77562465D01*
X202453946Y-77480040D01*
X202517288Y-77315352D01*
X202545299Y-77168430D01*
X202543077Y-77082879D01*
X202515471Y-76921127D01*
X202483134Y-76784528D01*
X202448198Y-76679537D01*
X202412796Y-76612606D01*
X202380322Y-76590151D01*
X202359328Y-76597430D01*
G37*
X202359328Y-76597430D02*
X202350117Y-76624898D01*
X202352588Y-76680995D01*
X202366641Y-76774164D01*
X202377421Y-76834262D01*
X202389483Y-77027722D01*
X202357698Y-77219349D01*
X202307442Y-77349641D01*
X202245291Y-77437368D01*
X202137491Y-77543768D01*
X201985243Y-77667752D01*
X201842503Y-77771698D01*
X201734627Y-77850950D01*
X201626408Y-77936559D01*
X201535636Y-78014248D01*
X201507855Y-78040242D01*
X201415332Y-78145481D01*
X201339384Y-78260772D01*
X201286099Y-78374126D01*
X201261564Y-78473553D01*
X201263263Y-78521980D01*
X201265497Y-78570249D01*
X201249172Y-78624720D01*
X201209316Y-78697732D01*
X201164680Y-78766589D01*
X201111504Y-78848469D01*
X201071647Y-78914759D01*
X201052006Y-78953834D01*
X201051061Y-78958082D01*
X201034584Y-78980046D01*
X201031992Y-78980267D01*
X201009669Y-78999950D01*
X200968081Y-79051872D01*
X200915529Y-79125536D01*
X200906099Y-79139470D01*
X200836646Y-79236664D01*
X200749589Y-79349805D01*
X200661637Y-79457311D01*
X200645414Y-79476230D01*
X200484452Y-79662750D01*
X200354712Y-79814572D01*
X200253522Y-79934907D01*
X200178210Y-80026969D01*
X200126106Y-80093968D01*
X200095882Y-80136997D01*
X200048557Y-80205060D01*
X200002775Y-80262220D01*
X200002465Y-80262562D01*
X199968823Y-80305919D01*
X199957768Y-80330077D01*
X199942706Y-80358219D01*
X199903962Y-80411211D01*
X199868779Y-80454815D01*
X199819269Y-80517993D01*
X199786961Y-80566737D01*
X199779790Y-80584348D01*
X199788608Y-80603836D01*
X199817867Y-80601213D01*
X199871773Y-80574174D01*
X199954533Y-80520412D01*
X200070354Y-80437622D01*
X200135746Y-80389265D01*
X200306726Y-80253618D01*
X200483900Y-80098343D01*
X200657888Y-79932781D01*
X200819311Y-79766275D01*
X200958791Y-79608167D01*
X201066950Y-79467799D01*
X201079985Y-79448713D01*
X201239593Y-79195646D01*
X201364485Y-78964265D01*
X201417355Y-78849671D01*
X201456566Y-78780332D01*
X201516785Y-78696037D01*
X201568766Y-78633555D01*
X201668520Y-78540757D01*
X201775120Y-78482053D01*
X201898012Y-78455286D01*
X202046639Y-78458297D01*
X202215400Y-78485754D01*
X202317130Y-78531692D01*
X202399511Y-78619496D01*
X202460235Y-78743119D01*
X202496996Y-78896516D01*
X202507484Y-79073642D01*
X202496300Y-79221682D01*
X202481398Y-79324451D01*
X202466019Y-79412480D01*
X202453056Y-79469546D01*
X202450964Y-79475936D01*
X202419859Y-79549548D01*
X202374159Y-79645340D01*
X202322040Y-79747451D01*
X202271677Y-79840018D01*
X202231247Y-79907180D01*
X202221617Y-79920881D01*
X202178342Y-79979822D01*
X202119000Y-80062981D01*
X202049354Y-80162014D01*
X201975165Y-80268573D01*
X201902197Y-80374315D01*
X201836211Y-80470893D01*
X201782968Y-80549962D01*
X201748232Y-80603177D01*
X201737548Y-80621988D01*
X201723651Y-80650576D01*
X201712453Y-80665648D01*
X201655136Y-80739786D01*
X201587467Y-80832912D01*
X201522799Y-80926162D01*
X201474489Y-81000671D01*
X201470212Y-81007818D01*
X201434309Y-81061301D01*
X201407023Y-81089266D01*
X201403249Y-81090451D01*
X201381302Y-81111116D01*
X201370872Y-81134945D01*
X201346582Y-81179000D01*
X201300166Y-81242404D01*
X201267945Y-81281142D01*
X201217679Y-81343852D01*
X201185272Y-81394117D01*
X201178676Y-81412506D01*
X201162891Y-81446952D01*
X201156692Y-81450644D01*
X201131181Y-81475208D01*
X201087558Y-81529791D01*
X201035068Y-81601550D01*
X200982958Y-81677643D01*
X200940474Y-81745224D01*
X200926365Y-81770581D01*
X200913199Y-81815464D01*
X200929969Y-81829809D01*
X200966922Y-81814862D01*
X201014302Y-81771869D01*
X201025865Y-81757868D01*
X201074085Y-81700039D01*
X201140198Y-81625242D01*
X201187679Y-81573534D01*
X201261588Y-81490569D01*
X201334146Y-81402857D01*
X201368977Y-81357418D01*
X201421915Y-81287955D01*
X201469615Y-81230314D01*
X201484922Y-81213738D01*
X201523141Y-81171519D01*
X201579009Y-81105591D01*
X201625685Y-81048473D01*
X201690054Y-80969278D01*
X201771832Y-80869919D01*
X201855617Y-80769087D01*
X201873925Y-80747208D01*
X201963178Y-80640606D01*
X202028289Y-80562162D01*
X202077791Y-80501067D01*
X202120213Y-80446511D01*
X202164088Y-80387687D01*
X202217946Y-80313784D01*
X202239844Y-80283583D01*
X202299264Y-80199113D01*
X202345051Y-80129267D01*
X202370330Y-80084752D01*
X202373183Y-80075942D01*
X202392416Y-80045259D01*
X202395696Y-80043771D01*
X202424405Y-80015366D01*
X202468577Y-79951581D01*
X202522202Y-79863130D01*
X202579270Y-79760730D01*
X202633771Y-79655093D01*
X202679696Y-79556935D01*
X202707055Y-79488649D01*
X202740451Y-79363546D01*
X202760138Y-79225116D01*
X202765835Y-79087366D01*
X202757263Y-78964304D01*
X202734143Y-78869935D01*
X202719970Y-78842140D01*
X202689829Y-78787233D01*
X202678289Y-78749891D01*
X202663427Y-78711814D01*
X202625205Y-78648256D01*
X202573171Y-78572504D01*
X202516871Y-78497847D01*
X202465852Y-78437571D01*
X202431050Y-78405781D01*
X202309427Y-78333472D01*
X202215052Y-78285192D01*
X202133403Y-78255970D01*
X202049954Y-78240838D01*
X201950181Y-78234827D01*
X201929923Y-78234342D01*
X201724835Y-78230091D01*
X201546857Y-78369380D01*
X201465084Y-78434597D01*
X201398707Y-78489805D01*
X201358056Y-78526316D01*
X201351193Y-78533909D01*
X201327358Y-78555143D01*
X201317791Y-78540605D01*
X201323776Y-78503689D01*
X201344240Y-78461288D01*
X201427042Y-78356121D01*
X201540963Y-78248547D01*
X201692016Y-78133401D01*
X201844047Y-78032102D01*
X202019246Y-77912472D01*
X202175217Y-77790148D01*
X202305040Y-77671392D01*
X202401799Y-77562465D01*
X202453946Y-77480040D01*
X202517288Y-77315352D01*
X202545299Y-77168430D01*
X202543077Y-77082879D01*
X202515471Y-76921127D01*
X202483134Y-76784528D01*
X202448198Y-76679537D01*
X202412796Y-76612606D01*
X202380322Y-76590151D01*
X202359328Y-76597430D01*
G36*
X198330037Y-82634167D02*
G01*
X198289139Y-82652176D01*
X198279690Y-82664808D01*
X198260822Y-82687131D01*
X198210513Y-82731528D01*
X198138211Y-82789838D01*
X198108068Y-82813083D01*
X198023858Y-82879189D01*
X197952094Y-82939000D01*
X197905238Y-82982029D01*
X197898238Y-82989689D01*
X197863027Y-83032285D01*
X197807749Y-83099557D01*
X197745686Y-83175336D01*
X197687459Y-83246172D01*
X197642175Y-83300571D01*
X197619121Y-83327382D01*
X197618629Y-83327888D01*
X197593348Y-83365165D01*
X197550128Y-83442106D01*
X197492159Y-83552121D01*
X197422633Y-83688622D01*
X197344739Y-83845021D01*
X197261668Y-84014726D01*
X197176611Y-84191150D01*
X197092758Y-84367704D01*
X197013300Y-84537798D01*
X196941426Y-84694842D01*
X196880328Y-84832249D01*
X196833197Y-84943429D01*
X196818402Y-84980541D01*
X196784627Y-85061978D01*
X196738246Y-85166731D01*
X196689136Y-85272505D01*
X196687822Y-85275255D01*
X196647158Y-85362292D01*
X196616824Y-85431017D01*
X196602192Y-85469149D01*
X196601612Y-85472302D01*
X196616640Y-85487846D01*
X196649736Y-85472039D01*
X196665400Y-85456301D01*
X196807930Y-85267633D01*
X196942560Y-85056817D01*
X196981980Y-84986140D01*
X197033099Y-84889757D01*
X197091392Y-84776762D01*
X197152334Y-84656248D01*
X197211400Y-84537311D01*
X197264064Y-84429045D01*
X197305801Y-84340544D01*
X197332086Y-84280901D01*
X197338949Y-84260227D01*
X197349177Y-84230720D01*
X197376582Y-84166118D01*
X197416249Y-84077129D01*
X197463262Y-83974459D01*
X197512705Y-83868814D01*
X197559663Y-83770902D01*
X197599219Y-83691429D01*
X197607007Y-83676400D01*
X197764580Y-83411033D01*
X197956306Y-83146745D01*
X198116186Y-82958707D01*
X198199144Y-82865816D01*
X198271370Y-82781234D01*
X198324549Y-82714933D01*
X198349106Y-82679405D01*
X198367563Y-82638122D01*
X198354474Y-82628962D01*
X198330037Y-82634167D01*
G37*
X198330037Y-82634167D02*
X198289139Y-82652176D01*
X198279690Y-82664808D01*
X198260822Y-82687131D01*
X198210513Y-82731528D01*
X198138211Y-82789838D01*
X198108068Y-82813083D01*
X198023858Y-82879189D01*
X197952094Y-82939000D01*
X197905238Y-82982029D01*
X197898238Y-82989689D01*
X197863027Y-83032285D01*
X197807749Y-83099557D01*
X197745686Y-83175336D01*
X197687459Y-83246172D01*
X197642175Y-83300571D01*
X197619121Y-83327382D01*
X197618629Y-83327888D01*
X197593348Y-83365165D01*
X197550128Y-83442106D01*
X197492159Y-83552121D01*
X197422633Y-83688622D01*
X197344739Y-83845021D01*
X197261668Y-84014726D01*
X197176611Y-84191150D01*
X197092758Y-84367704D01*
X197013300Y-84537798D01*
X196941426Y-84694842D01*
X196880328Y-84832249D01*
X196833197Y-84943429D01*
X196818402Y-84980541D01*
X196784627Y-85061978D01*
X196738246Y-85166731D01*
X196689136Y-85272505D01*
X196687822Y-85275255D01*
X196647158Y-85362292D01*
X196616824Y-85431017D01*
X196602192Y-85469149D01*
X196601612Y-85472302D01*
X196616640Y-85487846D01*
X196649736Y-85472039D01*
X196665400Y-85456301D01*
X196807930Y-85267633D01*
X196942560Y-85056817D01*
X196981980Y-84986140D01*
X197033099Y-84889757D01*
X197091392Y-84776762D01*
X197152334Y-84656248D01*
X197211400Y-84537311D01*
X197264064Y-84429045D01*
X197305801Y-84340544D01*
X197332086Y-84280901D01*
X197338949Y-84260227D01*
X197349177Y-84230720D01*
X197376582Y-84166118D01*
X197416249Y-84077129D01*
X197463262Y-83974459D01*
X197512705Y-83868814D01*
X197559663Y-83770902D01*
X197599219Y-83691429D01*
X197607007Y-83676400D01*
X197764580Y-83411033D01*
X197956306Y-83146745D01*
X198116186Y-82958707D01*
X198199144Y-82865816D01*
X198271370Y-82781234D01*
X198324549Y-82714933D01*
X198349106Y-82679405D01*
X198367563Y-82638122D01*
X198354474Y-82628962D01*
X198330037Y-82634167D01*
G36*
X201002556Y-82382366D02*
G01*
X200990819Y-82406217D01*
X200967269Y-82458595D01*
X200931344Y-82524180D01*
X200929665Y-82526987D01*
X200887297Y-82622740D01*
X200847623Y-82761840D01*
X200812753Y-82936785D01*
X200810482Y-82950576D01*
X200805451Y-82993993D01*
X200810974Y-83029728D01*
X200833413Y-83067172D01*
X200879131Y-83115714D01*
X200954490Y-83184744D01*
X200991368Y-83217543D01*
X201377639Y-83575255D01*
X201715479Y-83920095D01*
X202005469Y-84252747D01*
X202248188Y-84573899D01*
X202444217Y-84884237D01*
X202522815Y-85031392D01*
X202576184Y-85135984D01*
X202626767Y-85231868D01*
X202666491Y-85303860D01*
X202678281Y-85323784D01*
X202710774Y-85384184D01*
X202726975Y-85429475D01*
X202727281Y-85432348D01*
X202741202Y-85472009D01*
X202774212Y-85534772D01*
X202792703Y-85565326D01*
X202830667Y-85630732D01*
X202853393Y-85680057D01*
X202856267Y-85692453D01*
X202868933Y-85728308D01*
X202900970Y-85788509D01*
X202919830Y-85819580D01*
X202958111Y-85888066D01*
X202980757Y-85943743D01*
X202983394Y-85958915D01*
X202996966Y-85993073D01*
X203008819Y-85997558D01*
X203029907Y-86018710D01*
X203034245Y-86045296D01*
X203052711Y-86101472D01*
X203072383Y-86124685D01*
X203105019Y-86174885D01*
X203110521Y-86204075D01*
X203121786Y-86243669D01*
X203135946Y-86251812D01*
X203157035Y-86272964D01*
X203161372Y-86299550D01*
X203179838Y-86355727D01*
X203199510Y-86378939D01*
X203231498Y-86418868D01*
X203237351Y-86439260D01*
X203247816Y-86473116D01*
X203276237Y-86541162D01*
X203317748Y-86632144D01*
X203348714Y-86696757D01*
X203408177Y-86818871D01*
X203479263Y-86965234D01*
X203551510Y-87114289D01*
X203595518Y-87205266D01*
X203653655Y-87323580D01*
X203709469Y-87433662D01*
X203756279Y-87522535D01*
X203785356Y-87573934D01*
X203818276Y-87630872D01*
X203867902Y-87720810D01*
X203927601Y-87831569D01*
X203990743Y-87950971D01*
X203993017Y-87955316D01*
X204157832Y-88268662D01*
X204302276Y-88539622D01*
X204428161Y-88771568D01*
X204537300Y-88967868D01*
X204547011Y-88985045D01*
X204596576Y-89072761D01*
X204643695Y-89156430D01*
X204664291Y-89193147D01*
X204707260Y-89267003D01*
X204759211Y-89352500D01*
X204774521Y-89376976D01*
X204812636Y-89440124D01*
X204835991Y-89484151D01*
X204839450Y-89494270D01*
X204851995Y-89521519D01*
X204884969Y-89579881D01*
X204931379Y-89657642D01*
X204984234Y-89743091D01*
X205036541Y-89824516D01*
X205037235Y-89825570D01*
X205070514Y-89885571D01*
X205084695Y-89919430D01*
X205107737Y-89956967D01*
X205122095Y-89963924D01*
X205144216Y-89983024D01*
X205144555Y-89987022D01*
X205158376Y-90014386D01*
X205197460Y-90078209D01*
X205258238Y-90173065D01*
X205337141Y-90293526D01*
X205430599Y-90434165D01*
X205535043Y-90589555D01*
X205646905Y-90754268D01*
X205703914Y-90837570D01*
X205739447Y-90887433D01*
X205791004Y-90957566D01*
X205849779Y-91036270D01*
X205906966Y-91111848D01*
X205953758Y-91172600D01*
X205981348Y-91206828D01*
X205984106Y-91209770D01*
X206005890Y-91235538D01*
X206047902Y-91288668D01*
X206085127Y-91336897D01*
X206183871Y-91461608D01*
X206280993Y-91576380D01*
X206371524Y-91676189D01*
X206450496Y-91756010D01*
X206512941Y-91810818D01*
X206553890Y-91835588D01*
X206568379Y-91825669D01*
X206552669Y-91792885D01*
X206520599Y-91752858D01*
X206478727Y-91700768D01*
X206426896Y-91627012D01*
X206402383Y-91589155D01*
X206358516Y-91522645D01*
X206323444Y-91475634D01*
X206311100Y-91463004D01*
X206288199Y-91437573D01*
X206243428Y-91380235D01*
X206184199Y-91300657D01*
X206143279Y-91244127D01*
X206055913Y-91124024D01*
X205956193Y-90989717D01*
X205862717Y-90866205D01*
X205843754Y-90841561D01*
X205775354Y-90752252D01*
X205717033Y-90674656D01*
X205677068Y-90619856D01*
X205665776Y-90603232D01*
X205635093Y-90560087D01*
X205585840Y-90496654D01*
X205557718Y-90461952D01*
X205510188Y-90398567D01*
X205480314Y-90347858D01*
X205475085Y-90330737D01*
X205454666Y-90295613D01*
X205436947Y-90285260D01*
X205403228Y-90257014D01*
X205398809Y-90241971D01*
X205385065Y-90204075D01*
X205351078Y-90146674D01*
X205341700Y-90133115D01*
X205298914Y-90069607D01*
X205245488Y-89985479D01*
X205187827Y-89891468D01*
X205132337Y-89798316D01*
X205085423Y-89716762D01*
X205053492Y-89657545D01*
X205042853Y-89632056D01*
X205022724Y-89607909D01*
X205004715Y-89598774D01*
X204971044Y-89572723D01*
X204966577Y-89559449D01*
X204953816Y-89529130D01*
X204919186Y-89465617D01*
X204868170Y-89378586D01*
X204814024Y-89290151D01*
X204753355Y-89191901D01*
X204704123Y-89110329D01*
X204671739Y-89054524D01*
X204661472Y-89033857D01*
X204649169Y-89007156D01*
X204618182Y-88953620D01*
X204601967Y-88927333D01*
X204549520Y-88838777D01*
X204478103Y-88710817D01*
X204390979Y-88549785D01*
X204291408Y-88362011D01*
X204182652Y-88153829D01*
X204067970Y-87931567D01*
X203950623Y-87701559D01*
X203833874Y-87470134D01*
X203720981Y-87243625D01*
X203615207Y-87028362D01*
X203519811Y-86830677D01*
X203492421Y-86773033D01*
X203396536Y-86570480D01*
X203317188Y-86403226D01*
X203249230Y-86260576D01*
X203187515Y-86131834D01*
X203126896Y-86006305D01*
X203062225Y-85873294D01*
X202988354Y-85722103D01*
X202900138Y-85542039D01*
X202892856Y-85527188D01*
X202813296Y-85365964D01*
X202737798Y-85214918D01*
X202670275Y-85081723D01*
X202614637Y-84974052D01*
X202574794Y-84899579D01*
X202559456Y-84872988D01*
X202523144Y-84809178D01*
X202502278Y-84761696D01*
X202500311Y-84751817D01*
X202483718Y-84711223D01*
X202437200Y-84639448D01*
X202365643Y-84542372D01*
X202273937Y-84425878D01*
X202166968Y-84295848D01*
X202049625Y-84158164D01*
X201926796Y-84018709D01*
X201803368Y-83883365D01*
X201684231Y-83758013D01*
X201623409Y-83696557D01*
X201531346Y-83606813D01*
X201416676Y-83497541D01*
X201294650Y-83383163D01*
X201190443Y-83287138D01*
X200936647Y-83055697D01*
X200936647Y-82918469D01*
X200947756Y-82784765D01*
X200977258Y-82645376D01*
X201019417Y-82526030D01*
X201028114Y-82508263D01*
X201046668Y-82451844D01*
X201049537Y-82397290D01*
X201036657Y-82364430D01*
X201028601Y-82361722D01*
X201002556Y-82382366D01*
G37*
X201002556Y-82382366D02*
X200990819Y-82406217D01*
X200967269Y-82458595D01*
X200931344Y-82524180D01*
X200929665Y-82526987D01*
X200887297Y-82622740D01*
X200847623Y-82761840D01*
X200812753Y-82936785D01*
X200810482Y-82950576D01*
X200805451Y-82993993D01*
X200810974Y-83029728D01*
X200833413Y-83067172D01*
X200879131Y-83115714D01*
X200954490Y-83184744D01*
X200991368Y-83217543D01*
X201377639Y-83575255D01*
X201715479Y-83920095D01*
X202005469Y-84252747D01*
X202248188Y-84573899D01*
X202444217Y-84884237D01*
X202522815Y-85031392D01*
X202576184Y-85135984D01*
X202626767Y-85231868D01*
X202666491Y-85303860D01*
X202678281Y-85323784D01*
X202710774Y-85384184D01*
X202726975Y-85429475D01*
X202727281Y-85432348D01*
X202741202Y-85472009D01*
X202774212Y-85534772D01*
X202792703Y-85565326D01*
X202830667Y-85630732D01*
X202853393Y-85680057D01*
X202856267Y-85692453D01*
X202868933Y-85728308D01*
X202900970Y-85788509D01*
X202919830Y-85819580D01*
X202958111Y-85888066D01*
X202980757Y-85943743D01*
X202983394Y-85958915D01*
X202996966Y-85993073D01*
X203008819Y-85997558D01*
X203029907Y-86018710D01*
X203034245Y-86045296D01*
X203052711Y-86101472D01*
X203072383Y-86124685D01*
X203105019Y-86174885D01*
X203110521Y-86204075D01*
X203121786Y-86243669D01*
X203135946Y-86251812D01*
X203157035Y-86272964D01*
X203161372Y-86299550D01*
X203179838Y-86355727D01*
X203199510Y-86378939D01*
X203231498Y-86418868D01*
X203237351Y-86439260D01*
X203247816Y-86473116D01*
X203276237Y-86541162D01*
X203317748Y-86632144D01*
X203348714Y-86696757D01*
X203408177Y-86818871D01*
X203479263Y-86965234D01*
X203551510Y-87114289D01*
X203595518Y-87205266D01*
X203653655Y-87323580D01*
X203709469Y-87433662D01*
X203756279Y-87522535D01*
X203785356Y-87573934D01*
X203818276Y-87630872D01*
X203867902Y-87720810D01*
X203927601Y-87831569D01*
X203990743Y-87950971D01*
X203993017Y-87955316D01*
X204157832Y-88268662D01*
X204302276Y-88539622D01*
X204428161Y-88771568D01*
X204537300Y-88967868D01*
X204547011Y-88985045D01*
X204596576Y-89072761D01*
X204643695Y-89156430D01*
X204664291Y-89193147D01*
X204707260Y-89267003D01*
X204759211Y-89352500D01*
X204774521Y-89376976D01*
X204812636Y-89440124D01*
X204835991Y-89484151D01*
X204839450Y-89494270D01*
X204851995Y-89521519D01*
X204884969Y-89579881D01*
X204931379Y-89657642D01*
X204984234Y-89743091D01*
X205036541Y-89824516D01*
X205037235Y-89825570D01*
X205070514Y-89885571D01*
X205084695Y-89919430D01*
X205107737Y-89956967D01*
X205122095Y-89963924D01*
X205144216Y-89983024D01*
X205144555Y-89987022D01*
X205158376Y-90014386D01*
X205197460Y-90078209D01*
X205258238Y-90173065D01*
X205337141Y-90293526D01*
X205430599Y-90434165D01*
X205535043Y-90589555D01*
X205646905Y-90754268D01*
X205703914Y-90837570D01*
X205739447Y-90887433D01*
X205791004Y-90957566D01*
X205849779Y-91036270D01*
X205906966Y-91111848D01*
X205953758Y-91172600D01*
X205981348Y-91206828D01*
X205984106Y-91209770D01*
X206005890Y-91235538D01*
X206047902Y-91288668D01*
X206085127Y-91336897D01*
X206183871Y-91461608D01*
X206280993Y-91576380D01*
X206371524Y-91676189D01*
X206450496Y-91756010D01*
X206512941Y-91810818D01*
X206553890Y-91835588D01*
X206568379Y-91825669D01*
X206552669Y-91792885D01*
X206520599Y-91752858D01*
X206478727Y-91700768D01*
X206426896Y-91627012D01*
X206402383Y-91589155D01*
X206358516Y-91522645D01*
X206323444Y-91475634D01*
X206311100Y-91463004D01*
X206288199Y-91437573D01*
X206243428Y-91380235D01*
X206184199Y-91300657D01*
X206143279Y-91244127D01*
X206055913Y-91124024D01*
X205956193Y-90989717D01*
X205862717Y-90866205D01*
X205843754Y-90841561D01*
X205775354Y-90752252D01*
X205717033Y-90674656D01*
X205677068Y-90619856D01*
X205665776Y-90603232D01*
X205635093Y-90560087D01*
X205585840Y-90496654D01*
X205557718Y-90461952D01*
X205510188Y-90398567D01*
X205480314Y-90347858D01*
X205475085Y-90330737D01*
X205454666Y-90295613D01*
X205436947Y-90285260D01*
X205403228Y-90257014D01*
X205398809Y-90241971D01*
X205385065Y-90204075D01*
X205351078Y-90146674D01*
X205341700Y-90133115D01*
X205298914Y-90069607D01*
X205245488Y-89985479D01*
X205187827Y-89891468D01*
X205132337Y-89798316D01*
X205085423Y-89716762D01*
X205053492Y-89657545D01*
X205042853Y-89632056D01*
X205022724Y-89607909D01*
X205004715Y-89598774D01*
X204971044Y-89572723D01*
X204966577Y-89559449D01*
X204953816Y-89529130D01*
X204919186Y-89465617D01*
X204868170Y-89378586D01*
X204814024Y-89290151D01*
X204753355Y-89191901D01*
X204704123Y-89110329D01*
X204671739Y-89054524D01*
X204661472Y-89033857D01*
X204649169Y-89007156D01*
X204618182Y-88953620D01*
X204601967Y-88927333D01*
X204549520Y-88838777D01*
X204478103Y-88710817D01*
X204390979Y-88549785D01*
X204291408Y-88362011D01*
X204182652Y-88153829D01*
X204067970Y-87931567D01*
X203950623Y-87701559D01*
X203833874Y-87470134D01*
X203720981Y-87243625D01*
X203615207Y-87028362D01*
X203519811Y-86830677D01*
X203492421Y-86773033D01*
X203396536Y-86570480D01*
X203317188Y-86403226D01*
X203249230Y-86260576D01*
X203187515Y-86131834D01*
X203126896Y-86006305D01*
X203062225Y-85873294D01*
X202988354Y-85722103D01*
X202900138Y-85542039D01*
X202892856Y-85527188D01*
X202813296Y-85365964D01*
X202737798Y-85214918D01*
X202670275Y-85081723D01*
X202614637Y-84974052D01*
X202574794Y-84899579D01*
X202559456Y-84872988D01*
X202523144Y-84809178D01*
X202502278Y-84761696D01*
X202500311Y-84751817D01*
X202483718Y-84711223D01*
X202437200Y-84639448D01*
X202365643Y-84542372D01*
X202273937Y-84425878D01*
X202166968Y-84295848D01*
X202049625Y-84158164D01*
X201926796Y-84018709D01*
X201803368Y-83883365D01*
X201684231Y-83758013D01*
X201623409Y-83696557D01*
X201531346Y-83606813D01*
X201416676Y-83497541D01*
X201294650Y-83383163D01*
X201190443Y-83287138D01*
X200936647Y-83055697D01*
X200936647Y-82918469D01*
X200947756Y-82784765D01*
X200977258Y-82645376D01*
X201019417Y-82526030D01*
X201028114Y-82508263D01*
X201046668Y-82451844D01*
X201049537Y-82397290D01*
X201036657Y-82364430D01*
X201028601Y-82361722D01*
X201002556Y-82382366D01*
G36*
X198978474Y-83376062D02*
G01*
X198943875Y-83432580D01*
X198900823Y-83512837D01*
X198889900Y-83534543D01*
X198824005Y-83651555D01*
X198732568Y-83792675D01*
X198624902Y-83944985D01*
X198510326Y-84095571D01*
X198398153Y-84231516D01*
X198342081Y-84294054D01*
X198265743Y-84377554D01*
X198187546Y-84465401D01*
X198149563Y-84509202D01*
X198067383Y-84598648D01*
X197960479Y-84705524D01*
X197843820Y-84815472D01*
X197732371Y-84914134D01*
X197694905Y-84945351D01*
X197638473Y-84991911D01*
X197600260Y-85024506D01*
X197593204Y-85031040D01*
X197550670Y-85068834D01*
X197476833Y-85128367D01*
X197381852Y-85201939D01*
X197275889Y-85281853D01*
X197169101Y-85360407D01*
X197071651Y-85429904D01*
X197021131Y-85464560D01*
X196834056Y-85595273D01*
X196689238Y-85709506D01*
X196582818Y-85812197D01*
X196510935Y-85908284D01*
X196469727Y-86002705D01*
X196455333Y-86100401D01*
X196460228Y-86181987D01*
X196480601Y-86266460D01*
X196518252Y-86370264D01*
X196565422Y-86475885D01*
X196614355Y-86565805D01*
X196653862Y-86619210D01*
X196676143Y-86673349D01*
X196668413Y-86744496D01*
X196640559Y-86799956D01*
X196610750Y-86864603D01*
X196602421Y-86915289D01*
X196579665Y-86993652D01*
X196516339Y-87044616D01*
X196416504Y-87065150D01*
X196401300Y-87065426D01*
X196311452Y-87075415D01*
X196228162Y-87100021D01*
X196216046Y-87105728D01*
X196151647Y-87130131D01*
X196112815Y-87120590D01*
X196110522Y-87118440D01*
X196063835Y-87094512D01*
X196006442Y-87090683D01*
X195958631Y-87105179D01*
X195940551Y-87133318D01*
X195930366Y-87178965D01*
X195904028Y-87249842D01*
X195867861Y-87332597D01*
X195828190Y-87413878D01*
X195791340Y-87480332D01*
X195763635Y-87518609D01*
X195755923Y-87523084D01*
X195743291Y-87501273D01*
X195747575Y-87445365D01*
X195748561Y-87440451D01*
X195761799Y-87366377D01*
X195776318Y-87270023D01*
X195783228Y-87217978D01*
X195795427Y-87137874D01*
X195810437Y-87096933D01*
X195834709Y-87083598D01*
X195857918Y-87084195D01*
X195902547Y-87072551D01*
X195916941Y-87038998D01*
X195892643Y-87003687D01*
X195891900Y-87003222D01*
X195867794Y-86973331D01*
X195833214Y-86913960D01*
X195815674Y-86879383D01*
X195787371Y-86817665D01*
X195775821Y-86771591D01*
X195780701Y-86721807D01*
X195801690Y-86648961D01*
X195811339Y-86618913D01*
X195840435Y-86524903D01*
X195864870Y-86439433D01*
X195876152Y-86394758D01*
X195901187Y-86340639D01*
X195952119Y-86266193D01*
X196018438Y-86186597D01*
X196025788Y-86178642D01*
X196141892Y-86051455D01*
X196223553Y-85955005D01*
X196273682Y-85885529D01*
X196295192Y-85839261D01*
X196296507Y-85828629D01*
X196280494Y-85802107D01*
X196235534Y-85811437D01*
X196166248Y-85854271D01*
X196077255Y-85928263D01*
X196049672Y-85954018D01*
X195970994Y-86025399D01*
X195894931Y-86088289D01*
X195840113Y-86127634D01*
X195779427Y-86182416D01*
X195728896Y-86257103D01*
X195722859Y-86270102D01*
X195675363Y-86399430D01*
X195639705Y-86532440D01*
X195617427Y-86658322D01*
X195610070Y-86766265D01*
X195619175Y-86845459D01*
X195636190Y-86878022D01*
X195646849Y-86912296D01*
X195627932Y-86969513D01*
X195577138Y-87055303D01*
X195543838Y-87103922D01*
X195516335Y-87150244D01*
X195471144Y-87234672D01*
X195412197Y-87349287D01*
X195343427Y-87486172D01*
X195268768Y-87637406D01*
X195192153Y-87795071D01*
X195117515Y-87951248D01*
X195048788Y-88098020D01*
X195032542Y-88133294D01*
X194987693Y-88230469D01*
X194933401Y-88347284D01*
X194884856Y-88451112D01*
X194838279Y-88551310D01*
X194794980Y-88646087D01*
X194763993Y-88715665D01*
X194762950Y-88718079D01*
X194733044Y-88786200D01*
X194690940Y-88880601D01*
X194645553Y-88981300D01*
X194643854Y-88985045D01*
X194598427Y-89085603D01*
X194555805Y-89180631D01*
X194524954Y-89250136D01*
X194524131Y-89252012D01*
X194491148Y-89326227D01*
X194448530Y-89420787D01*
X194421204Y-89480841D01*
X194348073Y-89644270D01*
X194289993Y-89782502D01*
X194268439Y-89836797D01*
X194244807Y-89893444D01*
X194208421Y-89976548D01*
X194174054Y-90052913D01*
X194134650Y-90140278D01*
X194101634Y-90215185D01*
X194084248Y-90256317D01*
X194065207Y-90304464D01*
X194034043Y-90383553D01*
X193997217Y-90477193D01*
X193994092Y-90485146D01*
X193949190Y-90596527D01*
X193901266Y-90710922D01*
X193864492Y-90795033D01*
X193831568Y-90873790D01*
X193809894Y-90937108D01*
X193804815Y-90962748D01*
X193793202Y-91012057D01*
X193762460Y-91090444D01*
X193718734Y-91182865D01*
X193701478Y-91215782D01*
X193680709Y-91279856D01*
X193677688Y-91309626D01*
X193666090Y-91358443D01*
X193652263Y-91375035D01*
X193630597Y-91411043D01*
X193626837Y-91438039D01*
X193615748Y-91491958D01*
X193588628Y-91561345D01*
X193584397Y-91570022D01*
X193540588Y-91658461D01*
X193515151Y-91713872D01*
X193503186Y-91748440D01*
X193499793Y-91774351D01*
X193499710Y-91780635D01*
X193490146Y-91828570D01*
X193466836Y-91895035D01*
X193464016Y-91901750D01*
X193434319Y-91980925D01*
X193404501Y-92074839D01*
X193397554Y-92099660D01*
X193374583Y-92180827D01*
X193353561Y-92248317D01*
X193347733Y-92264925D01*
X193299505Y-92403459D01*
X193264914Y-92523205D01*
X193247077Y-92612798D01*
X193245330Y-92638450D01*
X193236888Y-92694757D01*
X193220030Y-92722583D01*
X193201734Y-92756943D01*
X193194605Y-92813298D01*
X193183107Y-92859334D01*
X193150146Y-92945109D01*
X193098026Y-93065405D01*
X193029046Y-93215006D01*
X192945510Y-93388692D01*
X192900853Y-93479215D01*
X192808131Y-93665575D01*
X192734696Y-93812599D01*
X192677284Y-93926529D01*
X192632629Y-94013605D01*
X192597468Y-94080068D01*
X192568536Y-94132159D01*
X192542568Y-94176120D01*
X192516300Y-94218190D01*
X192505363Y-94235287D01*
X192471723Y-94290852D01*
X192424725Y-94372337D01*
X192380415Y-94451512D01*
X192325018Y-94551935D01*
X192268414Y-94654358D01*
X192232906Y-94718479D01*
X192195148Y-94786964D01*
X192166795Y-94840386D01*
X192139855Y-94894784D01*
X192106336Y-94966196D01*
X192068191Y-95049009D01*
X192026668Y-95145745D01*
X191989846Y-95242204D01*
X191973878Y-95290551D01*
X191930405Y-95419759D01*
X191886594Y-95506857D01*
X191836635Y-95560294D01*
X191774718Y-95588514D01*
X191767720Y-95590257D01*
X191667128Y-95637770D01*
X191576077Y-95724104D01*
X191502611Y-95837249D01*
X191454769Y-95965197D01*
X191440251Y-96079254D01*
X191440251Y-96167728D01*
X191273522Y-96167728D01*
X191113151Y-96185939D01*
X190966437Y-96243549D01*
X190823388Y-96345024D01*
X190772397Y-96391672D01*
X190692803Y-96477208D01*
X190637311Y-96562501D01*
X190601970Y-96659431D01*
X190582828Y-96779874D01*
X190575934Y-96935708D01*
X190575660Y-96983013D01*
X190578951Y-97145137D01*
X190591161Y-97275589D01*
X190615565Y-97393234D01*
X190655431Y-97516937D01*
X190678987Y-97578839D01*
X190699361Y-97632636D01*
X190728149Y-97710815D01*
X190742531Y-97750461D01*
X190771385Y-97819455D01*
X190797290Y-97863172D01*
X190808069Y-97871232D01*
X190825930Y-97892557D01*
X190830040Y-97922083D01*
X190838993Y-97963423D01*
X190851385Y-97972933D01*
X190876407Y-97993451D01*
X190901669Y-98036451D01*
X190957675Y-98124756D01*
X191045454Y-98223030D01*
X191155140Y-98323815D01*
X191276868Y-98419657D01*
X191400773Y-98503099D01*
X191516990Y-98566686D01*
X191615653Y-98602961D01*
X191658653Y-98608569D01*
X191710071Y-98617229D01*
X191730677Y-98630814D01*
X191760608Y-98644771D01*
X191828085Y-98662288D01*
X191920250Y-98680190D01*
X191950887Y-98685176D01*
X192035398Y-98696943D01*
X192113504Y-98703675D01*
X192196093Y-98705152D01*
X192294051Y-98701150D01*
X192418263Y-98691448D01*
X192579617Y-98675824D01*
X192622069Y-98671478D01*
X192684437Y-98661935D01*
X192765608Y-98643152D01*
X192876342Y-98612423D01*
X192980294Y-98581421D01*
X193060729Y-98561229D01*
X193103749Y-98563139D01*
X193118106Y-98587935D01*
X193118329Y-98593796D01*
X193137719Y-98664572D01*
X193185571Y-98736055D01*
X193246405Y-98788097D01*
X193277238Y-98800618D01*
X193363428Y-98810117D01*
X193445992Y-98795792D01*
X193533724Y-98753471D01*
X193635420Y-98678985D01*
X193752021Y-98575527D01*
X193812730Y-98520410D01*
X193843841Y-98498307D01*
X193851755Y-98506312D01*
X193845482Y-98533113D01*
X193809281Y-98734965D01*
X193823458Y-98933385D01*
X193887580Y-99126948D01*
X194001214Y-99314230D01*
X194126476Y-99457572D01*
X194303055Y-99610338D01*
X194499577Y-99739426D01*
X194700551Y-99835358D01*
X194796407Y-99867515D01*
X194901575Y-99898056D01*
X195009613Y-99930541D01*
X195054073Y-99944345D01*
X195193801Y-99972182D01*
X195361303Y-99980706D01*
X195539535Y-99971241D01*
X195711454Y-99945108D01*
X195860016Y-99903630D01*
X195921137Y-99877077D01*
X195971630Y-99857792D01*
X195992410Y-99854415D01*
X196027772Y-99839048D01*
X196092091Y-99797793D01*
X196175767Y-99737921D01*
X196269204Y-99666703D01*
X196362804Y-99591409D01*
X196446971Y-99519310D01*
X196499910Y-99469955D01*
X196568869Y-99399275D01*
X196656372Y-99305873D01*
X196747739Y-99205524D01*
X196785828Y-99162730D01*
X196936543Y-99012180D01*
X197095196Y-98890164D01*
X197251264Y-98804196D01*
X197326237Y-98776724D01*
X197387792Y-98764700D01*
X197481961Y-98753203D01*
X197590534Y-98744365D01*
X197613723Y-98743033D01*
X197740609Y-98740305D01*
X197825008Y-98749841D01*
X197874381Y-98774354D01*
X197896188Y-98816560D01*
X197899117Y-98846867D01*
X197914995Y-98910522D01*
X197937255Y-98950315D01*
X197966898Y-99006073D01*
X197974585Y-99041720D01*
X197992276Y-99089546D01*
X198025436Y-99129790D01*
X198063537Y-99174243D01*
X198076287Y-99205180D01*
X198095440Y-99246660D01*
X198144114Y-99303274D01*
X198209131Y-99362542D01*
X198277310Y-99411985D01*
X198316602Y-99432745D01*
X198393584Y-99452651D01*
X198511260Y-99467802D01*
X198659696Y-99478187D01*
X198828957Y-99483792D01*
X199009108Y-99484608D01*
X199190216Y-99480622D01*
X199362344Y-99471821D01*
X199515559Y-99458194D01*
X199639926Y-99439730D01*
X199665376Y-99434350D01*
X199844357Y-99368129D01*
X199999311Y-99258380D01*
X200126267Y-99108302D01*
X200176090Y-99022886D01*
X200243981Y-98914396D01*
X200254466Y-98901926D01*
X198166743Y-98901926D01*
X198146416Y-98913541D01*
X198140745Y-98913674D01*
X198108697Y-98892428D01*
X198101712Y-98862823D01*
X198106683Y-98821441D01*
X198113530Y-98811972D01*
X198133228Y-98831436D01*
X198152563Y-98862823D01*
X198166743Y-98901926D01*
X200254466Y-98901926D01*
X200327590Y-98814967D01*
X200412722Y-98740568D01*
X200444150Y-98721328D01*
X200548188Y-98673957D01*
X200590301Y-98659420D01*
X197798911Y-98659420D01*
X197581518Y-98659420D01*
X197460287Y-98662325D01*
X197370754Y-98673339D01*
X197293979Y-98695909D01*
X197232364Y-98722983D01*
X197157389Y-98757554D01*
X197100970Y-98780639D01*
X197080130Y-98786547D01*
X197044510Y-98801695D01*
X196983974Y-98848197D01*
X196896843Y-98927637D01*
X196781436Y-99041600D01*
X196636076Y-99191671D01*
X196512623Y-99322228D01*
X196360775Y-99472031D01*
X196206912Y-99601823D01*
X196058057Y-99706909D01*
X195921235Y-99782593D01*
X195803468Y-99824181D01*
X195751907Y-99830776D01*
X195677487Y-99839238D01*
X195622733Y-99854415D01*
X195556604Y-99868835D01*
X195454278Y-99874952D01*
X195329692Y-99872977D01*
X195196781Y-99863124D01*
X195071815Y-99846016D01*
X194983277Y-99828273D01*
X194915367Y-99810631D01*
X194883243Y-99797174D01*
X194843294Y-99780191D01*
X194822425Y-99778139D01*
X194781090Y-99767409D01*
X194708326Y-99738905D01*
X194617901Y-99698157D01*
X194591477Y-99685397D01*
X194431902Y-99590559D01*
X194277127Y-99468639D01*
X194139637Y-99331412D01*
X194031919Y-99190654D01*
X193991701Y-99119737D01*
X193960510Y-99051410D01*
X193940366Y-98990160D01*
X193928960Y-98921738D01*
X193923980Y-98831894D01*
X193923117Y-98706378D01*
X193923147Y-98696905D01*
X193924619Y-98569894D01*
X193929548Y-98480212D01*
X193940294Y-98414348D01*
X193959219Y-98358792D01*
X193988684Y-98300033D01*
X193994263Y-98289921D01*
X194036212Y-98215959D01*
X194056507Y-98181867D01*
X193891427Y-98181867D01*
X193879794Y-98216656D01*
X193847666Y-98270796D01*
X193799499Y-98338091D01*
X193739750Y-98412349D01*
X193672877Y-98487374D01*
X193603336Y-98556973D01*
X193535584Y-98614952D01*
X193530519Y-98618794D01*
X193422494Y-98685655D01*
X193335662Y-98707345D01*
X193268211Y-98684044D01*
X193235667Y-98647602D01*
X193203366Y-98579237D01*
X193196638Y-98520718D01*
X193215698Y-98485796D01*
X193233088Y-98481442D01*
X193287962Y-98469799D01*
X193315721Y-98457806D01*
X193357367Y-98436642D01*
X193403678Y-98413733D01*
X193052156Y-98413733D01*
X193023494Y-98463260D01*
X192956590Y-98481436D01*
X192955035Y-98481442D01*
X192899500Y-98491155D01*
X192875516Y-98504263D01*
X192836374Y-98521906D01*
X192769285Y-98537271D01*
X192749660Y-98540146D01*
X192656162Y-98555849D01*
X192565493Y-98576486D01*
X192558969Y-98578286D01*
X192438238Y-98598928D01*
X192286823Y-98605191D01*
X192122649Y-98597631D01*
X191963642Y-98576802D01*
X191874096Y-98557092D01*
X191764722Y-98524881D01*
X191659259Y-98488640D01*
X191580425Y-98456178D01*
X191580033Y-98455989D01*
X191511581Y-98425346D01*
X191461193Y-98407248D01*
X191449730Y-98405166D01*
X191413759Y-98389339D01*
X191374472Y-98358638D01*
X191315818Y-98310167D01*
X191253722Y-98265715D01*
X191188271Y-98208248D01*
X191111387Y-98118310D01*
X191029690Y-98006508D01*
X190949796Y-97883452D01*
X190878323Y-97759750D01*
X190821888Y-97646011D01*
X190787108Y-97552841D01*
X190779189Y-97504989D01*
X190767900Y-97451587D01*
X190743817Y-97393242D01*
X190728539Y-97337389D01*
X190716586Y-97243961D01*
X190708278Y-97126150D01*
X190703940Y-96997142D01*
X190703893Y-96870128D01*
X190708460Y-96758296D01*
X190717963Y-96674835D01*
X190725535Y-96645474D01*
X190792781Y-96532123D01*
X190899542Y-96427428D01*
X191034484Y-96339522D01*
X191186275Y-96276536D01*
X191267808Y-96256386D01*
X191342683Y-96252445D01*
X191394629Y-96278610D01*
X191401020Y-96284683D01*
X191431203Y-96320418D01*
X191423163Y-96344862D01*
X191398576Y-96364523D01*
X191366226Y-96393008D01*
X191375287Y-96412245D01*
X191395756Y-96424714D01*
X191432267Y-96468759D01*
X191440251Y-96504210D01*
X191446977Y-96557626D01*
X191464361Y-96639295D01*
X191482024Y-96707364D01*
X191528696Y-96829446D01*
X191591183Y-96907466D01*
X191676166Y-96947388D01*
X191760613Y-96955916D01*
X191877383Y-96931260D01*
X191981876Y-96857965D01*
X192072809Y-96737038D01*
X192097526Y-96691077D01*
X192157469Y-96598609D01*
X192235439Y-96537689D01*
X192262119Y-96524112D01*
X192361703Y-96464593D01*
X192424339Y-96391455D01*
X192456797Y-96292954D01*
X192465822Y-96170759D01*
X192465158Y-96148368D01*
X192372322Y-96148368D01*
X192350656Y-96263345D01*
X192303191Y-96347846D01*
X192253413Y-96405753D01*
X192220624Y-96419161D01*
X192208182Y-96388388D01*
X192213650Y-96339350D01*
X192227065Y-96267437D01*
X192243968Y-96171126D01*
X192254934Y-96106023D01*
X192270037Y-96023990D01*
X192283911Y-95964483D01*
X192291929Y-95943210D01*
X192307975Y-95956395D01*
X192333893Y-96003910D01*
X192344779Y-96028576D01*
X192372322Y-96148368D01*
X192465158Y-96148368D01*
X192462777Y-96068201D01*
X192448094Y-95993597D01*
X192416027Y-95924394D01*
X192393782Y-95888048D01*
X192350386Y-95811151D01*
X192329656Y-95741466D01*
X192325257Y-95653982D01*
X192326155Y-95621082D01*
X192333020Y-95523475D01*
X192344739Y-95434850D01*
X192353984Y-95392253D01*
X192370576Y-95329678D01*
X192393311Y-95236745D01*
X192417471Y-95132777D01*
X192419161Y-95125286D01*
X192447110Y-95010798D01*
X192481941Y-94882190D01*
X192519805Y-94752250D01*
X192556850Y-94633768D01*
X192589223Y-94539535D01*
X192612392Y-94483639D01*
X192632101Y-94426927D01*
X192635246Y-94401869D01*
X192644897Y-94355569D01*
X192668880Y-94287284D01*
X192676908Y-94268040D01*
X192708684Y-94193145D01*
X192734257Y-94130346D01*
X192737879Y-94120981D01*
X192772116Y-94040491D01*
X192822282Y-93934278D01*
X192879503Y-93821012D01*
X192888889Y-93803164D01*
X192925297Y-93731331D01*
X192953569Y-93670455D01*
X192956541Y-93663324D01*
X192969706Y-93643858D01*
X192978826Y-93666581D01*
X192985509Y-93732378D01*
X192985075Y-93815536D01*
X192974107Y-93884159D01*
X192967134Y-93902328D01*
X192949812Y-93959783D01*
X192940741Y-94038830D01*
X192940351Y-94057418D01*
X192933563Y-94138212D01*
X192916774Y-94205067D01*
X192912095Y-94215259D01*
X192895890Y-94264927D01*
X192878421Y-94348945D01*
X192862955Y-94451015D01*
X192860155Y-94474198D01*
X192837773Y-94668654D01*
X192819990Y-94822104D01*
X192805666Y-94944069D01*
X192793660Y-95044067D01*
X192782832Y-95131619D01*
X192772042Y-95216246D01*
X192762367Y-95290551D01*
X192748704Y-95426004D01*
X192738492Y-95591652D01*
X192731620Y-95779578D01*
X192727981Y-95981862D01*
X192727465Y-96190588D01*
X192729964Y-96397837D01*
X192735369Y-96595692D01*
X192743571Y-96776234D01*
X192754462Y-96931547D01*
X192767933Y-97053711D01*
X192783875Y-97134810D01*
X192787863Y-97146777D01*
X192804945Y-97217871D01*
X192813107Y-97303292D01*
X192813224Y-97313163D01*
X192815225Y-97370749D01*
X192822591Y-97433905D01*
X192837362Y-97513950D01*
X192861580Y-97622207D01*
X192890933Y-97744105D01*
X192914240Y-97842074D01*
X192936707Y-97940747D01*
X192940973Y-97960221D01*
X192972208Y-98101071D01*
X192996780Y-98202897D01*
X193017533Y-98276632D01*
X193037312Y-98333205D01*
X193039346Y-98338338D01*
X193052156Y-98413733D01*
X193403678Y-98413733D01*
X193431932Y-98399757D01*
X193526526Y-98353503D01*
X193575986Y-98329489D01*
X193675662Y-98280310D01*
X193761400Y-98236373D01*
X193820321Y-98204351D01*
X193835377Y-98195115D01*
X193878107Y-98172622D01*
X193891427Y-98181867D01*
X194056507Y-98181867D01*
X194070037Y-98159139D01*
X194083787Y-98138199D01*
X194116866Y-98086717D01*
X194166250Y-97999864D01*
X194226452Y-97888212D01*
X194291984Y-97762335D01*
X194357357Y-97632803D01*
X194417084Y-97510191D01*
X194465677Y-97405072D01*
X194473111Y-97388149D01*
X194506849Y-97310975D01*
X194548430Y-97216466D01*
X194568064Y-97172032D01*
X194608304Y-97079834D01*
X194646409Y-96990449D01*
X194660757Y-96955916D01*
X194691633Y-96884387D01*
X194718874Y-96827422D01*
X194721362Y-96822778D01*
X194742447Y-96758901D01*
X194745556Y-96728933D01*
X194756217Y-96680757D01*
X194769025Y-96664733D01*
X194790730Y-96631621D01*
X194809232Y-96574022D01*
X194826883Y-96519118D01*
X194844110Y-96513344D01*
X194860068Y-96554982D01*
X194873910Y-96642313D01*
X194881178Y-96720193D01*
X194896324Y-96889168D01*
X194915601Y-97059847D01*
X194937575Y-97222925D01*
X194960812Y-97369094D01*
X194983877Y-97489047D01*
X195005336Y-97573479D01*
X195017397Y-97604265D01*
X195062474Y-97699472D01*
X195103630Y-97804366D01*
X195111121Y-97826737D01*
X195143497Y-97864718D01*
X195189453Y-97866360D01*
X195218644Y-97841409D01*
X195242276Y-97789424D01*
X195263076Y-97712749D01*
X195281259Y-97608373D01*
X195297039Y-97473287D01*
X195310630Y-97304478D01*
X195322247Y-97098937D01*
X195332103Y-96853653D01*
X195340414Y-96565617D01*
X195347394Y-96231816D01*
X195351526Y-95974548D01*
X195356603Y-95659832D01*
X195362032Y-95394696D01*
X195367860Y-95177870D01*
X195374137Y-95008086D01*
X195380909Y-94884073D01*
X195388224Y-94804561D01*
X195396131Y-94768281D01*
X195397066Y-94766841D01*
X195422384Y-94716397D01*
X195439468Y-94654915D01*
X195456942Y-94575149D01*
X195477675Y-94497417D01*
X195260159Y-94497417D01*
X195259799Y-94638608D01*
X195258271Y-94753691D01*
X195255516Y-94846200D01*
X195251479Y-94919667D01*
X195246103Y-94977628D01*
X195239331Y-95023616D01*
X195231106Y-95061165D01*
X195221372Y-95093808D01*
X195210073Y-95125080D01*
X195205101Y-95137998D01*
X195150333Y-95287172D01*
X195117122Y-95397096D01*
X195108386Y-95437058D01*
X195091708Y-95493257D01*
X195073155Y-95521192D01*
X195055558Y-95554795D01*
X195050661Y-95595077D01*
X195042807Y-95666663D01*
X195023206Y-95718963D01*
X195001810Y-95735496D01*
X194997060Y-95711266D01*
X194993592Y-95643333D01*
X194991512Y-95538830D01*
X194990924Y-95404892D01*
X194991937Y-95248651D01*
X194993194Y-95157067D01*
X194996990Y-94982517D01*
X195002370Y-94817855D01*
X195008889Y-94672368D01*
X195016105Y-94555344D01*
X195023575Y-94476070D01*
X195026612Y-94456617D01*
X195036234Y-94381865D01*
X195044051Y-94271842D01*
X195049191Y-94142119D01*
X195050808Y-94024385D01*
X195053148Y-93885956D01*
X195059374Y-93749431D01*
X195068489Y-93632096D01*
X195077540Y-93561622D01*
X195087010Y-93488540D01*
X195097634Y-93375384D01*
X195108594Y-93232891D01*
X195119069Y-93071799D01*
X195128239Y-92902847D01*
X195128962Y-92887848D01*
X195141641Y-92623523D01*
X195152340Y-92405483D01*
X195161364Y-92229212D01*
X195169019Y-92090195D01*
X195175608Y-91983917D01*
X195181438Y-91905862D01*
X195186814Y-91851517D01*
X195192040Y-91816365D01*
X195197421Y-91795891D01*
X195203263Y-91785581D01*
X195203448Y-91785381D01*
X195208062Y-91805350D01*
X195213054Y-91871213D01*
X195218258Y-91978019D01*
X195223507Y-92120816D01*
X195228637Y-92294650D01*
X195233480Y-92494570D01*
X195237871Y-92715622D01*
X195240943Y-92904100D01*
X195246407Y-93276151D01*
X195251042Y-93600892D01*
X195254791Y-93881854D01*
X195257598Y-94122574D01*
X195259407Y-94326583D01*
X195260159Y-94497417D01*
X195477675Y-94497417D01*
X195479640Y-94490050D01*
X195479759Y-94489650D01*
X195502594Y-94413039D01*
X195531659Y-94315707D01*
X195548069Y-94260821D01*
X195576212Y-94160991D01*
X195601329Y-94062356D01*
X195611056Y-94019280D01*
X195629898Y-93936803D01*
X195655788Y-93833204D01*
X195673872Y-93765025D01*
X195700457Y-93666075D01*
X195724901Y-93572425D01*
X195737204Y-93523484D01*
X195781285Y-93341284D01*
X195815409Y-93196702D01*
X195842074Y-93078054D01*
X195863777Y-92973655D01*
X195883015Y-92871821D01*
X195902285Y-92760867D01*
X195909766Y-92716114D01*
X195926529Y-92636092D01*
X195945690Y-92573650D01*
X195953499Y-92557205D01*
X195970365Y-92511624D01*
X195988161Y-92435603D01*
X195997860Y-92379340D01*
X196025368Y-92198685D01*
X196049129Y-92055631D01*
X196071445Y-91937290D01*
X196094622Y-91830775D01*
X196100156Y-91807268D01*
X196120619Y-91731832D01*
X196137080Y-91699335D01*
X196151004Y-91711638D01*
X196163859Y-91770605D01*
X196177111Y-91878096D01*
X196180279Y-91908969D01*
X196195319Y-92040783D01*
X196215727Y-92194359D01*
X196239482Y-92356713D01*
X196264557Y-92514862D01*
X196288932Y-92655821D01*
X196310581Y-92766606D01*
X196320860Y-92811021D01*
X196338600Y-92886825D01*
X196359742Y-92986118D01*
X196373065Y-93053114D01*
X196404914Y-93213930D01*
X196436958Y-93366742D01*
X196466602Y-93499744D01*
X196491254Y-93601128D01*
X196501916Y-93639703D01*
X196519225Y-93720314D01*
X196525336Y-93787571D01*
X196535381Y-93860378D01*
X196552561Y-93908228D01*
X196573007Y-93962460D01*
X196594621Y-94043656D01*
X196604517Y-94090890D01*
X196623455Y-94191587D01*
X196642303Y-94291459D01*
X196648714Y-94325315D01*
X196665590Y-94398074D01*
X196683285Y-94451079D01*
X196687290Y-94458867D01*
X196702617Y-94500273D01*
X196720958Y-94572435D01*
X196731387Y-94623202D01*
X196766127Y-94799297D01*
X196800743Y-94952127D01*
X196841405Y-95108888D01*
X196842410Y-95112573D01*
X196889426Y-95288243D01*
X196925421Y-95431406D01*
X196953350Y-95553121D01*
X196971361Y-95623254D01*
X196988900Y-95672829D01*
X196991939Y-95678549D01*
X197007213Y-95718682D01*
X197026281Y-95788675D01*
X197035538Y-95829142D01*
X197071324Y-95986391D01*
X197110618Y-96135857D01*
X197149609Y-96269430D01*
X197177910Y-96369229D01*
X197203158Y-96467842D01*
X197212942Y-96510971D01*
X197233186Y-96595671D01*
X197261167Y-96698440D01*
X197277187Y-96752513D01*
X197304087Y-96850248D01*
X197325262Y-96945328D01*
X197332259Y-96987857D01*
X197345621Y-97053425D01*
X197363294Y-97093970D01*
X197367060Y-97097416D01*
X197384299Y-97130774D01*
X197390701Y-97179889D01*
X197404480Y-97255263D01*
X197427938Y-97311872D01*
X197455001Y-97385116D01*
X197465175Y-97456568D01*
X197473054Y-97517644D01*
X197490837Y-97552976D01*
X197491502Y-97553414D01*
X197509495Y-97587511D01*
X197517796Y-97648135D01*
X197517828Y-97650260D01*
X197530322Y-97730727D01*
X197555065Y-97794955D01*
X197583261Y-97868353D01*
X197592303Y-97926938D01*
X197601520Y-97983276D01*
X197618629Y-98011071D01*
X197635946Y-98044942D01*
X197643984Y-98106330D01*
X197644054Y-98112773D01*
X197650104Y-98174979D01*
X197664845Y-98211351D01*
X197666597Y-98212694D01*
X197685518Y-98244728D01*
X197703758Y-98306302D01*
X197707011Y-98322252D01*
X197723617Y-98391218D01*
X197741632Y-98438574D01*
X197744716Y-98443304D01*
X197761994Y-98483596D01*
X197779074Y-98550194D01*
X197781731Y-98564074D01*
X197798911Y-98659420D01*
X200590301Y-98659420D01*
X200649316Y-98639049D01*
X200739810Y-98617514D01*
X200811947Y-98610262D01*
X200858004Y-98618204D01*
X200870258Y-98642249D01*
X200850798Y-98673404D01*
X200819329Y-98717719D01*
X200779478Y-98786621D01*
X200739801Y-98863464D01*
X200708855Y-98931603D01*
X200695195Y-98974393D01*
X200695105Y-98976278D01*
X200673963Y-99008989D01*
X200622780Y-99046379D01*
X200559919Y-99077547D01*
X200503744Y-99091592D01*
X200500755Y-99091652D01*
X200466016Y-99105924D01*
X200399714Y-99144575D01*
X200310882Y-99201357D01*
X200208551Y-99270022D01*
X200101754Y-99344324D01*
X199999521Y-99418014D01*
X199910885Y-99484845D01*
X199844877Y-99538569D01*
X199817928Y-99563991D01*
X199784679Y-99592429D01*
X199726619Y-99636163D01*
X199657022Y-99685893D01*
X199589162Y-99732320D01*
X199536312Y-99766144D01*
X199512259Y-99778139D01*
X199484803Y-99790553D01*
X199430233Y-99822022D01*
X199398409Y-99841702D01*
X199326604Y-99880318D01*
X199264099Y-99902870D01*
X199246361Y-99905266D01*
X199204772Y-99915819D01*
X199195005Y-99930691D01*
X199173339Y-99950129D01*
X199134348Y-99956117D01*
X199067645Y-99967985D01*
X199000865Y-99994098D01*
X198919670Y-100022541D01*
X198835194Y-100031171D01*
X198767210Y-100019099D01*
X198746103Y-100005553D01*
X198711169Y-99995315D01*
X198631498Y-99985966D01*
X198513201Y-99977964D01*
X198362392Y-99971769D01*
X198262013Y-99969176D01*
X198095242Y-99965158D01*
X197970979Y-99960429D01*
X197880884Y-99954039D01*
X197816614Y-99945039D01*
X197769829Y-99932478D01*
X197732185Y-99915408D01*
X197718052Y-99907246D01*
X197652181Y-99868867D01*
X197600140Y-99840934D01*
X197593204Y-99837645D01*
X197518569Y-99782845D01*
X197454791Y-99700191D01*
X197416346Y-99610465D01*
X197411271Y-99576512D01*
X197410871Y-99458161D01*
X197422905Y-99380973D01*
X197448700Y-99336489D01*
X197448952Y-99336255D01*
X197522516Y-99283717D01*
X197610910Y-99241253D01*
X197690585Y-99219659D01*
X197705185Y-99218779D01*
X197754126Y-99210874D01*
X197771181Y-99194889D01*
X197793575Y-99177151D01*
X197848668Y-99164384D01*
X197860702Y-99163107D01*
X197922455Y-99149646D01*
X197947488Y-99129610D01*
X197932678Y-99112606D01*
X197878604Y-99108024D01*
X197801633Y-99117832D01*
X197712676Y-99137165D01*
X197629700Y-99161185D01*
X197570669Y-99185052D01*
X197556337Y-99194812D01*
X197510649Y-99217255D01*
X197492773Y-99219625D01*
X197440691Y-99237627D01*
X197385528Y-99278747D01*
X197346551Y-99326498D01*
X197338949Y-99351253D01*
X197322265Y-99400129D01*
X197310616Y-99414920D01*
X197300268Y-99454942D01*
X197305462Y-99524805D01*
X197322467Y-99607293D01*
X197347548Y-99685191D01*
X197376976Y-99741282D01*
X197382864Y-99748173D01*
X197410564Y-99786734D01*
X197415226Y-99802001D01*
X197435103Y-99826940D01*
X197486036Y-99868064D01*
X197554970Y-99916251D01*
X197628853Y-99962380D01*
X197694633Y-99997329D01*
X197694905Y-99997454D01*
X197760016Y-100026365D01*
X197841371Y-100061387D01*
X197860170Y-100069331D01*
X197936932Y-100102383D01*
X198001553Y-100131465D01*
X198013607Y-100137182D01*
X198056992Y-100145128D01*
X198140660Y-100149944D01*
X198254151Y-100151819D01*
X198387007Y-100150946D01*
X198528767Y-100147513D01*
X198668973Y-100141713D01*
X198797164Y-100133735D01*
X198902883Y-100123771D01*
X198928038Y-100120509D01*
X199013151Y-100103025D01*
X199083606Y-100079198D01*
X199105317Y-100067488D01*
X199160065Y-100039592D01*
X199193149Y-100032393D01*
X199236933Y-100022312D01*
X199304654Y-99996628D01*
X199381838Y-99962178D01*
X199454012Y-99925798D01*
X199506703Y-99894325D01*
X199525536Y-99875376D01*
X199545345Y-99855373D01*
X199553766Y-99854415D01*
X199583239Y-99840597D01*
X199641774Y-99804543D01*
X199717620Y-99754350D01*
X199799027Y-99698116D01*
X199874243Y-99643939D01*
X199931520Y-99599918D01*
X199957768Y-99575990D01*
X199985097Y-99552593D01*
X200043986Y-99507580D01*
X200124211Y-99448309D01*
X200215545Y-99382141D01*
X200307760Y-99316434D01*
X200390632Y-99258547D01*
X200453934Y-99215841D01*
X200483674Y-99197519D01*
X200554918Y-99173471D01*
X200601515Y-99167928D01*
X200637492Y-99172727D01*
X200658989Y-99195163D01*
X200672722Y-99247297D01*
X200681851Y-99312234D01*
X200713333Y-99454328D01*
X200775803Y-99612465D01*
X200872562Y-99794725D01*
X200893145Y-99829501D01*
X200949102Y-99923092D01*
X201007387Y-100021006D01*
X201025636Y-100051778D01*
X201085311Y-100130188D01*
X201146583Y-100161107D01*
X201214249Y-100144472D01*
X201293102Y-100080216D01*
X201323104Y-100047747D01*
X201396323Y-99942856D01*
X201457171Y-99815904D01*
X201497247Y-99687387D01*
X201499581Y-99668544D01*
X201427991Y-99668544D01*
X201384000Y-99814993D01*
X201368436Y-99846713D01*
X201318728Y-99926172D01*
X201259089Y-100000024D01*
X201200744Y-100056163D01*
X201154914Y-100082481D01*
X201149304Y-100083117D01*
X201128354Y-100062876D01*
X201097415Y-100012802D01*
X201091025Y-100000611D01*
X201047280Y-99918528D01*
X201003699Y-99841702D01*
X200966828Y-99776134D01*
X200919785Y-99688099D01*
X200887511Y-99625586D01*
X200845757Y-99543367D01*
X200810749Y-99474526D01*
X200793962Y-99441597D01*
X200781218Y-99392051D01*
X200773030Y-99312923D01*
X200771382Y-99257262D01*
X200771382Y-99117078D01*
X200897008Y-99117078D01*
X200972834Y-99121827D01*
X201025640Y-99133923D01*
X201038349Y-99142503D01*
X201074195Y-99163830D01*
X201103633Y-99167928D01*
X201162682Y-99188232D01*
X201235788Y-99242438D01*
X201311447Y-99320490D01*
X201372085Y-99402608D01*
X201424032Y-99529538D01*
X201427991Y-99668544D01*
X201499581Y-99668544D01*
X201508719Y-99594802D01*
X201494470Y-99516101D01*
X201457660Y-99417276D01*
X201407192Y-99318147D01*
X201351968Y-99238538D01*
X201345391Y-99231179D01*
X201264779Y-99163395D01*
X201162048Y-99102763D01*
X201056233Y-99058755D01*
X200966370Y-99040842D01*
X200962806Y-99040801D01*
X200891246Y-99036365D01*
X200837823Y-99025671D01*
X200837206Y-99025438D01*
X200811750Y-98992757D01*
X200816949Y-98933209D01*
X200846975Y-98855354D01*
X200896001Y-98767749D01*
X200958201Y-98678954D01*
X201027748Y-98597526D01*
X201098814Y-98532025D01*
X201165572Y-98491008D01*
X201207579Y-98481442D01*
X201240133Y-98467558D01*
X201303714Y-98430311D01*
X201388268Y-98376307D01*
X201483741Y-98312156D01*
X201580079Y-98244462D01*
X201667229Y-98179835D01*
X201671408Y-98176615D01*
X201774902Y-98119342D01*
X201880637Y-98099130D01*
X201977529Y-98114763D01*
X202054491Y-98165024D01*
X202091661Y-98222739D01*
X202106145Y-98270168D01*
X202107191Y-98322240D01*
X202093451Y-98393927D01*
X202067946Y-98485489D01*
X202037694Y-98590202D01*
X202010623Y-98688224D01*
X201992403Y-98759011D01*
X201991906Y-98761122D01*
X201968595Y-98851622D01*
X201943169Y-98939100D01*
X201930766Y-99037536D01*
X201940876Y-99162289D01*
X201969531Y-99296267D01*
X202012762Y-99422373D01*
X202066602Y-99523516D01*
X202084124Y-99546312D01*
X202160590Y-99614665D01*
X202271323Y-99687586D01*
X202401275Y-99757238D01*
X202535397Y-99815784D01*
X202658642Y-99855388D01*
X202691001Y-99862359D01*
X202867855Y-99883316D01*
X203047780Y-99884123D01*
X203219794Y-99866394D01*
X203372919Y-99831746D01*
X203496172Y-99781794D01*
X203563805Y-99733928D01*
X203615320Y-99694170D01*
X203645478Y-99675889D01*
X203708584Y-99621063D01*
X203773737Y-99529825D01*
X203834366Y-99415881D01*
X203883900Y-99292936D01*
X203915768Y-99174693D01*
X203924134Y-99094732D01*
X203931816Y-99035427D01*
X203949560Y-99002663D01*
X203968052Y-98968205D01*
X203974985Y-98913947D01*
X203988400Y-98840840D01*
X204023894Y-98741336D01*
X204074341Y-98630667D01*
X204132615Y-98524063D01*
X204191588Y-98436757D01*
X204206923Y-98418222D01*
X204319440Y-98311543D01*
X204435375Y-98248972D01*
X204566673Y-98224487D01*
X204592898Y-98223659D01*
X204680866Y-98227551D01*
X204754131Y-98239319D01*
X204781748Y-98248947D01*
X204816137Y-98279490D01*
X204858090Y-98340579D01*
X204910260Y-98436958D01*
X204975296Y-98573370D01*
X205025387Y-98684985D01*
X205097571Y-98813625D01*
X205188126Y-98922897D01*
X205285002Y-98998816D01*
X205304419Y-99008929D01*
X205423665Y-99049639D01*
X205568650Y-99076566D01*
X205715302Y-99086157D01*
X205797658Y-99081705D01*
X205988183Y-99058182D01*
X206136306Y-99036672D01*
X206250335Y-99015443D01*
X206338580Y-98992762D01*
X206409350Y-98966896D01*
X206455703Y-98944501D01*
X206514678Y-98915135D01*
X206581567Y-98884195D01*
X206722728Y-98804475D01*
X206866985Y-98693951D01*
X206995767Y-98567819D01*
X207051622Y-98499533D01*
X207108435Y-98422417D01*
X207186131Y-98316300D01*
X207275798Y-98193387D01*
X207368522Y-98065883D01*
X207399497Y-98023191D01*
X207633117Y-97700979D01*
X207876243Y-97683889D01*
X208048126Y-97663699D01*
X208186535Y-97625396D01*
X208307269Y-97561495D01*
X208426125Y-97464512D01*
X208503874Y-97386521D01*
X208592161Y-97300110D01*
X208658925Y-97251383D01*
X208710696Y-97235610D01*
X208712134Y-97235596D01*
X208767045Y-97244281D01*
X208792683Y-97260341D01*
X208824125Y-97286679D01*
X208882214Y-97320107D01*
X208895885Y-97326802D01*
X208952668Y-97361564D01*
X208982480Y-97395065D01*
X208983794Y-97401342D01*
X208963501Y-97432000D01*
X208911639Y-97474274D01*
X208871510Y-97499970D01*
X208786356Y-97558399D01*
X208695946Y-97633068D01*
X208655394Y-97671698D01*
X208600184Y-97730706D01*
X208569113Y-97778161D01*
X208555250Y-97832677D01*
X208551669Y-97912870D01*
X208551562Y-97950669D01*
X208553845Y-98047205D01*
X208564364Y-98111294D01*
X208588618Y-98161267D01*
X208630472Y-98213590D01*
X208680587Y-98265526D01*
X208726345Y-98292208D01*
X208788065Y-98301768D01*
X208852944Y-98302618D01*
X208963895Y-98292988D01*
X209043896Y-98259223D01*
X209110743Y-98191671D01*
X209142713Y-98145450D01*
X209174514Y-98080906D01*
X209187198Y-98026179D01*
X209198674Y-97977134D01*
X209212623Y-97960221D01*
X209227358Y-97927646D01*
X209236535Y-97862187D01*
X209237296Y-97840225D01*
X209148022Y-97840225D01*
X209121612Y-97992687D01*
X209056471Y-98127731D01*
X209044656Y-98144001D01*
X208995028Y-98198461D01*
X208942186Y-98222274D01*
X208870346Y-98227188D01*
X208790545Y-98220250D01*
X208735204Y-98191947D01*
X208693662Y-98148961D01*
X208635653Y-98046912D01*
X208627008Y-97939725D01*
X208666825Y-97829951D01*
X208754200Y-97720138D01*
X208881910Y-97617102D01*
X208974082Y-97558769D01*
X209036238Y-97535294D01*
X209077679Y-97549292D01*
X209107708Y-97603375D01*
X209132408Y-97687474D01*
X209148022Y-97840225D01*
X209237296Y-97840225D01*
X209238048Y-97818535D01*
X209233012Y-97733496D01*
X209220266Y-97663091D01*
X209212623Y-97642058D01*
X209178725Y-97574721D01*
X209161772Y-97541046D01*
X209140940Y-97490004D01*
X209147985Y-97455660D01*
X209190188Y-97423436D01*
X209231692Y-97400984D01*
X209299772Y-97362292D01*
X209381234Y-97311287D01*
X209464991Y-97255574D01*
X209522255Y-97215231D01*
X208500711Y-97215231D01*
X208482348Y-97249532D01*
X208434793Y-97304018D01*
X208369348Y-97368117D01*
X208297315Y-97431258D01*
X208229996Y-97482867D01*
X208186764Y-97508919D01*
X208090390Y-97552630D01*
X208020881Y-97578338D01*
X207960095Y-97591709D01*
X207903214Y-97597503D01*
X207803451Y-97599204D01*
X207749719Y-97586152D01*
X207737948Y-97566365D01*
X207758009Y-97531478D01*
X207810841Y-97478902D01*
X207885417Y-97416787D01*
X207970711Y-97353282D01*
X208055696Y-97296536D01*
X208129347Y-97254700D01*
X208180636Y-97235921D01*
X208185487Y-97235596D01*
X208237690Y-97225587D01*
X208259169Y-97210171D01*
X208292008Y-97193147D01*
X208351211Y-97185299D01*
X208418120Y-97186236D01*
X208474077Y-97195566D01*
X208500422Y-97212898D01*
X208500711Y-97215231D01*
X209522255Y-97215231D01*
X209539954Y-97202762D01*
X209595035Y-97160457D01*
X209619144Y-97136266D01*
X209619430Y-97134986D01*
X209634792Y-97108245D01*
X209672219Y-97062290D01*
X209676637Y-97057358D01*
X209767840Y-96924772D01*
X209834587Y-96763453D01*
X209846078Y-96707800D01*
X208678689Y-96707800D01*
X208675458Y-96802549D01*
X208667014Y-96881209D01*
X208655999Y-96924480D01*
X208629581Y-96981393D01*
X208605694Y-97038549D01*
X208588237Y-97075126D01*
X208563509Y-97096048D01*
X208518640Y-97105674D01*
X208440759Y-97108360D01*
X208399209Y-97108469D01*
X208302966Y-97111791D01*
X208222801Y-97120499D01*
X208176192Y-97132663D01*
X208124161Y-97158746D01*
X208052744Y-97191899D01*
X208039076Y-97197994D01*
X207974767Y-97235018D01*
X207895921Y-97292523D01*
X207812796Y-97361344D01*
X207735653Y-97432314D01*
X207674751Y-97496267D01*
X207640349Y-97544037D01*
X207636247Y-97557900D01*
X207626620Y-97579895D01*
X207590444Y-97588070D01*
X207516775Y-97584497D01*
X207502763Y-97583169D01*
X207405404Y-97571678D01*
X207313066Y-97557705D01*
X207280755Y-97551640D01*
X207225984Y-97533643D01*
X207144114Y-97499014D01*
X207046156Y-97453327D01*
X206943121Y-97402157D01*
X206846021Y-97351078D01*
X206765866Y-97305664D01*
X206713666Y-97271492D01*
X206699743Y-97257484D01*
X206670478Y-97236033D01*
X206661605Y-97234912D01*
X206625192Y-97219339D01*
X206568757Y-97180996D01*
X206544968Y-97162104D01*
X206457994Y-97089980D01*
X206524199Y-97054730D01*
X206569296Y-97028463D01*
X206647283Y-96980751D01*
X206748310Y-96917705D01*
X206862529Y-96845437D01*
X206898580Y-96822433D01*
X207009969Y-96752139D01*
X207106575Y-96692919D01*
X207180163Y-96649688D01*
X207222496Y-96627364D01*
X207228692Y-96625386D01*
X207258478Y-96607609D01*
X207259103Y-96606317D01*
X207287616Y-96578912D01*
X207350380Y-96535717D01*
X207436157Y-96483672D01*
X207533712Y-96429718D01*
X207598108Y-96396915D01*
X207779848Y-96317027D01*
X207939648Y-96268322D01*
X208092241Y-96246758D01*
X208152124Y-96244834D01*
X208314731Y-96259146D01*
X208446419Y-96307022D01*
X208558195Y-96393254D01*
X208599953Y-96439750D01*
X208642979Y-96497368D01*
X208666718Y-96550584D01*
X208676755Y-96618412D01*
X208678689Y-96707800D01*
X209846078Y-96707800D01*
X209869901Y-96592422D01*
X209873684Y-96520195D01*
X209864037Y-96391217D01*
X209838338Y-96240277D01*
X209801451Y-96091762D01*
X209769160Y-95996107D01*
X209740257Y-95923189D01*
X209723746Y-95881692D01*
X209703917Y-95836340D01*
X209667507Y-95756896D01*
X209619950Y-95655107D01*
X209573740Y-95557518D01*
X209519296Y-95441669D01*
X209469918Y-95333761D01*
X209431672Y-95247213D01*
X209412886Y-95201636D01*
X209387779Y-95091194D01*
X209397051Y-94995004D01*
X209437882Y-94923107D01*
X209501307Y-94886947D01*
X209546289Y-94858700D01*
X209046965Y-94858700D01*
X209018813Y-94903355D01*
X209006637Y-94919937D01*
X208947616Y-94975978D01*
X208873435Y-94997568D01*
X208775204Y-94985658D01*
X208679539Y-94954992D01*
X208582825Y-94914429D01*
X208479925Y-94865025D01*
X208449860Y-94849105D01*
X208361203Y-94800457D01*
X208273739Y-94752394D01*
X208246457Y-94737380D01*
X208190917Y-94704308D01*
X208106558Y-94651174D01*
X208004257Y-94585147D01*
X207894889Y-94513395D01*
X207789333Y-94443085D01*
X207698466Y-94381386D01*
X207633164Y-94335464D01*
X207610833Y-94318511D01*
X207559257Y-94277798D01*
X207521832Y-94249400D01*
X207488536Y-94221532D01*
X207496014Y-94211896D01*
X207515821Y-94210779D01*
X207576897Y-94222040D01*
X207604810Y-94233751D01*
X207648795Y-94252465D01*
X207726583Y-94281136D01*
X207823484Y-94314412D01*
X207852363Y-94323932D01*
X207952013Y-94357595D01*
X208036708Y-94388253D01*
X208091752Y-94410528D01*
X208099916Y-94414565D01*
X208150640Y-94435101D01*
X208172349Y-94438799D01*
X208212880Y-94448416D01*
X208275792Y-94472049D01*
X208287109Y-94476937D01*
X208371574Y-94513986D01*
X208461391Y-94553105D01*
X208468929Y-94556372D01*
X208539818Y-94588074D01*
X208636407Y-94632535D01*
X208738568Y-94680483D01*
X208744920Y-94683499D01*
X208833073Y-94724186D01*
X208903914Y-94754673D01*
X208944660Y-94769514D01*
X208948324Y-94770138D01*
X208984873Y-94784767D01*
X209017775Y-94806331D01*
X209046048Y-94832188D01*
X209046965Y-94858700D01*
X209546289Y-94858700D01*
X209555607Y-94852849D01*
X209577427Y-94814517D01*
X209584299Y-94747663D01*
X209582537Y-94646693D01*
X209582353Y-94644245D01*
X209377191Y-94644245D01*
X209370755Y-94678974D01*
X209370415Y-94679339D01*
X209341623Y-94692961D01*
X209323569Y-94663011D01*
X209315206Y-94586798D01*
X209314325Y-94535416D01*
X209317477Y-94453988D01*
X209325987Y-94407436D01*
X209336652Y-94401932D01*
X209352024Y-94439358D01*
X209365473Y-94505106D01*
X209374646Y-94579846D01*
X209377191Y-94644245D01*
X209582353Y-94644245D01*
X209573526Y-94527346D01*
X209558647Y-94405361D01*
X209539286Y-94296475D01*
X209527790Y-94249850D01*
X209494694Y-94094728D01*
X209494357Y-93968002D01*
X209528155Y-93858057D01*
X209558820Y-93809861D01*
X206745113Y-93809861D01*
X206729216Y-93828611D01*
X206674470Y-93818983D01*
X206609967Y-93790294D01*
X206538866Y-93762818D01*
X206477984Y-93752313D01*
X206426097Y-93743627D01*
X206404850Y-93729697D01*
X206372212Y-93710676D01*
X206312124Y-93695385D01*
X206308004Y-93694747D01*
X206224088Y-93676709D01*
X206137331Y-93650427D01*
X206136146Y-93649997D01*
X206061857Y-93623125D01*
X206000363Y-93601185D01*
X205996307Y-93599760D01*
X205937568Y-93579115D01*
X205862975Y-93552827D01*
X205856467Y-93550530D01*
X205782199Y-93525742D01*
X205720709Y-93507510D01*
X205716627Y-93506468D01*
X205648559Y-93485368D01*
X205614925Y-93472550D01*
X205567160Y-93454062D01*
X205487226Y-93424566D01*
X205390941Y-93389885D01*
X205373384Y-93383644D01*
X205275845Y-93348600D01*
X205191859Y-93317630D01*
X205137248Y-93296583D01*
X205131842Y-93294336D01*
X205042342Y-93256572D01*
X204940565Y-93214156D01*
X204849831Y-93176779D01*
X204814024Y-93162259D01*
X204767935Y-93143491D01*
X204711909Y-93120019D01*
X204634506Y-93086990D01*
X204524285Y-93039550D01*
X204496207Y-93027435D01*
X204403011Y-92985964D01*
X204281163Y-92930005D01*
X204144596Y-92866142D01*
X204007243Y-92800957D01*
X203883037Y-92741032D01*
X203785912Y-92692951D01*
X203758869Y-92679085D01*
X203698340Y-92648106D01*
X203610350Y-92603743D01*
X203513030Y-92555133D01*
X203504615Y-92550953D01*
X203306121Y-92450912D01*
X203118186Y-92353398D01*
X202949522Y-92263080D01*
X202808839Y-92184629D01*
X202704848Y-92122715D01*
X202698782Y-92118876D01*
X202621356Y-92070476D01*
X202557251Y-92031964D01*
X202525736Y-92014484D01*
X202450347Y-91973624D01*
X202341810Y-91909099D01*
X202208619Y-91826435D01*
X202059264Y-91731156D01*
X201902239Y-91628785D01*
X201746035Y-91524848D01*
X201599144Y-91424869D01*
X201470059Y-91334372D01*
X201386341Y-91273280D01*
X201203316Y-91134424D01*
X201021419Y-90993092D01*
X200848493Y-90855606D01*
X200692382Y-90728287D01*
X200560929Y-90617456D01*
X200461979Y-90529434D01*
X200453564Y-90521555D01*
X200372120Y-90446632D01*
X200290319Y-90374300D01*
X200237448Y-90329747D01*
X200176882Y-90278108D01*
X200094909Y-90204779D01*
X200006701Y-90123393D01*
X199983194Y-90101248D01*
X199883409Y-90007499D01*
X199773923Y-89905783D01*
X199676720Y-89816512D01*
X199667512Y-89808138D01*
X199433895Y-89590923D01*
X199176793Y-89342964D01*
X198904736Y-89073030D01*
X198626250Y-88789885D01*
X198349865Y-88502297D01*
X198084109Y-88219032D01*
X197837510Y-87948856D01*
X197630031Y-87713774D01*
X197523880Y-87591220D01*
X197445810Y-87501940D01*
X197390726Y-87440675D01*
X197353531Y-87402162D01*
X197329129Y-87381141D01*
X197312422Y-87372352D01*
X197298315Y-87370533D01*
X197297503Y-87370531D01*
X197260316Y-87390588D01*
X197237801Y-87420348D01*
X197229475Y-87475114D01*
X197237957Y-87569722D01*
X197261505Y-87696663D01*
X197298376Y-87848433D01*
X197346830Y-88017523D01*
X197405124Y-88196429D01*
X197441585Y-88298559D01*
X197463862Y-88357953D01*
X197498402Y-88448880D01*
X197541183Y-88560876D01*
X197588185Y-88683475D01*
X197635385Y-88806212D01*
X197678761Y-88918623D01*
X197714293Y-89010242D01*
X197737958Y-89070604D01*
X197744483Y-89086747D01*
X197765636Y-89137938D01*
X197797530Y-89216243D01*
X197822265Y-89277438D01*
X197863460Y-89377417D01*
X197906267Y-89477847D01*
X197926590Y-89523941D01*
X197955246Y-89590308D01*
X197972408Y-89635233D01*
X197974585Y-89644075D01*
X197984432Y-89672174D01*
X198010371Y-89733612D01*
X198047004Y-89815645D01*
X198050861Y-89824085D01*
X198088252Y-89907608D01*
X198115450Y-89971958D01*
X198127044Y-90004286D01*
X198127137Y-90005213D01*
X198136656Y-90036086D01*
X198159919Y-90092207D01*
X198163378Y-90099922D01*
X198230398Y-90249126D01*
X198278224Y-90358312D01*
X198309337Y-90433460D01*
X198326217Y-90480553D01*
X198331336Y-90504968D01*
X198342382Y-90543759D01*
X198369944Y-90610469D01*
X198394667Y-90663124D01*
X198429209Y-90736714D01*
X198452022Y-90791770D01*
X198457436Y-90810894D01*
X198467371Y-90843350D01*
X198492989Y-90907105D01*
X198523283Y-90976159D01*
X198563157Y-91064720D01*
X198598168Y-91143625D01*
X198615836Y-91184345D01*
X198673833Y-91322287D01*
X198715217Y-91423385D01*
X198731269Y-91464024D01*
X198761523Y-91540395D01*
X198782107Y-91591152D01*
X198805726Y-91652806D01*
X198836163Y-91737531D01*
X198851471Y-91781842D01*
X198901454Y-91920617D01*
X198950277Y-92041469D01*
X198991752Y-92129112D01*
X198992834Y-92131097D01*
X199013623Y-92188062D01*
X199017027Y-92214074D01*
X199027965Y-92270033D01*
X199038712Y-92297052D01*
X199062454Y-92347801D01*
X199095076Y-92420227D01*
X199105094Y-92442903D01*
X199138383Y-92517003D01*
X199166574Y-92577050D01*
X199172399Y-92588755D01*
X199191945Y-92646309D01*
X199195005Y-92671732D01*
X199206862Y-92726732D01*
X199219199Y-92754710D01*
X199269311Y-92862744D01*
X199322851Y-93007458D01*
X199361421Y-93129390D01*
X199388350Y-93216387D01*
X199412276Y-93286969D01*
X199425452Y-93320081D01*
X199443489Y-93366979D01*
X199466741Y-93440229D01*
X199476038Y-93472633D01*
X199500551Y-93557420D01*
X199533230Y-93665874D01*
X199564026Y-93765025D01*
X199600661Y-93882533D01*
X199638859Y-94007536D01*
X199665187Y-94095556D01*
X199692907Y-94187055D01*
X199718307Y-94266438D01*
X199732230Y-94306512D01*
X199749445Y-94378370D01*
X199754365Y-94435758D01*
X199760623Y-94494395D01*
X199773417Y-94525652D01*
X199791125Y-94562723D01*
X199815694Y-94640967D01*
X199844887Y-94751528D01*
X199876466Y-94885549D01*
X199908195Y-95034173D01*
X199929694Y-95144286D01*
X199947419Y-95225869D01*
X199965444Y-95288715D01*
X199974297Y-95309438D01*
X199990252Y-95352746D01*
X200007226Y-95424213D01*
X200012984Y-95455703D01*
X200028636Y-95549781D01*
X200047048Y-95660562D01*
X200056087Y-95714991D01*
X200072253Y-95799180D01*
X200088702Y-95864252D01*
X200098291Y-95889154D01*
X200111499Y-95928637D01*
X200127386Y-96001380D01*
X200139884Y-96074924D01*
X200157278Y-96189570D01*
X200175993Y-96310741D01*
X200185477Y-96371132D01*
X200213623Y-96552449D01*
X200234025Y-96695034D01*
X200247877Y-96810212D01*
X200256372Y-96909310D01*
X200260702Y-97003653D01*
X200262041Y-97097875D01*
X200260654Y-97201666D01*
X200256239Y-97285342D01*
X200249606Y-97336482D01*
X200245923Y-97345773D01*
X200199655Y-97361672D01*
X200128135Y-97356876D01*
X200051683Y-97333241D01*
X200038340Y-97326806D01*
X199995549Y-97296077D01*
X199932300Y-97240601D01*
X199857744Y-97169659D01*
X199781031Y-97092536D01*
X199711313Y-97018514D01*
X199657740Y-96956877D01*
X199629464Y-96916908D01*
X199627238Y-96909772D01*
X199611780Y-96877297D01*
X199582391Y-96839940D01*
X199548218Y-96795337D01*
X199494269Y-96716875D01*
X199426796Y-96614380D01*
X199352051Y-96497677D01*
X199276287Y-96376591D01*
X199205756Y-96260947D01*
X199146711Y-96160570D01*
X199121791Y-96116149D01*
X199050416Y-95983614D01*
X198968320Y-95827882D01*
X198879740Y-95657318D01*
X198788915Y-95480286D01*
X198700084Y-95305150D01*
X198617486Y-95140272D01*
X198545358Y-94994018D01*
X198487940Y-94874750D01*
X198449470Y-94790832D01*
X198445694Y-94782042D01*
X198413505Y-94709509D01*
X198385899Y-94652880D01*
X198379979Y-94642203D01*
X198346750Y-94579203D01*
X198299689Y-94480880D01*
X198244097Y-94359025D01*
X198185273Y-94225430D01*
X198128519Y-94091885D01*
X198088506Y-93993854D01*
X198033944Y-93859630D01*
X197979007Y-93729043D01*
X197928913Y-93614155D01*
X197888883Y-93527025D01*
X197871307Y-93492047D01*
X197850786Y-93434954D01*
X197847458Y-93409069D01*
X197835601Y-93354070D01*
X197823264Y-93326092D01*
X197798363Y-93274923D01*
X197766197Y-93201962D01*
X197757108Y-93180241D01*
X197733211Y-93122109D01*
X197713048Y-93072185D01*
X197690634Y-93015349D01*
X197659987Y-92936481D01*
X197631342Y-92862423D01*
X197600372Y-92782701D01*
X197574085Y-92715701D01*
X197566709Y-92697158D01*
X197546844Y-92643826D01*
X197519080Y-92564885D01*
X197503500Y-92519180D01*
X197477568Y-92442865D01*
X197455721Y-92381331D01*
X197431121Y-92316109D01*
X197396928Y-92228730D01*
X197381094Y-92188649D01*
X197357211Y-92123419D01*
X197323036Y-92023876D01*
X197283378Y-91904262D01*
X197248031Y-91794555D01*
X197203945Y-91656159D01*
X197171251Y-91555318D01*
X197146094Y-91481076D01*
X197124619Y-91422477D01*
X197102971Y-91368565D01*
X197077295Y-91308385D01*
X197075506Y-91304253D01*
X197048669Y-91230806D01*
X197034502Y-91169658D01*
X197033844Y-91159557D01*
X197021971Y-91111244D01*
X197008419Y-91095356D01*
X196989143Y-91060634D01*
X196982092Y-91011223D01*
X196968314Y-90935849D01*
X196944855Y-90879240D01*
X196916988Y-90810909D01*
X196907618Y-90758124D01*
X196897084Y-90690714D01*
X196884700Y-90656422D01*
X196843676Y-90558553D01*
X196807701Y-90446701D01*
X196787663Y-90358018D01*
X196772233Y-90284150D01*
X196755724Y-90230891D01*
X196734737Y-90167082D01*
X196706063Y-90063813D01*
X196672234Y-89931438D01*
X196635782Y-89780310D01*
X196599241Y-89620783D01*
X196565142Y-89463210D01*
X196550495Y-89391852D01*
X196531467Y-89297961D01*
X196507757Y-89181973D01*
X196488159Y-89086747D01*
X196473288Y-88967741D01*
X196467647Y-88802500D01*
X196471027Y-88594759D01*
X196483216Y-88348251D01*
X196503067Y-88079422D01*
X196093103Y-88079422D01*
X196092611Y-88207334D01*
X196089419Y-88297288D01*
X196080955Y-88362178D01*
X196064650Y-88414895D01*
X196037930Y-88468334D01*
X196004114Y-88525608D01*
X195959233Y-88602669D01*
X195927253Y-88662406D01*
X195915125Y-88691793D01*
X195898142Y-88720452D01*
X195861274Y-88758632D01*
X195815201Y-88807973D01*
X195790799Y-88845206D01*
X195763552Y-88896635D01*
X195719084Y-88969373D01*
X195664491Y-89053085D01*
X195606869Y-89137437D01*
X195553314Y-89212095D01*
X195510923Y-89266723D01*
X195486792Y-89290988D01*
X195484561Y-89291181D01*
X195478192Y-89262176D01*
X195480401Y-89199100D01*
X195486609Y-89145452D01*
X195501785Y-89049499D01*
X195522494Y-88930335D01*
X195543107Y-88819780D01*
X195555426Y-88756217D01*
X195406911Y-88756217D01*
X195395270Y-88908769D01*
X195376605Y-89127022D01*
X195356982Y-89300575D01*
X195335407Y-89435582D01*
X195310887Y-89538194D01*
X195282427Y-89614563D01*
X195280629Y-89618327D01*
X195247439Y-89678794D01*
X195191866Y-89771228D01*
X195120170Y-89885581D01*
X195038612Y-90011803D01*
X194985168Y-90092618D01*
X194906349Y-90211133D01*
X194838438Y-90314105D01*
X194786045Y-90394472D01*
X194753781Y-90445173D01*
X194745556Y-90459578D01*
X194732110Y-90482170D01*
X194694582Y-90540578D01*
X194637183Y-90628368D01*
X194564127Y-90739105D01*
X194479625Y-90866355D01*
X194459520Y-90896522D01*
X194369995Y-91031500D01*
X194288245Y-91156135D01*
X194219242Y-91262739D01*
X194167956Y-91343624D01*
X194139358Y-91391102D01*
X194137406Y-91394726D01*
X194105870Y-91443484D01*
X194080369Y-91464022D01*
X194080198Y-91464024D01*
X194059866Y-91483690D01*
X194059069Y-91491023D01*
X194044976Y-91530250D01*
X194012297Y-91581659D01*
X193975434Y-91625234D01*
X193951011Y-91641203D01*
X193931950Y-91627867D01*
X193931942Y-91627461D01*
X193943478Y-91598646D01*
X193972789Y-91541854D01*
X193992332Y-91506690D01*
X194036262Y-91427916D01*
X194091322Y-91327154D01*
X194140787Y-91235196D01*
X194220684Y-91085936D01*
X194300000Y-90938977D01*
X194373453Y-90804003D01*
X194435763Y-90690698D01*
X194481652Y-90608747D01*
X194494266Y-90586847D01*
X194533198Y-90516708D01*
X194592106Y-90405643D01*
X194668555Y-90258372D01*
X194760110Y-90079615D01*
X194864337Y-89874092D01*
X194959887Y-89684245D01*
X195021911Y-89560707D01*
X195077185Y-89450780D01*
X195121060Y-89363696D01*
X195148889Y-89308685D01*
X195154940Y-89296852D01*
X195174668Y-89239602D01*
X195177788Y-89214219D01*
X195188825Y-89180127D01*
X195198320Y-89175736D01*
X195219479Y-89154446D01*
X195249517Y-89100532D01*
X195264316Y-89067678D01*
X195305782Y-88972462D01*
X195350233Y-88875062D01*
X195358345Y-88857918D01*
X195406911Y-88756217D01*
X195555426Y-88756217D01*
X195565930Y-88702025D01*
X195589257Y-88581150D01*
X195606904Y-88489250D01*
X195630988Y-88377888D01*
X195661080Y-88257431D01*
X195674392Y-88209570D01*
X195699379Y-88122829D01*
X195719948Y-88049686D01*
X195728267Y-88018879D01*
X195749823Y-87950814D01*
X195762769Y-87917178D01*
X195781751Y-87870705D01*
X195813539Y-87791577D01*
X195852261Y-87694432D01*
X195865199Y-87661828D01*
X195921201Y-87528660D01*
X195968125Y-87433708D01*
X196004033Y-87380433D01*
X196026989Y-87372297D01*
X196027080Y-87372387D01*
X196039980Y-87408517D01*
X196053328Y-87485108D01*
X196066157Y-87591790D01*
X196077497Y-87718191D01*
X196086380Y-87853943D01*
X196091838Y-87988674D01*
X196093103Y-88079422D01*
X196503067Y-88079422D01*
X196504006Y-88066708D01*
X196533186Y-87753863D01*
X196570545Y-87413450D01*
X196592647Y-87230691D01*
X196610852Y-87140592D01*
X196638405Y-87056202D01*
X196641601Y-87048871D01*
X196666619Y-86982838D01*
X196677843Y-86931881D01*
X196677888Y-86929831D01*
X196697092Y-86890184D01*
X196744170Y-86843965D01*
X196752661Y-86837668D01*
X196808273Y-86786919D01*
X196842948Y-86735098D01*
X196844312Y-86731244D01*
X196862902Y-86697418D01*
X196899700Y-86686465D01*
X196961674Y-86691541D01*
X197038458Y-86712882D01*
X197098655Y-86748169D01*
X197106026Y-86755600D01*
X197252703Y-86911505D01*
X197433572Y-87082606D01*
X197638047Y-87260001D01*
X197855541Y-87434788D01*
X198075469Y-87598066D01*
X198247009Y-87715045D01*
X198347906Y-87782149D01*
X198439046Y-87845233D01*
X198507819Y-87895445D01*
X198533944Y-87916449D01*
X198581650Y-87953168D01*
X198660433Y-88008312D01*
X198758136Y-88073535D01*
X198834459Y-88122741D01*
X198944167Y-88192425D01*
X199049998Y-88259738D01*
X199137277Y-88315341D01*
X199177702Y-88341159D01*
X199267459Y-88396449D01*
X199361292Y-88451130D01*
X199385696Y-88464682D01*
X199452834Y-88503772D01*
X199546293Y-88561334D01*
X199650178Y-88627495D01*
X199695824Y-88657267D01*
X199786064Y-88715629D01*
X199860059Y-88761630D01*
X199907871Y-88789192D01*
X199919993Y-88794355D01*
X199948293Y-88808427D01*
X199999881Y-88843590D01*
X200019072Y-88857918D01*
X200074878Y-88897710D01*
X200112998Y-88919854D01*
X200118819Y-88921482D01*
X200145139Y-88934237D01*
X200206375Y-88969305D01*
X200294422Y-89021890D01*
X200401175Y-89087199D01*
X200446950Y-89115594D01*
X200569764Y-89191528D01*
X200687604Y-89263421D01*
X200788709Y-89324159D01*
X200861319Y-89366633D01*
X200873083Y-89373255D01*
X200955100Y-89422039D01*
X201054988Y-89485934D01*
X201140050Y-89543477D01*
X201220469Y-89598575D01*
X201288197Y-89642949D01*
X201329323Y-89667502D01*
X201330741Y-89668194D01*
X201383531Y-89696169D01*
X201419730Y-89717348D01*
X201471464Y-89748736D01*
X201556537Y-89799972D01*
X201678892Y-89873426D01*
X201775169Y-89931145D01*
X201833224Y-89963971D01*
X201864675Y-89980142D01*
X201905467Y-90004225D01*
X201915545Y-90012921D01*
X201927931Y-90023205D01*
X201955147Y-90040251D01*
X202003348Y-90067448D01*
X202078689Y-90108185D01*
X202187323Y-90165852D01*
X202322333Y-90236968D01*
X202418509Y-90288140D01*
X202498487Y-90331826D01*
X202550914Y-90361767D01*
X202563874Y-90370095D01*
X202595169Y-90388919D01*
X202661914Y-90425986D01*
X202754471Y-90476027D01*
X202863200Y-90533777D01*
X202868979Y-90536821D01*
X203013440Y-90613598D01*
X203124344Y-90675643D01*
X203213440Y-90731318D01*
X203292475Y-90788988D01*
X203373195Y-90857016D01*
X203467348Y-90943766D01*
X203546872Y-91019471D01*
X203676845Y-91141964D01*
X203837145Y-91290030D01*
X204019443Y-91456203D01*
X204215413Y-91633019D01*
X204416725Y-91813012D01*
X204615053Y-91988714D01*
X204802068Y-92152662D01*
X204969441Y-92297389D01*
X205030140Y-92349172D01*
X205134498Y-92438517D01*
X205237415Y-92527922D01*
X205325281Y-92605496D01*
X205373384Y-92649009D01*
X205480046Y-92744687D01*
X205617314Y-92863533D01*
X205775702Y-92997435D01*
X205934894Y-93129390D01*
X206004878Y-93186859D01*
X206100895Y-93265712D01*
X206209683Y-93355054D01*
X206306410Y-93434495D01*
X206411425Y-93520026D01*
X206511847Y-93600551D01*
X206595976Y-93666764D01*
X206650214Y-93707978D01*
X206719624Y-93767922D01*
X206745113Y-93809861D01*
X209558820Y-93809861D01*
X209584693Y-93769198D01*
X209639575Y-93705424D01*
X209686568Y-93662376D01*
X209709975Y-93650611D01*
X209747527Y-93632218D01*
X209792196Y-93587895D01*
X209792865Y-93587047D01*
X209828238Y-93550739D01*
X209872084Y-93531522D01*
X209940891Y-93524253D01*
X209996613Y-93523484D01*
X210098019Y-93529988D01*
X210159549Y-93548287D01*
X210177274Y-93576564D01*
X210162590Y-93600282D01*
X210125375Y-93615317D01*
X210053003Y-93630334D01*
X209961099Y-93642650D01*
X209878540Y-93649030D01*
X209857473Y-93664689D01*
X209860971Y-93676036D01*
X209893229Y-93690140D01*
X209959499Y-93699372D01*
X210015919Y-93701462D01*
X210132956Y-93690073D01*
X210218560Y-93659057D01*
X210268070Y-93613141D01*
X210276827Y-93557049D01*
X210240169Y-93495509D01*
X210229312Y-93485049D01*
X210187720Y-93459160D01*
X210125933Y-93444667D01*
X210030956Y-93439060D01*
X209989370Y-93438732D01*
X209884495Y-93441269D01*
X209813425Y-93451494D01*
X209759254Y-93473326D01*
X209716374Y-93502049D01*
X209651681Y-93546656D01*
X209596976Y-93577805D01*
X209587648Y-93581765D01*
X209549981Y-93614774D01*
X209543153Y-93638916D01*
X209528613Y-93686121D01*
X209495299Y-93725827D01*
X209458669Y-93743149D01*
X209441616Y-93736694D01*
X209419241Y-93696459D01*
X209403225Y-93647714D01*
X209399235Y-93595600D01*
X209429002Y-93568815D01*
X209445920Y-93562818D01*
X209505015Y-93544382D01*
X209443885Y-93527005D01*
X209404676Y-93506005D01*
X209377076Y-93461427D01*
X209353429Y-93380340D01*
X209351131Y-93370359D01*
X209303114Y-93129877D01*
X209274968Y-92911439D01*
X209263900Y-92691572D01*
X209263474Y-92634019D01*
X209264150Y-92515612D01*
X209267990Y-92435662D01*
X209277715Y-92381779D01*
X209296043Y-92341572D01*
X209325694Y-92302648D01*
X209339750Y-92286466D01*
X209386348Y-92223742D01*
X209413333Y-92168740D01*
X209416026Y-92153567D01*
X209394745Y-92096353D01*
X209344417Y-92046432D01*
X209285318Y-92023474D01*
X209281835Y-92023384D01*
X209244058Y-92042403D01*
X209194214Y-92088628D01*
X209146645Y-92145808D01*
X209115691Y-92197692D01*
X209110921Y-92217049D01*
X209090456Y-92243005D01*
X209040039Y-92276607D01*
X209028289Y-92282847D01*
X208961223Y-92304542D01*
X208854948Y-92324540D01*
X208721100Y-92341977D01*
X208571314Y-92355988D01*
X208417224Y-92365710D01*
X208270467Y-92370280D01*
X208142677Y-92368832D01*
X208045489Y-92360504D01*
X208027035Y-92357182D01*
X207918258Y-92334948D01*
X207797428Y-92311143D01*
X207744305Y-92300999D01*
X207641881Y-92280564D01*
X207541677Y-92258719D01*
X207496407Y-92247932D01*
X207402576Y-92226639D01*
X207299927Y-92206519D01*
X207280291Y-92203106D01*
X207192381Y-92183741D01*
X207084600Y-92153791D01*
X207007769Y-92129046D01*
X206920167Y-92100659D01*
X206848119Y-92080852D01*
X206810377Y-92074235D01*
X206754086Y-92063150D01*
X206726943Y-92052217D01*
X206653639Y-92021538D01*
X206534493Y-91979931D01*
X206377688Y-91929859D01*
X206286817Y-91899906D01*
X206203058Y-91869467D01*
X206174285Y-91857876D01*
X206033348Y-91799509D01*
X205905891Y-91751095D01*
X205881892Y-91742456D01*
X205792929Y-91709159D01*
X205703954Y-91673751D01*
X205703914Y-91673734D01*
X205649436Y-91651178D01*
X205599675Y-91630738D01*
X205542719Y-91607574D01*
X205466654Y-91576852D01*
X205359566Y-91533732D01*
X205311608Y-91514436D01*
X205214282Y-91474856D01*
X205132028Y-91440634D01*
X205078721Y-91417569D01*
X205070066Y-91413502D01*
X205015634Y-91388654D01*
X204966577Y-91368008D01*
X204909911Y-91343915D01*
X204826779Y-91307204D01*
X204750461Y-91272764D01*
X204660342Y-91232257D01*
X204580028Y-91197168D01*
X204534345Y-91178109D01*
X204470966Y-91150291D01*
X204432643Y-91130386D01*
X204375813Y-91101214D01*
X204356367Y-91092947D01*
X204277907Y-91059912D01*
X204168382Y-91010226D01*
X204035961Y-90947942D01*
X203888814Y-90877109D01*
X203735109Y-90801780D01*
X203583015Y-90726005D01*
X203440701Y-90653835D01*
X203316336Y-90589322D01*
X203218089Y-90536517D01*
X203154130Y-90499470D01*
X203138983Y-90489228D01*
X203090433Y-90449110D01*
X203013772Y-90381932D01*
X202917820Y-90295586D01*
X202811397Y-90197966D01*
X202757602Y-90147941D01*
X202549628Y-89954519D01*
X202358539Y-89778581D01*
X202188549Y-89623943D01*
X202043873Y-89494421D01*
X201928726Y-89393832D01*
X201869914Y-89344290D01*
X201785009Y-89273507D01*
X201685964Y-89189578D01*
X201610421Y-89124664D01*
X201457465Y-88992104D01*
X201336491Y-88887467D01*
X201241040Y-88805389D01*
X201164652Y-88740507D01*
X201100868Y-88687457D01*
X201043227Y-88640875D01*
X200985271Y-88595396D01*
X200920539Y-88545658D01*
X200842573Y-88486296D01*
X200831638Y-88477980D01*
X200757020Y-88419510D01*
X200688078Y-88362767D01*
X200669680Y-88346840D01*
X200600680Y-88292807D01*
X200526445Y-88243695D01*
X200483172Y-88216676D01*
X200404540Y-88166014D01*
X200297511Y-88096259D01*
X200169047Y-88011959D01*
X200026110Y-87917663D01*
X199928947Y-87853304D01*
X199759022Y-87740571D01*
X199625195Y-87651976D01*
X199521157Y-87583596D01*
X199440598Y-87531511D01*
X199377208Y-87491799D01*
X199324676Y-87460539D01*
X199276692Y-87433809D01*
X199226946Y-87407688D01*
X199169129Y-87378255D01*
X199144154Y-87365601D01*
X199061730Y-87322818D01*
X198998547Y-87288163D01*
X198967113Y-87268522D01*
X198966176Y-87267626D01*
X198937585Y-87250816D01*
X198876464Y-87221749D01*
X198813624Y-87194245D01*
X198723158Y-87154845D01*
X198608272Y-87103280D01*
X198490467Y-87049229D01*
X198463536Y-87036675D01*
X198369938Y-86993433D01*
X198295055Y-86959875D01*
X198249813Y-86940849D01*
X198241758Y-86938299D01*
X198214196Y-86928656D01*
X198154785Y-86903703D01*
X198096051Y-86877673D01*
X198003137Y-86837147D01*
X197913389Y-86800313D01*
X197872883Y-86784870D01*
X197788230Y-86753286D01*
X197708464Y-86722096D01*
X197707618Y-86721753D01*
X197600796Y-86681624D01*
X197480634Y-86641479D01*
X197360430Y-86605207D01*
X197253486Y-86576695D01*
X197173099Y-86559830D01*
X197143715Y-86556917D01*
X197091118Y-86547480D01*
X197043721Y-86512418D01*
X197011817Y-86472088D01*
X196893442Y-86472088D01*
X196890542Y-86493208D01*
X196864360Y-86517268D01*
X196836983Y-86503722D01*
X196830441Y-86479141D01*
X196851001Y-86457784D01*
X196867781Y-86455216D01*
X196893442Y-86472088D01*
X197011817Y-86472088D01*
X196988412Y-86442503D01*
X196921532Y-86364660D01*
X196863289Y-86329906D01*
X196817871Y-86339312D01*
X196790031Y-86391652D01*
X196768565Y-86444663D01*
X196744740Y-86453825D01*
X196721292Y-86425881D01*
X196700962Y-86367577D01*
X196686489Y-86285658D01*
X196680610Y-86186867D01*
X196682135Y-86125956D01*
X196691370Y-86027000D01*
X196710846Y-85948213D01*
X196747228Y-85880289D01*
X196807179Y-85813923D01*
X196897365Y-85739809D01*
X197023518Y-85649289D01*
X197306508Y-85445667D01*
X197585772Y-85232027D01*
X197852244Y-85015847D01*
X198096858Y-84804598D01*
X198310550Y-84605757D01*
X198409781Y-84506291D01*
X198587104Y-84303133D01*
X198745631Y-84083026D01*
X198876855Y-83859122D01*
X198972269Y-83644571D01*
X198978413Y-83627307D01*
X199000982Y-83545100D01*
X199013811Y-83463481D01*
X199015891Y-83396552D01*
X199006212Y-83358415D01*
X198997958Y-83354389D01*
X198978474Y-83376062D01*
G37*
X198978474Y-83376062D02*
X198943875Y-83432580D01*
X198900823Y-83512837D01*
X198889900Y-83534543D01*
X198824005Y-83651555D01*
X198732568Y-83792675D01*
X198624902Y-83944985D01*
X198510326Y-84095571D01*
X198398153Y-84231516D01*
X198342081Y-84294054D01*
X198265743Y-84377554D01*
X198187546Y-84465401D01*
X198149563Y-84509202D01*
X198067383Y-84598648D01*
X197960479Y-84705524D01*
X197843820Y-84815472D01*
X197732371Y-84914134D01*
X197694905Y-84945351D01*
X197638473Y-84991911D01*
X197600260Y-85024506D01*
X197593204Y-85031040D01*
X197550670Y-85068834D01*
X197476833Y-85128367D01*
X197381852Y-85201939D01*
X197275889Y-85281853D01*
X197169101Y-85360407D01*
X197071651Y-85429904D01*
X197021131Y-85464560D01*
X196834056Y-85595273D01*
X196689238Y-85709506D01*
X196582818Y-85812197D01*
X196510935Y-85908284D01*
X196469727Y-86002705D01*
X196455333Y-86100401D01*
X196460228Y-86181987D01*
X196480601Y-86266460D01*
X196518252Y-86370264D01*
X196565422Y-86475885D01*
X196614355Y-86565805D01*
X196653862Y-86619210D01*
X196676143Y-86673349D01*
X196668413Y-86744496D01*
X196640559Y-86799956D01*
X196610750Y-86864603D01*
X196602421Y-86915289D01*
X196579665Y-86993652D01*
X196516339Y-87044616D01*
X196416504Y-87065150D01*
X196401300Y-87065426D01*
X196311452Y-87075415D01*
X196228162Y-87100021D01*
X196216046Y-87105728D01*
X196151647Y-87130131D01*
X196112815Y-87120590D01*
X196110522Y-87118440D01*
X196063835Y-87094512D01*
X196006442Y-87090683D01*
X195958631Y-87105179D01*
X195940551Y-87133318D01*
X195930366Y-87178965D01*
X195904028Y-87249842D01*
X195867861Y-87332597D01*
X195828190Y-87413878D01*
X195791340Y-87480332D01*
X195763635Y-87518609D01*
X195755923Y-87523084D01*
X195743291Y-87501273D01*
X195747575Y-87445365D01*
X195748561Y-87440451D01*
X195761799Y-87366377D01*
X195776318Y-87270023D01*
X195783228Y-87217978D01*
X195795427Y-87137874D01*
X195810437Y-87096933D01*
X195834709Y-87083598D01*
X195857918Y-87084195D01*
X195902547Y-87072551D01*
X195916941Y-87038998D01*
X195892643Y-87003687D01*
X195891900Y-87003222D01*
X195867794Y-86973331D01*
X195833214Y-86913960D01*
X195815674Y-86879383D01*
X195787371Y-86817665D01*
X195775821Y-86771591D01*
X195780701Y-86721807D01*
X195801690Y-86648961D01*
X195811339Y-86618913D01*
X195840435Y-86524903D01*
X195864870Y-86439433D01*
X195876152Y-86394758D01*
X195901187Y-86340639D01*
X195952119Y-86266193D01*
X196018438Y-86186597D01*
X196025788Y-86178642D01*
X196141892Y-86051455D01*
X196223553Y-85955005D01*
X196273682Y-85885529D01*
X196295192Y-85839261D01*
X196296507Y-85828629D01*
X196280494Y-85802107D01*
X196235534Y-85811437D01*
X196166248Y-85854271D01*
X196077255Y-85928263D01*
X196049672Y-85954018D01*
X195970994Y-86025399D01*
X195894931Y-86088289D01*
X195840113Y-86127634D01*
X195779427Y-86182416D01*
X195728896Y-86257103D01*
X195722859Y-86270102D01*
X195675363Y-86399430D01*
X195639705Y-86532440D01*
X195617427Y-86658322D01*
X195610070Y-86766265D01*
X195619175Y-86845459D01*
X195636190Y-86878022D01*
X195646849Y-86912296D01*
X195627932Y-86969513D01*
X195577138Y-87055303D01*
X195543838Y-87103922D01*
X195516335Y-87150244D01*
X195471144Y-87234672D01*
X195412197Y-87349287D01*
X195343427Y-87486172D01*
X195268768Y-87637406D01*
X195192153Y-87795071D01*
X195117515Y-87951248D01*
X195048788Y-88098020D01*
X195032542Y-88133294D01*
X194987693Y-88230469D01*
X194933401Y-88347284D01*
X194884856Y-88451112D01*
X194838279Y-88551310D01*
X194794980Y-88646087D01*
X194763993Y-88715665D01*
X194762950Y-88718079D01*
X194733044Y-88786200D01*
X194690940Y-88880601D01*
X194645553Y-88981300D01*
X194643854Y-88985045D01*
X194598427Y-89085603D01*
X194555805Y-89180631D01*
X194524954Y-89250136D01*
X194524131Y-89252012D01*
X194491148Y-89326227D01*
X194448530Y-89420787D01*
X194421204Y-89480841D01*
X194348073Y-89644270D01*
X194289993Y-89782502D01*
X194268439Y-89836797D01*
X194244807Y-89893444D01*
X194208421Y-89976548D01*
X194174054Y-90052913D01*
X194134650Y-90140278D01*
X194101634Y-90215185D01*
X194084248Y-90256317D01*
X194065207Y-90304464D01*
X194034043Y-90383553D01*
X193997217Y-90477193D01*
X193994092Y-90485146D01*
X193949190Y-90596527D01*
X193901266Y-90710922D01*
X193864492Y-90795033D01*
X193831568Y-90873790D01*
X193809894Y-90937108D01*
X193804815Y-90962748D01*
X193793202Y-91012057D01*
X193762460Y-91090444D01*
X193718734Y-91182865D01*
X193701478Y-91215782D01*
X193680709Y-91279856D01*
X193677688Y-91309626D01*
X193666090Y-91358443D01*
X193652263Y-91375035D01*
X193630597Y-91411043D01*
X193626837Y-91438039D01*
X193615748Y-91491958D01*
X193588628Y-91561345D01*
X193584397Y-91570022D01*
X193540588Y-91658461D01*
X193515151Y-91713872D01*
X193503186Y-91748440D01*
X193499793Y-91774351D01*
X193499710Y-91780635D01*
X193490146Y-91828570D01*
X193466836Y-91895035D01*
X193464016Y-91901750D01*
X193434319Y-91980925D01*
X193404501Y-92074839D01*
X193397554Y-92099660D01*
X193374583Y-92180827D01*
X193353561Y-92248317D01*
X193347733Y-92264925D01*
X193299505Y-92403459D01*
X193264914Y-92523205D01*
X193247077Y-92612798D01*
X193245330Y-92638450D01*
X193236888Y-92694757D01*
X193220030Y-92722583D01*
X193201734Y-92756943D01*
X193194605Y-92813298D01*
X193183107Y-92859334D01*
X193150146Y-92945109D01*
X193098026Y-93065405D01*
X193029046Y-93215006D01*
X192945510Y-93388692D01*
X192900853Y-93479215D01*
X192808131Y-93665575D01*
X192734696Y-93812599D01*
X192677284Y-93926529D01*
X192632629Y-94013605D01*
X192597468Y-94080068D01*
X192568536Y-94132159D01*
X192542568Y-94176120D01*
X192516300Y-94218190D01*
X192505363Y-94235287D01*
X192471723Y-94290852D01*
X192424725Y-94372337D01*
X192380415Y-94451512D01*
X192325018Y-94551935D01*
X192268414Y-94654358D01*
X192232906Y-94718479D01*
X192195148Y-94786964D01*
X192166795Y-94840386D01*
X192139855Y-94894784D01*
X192106336Y-94966196D01*
X192068191Y-95049009D01*
X192026668Y-95145745D01*
X191989846Y-95242204D01*
X191973878Y-95290551D01*
X191930405Y-95419759D01*
X191886594Y-95506857D01*
X191836635Y-95560294D01*
X191774718Y-95588514D01*
X191767720Y-95590257D01*
X191667128Y-95637770D01*
X191576077Y-95724104D01*
X191502611Y-95837249D01*
X191454769Y-95965197D01*
X191440251Y-96079254D01*
X191440251Y-96167728D01*
X191273522Y-96167728D01*
X191113151Y-96185939D01*
X190966437Y-96243549D01*
X190823388Y-96345024D01*
X190772397Y-96391672D01*
X190692803Y-96477208D01*
X190637311Y-96562501D01*
X190601970Y-96659431D01*
X190582828Y-96779874D01*
X190575934Y-96935708D01*
X190575660Y-96983013D01*
X190578951Y-97145137D01*
X190591161Y-97275589D01*
X190615565Y-97393234D01*
X190655431Y-97516937D01*
X190678987Y-97578839D01*
X190699361Y-97632636D01*
X190728149Y-97710815D01*
X190742531Y-97750461D01*
X190771385Y-97819455D01*
X190797290Y-97863172D01*
X190808069Y-97871232D01*
X190825930Y-97892557D01*
X190830040Y-97922083D01*
X190838993Y-97963423D01*
X190851385Y-97972933D01*
X190876407Y-97993451D01*
X190901669Y-98036451D01*
X190957675Y-98124756D01*
X191045454Y-98223030D01*
X191155140Y-98323815D01*
X191276868Y-98419657D01*
X191400773Y-98503099D01*
X191516990Y-98566686D01*
X191615653Y-98602961D01*
X191658653Y-98608569D01*
X191710071Y-98617229D01*
X191730677Y-98630814D01*
X191760608Y-98644771D01*
X191828085Y-98662288D01*
X191920250Y-98680190D01*
X191950887Y-98685176D01*
X192035398Y-98696943D01*
X192113504Y-98703675D01*
X192196093Y-98705152D01*
X192294051Y-98701150D01*
X192418263Y-98691448D01*
X192579617Y-98675824D01*
X192622069Y-98671478D01*
X192684437Y-98661935D01*
X192765608Y-98643152D01*
X192876342Y-98612423D01*
X192980294Y-98581421D01*
X193060729Y-98561229D01*
X193103749Y-98563139D01*
X193118106Y-98587935D01*
X193118329Y-98593796D01*
X193137719Y-98664572D01*
X193185571Y-98736055D01*
X193246405Y-98788097D01*
X193277238Y-98800618D01*
X193363428Y-98810117D01*
X193445992Y-98795792D01*
X193533724Y-98753471D01*
X193635420Y-98678985D01*
X193752021Y-98575527D01*
X193812730Y-98520410D01*
X193843841Y-98498307D01*
X193851755Y-98506312D01*
X193845482Y-98533113D01*
X193809281Y-98734965D01*
X193823458Y-98933385D01*
X193887580Y-99126948D01*
X194001214Y-99314230D01*
X194126476Y-99457572D01*
X194303055Y-99610338D01*
X194499577Y-99739426D01*
X194700551Y-99835358D01*
X194796407Y-99867515D01*
X194901575Y-99898056D01*
X195009613Y-99930541D01*
X195054073Y-99944345D01*
X195193801Y-99972182D01*
X195361303Y-99980706D01*
X195539535Y-99971241D01*
X195711454Y-99945108D01*
X195860016Y-99903630D01*
X195921137Y-99877077D01*
X195971630Y-99857792D01*
X195992410Y-99854415D01*
X196027772Y-99839048D01*
X196092091Y-99797793D01*
X196175767Y-99737921D01*
X196269204Y-99666703D01*
X196362804Y-99591409D01*
X196446971Y-99519310D01*
X196499910Y-99469955D01*
X196568869Y-99399275D01*
X196656372Y-99305873D01*
X196747739Y-99205524D01*
X196785828Y-99162730D01*
X196936543Y-99012180D01*
X197095196Y-98890164D01*
X197251264Y-98804196D01*
X197326237Y-98776724D01*
X197387792Y-98764700D01*
X197481961Y-98753203D01*
X197590534Y-98744365D01*
X197613723Y-98743033D01*
X197740609Y-98740305D01*
X197825008Y-98749841D01*
X197874381Y-98774354D01*
X197896188Y-98816560D01*
X197899117Y-98846867D01*
X197914995Y-98910522D01*
X197937255Y-98950315D01*
X197966898Y-99006073D01*
X197974585Y-99041720D01*
X197992276Y-99089546D01*
X198025436Y-99129790D01*
X198063537Y-99174243D01*
X198076287Y-99205180D01*
X198095440Y-99246660D01*
X198144114Y-99303274D01*
X198209131Y-99362542D01*
X198277310Y-99411985D01*
X198316602Y-99432745D01*
X198393584Y-99452651D01*
X198511260Y-99467802D01*
X198659696Y-99478187D01*
X198828957Y-99483792D01*
X199009108Y-99484608D01*
X199190216Y-99480622D01*
X199362344Y-99471821D01*
X199515559Y-99458194D01*
X199639926Y-99439730D01*
X199665376Y-99434350D01*
X199844357Y-99368129D01*
X199999311Y-99258380D01*
X200126267Y-99108302D01*
X200176090Y-99022886D01*
X200243981Y-98914396D01*
X200254466Y-98901926D01*
X198166743Y-98901926D01*
X198146416Y-98913541D01*
X198140745Y-98913674D01*
X198108697Y-98892428D01*
X198101712Y-98862823D01*
X198106683Y-98821441D01*
X198113530Y-98811972D01*
X198133228Y-98831436D01*
X198152563Y-98862823D01*
X198166743Y-98901926D01*
X200254466Y-98901926D01*
X200327590Y-98814967D01*
X200412722Y-98740568D01*
X200444150Y-98721328D01*
X200548188Y-98673957D01*
X200590301Y-98659420D01*
X197798911Y-98659420D01*
X197581518Y-98659420D01*
X197460287Y-98662325D01*
X197370754Y-98673339D01*
X197293979Y-98695909D01*
X197232364Y-98722983D01*
X197157389Y-98757554D01*
X197100970Y-98780639D01*
X197080130Y-98786547D01*
X197044510Y-98801695D01*
X196983974Y-98848197D01*
X196896843Y-98927637D01*
X196781436Y-99041600D01*
X196636076Y-99191671D01*
X196512623Y-99322228D01*
X196360775Y-99472031D01*
X196206912Y-99601823D01*
X196058057Y-99706909D01*
X195921235Y-99782593D01*
X195803468Y-99824181D01*
X195751907Y-99830776D01*
X195677487Y-99839238D01*
X195622733Y-99854415D01*
X195556604Y-99868835D01*
X195454278Y-99874952D01*
X195329692Y-99872977D01*
X195196781Y-99863124D01*
X195071815Y-99846016D01*
X194983277Y-99828273D01*
X194915367Y-99810631D01*
X194883243Y-99797174D01*
X194843294Y-99780191D01*
X194822425Y-99778139D01*
X194781090Y-99767409D01*
X194708326Y-99738905D01*
X194617901Y-99698157D01*
X194591477Y-99685397D01*
X194431902Y-99590559D01*
X194277127Y-99468639D01*
X194139637Y-99331412D01*
X194031919Y-99190654D01*
X193991701Y-99119737D01*
X193960510Y-99051410D01*
X193940366Y-98990160D01*
X193928960Y-98921738D01*
X193923980Y-98831894D01*
X193923117Y-98706378D01*
X193923147Y-98696905D01*
X193924619Y-98569894D01*
X193929548Y-98480212D01*
X193940294Y-98414348D01*
X193959219Y-98358792D01*
X193988684Y-98300033D01*
X193994263Y-98289921D01*
X194036212Y-98215959D01*
X194056507Y-98181867D01*
X193891427Y-98181867D01*
X193879794Y-98216656D01*
X193847666Y-98270796D01*
X193799499Y-98338091D01*
X193739750Y-98412349D01*
X193672877Y-98487374D01*
X193603336Y-98556973D01*
X193535584Y-98614952D01*
X193530519Y-98618794D01*
X193422494Y-98685655D01*
X193335662Y-98707345D01*
X193268211Y-98684044D01*
X193235667Y-98647602D01*
X193203366Y-98579237D01*
X193196638Y-98520718D01*
X193215698Y-98485796D01*
X193233088Y-98481442D01*
X193287962Y-98469799D01*
X193315721Y-98457806D01*
X193357367Y-98436642D01*
X193403678Y-98413733D01*
X193052156Y-98413733D01*
X193023494Y-98463260D01*
X192956590Y-98481436D01*
X192955035Y-98481442D01*
X192899500Y-98491155D01*
X192875516Y-98504263D01*
X192836374Y-98521906D01*
X192769285Y-98537271D01*
X192749660Y-98540146D01*
X192656162Y-98555849D01*
X192565493Y-98576486D01*
X192558969Y-98578286D01*
X192438238Y-98598928D01*
X192286823Y-98605191D01*
X192122649Y-98597631D01*
X191963642Y-98576802D01*
X191874096Y-98557092D01*
X191764722Y-98524881D01*
X191659259Y-98488640D01*
X191580425Y-98456178D01*
X191580033Y-98455989D01*
X191511581Y-98425346D01*
X191461193Y-98407248D01*
X191449730Y-98405166D01*
X191413759Y-98389339D01*
X191374472Y-98358638D01*
X191315818Y-98310167D01*
X191253722Y-98265715D01*
X191188271Y-98208248D01*
X191111387Y-98118310D01*
X191029690Y-98006508D01*
X190949796Y-97883452D01*
X190878323Y-97759750D01*
X190821888Y-97646011D01*
X190787108Y-97552841D01*
X190779189Y-97504989D01*
X190767900Y-97451587D01*
X190743817Y-97393242D01*
X190728539Y-97337389D01*
X190716586Y-97243961D01*
X190708278Y-97126150D01*
X190703940Y-96997142D01*
X190703893Y-96870128D01*
X190708460Y-96758296D01*
X190717963Y-96674835D01*
X190725535Y-96645474D01*
X190792781Y-96532123D01*
X190899542Y-96427428D01*
X191034484Y-96339522D01*
X191186275Y-96276536D01*
X191267808Y-96256386D01*
X191342683Y-96252445D01*
X191394629Y-96278610D01*
X191401020Y-96284683D01*
X191431203Y-96320418D01*
X191423163Y-96344862D01*
X191398576Y-96364523D01*
X191366226Y-96393008D01*
X191375287Y-96412245D01*
X191395756Y-96424714D01*
X191432267Y-96468759D01*
X191440251Y-96504210D01*
X191446977Y-96557626D01*
X191464361Y-96639295D01*
X191482024Y-96707364D01*
X191528696Y-96829446D01*
X191591183Y-96907466D01*
X191676166Y-96947388D01*
X191760613Y-96955916D01*
X191877383Y-96931260D01*
X191981876Y-96857965D01*
X192072809Y-96737038D01*
X192097526Y-96691077D01*
X192157469Y-96598609D01*
X192235439Y-96537689D01*
X192262119Y-96524112D01*
X192361703Y-96464593D01*
X192424339Y-96391455D01*
X192456797Y-96292954D01*
X192465822Y-96170759D01*
X192465158Y-96148368D01*
X192372322Y-96148368D01*
X192350656Y-96263345D01*
X192303191Y-96347846D01*
X192253413Y-96405753D01*
X192220624Y-96419161D01*
X192208182Y-96388388D01*
X192213650Y-96339350D01*
X192227065Y-96267437D01*
X192243968Y-96171126D01*
X192254934Y-96106023D01*
X192270037Y-96023990D01*
X192283911Y-95964483D01*
X192291929Y-95943210D01*
X192307975Y-95956395D01*
X192333893Y-96003910D01*
X192344779Y-96028576D01*
X192372322Y-96148368D01*
X192465158Y-96148368D01*
X192462777Y-96068201D01*
X192448094Y-95993597D01*
X192416027Y-95924394D01*
X192393782Y-95888048D01*
X192350386Y-95811151D01*
X192329656Y-95741466D01*
X192325257Y-95653982D01*
X192326155Y-95621082D01*
X192333020Y-95523475D01*
X192344739Y-95434850D01*
X192353984Y-95392253D01*
X192370576Y-95329678D01*
X192393311Y-95236745D01*
X192417471Y-95132777D01*
X192419161Y-95125286D01*
X192447110Y-95010798D01*
X192481941Y-94882190D01*
X192519805Y-94752250D01*
X192556850Y-94633768D01*
X192589223Y-94539535D01*
X192612392Y-94483639D01*
X192632101Y-94426927D01*
X192635246Y-94401869D01*
X192644897Y-94355569D01*
X192668880Y-94287284D01*
X192676908Y-94268040D01*
X192708684Y-94193145D01*
X192734257Y-94130346D01*
X192737879Y-94120981D01*
X192772116Y-94040491D01*
X192822282Y-93934278D01*
X192879503Y-93821012D01*
X192888889Y-93803164D01*
X192925297Y-93731331D01*
X192953569Y-93670455D01*
X192956541Y-93663324D01*
X192969706Y-93643858D01*
X192978826Y-93666581D01*
X192985509Y-93732378D01*
X192985075Y-93815536D01*
X192974107Y-93884159D01*
X192967134Y-93902328D01*
X192949812Y-93959783D01*
X192940741Y-94038830D01*
X192940351Y-94057418D01*
X192933563Y-94138212D01*
X192916774Y-94205067D01*
X192912095Y-94215259D01*
X192895890Y-94264927D01*
X192878421Y-94348945D01*
X192862955Y-94451015D01*
X192860155Y-94474198D01*
X192837773Y-94668654D01*
X192819990Y-94822104D01*
X192805666Y-94944069D01*
X192793660Y-95044067D01*
X192782832Y-95131619D01*
X192772042Y-95216246D01*
X192762367Y-95290551D01*
X192748704Y-95426004D01*
X192738492Y-95591652D01*
X192731620Y-95779578D01*
X192727981Y-95981862D01*
X192727465Y-96190588D01*
X192729964Y-96397837D01*
X192735369Y-96595692D01*
X192743571Y-96776234D01*
X192754462Y-96931547D01*
X192767933Y-97053711D01*
X192783875Y-97134810D01*
X192787863Y-97146777D01*
X192804945Y-97217871D01*
X192813107Y-97303292D01*
X192813224Y-97313163D01*
X192815225Y-97370749D01*
X192822591Y-97433905D01*
X192837362Y-97513950D01*
X192861580Y-97622207D01*
X192890933Y-97744105D01*
X192914240Y-97842074D01*
X192936707Y-97940747D01*
X192940973Y-97960221D01*
X192972208Y-98101071D01*
X192996780Y-98202897D01*
X193017533Y-98276632D01*
X193037312Y-98333205D01*
X193039346Y-98338338D01*
X193052156Y-98413733D01*
X193403678Y-98413733D01*
X193431932Y-98399757D01*
X193526526Y-98353503D01*
X193575986Y-98329489D01*
X193675662Y-98280310D01*
X193761400Y-98236373D01*
X193820321Y-98204351D01*
X193835377Y-98195115D01*
X193878107Y-98172622D01*
X193891427Y-98181867D01*
X194056507Y-98181867D01*
X194070037Y-98159139D01*
X194083787Y-98138199D01*
X194116866Y-98086717D01*
X194166250Y-97999864D01*
X194226452Y-97888212D01*
X194291984Y-97762335D01*
X194357357Y-97632803D01*
X194417084Y-97510191D01*
X194465677Y-97405072D01*
X194473111Y-97388149D01*
X194506849Y-97310975D01*
X194548430Y-97216466D01*
X194568064Y-97172032D01*
X194608304Y-97079834D01*
X194646409Y-96990449D01*
X194660757Y-96955916D01*
X194691633Y-96884387D01*
X194718874Y-96827422D01*
X194721362Y-96822778D01*
X194742447Y-96758901D01*
X194745556Y-96728933D01*
X194756217Y-96680757D01*
X194769025Y-96664733D01*
X194790730Y-96631621D01*
X194809232Y-96574022D01*
X194826883Y-96519118D01*
X194844110Y-96513344D01*
X194860068Y-96554982D01*
X194873910Y-96642313D01*
X194881178Y-96720193D01*
X194896324Y-96889168D01*
X194915601Y-97059847D01*
X194937575Y-97222925D01*
X194960812Y-97369094D01*
X194983877Y-97489047D01*
X195005336Y-97573479D01*
X195017397Y-97604265D01*
X195062474Y-97699472D01*
X195103630Y-97804366D01*
X195111121Y-97826737D01*
X195143497Y-97864718D01*
X195189453Y-97866360D01*
X195218644Y-97841409D01*
X195242276Y-97789424D01*
X195263076Y-97712749D01*
X195281259Y-97608373D01*
X195297039Y-97473287D01*
X195310630Y-97304478D01*
X195322247Y-97098937D01*
X195332103Y-96853653D01*
X195340414Y-96565617D01*
X195347394Y-96231816D01*
X195351526Y-95974548D01*
X195356603Y-95659832D01*
X195362032Y-95394696D01*
X195367860Y-95177870D01*
X195374137Y-95008086D01*
X195380909Y-94884073D01*
X195388224Y-94804561D01*
X195396131Y-94768281D01*
X195397066Y-94766841D01*
X195422384Y-94716397D01*
X195439468Y-94654915D01*
X195456942Y-94575149D01*
X195477675Y-94497417D01*
X195260159Y-94497417D01*
X195259799Y-94638608D01*
X195258271Y-94753691D01*
X195255516Y-94846200D01*
X195251479Y-94919667D01*
X195246103Y-94977628D01*
X195239331Y-95023616D01*
X195231106Y-95061165D01*
X195221372Y-95093808D01*
X195210073Y-95125080D01*
X195205101Y-95137998D01*
X195150333Y-95287172D01*
X195117122Y-95397096D01*
X195108386Y-95437058D01*
X195091708Y-95493257D01*
X195073155Y-95521192D01*
X195055558Y-95554795D01*
X195050661Y-95595077D01*
X195042807Y-95666663D01*
X195023206Y-95718963D01*
X195001810Y-95735496D01*
X194997060Y-95711266D01*
X194993592Y-95643333D01*
X194991512Y-95538830D01*
X194990924Y-95404892D01*
X194991937Y-95248651D01*
X194993194Y-95157067D01*
X194996990Y-94982517D01*
X195002370Y-94817855D01*
X195008889Y-94672368D01*
X195016105Y-94555344D01*
X195023575Y-94476070D01*
X195026612Y-94456617D01*
X195036234Y-94381865D01*
X195044051Y-94271842D01*
X195049191Y-94142119D01*
X195050808Y-94024385D01*
X195053148Y-93885956D01*
X195059374Y-93749431D01*
X195068489Y-93632096D01*
X195077540Y-93561622D01*
X195087010Y-93488540D01*
X195097634Y-93375384D01*
X195108594Y-93232891D01*
X195119069Y-93071799D01*
X195128239Y-92902847D01*
X195128962Y-92887848D01*
X195141641Y-92623523D01*
X195152340Y-92405483D01*
X195161364Y-92229212D01*
X195169019Y-92090195D01*
X195175608Y-91983917D01*
X195181438Y-91905862D01*
X195186814Y-91851517D01*
X195192040Y-91816365D01*
X195197421Y-91795891D01*
X195203263Y-91785581D01*
X195203448Y-91785381D01*
X195208062Y-91805350D01*
X195213054Y-91871213D01*
X195218258Y-91978019D01*
X195223507Y-92120816D01*
X195228637Y-92294650D01*
X195233480Y-92494570D01*
X195237871Y-92715622D01*
X195240943Y-92904100D01*
X195246407Y-93276151D01*
X195251042Y-93600892D01*
X195254791Y-93881854D01*
X195257598Y-94122574D01*
X195259407Y-94326583D01*
X195260159Y-94497417D01*
X195477675Y-94497417D01*
X195479640Y-94490050D01*
X195479759Y-94489650D01*
X195502594Y-94413039D01*
X195531659Y-94315707D01*
X195548069Y-94260821D01*
X195576212Y-94160991D01*
X195601329Y-94062356D01*
X195611056Y-94019280D01*
X195629898Y-93936803D01*
X195655788Y-93833204D01*
X195673872Y-93765025D01*
X195700457Y-93666075D01*
X195724901Y-93572425D01*
X195737204Y-93523484D01*
X195781285Y-93341284D01*
X195815409Y-93196702D01*
X195842074Y-93078054D01*
X195863777Y-92973655D01*
X195883015Y-92871821D01*
X195902285Y-92760867D01*
X195909766Y-92716114D01*
X195926529Y-92636092D01*
X195945690Y-92573650D01*
X195953499Y-92557205D01*
X195970365Y-92511624D01*
X195988161Y-92435603D01*
X195997860Y-92379340D01*
X196025368Y-92198685D01*
X196049129Y-92055631D01*
X196071445Y-91937290D01*
X196094622Y-91830775D01*
X196100156Y-91807268D01*
X196120619Y-91731832D01*
X196137080Y-91699335D01*
X196151004Y-91711638D01*
X196163859Y-91770605D01*
X196177111Y-91878096D01*
X196180279Y-91908969D01*
X196195319Y-92040783D01*
X196215727Y-92194359D01*
X196239482Y-92356713D01*
X196264557Y-92514862D01*
X196288932Y-92655821D01*
X196310581Y-92766606D01*
X196320860Y-92811021D01*
X196338600Y-92886825D01*
X196359742Y-92986118D01*
X196373065Y-93053114D01*
X196404914Y-93213930D01*
X196436958Y-93366742D01*
X196466602Y-93499744D01*
X196491254Y-93601128D01*
X196501916Y-93639703D01*
X196519225Y-93720314D01*
X196525336Y-93787571D01*
X196535381Y-93860378D01*
X196552561Y-93908228D01*
X196573007Y-93962460D01*
X196594621Y-94043656D01*
X196604517Y-94090890D01*
X196623455Y-94191587D01*
X196642303Y-94291459D01*
X196648714Y-94325315D01*
X196665590Y-94398074D01*
X196683285Y-94451079D01*
X196687290Y-94458867D01*
X196702617Y-94500273D01*
X196720958Y-94572435D01*
X196731387Y-94623202D01*
X196766127Y-94799297D01*
X196800743Y-94952127D01*
X196841405Y-95108888D01*
X196842410Y-95112573D01*
X196889426Y-95288243D01*
X196925421Y-95431406D01*
X196953350Y-95553121D01*
X196971361Y-95623254D01*
X196988900Y-95672829D01*
X196991939Y-95678549D01*
X197007213Y-95718682D01*
X197026281Y-95788675D01*
X197035538Y-95829142D01*
X197071324Y-95986391D01*
X197110618Y-96135857D01*
X197149609Y-96269430D01*
X197177910Y-96369229D01*
X197203158Y-96467842D01*
X197212942Y-96510971D01*
X197233186Y-96595671D01*
X197261167Y-96698440D01*
X197277187Y-96752513D01*
X197304087Y-96850248D01*
X197325262Y-96945328D01*
X197332259Y-96987857D01*
X197345621Y-97053425D01*
X197363294Y-97093970D01*
X197367060Y-97097416D01*
X197384299Y-97130774D01*
X197390701Y-97179889D01*
X197404480Y-97255263D01*
X197427938Y-97311872D01*
X197455001Y-97385116D01*
X197465175Y-97456568D01*
X197473054Y-97517644D01*
X197490837Y-97552976D01*
X197491502Y-97553414D01*
X197509495Y-97587511D01*
X197517796Y-97648135D01*
X197517828Y-97650260D01*
X197530322Y-97730727D01*
X197555065Y-97794955D01*
X197583261Y-97868353D01*
X197592303Y-97926938D01*
X197601520Y-97983276D01*
X197618629Y-98011071D01*
X197635946Y-98044942D01*
X197643984Y-98106330D01*
X197644054Y-98112773D01*
X197650104Y-98174979D01*
X197664845Y-98211351D01*
X197666597Y-98212694D01*
X197685518Y-98244728D01*
X197703758Y-98306302D01*
X197707011Y-98322252D01*
X197723617Y-98391218D01*
X197741632Y-98438574D01*
X197744716Y-98443304D01*
X197761994Y-98483596D01*
X197779074Y-98550194D01*
X197781731Y-98564074D01*
X197798911Y-98659420D01*
X200590301Y-98659420D01*
X200649316Y-98639049D01*
X200739810Y-98617514D01*
X200811947Y-98610262D01*
X200858004Y-98618204D01*
X200870258Y-98642249D01*
X200850798Y-98673404D01*
X200819329Y-98717719D01*
X200779478Y-98786621D01*
X200739801Y-98863464D01*
X200708855Y-98931603D01*
X200695195Y-98974393D01*
X200695105Y-98976278D01*
X200673963Y-99008989D01*
X200622780Y-99046379D01*
X200559919Y-99077547D01*
X200503744Y-99091592D01*
X200500755Y-99091652D01*
X200466016Y-99105924D01*
X200399714Y-99144575D01*
X200310882Y-99201357D01*
X200208551Y-99270022D01*
X200101754Y-99344324D01*
X199999521Y-99418014D01*
X199910885Y-99484845D01*
X199844877Y-99538569D01*
X199817928Y-99563991D01*
X199784679Y-99592429D01*
X199726619Y-99636163D01*
X199657022Y-99685893D01*
X199589162Y-99732320D01*
X199536312Y-99766144D01*
X199512259Y-99778139D01*
X199484803Y-99790553D01*
X199430233Y-99822022D01*
X199398409Y-99841702D01*
X199326604Y-99880318D01*
X199264099Y-99902870D01*
X199246361Y-99905266D01*
X199204772Y-99915819D01*
X199195005Y-99930691D01*
X199173339Y-99950129D01*
X199134348Y-99956117D01*
X199067645Y-99967985D01*
X199000865Y-99994098D01*
X198919670Y-100022541D01*
X198835194Y-100031171D01*
X198767210Y-100019099D01*
X198746103Y-100005553D01*
X198711169Y-99995315D01*
X198631498Y-99985966D01*
X198513201Y-99977964D01*
X198362392Y-99971769D01*
X198262013Y-99969176D01*
X198095242Y-99965158D01*
X197970979Y-99960429D01*
X197880884Y-99954039D01*
X197816614Y-99945039D01*
X197769829Y-99932478D01*
X197732185Y-99915408D01*
X197718052Y-99907246D01*
X197652181Y-99868867D01*
X197600140Y-99840934D01*
X197593204Y-99837645D01*
X197518569Y-99782845D01*
X197454791Y-99700191D01*
X197416346Y-99610465D01*
X197411271Y-99576512D01*
X197410871Y-99458161D01*
X197422905Y-99380973D01*
X197448700Y-99336489D01*
X197448952Y-99336255D01*
X197522516Y-99283717D01*
X197610910Y-99241253D01*
X197690585Y-99219659D01*
X197705185Y-99218779D01*
X197754126Y-99210874D01*
X197771181Y-99194889D01*
X197793575Y-99177151D01*
X197848668Y-99164384D01*
X197860702Y-99163107D01*
X197922455Y-99149646D01*
X197947488Y-99129610D01*
X197932678Y-99112606D01*
X197878604Y-99108024D01*
X197801633Y-99117832D01*
X197712676Y-99137165D01*
X197629700Y-99161185D01*
X197570669Y-99185052D01*
X197556337Y-99194812D01*
X197510649Y-99217255D01*
X197492773Y-99219625D01*
X197440691Y-99237627D01*
X197385528Y-99278747D01*
X197346551Y-99326498D01*
X197338949Y-99351253D01*
X197322265Y-99400129D01*
X197310616Y-99414920D01*
X197300268Y-99454942D01*
X197305462Y-99524805D01*
X197322467Y-99607293D01*
X197347548Y-99685191D01*
X197376976Y-99741282D01*
X197382864Y-99748173D01*
X197410564Y-99786734D01*
X197415226Y-99802001D01*
X197435103Y-99826940D01*
X197486036Y-99868064D01*
X197554970Y-99916251D01*
X197628853Y-99962380D01*
X197694633Y-99997329D01*
X197694905Y-99997454D01*
X197760016Y-100026365D01*
X197841371Y-100061387D01*
X197860170Y-100069331D01*
X197936932Y-100102383D01*
X198001553Y-100131465D01*
X198013607Y-100137182D01*
X198056992Y-100145128D01*
X198140660Y-100149944D01*
X198254151Y-100151819D01*
X198387007Y-100150946D01*
X198528767Y-100147513D01*
X198668973Y-100141713D01*
X198797164Y-100133735D01*
X198902883Y-100123771D01*
X198928038Y-100120509D01*
X199013151Y-100103025D01*
X199083606Y-100079198D01*
X199105317Y-100067488D01*
X199160065Y-100039592D01*
X199193149Y-100032393D01*
X199236933Y-100022312D01*
X199304654Y-99996628D01*
X199381838Y-99962178D01*
X199454012Y-99925798D01*
X199506703Y-99894325D01*
X199525536Y-99875376D01*
X199545345Y-99855373D01*
X199553766Y-99854415D01*
X199583239Y-99840597D01*
X199641774Y-99804543D01*
X199717620Y-99754350D01*
X199799027Y-99698116D01*
X199874243Y-99643939D01*
X199931520Y-99599918D01*
X199957768Y-99575990D01*
X199985097Y-99552593D01*
X200043986Y-99507580D01*
X200124211Y-99448309D01*
X200215545Y-99382141D01*
X200307760Y-99316434D01*
X200390632Y-99258547D01*
X200453934Y-99215841D01*
X200483674Y-99197519D01*
X200554918Y-99173471D01*
X200601515Y-99167928D01*
X200637492Y-99172727D01*
X200658989Y-99195163D01*
X200672722Y-99247297D01*
X200681851Y-99312234D01*
X200713333Y-99454328D01*
X200775803Y-99612465D01*
X200872562Y-99794725D01*
X200893145Y-99829501D01*
X200949102Y-99923092D01*
X201007387Y-100021006D01*
X201025636Y-100051778D01*
X201085311Y-100130188D01*
X201146583Y-100161107D01*
X201214249Y-100144472D01*
X201293102Y-100080216D01*
X201323104Y-100047747D01*
X201396323Y-99942856D01*
X201457171Y-99815904D01*
X201497247Y-99687387D01*
X201499581Y-99668544D01*
X201427991Y-99668544D01*
X201384000Y-99814993D01*
X201368436Y-99846713D01*
X201318728Y-99926172D01*
X201259089Y-100000024D01*
X201200744Y-100056163D01*
X201154914Y-100082481D01*
X201149304Y-100083117D01*
X201128354Y-100062876D01*
X201097415Y-100012802D01*
X201091025Y-100000611D01*
X201047280Y-99918528D01*
X201003699Y-99841702D01*
X200966828Y-99776134D01*
X200919785Y-99688099D01*
X200887511Y-99625586D01*
X200845757Y-99543367D01*
X200810749Y-99474526D01*
X200793962Y-99441597D01*
X200781218Y-99392051D01*
X200773030Y-99312923D01*
X200771382Y-99257262D01*
X200771382Y-99117078D01*
X200897008Y-99117078D01*
X200972834Y-99121827D01*
X201025640Y-99133923D01*
X201038349Y-99142503D01*
X201074195Y-99163830D01*
X201103633Y-99167928D01*
X201162682Y-99188232D01*
X201235788Y-99242438D01*
X201311447Y-99320490D01*
X201372085Y-99402608D01*
X201424032Y-99529538D01*
X201427991Y-99668544D01*
X201499581Y-99668544D01*
X201508719Y-99594802D01*
X201494470Y-99516101D01*
X201457660Y-99417276D01*
X201407192Y-99318147D01*
X201351968Y-99238538D01*
X201345391Y-99231179D01*
X201264779Y-99163395D01*
X201162048Y-99102763D01*
X201056233Y-99058755D01*
X200966370Y-99040842D01*
X200962806Y-99040801D01*
X200891246Y-99036365D01*
X200837823Y-99025671D01*
X200837206Y-99025438D01*
X200811750Y-98992757D01*
X200816949Y-98933209D01*
X200846975Y-98855354D01*
X200896001Y-98767749D01*
X200958201Y-98678954D01*
X201027748Y-98597526D01*
X201098814Y-98532025D01*
X201165572Y-98491008D01*
X201207579Y-98481442D01*
X201240133Y-98467558D01*
X201303714Y-98430311D01*
X201388268Y-98376307D01*
X201483741Y-98312156D01*
X201580079Y-98244462D01*
X201667229Y-98179835D01*
X201671408Y-98176615D01*
X201774902Y-98119342D01*
X201880637Y-98099130D01*
X201977529Y-98114763D01*
X202054491Y-98165024D01*
X202091661Y-98222739D01*
X202106145Y-98270168D01*
X202107191Y-98322240D01*
X202093451Y-98393927D01*
X202067946Y-98485489D01*
X202037694Y-98590202D01*
X202010623Y-98688224D01*
X201992403Y-98759011D01*
X201991906Y-98761122D01*
X201968595Y-98851622D01*
X201943169Y-98939100D01*
X201930766Y-99037536D01*
X201940876Y-99162289D01*
X201969531Y-99296267D01*
X202012762Y-99422373D01*
X202066602Y-99523516D01*
X202084124Y-99546312D01*
X202160590Y-99614665D01*
X202271323Y-99687586D01*
X202401275Y-99757238D01*
X202535397Y-99815784D01*
X202658642Y-99855388D01*
X202691001Y-99862359D01*
X202867855Y-99883316D01*
X203047780Y-99884123D01*
X203219794Y-99866394D01*
X203372919Y-99831746D01*
X203496172Y-99781794D01*
X203563805Y-99733928D01*
X203615320Y-99694170D01*
X203645478Y-99675889D01*
X203708584Y-99621063D01*
X203773737Y-99529825D01*
X203834366Y-99415881D01*
X203883900Y-99292936D01*
X203915768Y-99174693D01*
X203924134Y-99094732D01*
X203931816Y-99035427D01*
X203949560Y-99002663D01*
X203968052Y-98968205D01*
X203974985Y-98913947D01*
X203988400Y-98840840D01*
X204023894Y-98741336D01*
X204074341Y-98630667D01*
X204132615Y-98524063D01*
X204191588Y-98436757D01*
X204206923Y-98418222D01*
X204319440Y-98311543D01*
X204435375Y-98248972D01*
X204566673Y-98224487D01*
X204592898Y-98223659D01*
X204680866Y-98227551D01*
X204754131Y-98239319D01*
X204781748Y-98248947D01*
X204816137Y-98279490D01*
X204858090Y-98340579D01*
X204910260Y-98436958D01*
X204975296Y-98573370D01*
X205025387Y-98684985D01*
X205097571Y-98813625D01*
X205188126Y-98922897D01*
X205285002Y-98998816D01*
X205304419Y-99008929D01*
X205423665Y-99049639D01*
X205568650Y-99076566D01*
X205715302Y-99086157D01*
X205797658Y-99081705D01*
X205988183Y-99058182D01*
X206136306Y-99036672D01*
X206250335Y-99015443D01*
X206338580Y-98992762D01*
X206409350Y-98966896D01*
X206455703Y-98944501D01*
X206514678Y-98915135D01*
X206581567Y-98884195D01*
X206722728Y-98804475D01*
X206866985Y-98693951D01*
X206995767Y-98567819D01*
X207051622Y-98499533D01*
X207108435Y-98422417D01*
X207186131Y-98316300D01*
X207275798Y-98193387D01*
X207368522Y-98065883D01*
X207399497Y-98023191D01*
X207633117Y-97700979D01*
X207876243Y-97683889D01*
X208048126Y-97663699D01*
X208186535Y-97625396D01*
X208307269Y-97561495D01*
X208426125Y-97464512D01*
X208503874Y-97386521D01*
X208592161Y-97300110D01*
X208658925Y-97251383D01*
X208710696Y-97235610D01*
X208712134Y-97235596D01*
X208767045Y-97244281D01*
X208792683Y-97260341D01*
X208824125Y-97286679D01*
X208882214Y-97320107D01*
X208895885Y-97326802D01*
X208952668Y-97361564D01*
X208982480Y-97395065D01*
X208983794Y-97401342D01*
X208963501Y-97432000D01*
X208911639Y-97474274D01*
X208871510Y-97499970D01*
X208786356Y-97558399D01*
X208695946Y-97633068D01*
X208655394Y-97671698D01*
X208600184Y-97730706D01*
X208569113Y-97778161D01*
X208555250Y-97832677D01*
X208551669Y-97912870D01*
X208551562Y-97950669D01*
X208553845Y-98047205D01*
X208564364Y-98111294D01*
X208588618Y-98161267D01*
X208630472Y-98213590D01*
X208680587Y-98265526D01*
X208726345Y-98292208D01*
X208788065Y-98301768D01*
X208852944Y-98302618D01*
X208963895Y-98292988D01*
X209043896Y-98259223D01*
X209110743Y-98191671D01*
X209142713Y-98145450D01*
X209174514Y-98080906D01*
X209187198Y-98026179D01*
X209198674Y-97977134D01*
X209212623Y-97960221D01*
X209227358Y-97927646D01*
X209236535Y-97862187D01*
X209237296Y-97840225D01*
X209148022Y-97840225D01*
X209121612Y-97992687D01*
X209056471Y-98127731D01*
X209044656Y-98144001D01*
X208995028Y-98198461D01*
X208942186Y-98222274D01*
X208870346Y-98227188D01*
X208790545Y-98220250D01*
X208735204Y-98191947D01*
X208693662Y-98148961D01*
X208635653Y-98046912D01*
X208627008Y-97939725D01*
X208666825Y-97829951D01*
X208754200Y-97720138D01*
X208881910Y-97617102D01*
X208974082Y-97558769D01*
X209036238Y-97535294D01*
X209077679Y-97549292D01*
X209107708Y-97603375D01*
X209132408Y-97687474D01*
X209148022Y-97840225D01*
X209237296Y-97840225D01*
X209238048Y-97818535D01*
X209233012Y-97733496D01*
X209220266Y-97663091D01*
X209212623Y-97642058D01*
X209178725Y-97574721D01*
X209161772Y-97541046D01*
X209140940Y-97490004D01*
X209147985Y-97455660D01*
X209190188Y-97423436D01*
X209231692Y-97400984D01*
X209299772Y-97362292D01*
X209381234Y-97311287D01*
X209464991Y-97255574D01*
X209522255Y-97215231D01*
X208500711Y-97215231D01*
X208482348Y-97249532D01*
X208434793Y-97304018D01*
X208369348Y-97368117D01*
X208297315Y-97431258D01*
X208229996Y-97482867D01*
X208186764Y-97508919D01*
X208090390Y-97552630D01*
X208020881Y-97578338D01*
X207960095Y-97591709D01*
X207903214Y-97597503D01*
X207803451Y-97599204D01*
X207749719Y-97586152D01*
X207737948Y-97566365D01*
X207758009Y-97531478D01*
X207810841Y-97478902D01*
X207885417Y-97416787D01*
X207970711Y-97353282D01*
X208055696Y-97296536D01*
X208129347Y-97254700D01*
X208180636Y-97235921D01*
X208185487Y-97235596D01*
X208237690Y-97225587D01*
X208259169Y-97210171D01*
X208292008Y-97193147D01*
X208351211Y-97185299D01*
X208418120Y-97186236D01*
X208474077Y-97195566D01*
X208500422Y-97212898D01*
X208500711Y-97215231D01*
X209522255Y-97215231D01*
X209539954Y-97202762D01*
X209595035Y-97160457D01*
X209619144Y-97136266D01*
X209619430Y-97134986D01*
X209634792Y-97108245D01*
X209672219Y-97062290D01*
X209676637Y-97057358D01*
X209767840Y-96924772D01*
X209834587Y-96763453D01*
X209846078Y-96707800D01*
X208678689Y-96707800D01*
X208675458Y-96802549D01*
X208667014Y-96881209D01*
X208655999Y-96924480D01*
X208629581Y-96981393D01*
X208605694Y-97038549D01*
X208588237Y-97075126D01*
X208563509Y-97096048D01*
X208518640Y-97105674D01*
X208440759Y-97108360D01*
X208399209Y-97108469D01*
X208302966Y-97111791D01*
X208222801Y-97120499D01*
X208176192Y-97132663D01*
X208124161Y-97158746D01*
X208052744Y-97191899D01*
X208039076Y-97197994D01*
X207974767Y-97235018D01*
X207895921Y-97292523D01*
X207812796Y-97361344D01*
X207735653Y-97432314D01*
X207674751Y-97496267D01*
X207640349Y-97544037D01*
X207636247Y-97557900D01*
X207626620Y-97579895D01*
X207590444Y-97588070D01*
X207516775Y-97584497D01*
X207502763Y-97583169D01*
X207405404Y-97571678D01*
X207313066Y-97557705D01*
X207280755Y-97551640D01*
X207225984Y-97533643D01*
X207144114Y-97499014D01*
X207046156Y-97453327D01*
X206943121Y-97402157D01*
X206846021Y-97351078D01*
X206765866Y-97305664D01*
X206713666Y-97271492D01*
X206699743Y-97257484D01*
X206670478Y-97236033D01*
X206661605Y-97234912D01*
X206625192Y-97219339D01*
X206568757Y-97180996D01*
X206544968Y-97162104D01*
X206457994Y-97089980D01*
X206524199Y-97054730D01*
X206569296Y-97028463D01*
X206647283Y-96980751D01*
X206748310Y-96917705D01*
X206862529Y-96845437D01*
X206898580Y-96822433D01*
X207009969Y-96752139D01*
X207106575Y-96692919D01*
X207180163Y-96649688D01*
X207222496Y-96627364D01*
X207228692Y-96625386D01*
X207258478Y-96607609D01*
X207259103Y-96606317D01*
X207287616Y-96578912D01*
X207350380Y-96535717D01*
X207436157Y-96483672D01*
X207533712Y-96429718D01*
X207598108Y-96396915D01*
X207779848Y-96317027D01*
X207939648Y-96268322D01*
X208092241Y-96246758D01*
X208152124Y-96244834D01*
X208314731Y-96259146D01*
X208446419Y-96307022D01*
X208558195Y-96393254D01*
X208599953Y-96439750D01*
X208642979Y-96497368D01*
X208666718Y-96550584D01*
X208676755Y-96618412D01*
X208678689Y-96707800D01*
X209846078Y-96707800D01*
X209869901Y-96592422D01*
X209873684Y-96520195D01*
X209864037Y-96391217D01*
X209838338Y-96240277D01*
X209801451Y-96091762D01*
X209769160Y-95996107D01*
X209740257Y-95923189D01*
X209723746Y-95881692D01*
X209703917Y-95836340D01*
X209667507Y-95756896D01*
X209619950Y-95655107D01*
X209573740Y-95557518D01*
X209519296Y-95441669D01*
X209469918Y-95333761D01*
X209431672Y-95247213D01*
X209412886Y-95201636D01*
X209387779Y-95091194D01*
X209397051Y-94995004D01*
X209437882Y-94923107D01*
X209501307Y-94886947D01*
X209546289Y-94858700D01*
X209046965Y-94858700D01*
X209018813Y-94903355D01*
X209006637Y-94919937D01*
X208947616Y-94975978D01*
X208873435Y-94997568D01*
X208775204Y-94985658D01*
X208679539Y-94954992D01*
X208582825Y-94914429D01*
X208479925Y-94865025D01*
X208449860Y-94849105D01*
X208361203Y-94800457D01*
X208273739Y-94752394D01*
X208246457Y-94737380D01*
X208190917Y-94704308D01*
X208106558Y-94651174D01*
X208004257Y-94585147D01*
X207894889Y-94513395D01*
X207789333Y-94443085D01*
X207698466Y-94381386D01*
X207633164Y-94335464D01*
X207610833Y-94318511D01*
X207559257Y-94277798D01*
X207521832Y-94249400D01*
X207488536Y-94221532D01*
X207496014Y-94211896D01*
X207515821Y-94210779D01*
X207576897Y-94222040D01*
X207604810Y-94233751D01*
X207648795Y-94252465D01*
X207726583Y-94281136D01*
X207823484Y-94314412D01*
X207852363Y-94323932D01*
X207952013Y-94357595D01*
X208036708Y-94388253D01*
X208091752Y-94410528D01*
X208099916Y-94414565D01*
X208150640Y-94435101D01*
X208172349Y-94438799D01*
X208212880Y-94448416D01*
X208275792Y-94472049D01*
X208287109Y-94476937D01*
X208371574Y-94513986D01*
X208461391Y-94553105D01*
X208468929Y-94556372D01*
X208539818Y-94588074D01*
X208636407Y-94632535D01*
X208738568Y-94680483D01*
X208744920Y-94683499D01*
X208833073Y-94724186D01*
X208903914Y-94754673D01*
X208944660Y-94769514D01*
X208948324Y-94770138D01*
X208984873Y-94784767D01*
X209017775Y-94806331D01*
X209046048Y-94832188D01*
X209046965Y-94858700D01*
X209546289Y-94858700D01*
X209555607Y-94852849D01*
X209577427Y-94814517D01*
X209584299Y-94747663D01*
X209582537Y-94646693D01*
X209582353Y-94644245D01*
X209377191Y-94644245D01*
X209370755Y-94678974D01*
X209370415Y-94679339D01*
X209341623Y-94692961D01*
X209323569Y-94663011D01*
X209315206Y-94586798D01*
X209314325Y-94535416D01*
X209317477Y-94453988D01*
X209325987Y-94407436D01*
X209336652Y-94401932D01*
X209352024Y-94439358D01*
X209365473Y-94505106D01*
X209374646Y-94579846D01*
X209377191Y-94644245D01*
X209582353Y-94644245D01*
X209573526Y-94527346D01*
X209558647Y-94405361D01*
X209539286Y-94296475D01*
X209527790Y-94249850D01*
X209494694Y-94094728D01*
X209494357Y-93968002D01*
X209528155Y-93858057D01*
X209558820Y-93809861D01*
X206745113Y-93809861D01*
X206729216Y-93828611D01*
X206674470Y-93818983D01*
X206609967Y-93790294D01*
X206538866Y-93762818D01*
X206477984Y-93752313D01*
X206426097Y-93743627D01*
X206404850Y-93729697D01*
X206372212Y-93710676D01*
X206312124Y-93695385D01*
X206308004Y-93694747D01*
X206224088Y-93676709D01*
X206137331Y-93650427D01*
X206136146Y-93649997D01*
X206061857Y-93623125D01*
X206000363Y-93601185D01*
X205996307Y-93599760D01*
X205937568Y-93579115D01*
X205862975Y-93552827D01*
X205856467Y-93550530D01*
X205782199Y-93525742D01*
X205720709Y-93507510D01*
X205716627Y-93506468D01*
X205648559Y-93485368D01*
X205614925Y-93472550D01*
X205567160Y-93454062D01*
X205487226Y-93424566D01*
X205390941Y-93389885D01*
X205373384Y-93383644D01*
X205275845Y-93348600D01*
X205191859Y-93317630D01*
X205137248Y-93296583D01*
X205131842Y-93294336D01*
X205042342Y-93256572D01*
X204940565Y-93214156D01*
X204849831Y-93176779D01*
X204814024Y-93162259D01*
X204767935Y-93143491D01*
X204711909Y-93120019D01*
X204634506Y-93086990D01*
X204524285Y-93039550D01*
X204496207Y-93027435D01*
X204403011Y-92985964D01*
X204281163Y-92930005D01*
X204144596Y-92866142D01*
X204007243Y-92800957D01*
X203883037Y-92741032D01*
X203785912Y-92692951D01*
X203758869Y-92679085D01*
X203698340Y-92648106D01*
X203610350Y-92603743D01*
X203513030Y-92555133D01*
X203504615Y-92550953D01*
X203306121Y-92450912D01*
X203118186Y-92353398D01*
X202949522Y-92263080D01*
X202808839Y-92184629D01*
X202704848Y-92122715D01*
X202698782Y-92118876D01*
X202621356Y-92070476D01*
X202557251Y-92031964D01*
X202525736Y-92014484D01*
X202450347Y-91973624D01*
X202341810Y-91909099D01*
X202208619Y-91826435D01*
X202059264Y-91731156D01*
X201902239Y-91628785D01*
X201746035Y-91524848D01*
X201599144Y-91424869D01*
X201470059Y-91334372D01*
X201386341Y-91273280D01*
X201203316Y-91134424D01*
X201021419Y-90993092D01*
X200848493Y-90855606D01*
X200692382Y-90728287D01*
X200560929Y-90617456D01*
X200461979Y-90529434D01*
X200453564Y-90521555D01*
X200372120Y-90446632D01*
X200290319Y-90374300D01*
X200237448Y-90329747D01*
X200176882Y-90278108D01*
X200094909Y-90204779D01*
X200006701Y-90123393D01*
X199983194Y-90101248D01*
X199883409Y-90007499D01*
X199773923Y-89905783D01*
X199676720Y-89816512D01*
X199667512Y-89808138D01*
X199433895Y-89590923D01*
X199176793Y-89342964D01*
X198904736Y-89073030D01*
X198626250Y-88789885D01*
X198349865Y-88502297D01*
X198084109Y-88219032D01*
X197837510Y-87948856D01*
X197630031Y-87713774D01*
X197523880Y-87591220D01*
X197445810Y-87501940D01*
X197390726Y-87440675D01*
X197353531Y-87402162D01*
X197329129Y-87381141D01*
X197312422Y-87372352D01*
X197298315Y-87370533D01*
X197297503Y-87370531D01*
X197260316Y-87390588D01*
X197237801Y-87420348D01*
X197229475Y-87475114D01*
X197237957Y-87569722D01*
X197261505Y-87696663D01*
X197298376Y-87848433D01*
X197346830Y-88017523D01*
X197405124Y-88196429D01*
X197441585Y-88298559D01*
X197463862Y-88357953D01*
X197498402Y-88448880D01*
X197541183Y-88560876D01*
X197588185Y-88683475D01*
X197635385Y-88806212D01*
X197678761Y-88918623D01*
X197714293Y-89010242D01*
X197737958Y-89070604D01*
X197744483Y-89086747D01*
X197765636Y-89137938D01*
X197797530Y-89216243D01*
X197822265Y-89277438D01*
X197863460Y-89377417D01*
X197906267Y-89477847D01*
X197926590Y-89523941D01*
X197955246Y-89590308D01*
X197972408Y-89635233D01*
X197974585Y-89644075D01*
X197984432Y-89672174D01*
X198010371Y-89733612D01*
X198047004Y-89815645D01*
X198050861Y-89824085D01*
X198088252Y-89907608D01*
X198115450Y-89971958D01*
X198127044Y-90004286D01*
X198127137Y-90005213D01*
X198136656Y-90036086D01*
X198159919Y-90092207D01*
X198163378Y-90099922D01*
X198230398Y-90249126D01*
X198278224Y-90358312D01*
X198309337Y-90433460D01*
X198326217Y-90480553D01*
X198331336Y-90504968D01*
X198342382Y-90543759D01*
X198369944Y-90610469D01*
X198394667Y-90663124D01*
X198429209Y-90736714D01*
X198452022Y-90791770D01*
X198457436Y-90810894D01*
X198467371Y-90843350D01*
X198492989Y-90907105D01*
X198523283Y-90976159D01*
X198563157Y-91064720D01*
X198598168Y-91143625D01*
X198615836Y-91184345D01*
X198673833Y-91322287D01*
X198715217Y-91423385D01*
X198731269Y-91464024D01*
X198761523Y-91540395D01*
X198782107Y-91591152D01*
X198805726Y-91652806D01*
X198836163Y-91737531D01*
X198851471Y-91781842D01*
X198901454Y-91920617D01*
X198950277Y-92041469D01*
X198991752Y-92129112D01*
X198992834Y-92131097D01*
X199013623Y-92188062D01*
X199017027Y-92214074D01*
X199027965Y-92270033D01*
X199038712Y-92297052D01*
X199062454Y-92347801D01*
X199095076Y-92420227D01*
X199105094Y-92442903D01*
X199138383Y-92517003D01*
X199166574Y-92577050D01*
X199172399Y-92588755D01*
X199191945Y-92646309D01*
X199195005Y-92671732D01*
X199206862Y-92726732D01*
X199219199Y-92754710D01*
X199269311Y-92862744D01*
X199322851Y-93007458D01*
X199361421Y-93129390D01*
X199388350Y-93216387D01*
X199412276Y-93286969D01*
X199425452Y-93320081D01*
X199443489Y-93366979D01*
X199466741Y-93440229D01*
X199476038Y-93472633D01*
X199500551Y-93557420D01*
X199533230Y-93665874D01*
X199564026Y-93765025D01*
X199600661Y-93882533D01*
X199638859Y-94007536D01*
X199665187Y-94095556D01*
X199692907Y-94187055D01*
X199718307Y-94266438D01*
X199732230Y-94306512D01*
X199749445Y-94378370D01*
X199754365Y-94435758D01*
X199760623Y-94494395D01*
X199773417Y-94525652D01*
X199791125Y-94562723D01*
X199815694Y-94640967D01*
X199844887Y-94751528D01*
X199876466Y-94885549D01*
X199908195Y-95034173D01*
X199929694Y-95144286D01*
X199947419Y-95225869D01*
X199965444Y-95288715D01*
X199974297Y-95309438D01*
X199990252Y-95352746D01*
X200007226Y-95424213D01*
X200012984Y-95455703D01*
X200028636Y-95549781D01*
X200047048Y-95660562D01*
X200056087Y-95714991D01*
X200072253Y-95799180D01*
X200088702Y-95864252D01*
X200098291Y-95889154D01*
X200111499Y-95928637D01*
X200127386Y-96001380D01*
X200139884Y-96074924D01*
X200157278Y-96189570D01*
X200175993Y-96310741D01*
X200185477Y-96371132D01*
X200213623Y-96552449D01*
X200234025Y-96695034D01*
X200247877Y-96810212D01*
X200256372Y-96909310D01*
X200260702Y-97003653D01*
X200262041Y-97097875D01*
X200260654Y-97201666D01*
X200256239Y-97285342D01*
X200249606Y-97336482D01*
X200245923Y-97345773D01*
X200199655Y-97361672D01*
X200128135Y-97356876D01*
X200051683Y-97333241D01*
X200038340Y-97326806D01*
X199995549Y-97296077D01*
X199932300Y-97240601D01*
X199857744Y-97169659D01*
X199781031Y-97092536D01*
X199711313Y-97018514D01*
X199657740Y-96956877D01*
X199629464Y-96916908D01*
X199627238Y-96909772D01*
X199611780Y-96877297D01*
X199582391Y-96839940D01*
X199548218Y-96795337D01*
X199494269Y-96716875D01*
X199426796Y-96614380D01*
X199352051Y-96497677D01*
X199276287Y-96376591D01*
X199205756Y-96260947D01*
X199146711Y-96160570D01*
X199121791Y-96116149D01*
X199050416Y-95983614D01*
X198968320Y-95827882D01*
X198879740Y-95657318D01*
X198788915Y-95480286D01*
X198700084Y-95305150D01*
X198617486Y-95140272D01*
X198545358Y-94994018D01*
X198487940Y-94874750D01*
X198449470Y-94790832D01*
X198445694Y-94782042D01*
X198413505Y-94709509D01*
X198385899Y-94652880D01*
X198379979Y-94642203D01*
X198346750Y-94579203D01*
X198299689Y-94480880D01*
X198244097Y-94359025D01*
X198185273Y-94225430D01*
X198128519Y-94091885D01*
X198088506Y-93993854D01*
X198033944Y-93859630D01*
X197979007Y-93729043D01*
X197928913Y-93614155D01*
X197888883Y-93527025D01*
X197871307Y-93492047D01*
X197850786Y-93434954D01*
X197847458Y-93409069D01*
X197835601Y-93354070D01*
X197823264Y-93326092D01*
X197798363Y-93274923D01*
X197766197Y-93201962D01*
X197757108Y-93180241D01*
X197733211Y-93122109D01*
X197713048Y-93072185D01*
X197690634Y-93015349D01*
X197659987Y-92936481D01*
X197631342Y-92862423D01*
X197600372Y-92782701D01*
X197574085Y-92715701D01*
X197566709Y-92697158D01*
X197546844Y-92643826D01*
X197519080Y-92564885D01*
X197503500Y-92519180D01*
X197477568Y-92442865D01*
X197455721Y-92381331D01*
X197431121Y-92316109D01*
X197396928Y-92228730D01*
X197381094Y-92188649D01*
X197357211Y-92123419D01*
X197323036Y-92023876D01*
X197283378Y-91904262D01*
X197248031Y-91794555D01*
X197203945Y-91656159D01*
X197171251Y-91555318D01*
X197146094Y-91481076D01*
X197124619Y-91422477D01*
X197102971Y-91368565D01*
X197077295Y-91308385D01*
X197075506Y-91304253D01*
X197048669Y-91230806D01*
X197034502Y-91169658D01*
X197033844Y-91159557D01*
X197021971Y-91111244D01*
X197008419Y-91095356D01*
X196989143Y-91060634D01*
X196982092Y-91011223D01*
X196968314Y-90935849D01*
X196944855Y-90879240D01*
X196916988Y-90810909D01*
X196907618Y-90758124D01*
X196897084Y-90690714D01*
X196884700Y-90656422D01*
X196843676Y-90558553D01*
X196807701Y-90446701D01*
X196787663Y-90358018D01*
X196772233Y-90284150D01*
X196755724Y-90230891D01*
X196734737Y-90167082D01*
X196706063Y-90063813D01*
X196672234Y-89931438D01*
X196635782Y-89780310D01*
X196599241Y-89620783D01*
X196565142Y-89463210D01*
X196550495Y-89391852D01*
X196531467Y-89297961D01*
X196507757Y-89181973D01*
X196488159Y-89086747D01*
X196473288Y-88967741D01*
X196467647Y-88802500D01*
X196471027Y-88594759D01*
X196483216Y-88348251D01*
X196503067Y-88079422D01*
X196093103Y-88079422D01*
X196092611Y-88207334D01*
X196089419Y-88297288D01*
X196080955Y-88362178D01*
X196064650Y-88414895D01*
X196037930Y-88468334D01*
X196004114Y-88525608D01*
X195959233Y-88602669D01*
X195927253Y-88662406D01*
X195915125Y-88691793D01*
X195898142Y-88720452D01*
X195861274Y-88758632D01*
X195815201Y-88807973D01*
X195790799Y-88845206D01*
X195763552Y-88896635D01*
X195719084Y-88969373D01*
X195664491Y-89053085D01*
X195606869Y-89137437D01*
X195553314Y-89212095D01*
X195510923Y-89266723D01*
X195486792Y-89290988D01*
X195484561Y-89291181D01*
X195478192Y-89262176D01*
X195480401Y-89199100D01*
X195486609Y-89145452D01*
X195501785Y-89049499D01*
X195522494Y-88930335D01*
X195543107Y-88819780D01*
X195555426Y-88756217D01*
X195406911Y-88756217D01*
X195395270Y-88908769D01*
X195376605Y-89127022D01*
X195356982Y-89300575D01*
X195335407Y-89435582D01*
X195310887Y-89538194D01*
X195282427Y-89614563D01*
X195280629Y-89618327D01*
X195247439Y-89678794D01*
X195191866Y-89771228D01*
X195120170Y-89885581D01*
X195038612Y-90011803D01*
X194985168Y-90092618D01*
X194906349Y-90211133D01*
X194838438Y-90314105D01*
X194786045Y-90394472D01*
X194753781Y-90445173D01*
X194745556Y-90459578D01*
X194732110Y-90482170D01*
X194694582Y-90540578D01*
X194637183Y-90628368D01*
X194564127Y-90739105D01*
X194479625Y-90866355D01*
X194459520Y-90896522D01*
X194369995Y-91031500D01*
X194288245Y-91156135D01*
X194219242Y-91262739D01*
X194167956Y-91343624D01*
X194139358Y-91391102D01*
X194137406Y-91394726D01*
X194105870Y-91443484D01*
X194080369Y-91464022D01*
X194080198Y-91464024D01*
X194059866Y-91483690D01*
X194059069Y-91491023D01*
X194044976Y-91530250D01*
X194012297Y-91581659D01*
X193975434Y-91625234D01*
X193951011Y-91641203D01*
X193931950Y-91627867D01*
X193931942Y-91627461D01*
X193943478Y-91598646D01*
X193972789Y-91541854D01*
X193992332Y-91506690D01*
X194036262Y-91427916D01*
X194091322Y-91327154D01*
X194140787Y-91235196D01*
X194220684Y-91085936D01*
X194300000Y-90938977D01*
X194373453Y-90804003D01*
X194435763Y-90690698D01*
X194481652Y-90608747D01*
X194494266Y-90586847D01*
X194533198Y-90516708D01*
X194592106Y-90405643D01*
X194668555Y-90258372D01*
X194760110Y-90079615D01*
X194864337Y-89874092D01*
X194959887Y-89684245D01*
X195021911Y-89560707D01*
X195077185Y-89450780D01*
X195121060Y-89363696D01*
X195148889Y-89308685D01*
X195154940Y-89296852D01*
X195174668Y-89239602D01*
X195177788Y-89214219D01*
X195188825Y-89180127D01*
X195198320Y-89175736D01*
X195219479Y-89154446D01*
X195249517Y-89100532D01*
X195264316Y-89067678D01*
X195305782Y-88972462D01*
X195350233Y-88875062D01*
X195358345Y-88857918D01*
X195406911Y-88756217D01*
X195555426Y-88756217D01*
X195565930Y-88702025D01*
X195589257Y-88581150D01*
X195606904Y-88489250D01*
X195630988Y-88377888D01*
X195661080Y-88257431D01*
X195674392Y-88209570D01*
X195699379Y-88122829D01*
X195719948Y-88049686D01*
X195728267Y-88018879D01*
X195749823Y-87950814D01*
X195762769Y-87917178D01*
X195781751Y-87870705D01*
X195813539Y-87791577D01*
X195852261Y-87694432D01*
X195865199Y-87661828D01*
X195921201Y-87528660D01*
X195968125Y-87433708D01*
X196004033Y-87380433D01*
X196026989Y-87372297D01*
X196027080Y-87372387D01*
X196039980Y-87408517D01*
X196053328Y-87485108D01*
X196066157Y-87591790D01*
X196077497Y-87718191D01*
X196086380Y-87853943D01*
X196091838Y-87988674D01*
X196093103Y-88079422D01*
X196503067Y-88079422D01*
X196504006Y-88066708D01*
X196533186Y-87753863D01*
X196570545Y-87413450D01*
X196592647Y-87230691D01*
X196610852Y-87140592D01*
X196638405Y-87056202D01*
X196641601Y-87048871D01*
X196666619Y-86982838D01*
X196677843Y-86931881D01*
X196677888Y-86929831D01*
X196697092Y-86890184D01*
X196744170Y-86843965D01*
X196752661Y-86837668D01*
X196808273Y-86786919D01*
X196842948Y-86735098D01*
X196844312Y-86731244D01*
X196862902Y-86697418D01*
X196899700Y-86686465D01*
X196961674Y-86691541D01*
X197038458Y-86712882D01*
X197098655Y-86748169D01*
X197106026Y-86755600D01*
X197252703Y-86911505D01*
X197433572Y-87082606D01*
X197638047Y-87260001D01*
X197855541Y-87434788D01*
X198075469Y-87598066D01*
X198247009Y-87715045D01*
X198347906Y-87782149D01*
X198439046Y-87845233D01*
X198507819Y-87895445D01*
X198533944Y-87916449D01*
X198581650Y-87953168D01*
X198660433Y-88008312D01*
X198758136Y-88073535D01*
X198834459Y-88122741D01*
X198944167Y-88192425D01*
X199049998Y-88259738D01*
X199137277Y-88315341D01*
X199177702Y-88341159D01*
X199267459Y-88396449D01*
X199361292Y-88451130D01*
X199385696Y-88464682D01*
X199452834Y-88503772D01*
X199546293Y-88561334D01*
X199650178Y-88627495D01*
X199695824Y-88657267D01*
X199786064Y-88715629D01*
X199860059Y-88761630D01*
X199907871Y-88789192D01*
X199919993Y-88794355D01*
X199948293Y-88808427D01*
X199999881Y-88843590D01*
X200019072Y-88857918D01*
X200074878Y-88897710D01*
X200112998Y-88919854D01*
X200118819Y-88921482D01*
X200145139Y-88934237D01*
X200206375Y-88969305D01*
X200294422Y-89021890D01*
X200401175Y-89087199D01*
X200446950Y-89115594D01*
X200569764Y-89191528D01*
X200687604Y-89263421D01*
X200788709Y-89324159D01*
X200861319Y-89366633D01*
X200873083Y-89373255D01*
X200955100Y-89422039D01*
X201054988Y-89485934D01*
X201140050Y-89543477D01*
X201220469Y-89598575D01*
X201288197Y-89642949D01*
X201329323Y-89667502D01*
X201330741Y-89668194D01*
X201383531Y-89696169D01*
X201419730Y-89717348D01*
X201471464Y-89748736D01*
X201556537Y-89799972D01*
X201678892Y-89873426D01*
X201775169Y-89931145D01*
X201833224Y-89963971D01*
X201864675Y-89980142D01*
X201905467Y-90004225D01*
X201915545Y-90012921D01*
X201927931Y-90023205D01*
X201955147Y-90040251D01*
X202003348Y-90067448D01*
X202078689Y-90108185D01*
X202187323Y-90165852D01*
X202322333Y-90236968D01*
X202418509Y-90288140D01*
X202498487Y-90331826D01*
X202550914Y-90361767D01*
X202563874Y-90370095D01*
X202595169Y-90388919D01*
X202661914Y-90425986D01*
X202754471Y-90476027D01*
X202863200Y-90533777D01*
X202868979Y-90536821D01*
X203013440Y-90613598D01*
X203124344Y-90675643D01*
X203213440Y-90731318D01*
X203292475Y-90788988D01*
X203373195Y-90857016D01*
X203467348Y-90943766D01*
X203546872Y-91019471D01*
X203676845Y-91141964D01*
X203837145Y-91290030D01*
X204019443Y-91456203D01*
X204215413Y-91633019D01*
X204416725Y-91813012D01*
X204615053Y-91988714D01*
X204802068Y-92152662D01*
X204969441Y-92297389D01*
X205030140Y-92349172D01*
X205134498Y-92438517D01*
X205237415Y-92527922D01*
X205325281Y-92605496D01*
X205373384Y-92649009D01*
X205480046Y-92744687D01*
X205617314Y-92863533D01*
X205775702Y-92997435D01*
X205934894Y-93129390D01*
X206004878Y-93186859D01*
X206100895Y-93265712D01*
X206209683Y-93355054D01*
X206306410Y-93434495D01*
X206411425Y-93520026D01*
X206511847Y-93600551D01*
X206595976Y-93666764D01*
X206650214Y-93707978D01*
X206719624Y-93767922D01*
X206745113Y-93809861D01*
X209558820Y-93809861D01*
X209584693Y-93769198D01*
X209639575Y-93705424D01*
X209686568Y-93662376D01*
X209709975Y-93650611D01*
X209747527Y-93632218D01*
X209792196Y-93587895D01*
X209792865Y-93587047D01*
X209828238Y-93550739D01*
X209872084Y-93531522D01*
X209940891Y-93524253D01*
X209996613Y-93523484D01*
X210098019Y-93529988D01*
X210159549Y-93548287D01*
X210177274Y-93576564D01*
X210162590Y-93600282D01*
X210125375Y-93615317D01*
X210053003Y-93630334D01*
X209961099Y-93642650D01*
X209878540Y-93649030D01*
X209857473Y-93664689D01*
X209860971Y-93676036D01*
X209893229Y-93690140D01*
X209959499Y-93699372D01*
X210015919Y-93701462D01*
X210132956Y-93690073D01*
X210218560Y-93659057D01*
X210268070Y-93613141D01*
X210276827Y-93557049D01*
X210240169Y-93495509D01*
X210229312Y-93485049D01*
X210187720Y-93459160D01*
X210125933Y-93444667D01*
X210030956Y-93439060D01*
X209989370Y-93438732D01*
X209884495Y-93441269D01*
X209813425Y-93451494D01*
X209759254Y-93473326D01*
X209716374Y-93502049D01*
X209651681Y-93546656D01*
X209596976Y-93577805D01*
X209587648Y-93581765D01*
X209549981Y-93614774D01*
X209543153Y-93638916D01*
X209528613Y-93686121D01*
X209495299Y-93725827D01*
X209458669Y-93743149D01*
X209441616Y-93736694D01*
X209419241Y-93696459D01*
X209403225Y-93647714D01*
X209399235Y-93595600D01*
X209429002Y-93568815D01*
X209445920Y-93562818D01*
X209505015Y-93544382D01*
X209443885Y-93527005D01*
X209404676Y-93506005D01*
X209377076Y-93461427D01*
X209353429Y-93380340D01*
X209351131Y-93370359D01*
X209303114Y-93129877D01*
X209274968Y-92911439D01*
X209263900Y-92691572D01*
X209263474Y-92634019D01*
X209264150Y-92515612D01*
X209267990Y-92435662D01*
X209277715Y-92381779D01*
X209296043Y-92341572D01*
X209325694Y-92302648D01*
X209339750Y-92286466D01*
X209386348Y-92223742D01*
X209413333Y-92168740D01*
X209416026Y-92153567D01*
X209394745Y-92096353D01*
X209344417Y-92046432D01*
X209285318Y-92023474D01*
X209281835Y-92023384D01*
X209244058Y-92042403D01*
X209194214Y-92088628D01*
X209146645Y-92145808D01*
X209115691Y-92197692D01*
X209110921Y-92217049D01*
X209090456Y-92243005D01*
X209040039Y-92276607D01*
X209028289Y-92282847D01*
X208961223Y-92304542D01*
X208854948Y-92324540D01*
X208721100Y-92341977D01*
X208571314Y-92355988D01*
X208417224Y-92365710D01*
X208270467Y-92370280D01*
X208142677Y-92368832D01*
X208045489Y-92360504D01*
X208027035Y-92357182D01*
X207918258Y-92334948D01*
X207797428Y-92311143D01*
X207744305Y-92300999D01*
X207641881Y-92280564D01*
X207541677Y-92258719D01*
X207496407Y-92247932D01*
X207402576Y-92226639D01*
X207299927Y-92206519D01*
X207280291Y-92203106D01*
X207192381Y-92183741D01*
X207084600Y-92153791D01*
X207007769Y-92129046D01*
X206920167Y-92100659D01*
X206848119Y-92080852D01*
X206810377Y-92074235D01*
X206754086Y-92063150D01*
X206726943Y-92052217D01*
X206653639Y-92021538D01*
X206534493Y-91979931D01*
X206377688Y-91929859D01*
X206286817Y-91899906D01*
X206203058Y-91869467D01*
X206174285Y-91857876D01*
X206033348Y-91799509D01*
X205905891Y-91751095D01*
X205881892Y-91742456D01*
X205792929Y-91709159D01*
X205703954Y-91673751D01*
X205703914Y-91673734D01*
X205649436Y-91651178D01*
X205599675Y-91630738D01*
X205542719Y-91607574D01*
X205466654Y-91576852D01*
X205359566Y-91533732D01*
X205311608Y-91514436D01*
X205214282Y-91474856D01*
X205132028Y-91440634D01*
X205078721Y-91417569D01*
X205070066Y-91413502D01*
X205015634Y-91388654D01*
X204966577Y-91368008D01*
X204909911Y-91343915D01*
X204826779Y-91307204D01*
X204750461Y-91272764D01*
X204660342Y-91232257D01*
X204580028Y-91197168D01*
X204534345Y-91178109D01*
X204470966Y-91150291D01*
X204432643Y-91130386D01*
X204375813Y-91101214D01*
X204356367Y-91092947D01*
X204277907Y-91059912D01*
X204168382Y-91010226D01*
X204035961Y-90947942D01*
X203888814Y-90877109D01*
X203735109Y-90801780D01*
X203583015Y-90726005D01*
X203440701Y-90653835D01*
X203316336Y-90589322D01*
X203218089Y-90536517D01*
X203154130Y-90499470D01*
X203138983Y-90489228D01*
X203090433Y-90449110D01*
X203013772Y-90381932D01*
X202917820Y-90295586D01*
X202811397Y-90197966D01*
X202757602Y-90147941D01*
X202549628Y-89954519D01*
X202358539Y-89778581D01*
X202188549Y-89623943D01*
X202043873Y-89494421D01*
X201928726Y-89393832D01*
X201869914Y-89344290D01*
X201785009Y-89273507D01*
X201685964Y-89189578D01*
X201610421Y-89124664D01*
X201457465Y-88992104D01*
X201336491Y-88887467D01*
X201241040Y-88805389D01*
X201164652Y-88740507D01*
X201100868Y-88687457D01*
X201043227Y-88640875D01*
X200985271Y-88595396D01*
X200920539Y-88545658D01*
X200842573Y-88486296D01*
X200831638Y-88477980D01*
X200757020Y-88419510D01*
X200688078Y-88362767D01*
X200669680Y-88346840D01*
X200600680Y-88292807D01*
X200526445Y-88243695D01*
X200483172Y-88216676D01*
X200404540Y-88166014D01*
X200297511Y-88096259D01*
X200169047Y-88011959D01*
X200026110Y-87917663D01*
X199928947Y-87853304D01*
X199759022Y-87740571D01*
X199625195Y-87651976D01*
X199521157Y-87583596D01*
X199440598Y-87531511D01*
X199377208Y-87491799D01*
X199324676Y-87460539D01*
X199276692Y-87433809D01*
X199226946Y-87407688D01*
X199169129Y-87378255D01*
X199144154Y-87365601D01*
X199061730Y-87322818D01*
X198998547Y-87288163D01*
X198967113Y-87268522D01*
X198966176Y-87267626D01*
X198937585Y-87250816D01*
X198876464Y-87221749D01*
X198813624Y-87194245D01*
X198723158Y-87154845D01*
X198608272Y-87103280D01*
X198490467Y-87049229D01*
X198463536Y-87036675D01*
X198369938Y-86993433D01*
X198295055Y-86959875D01*
X198249813Y-86940849D01*
X198241758Y-86938299D01*
X198214196Y-86928656D01*
X198154785Y-86903703D01*
X198096051Y-86877673D01*
X198003137Y-86837147D01*
X197913389Y-86800313D01*
X197872883Y-86784870D01*
X197788230Y-86753286D01*
X197708464Y-86722096D01*
X197707618Y-86721753D01*
X197600796Y-86681624D01*
X197480634Y-86641479D01*
X197360430Y-86605207D01*
X197253486Y-86576695D01*
X197173099Y-86559830D01*
X197143715Y-86556917D01*
X197091118Y-86547480D01*
X197043721Y-86512418D01*
X197011817Y-86472088D01*
X196893442Y-86472088D01*
X196890542Y-86493208D01*
X196864360Y-86517268D01*
X196836983Y-86503722D01*
X196830441Y-86479141D01*
X196851001Y-86457784D01*
X196867781Y-86455216D01*
X196893442Y-86472088D01*
X197011817Y-86472088D01*
X196988412Y-86442503D01*
X196921532Y-86364660D01*
X196863289Y-86329906D01*
X196817871Y-86339312D01*
X196790031Y-86391652D01*
X196768565Y-86444663D01*
X196744740Y-86453825D01*
X196721292Y-86425881D01*
X196700962Y-86367577D01*
X196686489Y-86285658D01*
X196680610Y-86186867D01*
X196682135Y-86125956D01*
X196691370Y-86027000D01*
X196710846Y-85948213D01*
X196747228Y-85880289D01*
X196807179Y-85813923D01*
X196897365Y-85739809D01*
X197023518Y-85649289D01*
X197306508Y-85445667D01*
X197585772Y-85232027D01*
X197852244Y-85015847D01*
X198096858Y-84804598D01*
X198310550Y-84605757D01*
X198409781Y-84506291D01*
X198587104Y-84303133D01*
X198745631Y-84083026D01*
X198876855Y-83859122D01*
X198972269Y-83644571D01*
X198978413Y-83627307D01*
X199000982Y-83545100D01*
X199013811Y-83463481D01*
X199015891Y-83396552D01*
X199006212Y-83358415D01*
X198997958Y-83354389D01*
X198978474Y-83376062D01*
D12*
X210120000Y-67290000D03*
X203120000Y-126290000D03*
X120790000Y-128290000D03*
X120790000Y-67300000D03*
X127790000Y-69290000D03*
X127790000Y-126290000D03*
X203120000Y-69290000D03*
X210120000Y-128290000D03*
M02*
