%TF.GenerationSoftware,KiCad,Pcbnew,(5.1.7)-1*%
%TF.CreationDate,2021-12-31T12:19:26+00:00*%
%TF.ProjectId,ControlMenu-PCB,436f6e74-726f-46c4-9d65-6e752d504342,rev?*%
%TF.SameCoordinates,Original*%
%TF.FileFunction,Soldermask,Top*%
%TF.FilePolarity,Negative*%
%FSLAX46Y46*%
G04 Gerber Fmt 4.6, Leading zero omitted, Abs format (unit mm)*
G04 Created by KiCad (PCBNEW (5.1.7)-1) date 2021-12-31 12:19:26*
%MOMM*%
%LPD*%
G01*
G04 APERTURE LIST*
%ADD10C,5.600000*%
%ADD11C,1.524000*%
%ADD12O,1.700000X1.700000*%
%ADD13R,1.700000X1.700000*%
G04 APERTURE END LIST*
D10*
%TO.C,REF\u002A\u002A*%
X192090000Y-153880000D03*
%TD*%
%TO.C,REF\u002A\u002A*%
X267420000Y-96880000D03*
%TD*%
%TO.C,REF\u002A\u002A*%
X192090000Y-96880000D03*
%TD*%
%TO.C,REF\u002A\u002A*%
X267420000Y-153880000D03*
%TD*%
D11*
%TO.C,Enter1*%
X244415000Y-138415000D03*
X246955000Y-138415000D03*
X249495000Y-138415000D03*
X241875000Y-138415000D03*
X249495000Y-135875000D03*
X241875000Y-151115000D03*
X249495000Y-143495000D03*
X241875000Y-143495000D03*
X249495000Y-148575000D03*
X241875000Y-148575000D03*
%TD*%
%TO.C,1s1*%
X231145000Y-138415000D03*
X233685000Y-138415000D03*
X236225000Y-138415000D03*
X228605000Y-138415000D03*
X236225000Y-135875000D03*
X228605000Y-151115000D03*
X236225000Y-143495000D03*
X228605000Y-143495000D03*
X236225000Y-148575000D03*
X228605000Y-148575000D03*
%TD*%
%TO.C,10s1*%
X217875000Y-138415000D03*
X220415000Y-138415000D03*
X222955000Y-138415000D03*
X215335000Y-138415000D03*
X222955000Y-135875000D03*
X215335000Y-151115000D03*
X222955000Y-143495000D03*
X215335000Y-143495000D03*
X222955000Y-148575000D03*
X215335000Y-148575000D03*
%TD*%
%TO.C,100s1*%
X204605000Y-138415000D03*
X207145000Y-138415000D03*
X209685000Y-138415000D03*
X202065000Y-138415000D03*
X209685000Y-135875000D03*
X202065000Y-151115000D03*
X209685000Y-143495000D03*
X202065000Y-143495000D03*
X209685000Y-148575000D03*
X202065000Y-148575000D03*
%TD*%
D12*
%TO.C,J2*%
X266320000Y-118800000D03*
X266320000Y-116260000D03*
X266320000Y-113720000D03*
D13*
X266320000Y-111180000D03*
%TD*%
D12*
%TO.C,J1*%
X260970000Y-149090000D03*
X260970000Y-146550000D03*
X260970000Y-144010000D03*
X260970000Y-141470000D03*
X260970000Y-138930000D03*
X260970000Y-136390000D03*
X260970000Y-133850000D03*
D13*
X260970000Y-131310000D03*
%TD*%
M02*
