%TF.GenerationSoftware,KiCad,Pcbnew,(5.1.7)-1*%
%TF.CreationDate,2021-12-31T12:19:26+00:00*%
%TF.ProjectId,ControlMenu-PCB,436f6e74-726f-46c4-9d65-6e752d504342,rev?*%
%TF.SameCoordinates,Original*%
%TF.FileFunction,Legend,Top*%
%TF.FilePolarity,Positive*%
%FSLAX46Y46*%
G04 Gerber Fmt 4.6, Leading zero omitted, Abs format (unit mm)*
G04 Created by KiCad (PCBNEW (5.1.7)-1) date 2021-12-31 12:19:26*
%MOMM*%
%LPD*%
G01*
G04 APERTURE LIST*
%ADD10C,0.120000*%
%ADD11C,0.100000*%
%ADD12C,0.150000*%
G04 APERTURE END LIST*
D10*
%TO.C,Enter1*%
X245925000Y-140605000D02*
X245815000Y-140565000D01*
X245985000Y-140565000D02*
X246025000Y-140455000D01*
X245865000Y-140335000D02*
X245965000Y-140605000D01*
X245635000Y-140575000D02*
X245525000Y-140535000D01*
X245695000Y-140535000D02*
X245735000Y-140425000D01*
X245575000Y-140305000D02*
X245675000Y-140575000D01*
X245825000Y-139915000D02*
X245505000Y-140215000D01*
X245825000Y-139905000D02*
X245505000Y-139695000D01*
X245935000Y-140225000D02*
X245935000Y-139705000D01*
X245505000Y-140215000D02*
X245505000Y-139695000D01*
X245105000Y-139935000D02*
X246275000Y-139935000D01*
X246565000Y-139925000D02*
X247375000Y-139925000D01*
X243955000Y-139905000D02*
X244765000Y-139905000D01*
X244385000Y-139505000D02*
X244385000Y-140315000D01*
X246927047Y-148535000D02*
G75*
G03*
X246927047Y-148535000I-172047J0D01*
G01*
X245257047Y-148545000D02*
G75*
G03*
X245257047Y-148545000I-172047J0D01*
G01*
X242635000Y-148555000D02*
X244915000Y-148555000D01*
X248715000Y-148505000D02*
X246955000Y-148505000D01*
X246475000Y-148305000D02*
X246665000Y-148875000D01*
X245735000Y-145925000D02*
X246475000Y-148305000D01*
X245735000Y-143475000D02*
X245735000Y-145925000D01*
X242595000Y-143505000D02*
X248885000Y-143505000D01*
X239515000Y-151995000D02*
X251865000Y-151995000D01*
X251865000Y-134995000D02*
X251865000Y-151995000D01*
X239515000Y-134995000D02*
X239515000Y-151995000D01*
X239515000Y-134995000D02*
X251865000Y-134995000D01*
%TO.C,1s1*%
X232655000Y-140605000D02*
X232545000Y-140565000D01*
X232715000Y-140565000D02*
X232755000Y-140455000D01*
X232595000Y-140335000D02*
X232695000Y-140605000D01*
X232365000Y-140575000D02*
X232255000Y-140535000D01*
X232425000Y-140535000D02*
X232465000Y-140425000D01*
X232305000Y-140305000D02*
X232405000Y-140575000D01*
X232555000Y-139915000D02*
X232235000Y-140215000D01*
X232555000Y-139905000D02*
X232235000Y-139695000D01*
X232665000Y-140225000D02*
X232665000Y-139705000D01*
X232235000Y-140215000D02*
X232235000Y-139695000D01*
X231835000Y-139935000D02*
X233005000Y-139935000D01*
X233295000Y-139925000D02*
X234105000Y-139925000D01*
X230685000Y-139905000D02*
X231495000Y-139905000D01*
X231115000Y-139505000D02*
X231115000Y-140315000D01*
X233657047Y-148535000D02*
G75*
G03*
X233657047Y-148535000I-172047J0D01*
G01*
X231987047Y-148545000D02*
G75*
G03*
X231987047Y-148545000I-172047J0D01*
G01*
X229365000Y-148555000D02*
X231645000Y-148555000D01*
X235445000Y-148505000D02*
X233685000Y-148505000D01*
X233205000Y-148305000D02*
X233395000Y-148875000D01*
X232465000Y-145925000D02*
X233205000Y-148305000D01*
X232465000Y-143475000D02*
X232465000Y-145925000D01*
X229325000Y-143505000D02*
X235615000Y-143505000D01*
X226245000Y-151995000D02*
X238595000Y-151995000D01*
X238595000Y-134995000D02*
X238595000Y-151995000D01*
X226245000Y-134995000D02*
X226245000Y-151995000D01*
X226245000Y-134995000D02*
X238595000Y-134995000D01*
%TO.C,10s1*%
X219385000Y-140605000D02*
X219275000Y-140565000D01*
X219445000Y-140565000D02*
X219485000Y-140455000D01*
X219325000Y-140335000D02*
X219425000Y-140605000D01*
X219095000Y-140575000D02*
X218985000Y-140535000D01*
X219155000Y-140535000D02*
X219195000Y-140425000D01*
X219035000Y-140305000D02*
X219135000Y-140575000D01*
X219285000Y-139915000D02*
X218965000Y-140215000D01*
X219285000Y-139905000D02*
X218965000Y-139695000D01*
X219395000Y-140225000D02*
X219395000Y-139705000D01*
X218965000Y-140215000D02*
X218965000Y-139695000D01*
X218565000Y-139935000D02*
X219735000Y-139935000D01*
X220025000Y-139925000D02*
X220835000Y-139925000D01*
X217415000Y-139905000D02*
X218225000Y-139905000D01*
X217845000Y-139505000D02*
X217845000Y-140315000D01*
X220387047Y-148535000D02*
G75*
G03*
X220387047Y-148535000I-172047J0D01*
G01*
X218717047Y-148545000D02*
G75*
G03*
X218717047Y-148545000I-172047J0D01*
G01*
X216095000Y-148555000D02*
X218375000Y-148555000D01*
X222175000Y-148505000D02*
X220415000Y-148505000D01*
X219935000Y-148305000D02*
X220125000Y-148875000D01*
X219195000Y-145925000D02*
X219935000Y-148305000D01*
X219195000Y-143475000D02*
X219195000Y-145925000D01*
X216055000Y-143505000D02*
X222345000Y-143505000D01*
X212975000Y-151995000D02*
X225325000Y-151995000D01*
X225325000Y-134995000D02*
X225325000Y-151995000D01*
X212975000Y-134995000D02*
X212975000Y-151995000D01*
X212975000Y-134995000D02*
X225325000Y-134995000D01*
%TO.C,100s1*%
X206115000Y-140605000D02*
X206005000Y-140565000D01*
X206175000Y-140565000D02*
X206215000Y-140455000D01*
X206055000Y-140335000D02*
X206155000Y-140605000D01*
X205825000Y-140575000D02*
X205715000Y-140535000D01*
X205885000Y-140535000D02*
X205925000Y-140425000D01*
X205765000Y-140305000D02*
X205865000Y-140575000D01*
X206015000Y-139915000D02*
X205695000Y-140215000D01*
X206015000Y-139905000D02*
X205695000Y-139695000D01*
X206125000Y-140225000D02*
X206125000Y-139705000D01*
X205695000Y-140215000D02*
X205695000Y-139695000D01*
X205295000Y-139935000D02*
X206465000Y-139935000D01*
X206755000Y-139925000D02*
X207565000Y-139925000D01*
X204145000Y-139905000D02*
X204955000Y-139905000D01*
X204575000Y-139505000D02*
X204575000Y-140315000D01*
X207117047Y-148535000D02*
G75*
G03*
X207117047Y-148535000I-172047J0D01*
G01*
X205447047Y-148545000D02*
G75*
G03*
X205447047Y-148545000I-172047J0D01*
G01*
X202825000Y-148555000D02*
X205105000Y-148555000D01*
X208905000Y-148505000D02*
X207145000Y-148505000D01*
X206665000Y-148305000D02*
X206855000Y-148875000D01*
X205925000Y-145925000D02*
X206665000Y-148305000D01*
X205925000Y-143475000D02*
X205925000Y-145925000D01*
X202785000Y-143505000D02*
X209075000Y-143505000D01*
X199705000Y-151995000D02*
X212055000Y-151995000D01*
X212055000Y-134995000D02*
X212055000Y-151995000D01*
X199705000Y-134995000D02*
X199705000Y-151995000D01*
X199705000Y-134995000D02*
X212055000Y-134995000D01*
%TO.C,J1*%
X259640000Y-129980000D02*
X260970000Y-129980000D01*
X259640000Y-131310000D02*
X259640000Y-129980000D01*
X259640000Y-132580000D02*
X262300000Y-132580000D01*
X262300000Y-132580000D02*
X262300000Y-150420000D01*
X259640000Y-132580000D02*
X259640000Y-150420000D01*
X259640000Y-150420000D02*
X262300000Y-150420000D01*
D11*
X259700000Y-130675000D02*
X260335000Y-130040000D01*
X259700000Y-150360000D02*
X259700000Y-130675000D01*
X262240000Y-150360000D02*
X259700000Y-150360000D01*
X262240000Y-130040000D02*
X262240000Y-150360000D01*
X260335000Y-130040000D02*
X262240000Y-130040000D01*
%TO.C,REF\u002A\u002A*%
D12*
X190756666Y-150532380D02*
X190423333Y-150056190D01*
X190185238Y-150532380D02*
X190185238Y-149532380D01*
X190566190Y-149532380D01*
X190661428Y-149580000D01*
X190709047Y-149627619D01*
X190756666Y-149722857D01*
X190756666Y-149865714D01*
X190709047Y-149960952D01*
X190661428Y-150008571D01*
X190566190Y-150056190D01*
X190185238Y-150056190D01*
X191185238Y-150008571D02*
X191518571Y-150008571D01*
X191661428Y-150532380D02*
X191185238Y-150532380D01*
X191185238Y-149532380D01*
X191661428Y-149532380D01*
X192423333Y-150008571D02*
X192090000Y-150008571D01*
X192090000Y-150532380D02*
X192090000Y-149532380D01*
X192566190Y-149532380D01*
X193090000Y-149532380D02*
X193090000Y-149770476D01*
X192851904Y-149675238D02*
X193090000Y-149770476D01*
X193328095Y-149675238D01*
X192947142Y-149960952D02*
X193090000Y-149770476D01*
X193232857Y-149960952D01*
X193851904Y-149532380D02*
X193851904Y-149770476D01*
X193613809Y-149675238D02*
X193851904Y-149770476D01*
X194090000Y-149675238D01*
X193709047Y-149960952D02*
X193851904Y-149770476D01*
X193994761Y-149960952D01*
X266086666Y-93532380D02*
X265753333Y-93056190D01*
X265515238Y-93532380D02*
X265515238Y-92532380D01*
X265896190Y-92532380D01*
X265991428Y-92580000D01*
X266039047Y-92627619D01*
X266086666Y-92722857D01*
X266086666Y-92865714D01*
X266039047Y-92960952D01*
X265991428Y-93008571D01*
X265896190Y-93056190D01*
X265515238Y-93056190D01*
X266515238Y-93008571D02*
X266848571Y-93008571D01*
X266991428Y-93532380D02*
X266515238Y-93532380D01*
X266515238Y-92532380D01*
X266991428Y-92532380D01*
X267753333Y-93008571D02*
X267420000Y-93008571D01*
X267420000Y-93532380D02*
X267420000Y-92532380D01*
X267896190Y-92532380D01*
X268420000Y-92532380D02*
X268420000Y-92770476D01*
X268181904Y-92675238D02*
X268420000Y-92770476D01*
X268658095Y-92675238D01*
X268277142Y-92960952D02*
X268420000Y-92770476D01*
X268562857Y-92960952D01*
X269181904Y-92532380D02*
X269181904Y-92770476D01*
X268943809Y-92675238D02*
X269181904Y-92770476D01*
X269420000Y-92675238D01*
X269039047Y-92960952D02*
X269181904Y-92770476D01*
X269324761Y-92960952D01*
X190756666Y-93532380D02*
X190423333Y-93056190D01*
X190185238Y-93532380D02*
X190185238Y-92532380D01*
X190566190Y-92532380D01*
X190661428Y-92580000D01*
X190709047Y-92627619D01*
X190756666Y-92722857D01*
X190756666Y-92865714D01*
X190709047Y-92960952D01*
X190661428Y-93008571D01*
X190566190Y-93056190D01*
X190185238Y-93056190D01*
X191185238Y-93008571D02*
X191518571Y-93008571D01*
X191661428Y-93532380D02*
X191185238Y-93532380D01*
X191185238Y-92532380D01*
X191661428Y-92532380D01*
X192423333Y-93008571D02*
X192090000Y-93008571D01*
X192090000Y-93532380D02*
X192090000Y-92532380D01*
X192566190Y-92532380D01*
X193090000Y-92532380D02*
X193090000Y-92770476D01*
X192851904Y-92675238D02*
X193090000Y-92770476D01*
X193328095Y-92675238D01*
X192947142Y-92960952D02*
X193090000Y-92770476D01*
X193232857Y-92960952D01*
X193851904Y-92532380D02*
X193851904Y-92770476D01*
X193613809Y-92675238D02*
X193851904Y-92770476D01*
X194090000Y-92675238D01*
X193709047Y-92960952D02*
X193851904Y-92770476D01*
X193994761Y-92960952D01*
X266086666Y-150532380D02*
X265753333Y-150056190D01*
X265515238Y-150532380D02*
X265515238Y-149532380D01*
X265896190Y-149532380D01*
X265991428Y-149580000D01*
X266039047Y-149627619D01*
X266086666Y-149722857D01*
X266086666Y-149865714D01*
X266039047Y-149960952D01*
X265991428Y-150008571D01*
X265896190Y-150056190D01*
X265515238Y-150056190D01*
X266515238Y-150008571D02*
X266848571Y-150008571D01*
X266991428Y-150532380D02*
X266515238Y-150532380D01*
X266515238Y-149532380D01*
X266991428Y-149532380D01*
X267753333Y-150008571D02*
X267420000Y-150008571D01*
X267420000Y-150532380D02*
X267420000Y-149532380D01*
X267896190Y-149532380D01*
X268420000Y-149532380D02*
X268420000Y-149770476D01*
X268181904Y-149675238D02*
X268420000Y-149770476D01*
X268658095Y-149675238D01*
X268277142Y-149960952D02*
X268420000Y-149770476D01*
X268562857Y-149960952D01*
X269181904Y-149532380D02*
X269181904Y-149770476D01*
X268943809Y-149675238D02*
X269181904Y-149770476D01*
X269420000Y-149675238D01*
X269039047Y-149960952D02*
X269181904Y-149770476D01*
X269324761Y-149960952D01*
%TO.C,Enter1*%
X238968333Y-133263571D02*
X239301666Y-133263571D01*
X239444523Y-133787380D02*
X238968333Y-133787380D01*
X238968333Y-132787380D01*
X239444523Y-132787380D01*
X239873095Y-133120714D02*
X239873095Y-133787380D01*
X239873095Y-133215952D02*
X239920714Y-133168333D01*
X240015952Y-133120714D01*
X240158809Y-133120714D01*
X240254047Y-133168333D01*
X240301666Y-133263571D01*
X240301666Y-133787380D01*
X240635000Y-133120714D02*
X241015952Y-133120714D01*
X240777857Y-132787380D02*
X240777857Y-133644523D01*
X240825476Y-133739761D01*
X240920714Y-133787380D01*
X241015952Y-133787380D01*
X241730238Y-133739761D02*
X241635000Y-133787380D01*
X241444523Y-133787380D01*
X241349285Y-133739761D01*
X241301666Y-133644523D01*
X241301666Y-133263571D01*
X241349285Y-133168333D01*
X241444523Y-133120714D01*
X241635000Y-133120714D01*
X241730238Y-133168333D01*
X241777857Y-133263571D01*
X241777857Y-133358809D01*
X241301666Y-133454047D01*
X242206428Y-133787380D02*
X242206428Y-133120714D01*
X242206428Y-133311190D02*
X242254047Y-133215952D01*
X242301666Y-133168333D01*
X242396904Y-133120714D01*
X242492142Y-133120714D01*
X243349285Y-133787380D02*
X242777857Y-133787380D01*
X243063571Y-133787380D02*
X243063571Y-132787380D01*
X242968333Y-132930238D01*
X242873095Y-133025476D01*
X242777857Y-133073095D01*
%TO.C,1s1*%
X227269761Y-133787380D02*
X226698333Y-133787380D01*
X226984047Y-133787380D02*
X226984047Y-132787380D01*
X226888809Y-132930238D01*
X226793571Y-133025476D01*
X226698333Y-133073095D01*
X227650714Y-133739761D02*
X227745952Y-133787380D01*
X227936428Y-133787380D01*
X228031666Y-133739761D01*
X228079285Y-133644523D01*
X228079285Y-133596904D01*
X228031666Y-133501666D01*
X227936428Y-133454047D01*
X227793571Y-133454047D01*
X227698333Y-133406428D01*
X227650714Y-133311190D01*
X227650714Y-133263571D01*
X227698333Y-133168333D01*
X227793571Y-133120714D01*
X227936428Y-133120714D01*
X228031666Y-133168333D01*
X229031666Y-133787380D02*
X228460238Y-133787380D01*
X228745952Y-133787380D02*
X228745952Y-132787380D01*
X228650714Y-132930238D01*
X228555476Y-133025476D01*
X228460238Y-133073095D01*
%TO.C,10s1*%
X213523571Y-133787380D02*
X212952142Y-133787380D01*
X213237857Y-133787380D02*
X213237857Y-132787380D01*
X213142619Y-132930238D01*
X213047380Y-133025476D01*
X212952142Y-133073095D01*
X214142619Y-132787380D02*
X214237857Y-132787380D01*
X214333095Y-132835000D01*
X214380714Y-132882619D01*
X214428333Y-132977857D01*
X214475952Y-133168333D01*
X214475952Y-133406428D01*
X214428333Y-133596904D01*
X214380714Y-133692142D01*
X214333095Y-133739761D01*
X214237857Y-133787380D01*
X214142619Y-133787380D01*
X214047380Y-133739761D01*
X213999761Y-133692142D01*
X213952142Y-133596904D01*
X213904523Y-133406428D01*
X213904523Y-133168333D01*
X213952142Y-132977857D01*
X213999761Y-132882619D01*
X214047380Y-132835000D01*
X214142619Y-132787380D01*
X214856904Y-133739761D02*
X214952142Y-133787380D01*
X215142619Y-133787380D01*
X215237857Y-133739761D01*
X215285476Y-133644523D01*
X215285476Y-133596904D01*
X215237857Y-133501666D01*
X215142619Y-133454047D01*
X214999761Y-133454047D01*
X214904523Y-133406428D01*
X214856904Y-133311190D01*
X214856904Y-133263571D01*
X214904523Y-133168333D01*
X214999761Y-133120714D01*
X215142619Y-133120714D01*
X215237857Y-133168333D01*
X216237857Y-133787380D02*
X215666428Y-133787380D01*
X215952142Y-133787380D02*
X215952142Y-132787380D01*
X215856904Y-132930238D01*
X215761666Y-133025476D01*
X215666428Y-133073095D01*
%TO.C,100s1*%
X199777380Y-133787380D02*
X199205952Y-133787380D01*
X199491666Y-133787380D02*
X199491666Y-132787380D01*
X199396428Y-132930238D01*
X199301190Y-133025476D01*
X199205952Y-133073095D01*
X200396428Y-132787380D02*
X200491666Y-132787380D01*
X200586904Y-132835000D01*
X200634523Y-132882619D01*
X200682142Y-132977857D01*
X200729761Y-133168333D01*
X200729761Y-133406428D01*
X200682142Y-133596904D01*
X200634523Y-133692142D01*
X200586904Y-133739761D01*
X200491666Y-133787380D01*
X200396428Y-133787380D01*
X200301190Y-133739761D01*
X200253571Y-133692142D01*
X200205952Y-133596904D01*
X200158333Y-133406428D01*
X200158333Y-133168333D01*
X200205952Y-132977857D01*
X200253571Y-132882619D01*
X200301190Y-132835000D01*
X200396428Y-132787380D01*
X201348809Y-132787380D02*
X201444047Y-132787380D01*
X201539285Y-132835000D01*
X201586904Y-132882619D01*
X201634523Y-132977857D01*
X201682142Y-133168333D01*
X201682142Y-133406428D01*
X201634523Y-133596904D01*
X201586904Y-133692142D01*
X201539285Y-133739761D01*
X201444047Y-133787380D01*
X201348809Y-133787380D01*
X201253571Y-133739761D01*
X201205952Y-133692142D01*
X201158333Y-133596904D01*
X201110714Y-133406428D01*
X201110714Y-133168333D01*
X201158333Y-132977857D01*
X201205952Y-132882619D01*
X201253571Y-132835000D01*
X201348809Y-132787380D01*
X202063095Y-133739761D02*
X202158333Y-133787380D01*
X202348809Y-133787380D01*
X202444047Y-133739761D01*
X202491666Y-133644523D01*
X202491666Y-133596904D01*
X202444047Y-133501666D01*
X202348809Y-133454047D01*
X202205952Y-133454047D01*
X202110714Y-133406428D01*
X202063095Y-133311190D01*
X202063095Y-133263571D01*
X202110714Y-133168333D01*
X202205952Y-133120714D01*
X202348809Y-133120714D01*
X202444047Y-133168333D01*
X203444047Y-133787380D02*
X202872619Y-133787380D01*
X203158333Y-133787380D02*
X203158333Y-132787380D01*
X203063095Y-132930238D01*
X202967857Y-133025476D01*
X202872619Y-133073095D01*
%TO.C,J1*%
X256776666Y-130072380D02*
X256776666Y-130786666D01*
X256729047Y-130929523D01*
X256633809Y-131024761D01*
X256490952Y-131072380D01*
X256395714Y-131072380D01*
X257776666Y-131072380D02*
X257205238Y-131072380D01*
X257490952Y-131072380D02*
X257490952Y-130072380D01*
X257395714Y-130215238D01*
X257300476Y-130310476D01*
X257205238Y-130358095D01*
X257231904Y-151777142D02*
X257184285Y-151824761D01*
X257041428Y-151872380D01*
X256946190Y-151872380D01*
X256803333Y-151824761D01*
X256708095Y-151729523D01*
X256660476Y-151634285D01*
X256612857Y-151443809D01*
X256612857Y-151300952D01*
X256660476Y-151110476D01*
X256708095Y-151015238D01*
X256803333Y-150920000D01*
X256946190Y-150872380D01*
X257041428Y-150872380D01*
X257184285Y-150920000D01*
X257231904Y-150967619D01*
X257803333Y-151872380D02*
X257708095Y-151824761D01*
X257660476Y-151777142D01*
X257612857Y-151681904D01*
X257612857Y-151396190D01*
X257660476Y-151300952D01*
X257708095Y-151253333D01*
X257803333Y-151205714D01*
X257946190Y-151205714D01*
X258041428Y-151253333D01*
X258089047Y-151300952D01*
X258136666Y-151396190D01*
X258136666Y-151681904D01*
X258089047Y-151777142D01*
X258041428Y-151824761D01*
X257946190Y-151872380D01*
X257803333Y-151872380D01*
X258565238Y-151205714D02*
X258565238Y-151872380D01*
X258565238Y-151300952D02*
X258612857Y-151253333D01*
X258708095Y-151205714D01*
X258850952Y-151205714D01*
X258946190Y-151253333D01*
X258993809Y-151348571D01*
X258993809Y-151872380D01*
X259470000Y-151205714D02*
X259470000Y-151872380D01*
X259470000Y-151300952D02*
X259517619Y-151253333D01*
X259612857Y-151205714D01*
X259755714Y-151205714D01*
X259850952Y-151253333D01*
X259898571Y-151348571D01*
X259898571Y-151872380D01*
X260136666Y-151967619D02*
X260898571Y-151967619D01*
X261327142Y-150872380D02*
X261422380Y-150872380D01*
X261517619Y-150920000D01*
X261565238Y-150967619D01*
X261612857Y-151062857D01*
X261660476Y-151253333D01*
X261660476Y-151491428D01*
X261612857Y-151681904D01*
X261565238Y-151777142D01*
X261517619Y-151824761D01*
X261422380Y-151872380D01*
X261327142Y-151872380D01*
X261231904Y-151824761D01*
X261184285Y-151777142D01*
X261136666Y-151681904D01*
X261089047Y-151491428D01*
X261089047Y-151253333D01*
X261136666Y-151062857D01*
X261184285Y-150967619D01*
X261231904Y-150920000D01*
X261327142Y-150872380D01*
X262612857Y-151872380D02*
X262041428Y-151872380D01*
X262327142Y-151872380D02*
X262327142Y-150872380D01*
X262231904Y-151015238D01*
X262136666Y-151110476D01*
X262041428Y-151158095D01*
X262946190Y-151872380D02*
X263470000Y-151205714D01*
X262946190Y-151205714D02*
X263470000Y-151872380D01*
X264041428Y-150872380D02*
X264136666Y-150872380D01*
X264231904Y-150920000D01*
X264279523Y-150967619D01*
X264327142Y-151062857D01*
X264374761Y-151253333D01*
X264374761Y-151491428D01*
X264327142Y-151681904D01*
X264279523Y-151777142D01*
X264231904Y-151824761D01*
X264136666Y-151872380D01*
X264041428Y-151872380D01*
X263946190Y-151824761D01*
X263898571Y-151777142D01*
X263850952Y-151681904D01*
X263803333Y-151491428D01*
X263803333Y-151253333D01*
X263850952Y-151062857D01*
X263898571Y-150967619D01*
X263946190Y-150920000D01*
X264041428Y-150872380D01*
X264946190Y-151300952D02*
X264850952Y-151253333D01*
X264803333Y-151205714D01*
X264755714Y-151110476D01*
X264755714Y-151062857D01*
X264803333Y-150967619D01*
X264850952Y-150920000D01*
X264946190Y-150872380D01*
X265136666Y-150872380D01*
X265231904Y-150920000D01*
X265279523Y-150967619D01*
X265327142Y-151062857D01*
X265327142Y-151110476D01*
X265279523Y-151205714D01*
X265231904Y-151253333D01*
X265136666Y-151300952D01*
X264946190Y-151300952D01*
X264850952Y-151348571D01*
X264803333Y-151396190D01*
X264755714Y-151491428D01*
X264755714Y-151681904D01*
X264803333Y-151777142D01*
X264850952Y-151824761D01*
X264946190Y-151872380D01*
X265136666Y-151872380D01*
X265231904Y-151824761D01*
X265279523Y-151777142D01*
X265327142Y-151681904D01*
X265327142Y-151491428D01*
X265279523Y-151396190D01*
X265231904Y-151348571D01*
X265136666Y-151300952D01*
X260422380Y-140533333D02*
X261136666Y-140533333D01*
X261279523Y-140580952D01*
X261374761Y-140676190D01*
X261422380Y-140819047D01*
X261422380Y-140914285D01*
X261422380Y-139533333D02*
X261422380Y-140104761D01*
X261422380Y-139819047D02*
X260422380Y-139819047D01*
X260565238Y-139914285D01*
X260660476Y-140009523D01*
X260708095Y-140104761D01*
%TD*%
M02*
