%TF.GenerationSoftware,KiCad,Pcbnew,(5.1.7)-1*%
%TF.CreationDate,2021-12-31T12:19:26+00:00*%
%TF.ProjectId,ControlMenu-PCB,436f6e74-726f-46c4-9d65-6e752d504342,rev?*%
%TF.SameCoordinates,Original*%
%TF.FileFunction,Copper,L2,Bot*%
%TF.FilePolarity,Positive*%
%FSLAX46Y46*%
G04 Gerber Fmt 4.6, Leading zero omitted, Abs format (unit mm)*
G04 Created by KiCad (PCBNEW (5.1.7)-1) date 2021-12-31 12:19:26*
%MOMM*%
%LPD*%
G01*
G04 APERTURE LIST*
%TA.AperFunction,ComponentPad*%
%ADD10C,5.600000*%
%TD*%
%TA.AperFunction,ComponentPad*%
%ADD11C,1.524000*%
%TD*%
%TA.AperFunction,ComponentPad*%
%ADD12O,1.700000X1.700000*%
%TD*%
%TA.AperFunction,ComponentPad*%
%ADD13R,1.700000X1.700000*%
%TD*%
%TA.AperFunction,Conductor*%
%ADD14C,0.250000*%
%TD*%
G04 APERTURE END LIST*
D10*
%TO.P,REF\u002A\u002A,1*%
%TO.N,/GND*%
X192090000Y-153880000D03*
%TD*%
%TO.P,REF\u002A\u002A,1*%
%TO.N,/GND*%
X267420000Y-96880000D03*
%TD*%
%TO.P,REF\u002A\u002A,1*%
%TO.N,/GND*%
X192090000Y-96880000D03*
%TD*%
%TO.P,REF\u002A\u002A,1*%
%TO.N,/GND*%
X267420000Y-153880000D03*
%TD*%
D11*
%TO.P,Enter1,5*%
%TO.N,Net-(Enter1-Pad5)*%
X244415000Y-138415000D03*
%TO.P,Enter1,6*%
%TO.N,Net-(Enter1-Pad6)*%
X246955000Y-138415000D03*
%TO.P,Enter1,7*%
%TO.N,N/C*%
X249495000Y-138415000D03*
%TO.P,Enter1,4*%
X241875000Y-138415000D03*
%TO.P,Enter1,8*%
X249495000Y-135875000D03*
X241875000Y-151115000D03*
%TO.P,Enter1,1*%
%TO.N,/GND*%
X249495000Y-143495000D03*
X241875000Y-143495000D03*
%TO.P,Enter1,3*%
%TO.N,Net-(Enter1-Pad3)*%
X249495000Y-148575000D03*
%TO.P,Enter1,2*%
%TO.N,/Enter*%
X241875000Y-148575000D03*
%TD*%
%TO.P,1s1,5*%
%TO.N,Net-(1s1-Pad5)*%
X231145000Y-138415000D03*
%TO.P,1s1,6*%
%TO.N,Net-(1s1-Pad6)*%
X233685000Y-138415000D03*
%TO.P,1s1,7*%
%TO.N,N/C*%
X236225000Y-138415000D03*
%TO.P,1s1,4*%
X228605000Y-138415000D03*
%TO.P,1s1,8*%
X236225000Y-135875000D03*
X228605000Y-151115000D03*
%TO.P,1s1,1*%
%TO.N,/GND*%
X236225000Y-143495000D03*
X228605000Y-143495000D03*
%TO.P,1s1,3*%
%TO.N,Net-(1s1-Pad3)*%
X236225000Y-148575000D03*
%TO.P,1s1,2*%
%TO.N,/1s*%
X228605000Y-148575000D03*
%TD*%
%TO.P,10s1,5*%
%TO.N,Net-(10s1-Pad5)*%
X217875000Y-138415000D03*
%TO.P,10s1,6*%
%TO.N,Net-(10s1-Pad6)*%
X220415000Y-138415000D03*
%TO.P,10s1,7*%
%TO.N,N/C*%
X222955000Y-138415000D03*
%TO.P,10s1,4*%
X215335000Y-138415000D03*
%TO.P,10s1,8*%
X222955000Y-135875000D03*
X215335000Y-151115000D03*
%TO.P,10s1,1*%
%TO.N,/GND*%
X222955000Y-143495000D03*
X215335000Y-143495000D03*
%TO.P,10s1,3*%
%TO.N,Net-(10s1-Pad3)*%
X222955000Y-148575000D03*
%TO.P,10s1,2*%
%TO.N,/10s*%
X215335000Y-148575000D03*
%TD*%
%TO.P,100s1,5*%
%TO.N,Net-(100s1-Pad5)*%
X204605000Y-138415000D03*
%TO.P,100s1,6*%
%TO.N,Net-(100s1-Pad6)*%
X207145000Y-138415000D03*
%TO.P,100s1,7*%
%TO.N,N/C*%
X209685000Y-138415000D03*
%TO.P,100s1,4*%
X202065000Y-138415000D03*
%TO.P,100s1,8*%
X209685000Y-135875000D03*
X202065000Y-151115000D03*
%TO.P,100s1,1*%
%TO.N,/GND*%
X209685000Y-143495000D03*
X202065000Y-143495000D03*
%TO.P,100s1,3*%
%TO.N,Net-(100s1-Pad3)*%
X209685000Y-148575000D03*
%TO.P,100s1,2*%
%TO.N,/100s*%
X202065000Y-148575000D03*
%TD*%
D12*
%TO.P,J2,4*%
%TO.N,/GND*%
X266320000Y-118800000D03*
%TO.P,J2,3*%
%TO.N,/SCL*%
X266320000Y-116260000D03*
%TO.P,J2,2*%
%TO.N,/SDA*%
X266320000Y-113720000D03*
D13*
%TO.P,J2,1*%
%TO.N,Net-(J1-Pad8)*%
X266320000Y-111180000D03*
%TD*%
D12*
%TO.P,J1,8*%
%TO.N,Net-(J1-Pad8)*%
X260970000Y-149090000D03*
%TO.P,J1,7*%
%TO.N,/100s*%
X260970000Y-146550000D03*
%TO.P,J1,6*%
%TO.N,/10s*%
X260970000Y-144010000D03*
%TO.P,J1,5*%
%TO.N,/1s*%
X260970000Y-141470000D03*
%TO.P,J1,4*%
%TO.N,/Enter*%
X260970000Y-138930000D03*
%TO.P,J1,3*%
%TO.N,/SDA*%
X260970000Y-136390000D03*
%TO.P,J1,2*%
%TO.N,/SCL*%
X260970000Y-133850000D03*
D13*
%TO.P,J1,1*%
%TO.N,/GND*%
X260970000Y-131310000D03*
%TD*%
D14*
%TO.N,/GND*%
X260970000Y-132020000D02*
X249495000Y-143495000D01*
X260970000Y-131310000D02*
X260970000Y-132020000D01*
X267495001Y-117624999D02*
X268405001Y-117624999D01*
X266320000Y-118800000D02*
X267495001Y-117624999D01*
X268405001Y-97865001D02*
X267420000Y-96880000D01*
X268405001Y-117624999D02*
X268405001Y-97865001D01*
X197595012Y-96880000D02*
X192090000Y-96880000D01*
X267420000Y-96880000D02*
X197595012Y-96880000D01*
X192090000Y-96880000D02*
X192090000Y-105860000D01*
X192090000Y-105860000D02*
X193230000Y-107000000D01*
X193230000Y-107000000D02*
X193230000Y-120730000D01*
X193230000Y-120730000D02*
X191600000Y-122360000D01*
X191600000Y-153390000D02*
X192090000Y-153880000D01*
X191600000Y-122360000D02*
X191600000Y-153390000D01*
X192090000Y-153880000D02*
X205940000Y-153880000D01*
X208589990Y-156529990D02*
X257920010Y-156529990D01*
X205940000Y-153880000D02*
X208589990Y-156529990D01*
X260570000Y-153880000D02*
X267420000Y-153880000D01*
X257920010Y-156529990D02*
X260570000Y-153880000D01*
%TD*%
M02*
