M48
; DRILL file {KiCad (5.1.7)-1} date 02/19/22 15:23:43
; FORMAT={-:-/ absolute / inch / decimal}
; #@! TF.CreationDate,2022-02-19T15:23:43+00:00
; #@! TF.GenerationSoftware,Kicad,Pcbnew,(5.1.7)-1
; #@! TF.FileFunction,Plated,1,2,PTH
FMAT,2
INCH
T1C0.0157
T2C0.0335
T3C0.0394
T4C0.0472
T5C0.1260
%
G90
G05
T1
X10.5313Y-4.7911
T2
X9.5226Y-5.4494
X9.6226Y-5.4494
X9.7226Y-5.4494
X9.8226Y-5.4494
X7.9553Y-5.4494
X8.0553Y-5.4494
X8.1553Y-5.4494
X8.2553Y-5.4494
X8.4778Y-5.4494
X8.5778Y-5.4494
X8.6778Y-5.4494
X8.7778Y-5.4494
X9.0002Y-5.4494
X9.1002Y-5.4494
X9.2002Y-5.4494
X9.3002Y-5.4494
T3
X9.5226Y-5.6494
X9.5226Y-5.8494
X9.8226Y-5.6494
X9.8226Y-5.8494
X7.9553Y-5.6494
X7.9553Y-5.8494
X8.2553Y-5.6494
X8.2553Y-5.8494
X8.4778Y-5.6494
X8.4778Y-5.8494
X8.7778Y-5.6494
X8.7778Y-5.8494
X10.2744Y-5.1697
X10.2744Y-5.2697
X10.2744Y-5.3697
X10.2744Y-5.4697
X10.2744Y-5.5697
X10.2744Y-5.6697
X10.2744Y-5.7697
X10.2744Y-5.8697
X9.0002Y-5.6494
X9.0002Y-5.8494
X9.3002Y-5.6494
X9.3002Y-5.8494
X10.485Y-4.3772
X10.485Y-4.4772
X10.485Y-4.5772
X10.485Y-4.6772
T4
X9.5226Y-5.9494
X9.8226Y-5.3494
X7.9553Y-5.9494
X8.2553Y-5.3494
X8.4778Y-5.9494
X8.7778Y-5.3494
X9.0002Y-5.9494
X9.3002Y-5.3494
T5
X10.5283Y-6.0583
X7.8185Y-5.1331
X7.5626Y-6.0583
X7.5626Y-3.8142
X10.5283Y-3.8142
X9.9051Y-4.0701
X9.9051Y-5.1331
T0
M30
